<svg id="Layer_1" data-name="Layer 1" xmlns="http://www.w3.org/2000/svg" viewBox="0 0 841.89 464.88"><defs><style>.cls-1{fill:#fde3d1;}.cls-2{fill:#fbc8a5;}</style></defs><title>Untitled-1</title><path class="cls-1" d="M841.89,414.47A324.49,324.49,0,0,1,692.39,329,324.36,324.36,0,0,1,596.76,98.15,327.43,327.43,0,0,1,611.72,0H0V464.88H841.89Z"/><path class="cls-1" d="M659.84,0a279.74,279.74,0,0,0-17.69,98.15c0,126.72,84.29,234.11,199.74,269.09V0Z"/><path class="cls-2" d="M642.15,98.15A279.74,279.74,0,0,1,659.84,0H611.72a327.43,327.43,0,0,0-15,98.15A324.36,324.36,0,0,0,692.39,329a324.49,324.49,0,0,0,149.5,85.45V367.24C726.44,332.26,642.15,224.87,642.15,98.15Z"/></svg>