<svg id="Layer_1" data-name="Layer 1" xmlns="http://www.w3.org/2000/svg" viewBox="0 0 566.93 566.93"><defs><style>.cls-1{fill:#f2bcc9;}.cls-2{fill:#dec2b9;}.cls-3{fill:#77aad5;}.cls-4{fill:#f8f4ed;}</style></defs><title>Untitled-1</title><circle class="cls-1" cx="299.02" cy="191.95" r="126.66"/><path class="cls-2" d="M184.93,270.45c.25.24.57.51.83.74l.54.47a30.17,30.17,0,0,1,3.49,3.2c4.1,4.58,8,9.34,11.87,14.13a7.89,7.89,0,0,1,1.44,3.78c.37,2.82-1.5,4.77-4,4.62.86.82,1.74,1.75,2.72,2.8.37.4,37.38,40,70.9,51,.17-13,.35-26.44.53-39.05-6.33-1.82-57.28-16.73-68.64-27.17C192.51,273.85,186.74,270.68,184.93,270.45Z"/><path d="M275.43,418.44l-13.09,85.82h26l-12.25-85.55Z"/><path class="cls-3" d="M350.7,434.89c-1.62,0-3.3,0-5-.11l-1.32,2.89c-5.24,11.44-9.37,20.48-9.73,22.8-.39,2.54.09,5.28.7,8.75a65.29,65.29,0,0,1,1.15,18.18c-1.2,14.08-3,14.2-3.61,14.24h-.08c-1,0-1.46-1.45-1.71-2.55a46.05,46.05,0,0,1-.64-7.7c0-1.42-.09-3.09-.22-4-.41.93-1,2.67-1.49,4.15-1.85,5.53-3.18,9.18-4.8,9.45a1.33,1.33,0,0,1-1.32-.6c-1.31-1.69-.9-6-.5-10.19.23-2.35.56-5.89.08-6.36-.75.19-2.81,4.51-4,7.09-2.56,5.38-3.83,7.74-5.18,7.74h0a1.27,1.27,0,0,1-1.15-.85c-1-2.14.07-6,1.15-9.75.59-2.05,1.57-5.48,1-5.82-.73-.25-3.87,2.75-5.56,4.37-2.9,2.76-4.72,4.47-5.95,4.38a1.09,1.09,0,0,1-.8-.4c-1-1.23.58-4,4.46-10.08,1.81-2.83,3.68-5.76,4.1-7.23.09-.31,0-.42,0-.46-.51-.66-3.13-.58-5-.52-2.82.08-4.58.09-5.22-.83a1.32,1.32,0,0,1-.11-1.3c.72-1.88,4.1-3.67,7.68-5.56,2.84-1.5,5.77-3.05,7.15-4.54,2.21-2.39,6.09-14.67,9-27.61a245.31,245.31,0,0,1-45.81-13L290,504.25h72.79c5.43-11.2,19.42-43,19.59-73.94A102.16,102.16,0,0,1,350.7,434.89Z"/><path class="cls-2" d="M186.57,284.82c0-.43-.09-.89-.17-1.39a7.55,7.55,0,0,0-.92-3.21l-.09,0a5.69,5.69,0,0,0-.54.79c-.32.57-1,1.77-2,1.54-1.2-.28-1.31-2.1-1.57-6.08a5,5,0,0,0-.12-.9,14,14,0,0,0-1.44,1.76c-.36.49-.7.94-1,1.24a1,1,0,0,1-1.18.32c-.72-.33-.63-1.09-.44-2.75.11-.92.43-3.72-.06-4.08-2,.4-2.63,5.61-2.6,6.65,0,0,2.05,10.06,10.6,12a47.21,47.21,0,0,1,6.68,1.93q-1.54-1.84-3.05-3.7C186.91,288.1,186.76,286.6,186.57,284.82Z"/><path class="cls-4" d="M352.06,201.17a56.61,56.61,0,0,0-38.34-15.33c-.9,4-6.14,25.29-16.87,28.06a23.9,23.9,0,0,1-5.91.84c-3.89,0-5.95-1.38-7-2.58a191,191,0,0,0-8.2,49.92c-.65,27.43-2.06,144.72-2.17,153.88,19.3,7.76,36,12.36,50.47,14.85.83-3.8,1.56-7.62,2.14-11.23,2.46-15.38.06-99.58-.18-107.41a50.55,50.55,0,0,1-5.23-3.13l-.25-.17-.08-.29c-.57-2.06-13.89-50.7-9.82-74.17v-.07c.05-.19,5.5-19.42,30-17.76s35.18,89.2,35.62,92.93l.06.52-.45.27a42.93,42.93,0,0,1-4.78,2.35c.75,5.12,5.4,39.84-2.14,65.35-4.58,15.51-14.52,37.66-22.51,55.16,33.59,1.07,49.34-10.56,51.7-12.5C396.64,410,369.43,217.46,352.06,201.17Z"/><path class="cls-4" d="M312.22,234.74c-3.83,22.21,8.6,69,9.72,73.13a46.65,46.65,0,0,0,31.39,7.76c0-4.67,0-28.91-5.6-39.49l-.43,0a23.9,23.9,0,0,1-6.8-1l.38-1.17a23.55,23.55,0,0,0,6.12,1,12.43,12.43,0,0,0-.9-1.25H346a37.65,37.65,0,0,1-12.16-2.24l.44-1.14a38,38,0,0,0,10.85,2.11c-3.21-4.26-3-6.77-2.61-10.42.39-3.85.91-9.11-2.51-19.6-5.7-17.43-10.78-21.78-12.29-22.74A24.25,24.25,0,0,0,312.22,234.74Z"/><path class="cls-4" d="M374.56,309.17c-.94-7.46-11.82-89.45-34-91a34.39,34.39,0,0,0-11.36,1c2.31,1.91,7,7.43,12,22.79,3.51,10.73,3,16.14,2.57,20.1-.37,3.68-.59,6,3,10.31a17.4,17.4,0,0,0,8.3-2.08l.61,1.06a18.11,18.11,0,0,1-8,2.22c.29.4.57.82.83,1.27a12.65,12.65,0,0,0,4.14-.91l.48,1.13a13.57,13.57,0,0,1-4,1c5.51,11.11,5.55,34.36,5.49,39.44A58,58,0,0,0,374.56,309.17Z"/><path class="cls-2" d="M284.59,210.25c.47,1,2.83,4.39,11.85,2.06,9.71-2.5,14.84-23.14,15.69-26.86-2.49-1.58-6.9-5.92-9-8.08a43.58,43.58,0,0,0-5.63-3c-4.27-1.7-4.41-8.24-5.12-11.58s-7.08-3.92-8.78-3.47c0,0-2.29.34-1.67,3.13s2.35,6.06.92,5.79-9.38.48-12.93-5.38-5.66-3.88-7.84-1.77a17.42,17.42,0,0,1-8.44,4.15c.21,1.72.92,6.54,2.55,9.41A8.5,8.5,0,0,1,257,180c-.14,1.55-.18,2.48.69,3.33s1.84.47,3.32-.11c1-.38,1.89-.75,2.68-.33a1.69,1.69,0,0,1,.83,1.19c.11.5.2,1,.28,1.49.34,2.07.58,2.86,1.68,2.91,1.95.09,2,1.55,2,2.26s.05.8.49.89a5.75,5.75,0,0,1,2.84,1.58,5.35,5.35,0,0,0,2.26,1.36c.85.23,3.36-.33,5.81-2a12.46,12.46,0,0,0,5.48-9.11c.75-8.18-1.66-10.37-1.68-10.39l1-1.27c.32.25,3.11,2.75,2.28,11.81a13.59,13.59,0,0,1-4.08,8.54,19.62,19.62,0,0,1,3.09,8.93A19.11,19.11,0,0,1,284.59,210.25Zm-21.3-37.11c-.33.21-1.08-.37-1.67-1.3s-.8-1.85-.47-2.06,1.08.37,1.67,1.3S263.63,172.93,263.29,173.14Z"/><path class="cls-2" d="M369.92,313.14a59,59,0,0,1-21.77,4.38,47.69,47.69,0,0,1-20.9-4.73c.34,11.42,2.59,91.65.14,107s-8.39,37.39-11.8,41.08c-1.52,1.64-4.55,3.24-7.47,4.79-3.08,1.63-6.56,3.47-7.11,4.92a.36.36,0,0,0,0,.16c.27.42,2.82.34,4.19.3,2.65-.08,5.15-.15,6,1a1.66,1.66,0,0,1,.24,1.55c-.47,1.64-2.31,4.51-4.25,7.55s-5,7.8-4.54,8.65c.55,0,3.33-2.55,4.95-4.1,3.5-3.34,5.72-5.35,7-4.52s.58,3.5-.49,7.21c-.92,3.19-2.06,7.16-1.22,8.88a.49.49,0,0,0,.12.18c.73-.18,2.79-4.49,4-7.06,2.23-4.68,3.66-7.56,5-7.75a1.13,1.13,0,0,1,1,.3c.87.83.69,3.22.29,7.37-.34,3.57-.77,8,.24,9.32a.43.43,0,0,0,.15.14c1-.09,3-6.08,3.84-8.63,1-3.11,1.61-4.76,2.16-5.27a.85.85,0,0,1,.94-.21c.79.33.88,1.73,1,5.72a45,45,0,0,0,.61,7.47,4.52,4.52,0,0,0,.53,1.51c.34-.43,1.56-2.65,2.45-13a64.17,64.17,0,0,0-1.13-17.86c-.6-3.44-1.12-6.41-.7-9.15.38-2.48,4.35-11.14,9.83-23.12,8.25-18,19.55-42.71,24.51-59.5C375.1,352.84,370.77,319.14,369.92,313.14Z"/><polygon points="260.63 504.64 262.25 504.89 262.34 504.25 260.69 504.25 260.63 504.64"/><path d="M399.55,421.6l.31-.29-.06-.42C398.65,412.58,371.36,217,353.18,200a58.27,58.27,0,0,0-39.92-15.76c-2-1.1-5.89-4.89-8.25-7.25,1.59-2.59,4.26-13,4.71-19.3.51-7.15,8.27-5.41,0-26.15s-23-4.15-28.8-10.08-13.69,1.5-20,2.52-3.51,10.18-8,13.14-13.59-.2-17.43,6.81,1.67,18.56,9.81,20.91a17.72,17.72,0,0,0,6.69.63c.22,1.84,1,6.85,2.75,10a6.94,6.94,0,0,1,.66,4.46c-.14,1.57-.29,3.2,1.18,4.64,1.62,1.59,3.69.78,5.06.24.45-.18,1.14-.45,1.32-.3.11.47.18.94.26,1.4.31,1.86.69,4.17,3.23,4.28a.83.83,0,0,1,.38.07,2,2,0,0,1,.07.6,2.19,2.19,0,0,0,1.81,2.45,4.16,4.16,0,0,1,2.08,1.2,6.86,6.86,0,0,0,2.9,1.71,3.44,3.44,0,0,0,.92.11,12.37,12.37,0,0,0,6.26-2.36c.27-.19.57-.41.88-.66a18.25,18.25,0,0,1,2.69,8,17.55,17.55,0,0,1-1.47,8.68l-.12.27v0A190.77,190.77,0,0,0,274.11,262c-.21,8.92-.5,27.33-.8,48.44-7.64-2.23-56.84-16.82-67.56-26.68-6.6-6.07-18.19-16.07-21.79-14.88a1.73,1.73,0,0,0-.58.32c-2.56-2.27-4.67-4.87-4.84-9-1.54,0-3.17.43-3.67-.14-6.27-7-12.39-14.1-18.6-21.25,1.47-2.29,2.92-4.27,4.08-6.42,2.7-5,2.57-6.93-1.55-10.86-6-5.69-12.18-11.13-18.35-16.62-1.88-1.67-4.25-2.35-6.25-.71-4.87,4-9.62,8.15-14.19,12.48-1.53,1.45-1.66,3.55-.23,5.61,5,7.15,9.77,14.42,14.77,21.55,2.65,3.78,3.78,4.18,8,2.86,3.16-1,6.17-2.41,9.06-3.56l18.58,21.4-1.54,4.29a11,11,0,0,1,6.23,2.65c-2,2.29-2.06,7.3-2,7.39.09.46,2.25,11.21,11.86,13.38,9.2,2.08,11.4,4.14,15.92,9,1.55,1.67,38,40.75,72.08,51.65-.44,33.49-.79,62.94-.8,63.55v.56l.52.21c.77.31,1.51.59,2.27.89l-.87-.13-13.15,86.23h1.65l13.09-85.82.69.27,12.25,85.55H290l-12.15-84.86a245.31,245.31,0,0,0,45.81,13c-2.91,12.94-6.78,25.22-9,27.61-1.38,1.49-4.31,3-7.15,4.54-3.58,1.9-7,3.69-7.68,5.56a1.32,1.32,0,0,0,.11,1.3c.65.92,2.41.9,5.22.83,1.91-.06,4.53-.14,5,.52,0,0,.12.15,0,.46-.42,1.47-2.29,4.4-4.1,7.23-3.88,6.07-5.47,8.86-4.46,10.08a1.09,1.09,0,0,0,.8.4c1.23.09,3-1.62,5.95-4.38,1.69-1.62,4.83-4.61,5.56-4.37.55.34-.43,3.77-1,5.82-1.08,3.74-2.19,7.62-1.15,9.75a1.27,1.27,0,0,0,1.15.85h0c1.36,0,2.62-2.36,5.18-7.74,1.23-2.58,3.29-6.91,4-7.09.49.47.15,4-.08,6.36-.4,4.18-.82,8.5.5,10.19a1.33,1.33,0,0,0,1.32.6c1.62-.27,3-3.92,4.8-9.45.49-1.48,1.08-3.22,1.49-4.15.13.95.18,2.62.22,4a46.05,46.05,0,0,0,.64,7.7c.25,1.1.69,2.55,1.71,2.55h.08c.6,0,2.41-.16,3.61-14.24a65.29,65.29,0,0,0-1.15-18.18c-.61-3.47-1.09-6.21-.7-8.75.36-2.31,4.5-11.35,9.73-22.8l1.32-2.89c1.71.07,3.39.11,5,.11a102.16,102.16,0,0,0,31.7-4.58c-.17,30.92-14.16,62.74-19.59,73.94h1.81c5.74-12,19.41-43.7,19.41-74.5C394.57,426.07,399.43,421.72,399.55,421.6ZM126.2,219.24c3.7,2.33,11.07,11.94,13.75,18.56C133,232,128.45,225.59,126.2,219.24Zm5.06-4.42c4.6,2.68,12.68,12,14.4,16.58C141.31,229.13,133.28,219.89,131.26,214.82Zm5.24-4.3c5.73,4.59,12,8.56,16.06,15.26C148.08,224.87,141.66,219,136.49,210.53Zm48.59,80.16c-8.55-1.93-10.59-12-10.6-12,0-1,.55-6.25,2.6-6.65.49.36.16,3.16.06,4.08-.19,1.66-.28,2.42.44,2.75a1,1,0,0,0,1.18-.32c.28-.3.61-.75,1-1.24a14,14,0,0,1,1.44-1.76,5,5,0,0,1,.12.9c.25,4,.37,5.81,1.57,6.08,1,.23,1.68-1,2-1.54a5.69,5.69,0,0,1,.54-.79l.09,0a7.55,7.55,0,0,1,.92,3.21c.07.5.12,1,.17,1.39.18,1.78.34,3.28,2.13,4.1q1.51,1.86,3.05,3.7A47.21,47.21,0,0,0,185.08,290.69Zm87.67,60.54c-33.52-11-70.53-50.64-70.9-51-1-1.05-1.86-2-2.72-2.8,2.47.14,4.35-1.8,4-4.62a7.89,7.89,0,0,0-1.44-3.78c-3.86-4.79-7.77-9.55-11.87-14.13a30.17,30.17,0,0,0-3.49-3.2l-.54-.47c-.27-.23-.59-.5-.83-.74,1.82.23,7.59,3.4,19.71,14.55,11.36,10.44,62.31,25.35,68.64,27.17C273.1,324.79,272.92,338.27,272.75,351.23ZM283,192.17a13.59,13.59,0,0,0,4.08-8.54c.83-9.07-2-11.56-2.28-11.81l-1,1.27s2.44,2.21,1.68,10.39a12.46,12.46,0,0,1-5.48,9.11c-2.45,1.69-5,2.25-5.81,2a5.35,5.35,0,0,1-2.26-1.36,5.75,5.75,0,0,0-2.84-1.58c-.44-.09-.47-.15-.49-.89s-.06-2.17-2-2.26c-1.11,0-1.34-.83-1.68-2.91-.08-.49-.17-1-.28-1.49a1.69,1.69,0,0,0-.83-1.19c-.79-.41-1.7-.05-2.68.33-1.48.58-2.52.91-3.32.11s-.83-1.78-.69-3.33a8.5,8.5,0,0,0-.87-5.41c-1.63-2.87-2.34-7.69-2.55-9.41a17.42,17.42,0,0,0,8.44-4.15c2.18-2.11,4.29-4.09,7.84,1.77s11.5,5.11,12.93,5.38-.31-3-.92-5.79,1.67-3.13,1.67-3.13c1.7-.44,8.07.14,8.78,3.47s.85,9.87,5.12,11.58a43.58,43.58,0,0,1,5.63,3c2.12,2.15,6.53,6.5,9,8.08-.85,3.72-6,24.36-15.69,26.86-9,2.33-11.38-1.09-11.85-2.06a19.11,19.11,0,0,0,1.46-9.16A19.62,19.62,0,0,0,283,192.17Zm60.29,245c-5.48,12-9.45,20.63-9.83,23.12-.43,2.74.09,5.71.7,9.15a64.17,64.17,0,0,1,1.13,17.86c-.88,10.39-2.1,12.61-2.45,13a4.52,4.52,0,0,1-.53-1.51,45,45,0,0,1-.61-7.47c-.12-4-.2-5.39-1-5.72a.85.85,0,0,0-.94.21c-.55.51-1.12,2.16-2.16,5.27-.86,2.56-2.86,8.55-3.84,8.63a.43.43,0,0,1-.15-.14c-1-1.31-.59-5.75-.24-9.32.4-4.15.58-6.53-.29-7.37a1.13,1.13,0,0,0-1-.3c-1.38.2-2.81,3.07-5,7.75-1.23,2.57-3.28,6.88-4,7.06a.49.49,0,0,1-.12-.18c-.83-1.72.31-5.69,1.22-8.88,1.06-3.7,1.83-6.38.49-7.21s-3.55,1.19-7,4.52c-1.62,1.55-4.4,4.13-4.95,4.1-.44-.85,2.68-5.73,4.54-8.65s3.78-5.91,4.25-7.55a1.66,1.66,0,0,0-.24-1.55c-.9-1.15-3.4-1.07-6-1-1.37,0-3.92.12-4.19-.3a.36.36,0,0,1,0-.16c.55-1.44,4-3.29,7.11-4.92,2.93-1.55,5.95-3.15,7.47-4.79,3.41-3.68,9.34-25.66,11.8-41.08s.2-95.56-.14-107a47.69,47.69,0,0,0,20.9,4.73,59,59,0,0,0,21.77-4.38c.86,6,5.19,39.7-2.15,64.52C362.8,394.44,351.5,419.13,343.26,437.15ZM349.07,276a13.57,13.57,0,0,0,4-1l-.48-1.13a12.65,12.65,0,0,1-4.14.91c-.26-.45-.54-.87-.83-1.27a18.11,18.11,0,0,0,8-2.22l-.61-1.06a17.4,17.4,0,0,1-8.3,2.08c-3.54-4.35-3.32-6.62-3-10.31.4-4,.94-9.37-2.57-20.1-5-15.37-9.69-20.88-12-22.79a34.39,34.39,0,0,1,11.36-1c22.22,1.51,33.1,83.5,34,91a58,58,0,0,1-20,6.32C354.62,310.41,354.59,287.16,349.07,276ZM340,242.37c3.43,10.48,2.9,15.75,2.51,19.6-.37,3.64-.61,6.16,2.61,10.42a38,38,0,0,1-10.85-2.11l-.44,1.14A37.65,37.65,0,0,0,346,273.66h.14a12.43,12.43,0,0,1,.9,1.25,23.55,23.55,0,0,1-6.12-1l-.38,1.17a23.9,23.9,0,0,0,6.8,1l.43,0c5.61,10.58,5.65,34.82,5.6,39.49a46.65,46.65,0,0,1-31.39-7.76c-1.12-4.13-13.54-50.92-9.72-73.13a24.25,24.25,0,0,1,15.48-15.1C329.2,220.59,334.29,224.94,340,242.37Zm6.44,190.8c8-17.5,17.93-39.65,22.51-55.16,7.54-25.51,2.89-60.23,2.14-65.35a42.93,42.93,0,0,0,4.78-2.35l.45-.27-.06-.52c-.44-3.73-11.12-91.27-35.62-92.93s-29.94,17.57-30,17.76v.07c-4.07,23.47,9.25,72.11,9.82,74.17l.08.29.25.17a50.55,50.55,0,0,0,5.23,3.13c.23,7.83,2.63,92,.18,107.41-.58,3.61-1.31,7.44-2.14,11.23-14.43-2.49-31.16-7.09-50.47-14.85.11-9.16,1.52-126.45,2.17-153.88a191,191,0,0,1,8.2-49.92c1.05,1.19,3.1,2.58,7,2.58a23.9,23.9,0,0,0,5.91-.84c10.73-2.76,16-24,16.87-28.06a56.61,56.61,0,0,1,38.34,15.33c17.36,16.29,44.57,208.87,46.06,219.5C395.76,422.61,380,434.24,346.43,433.17Z"/><ellipse cx="262.22" cy="171.46" rx="0.72" ry="1.99" transform="translate(-51.06 167.63) rotate(-32.48)"/></svg>