<svg id="Layer_1" data-name="Layer 1" xmlns="http://www.w3.org/2000/svg" xmlns:xlink="http://www.w3.org/1999/xlink" viewBox="0 0 603.07 606"><defs><style>.cls-1{fill:none;}.cls-2{clip-path:url(#clip-path);}.cls-3{fill:#fcdace;}.cls-4{fill:#9ab5ca;}.cls-5{fill:#34414a;}.cls-6{fill:#57342a;}.cls-7{fill:#da6e44;}.cls-8{fill:#79a9c8;}.cls-9{fill:#173a40;}.cls-10{fill:#dc9ec6;}.cls-11{fill:#dfc2ba;}.cls-12{fill:#a0524b;}.cls-13{fill:#c4494f;}.cls-14{fill:#fff;}.cls-15{font-size:23.57px;fill:#231f20;font-family:DINPro-Medium, DINPro;}.cls-16{letter-spacing:-0.01em;}</style><clipPath id="clip-path"><rect class="cls-1" x="42.92" y="51.75" width="510.01" height="510.01" rx="13.28" ry="13.28"/></clipPath></defs><title>Untitled-1</title><g class="cls-2"><path class="cls-3" d="M514.29,154.39c-26.59-.3-37.22,26-42.91,40.21-2.33,5.81-3.36,8.21-4.78,8.3,3.13,4.68,8.85,9.29,19.27,10.77a2.33,2.33,0,0,0-.71-.43l-.92-.3.63-.73c.3-.34,7.36-8.3,12.09-10.09A30,30,0,0,0,501.3,200a48,48,0,0,1,8.3-3.69c7.15-2.53,9.5-10.9,9.33-17.3-.11-4.4-7.52-8.07-11.5-10a15.35,15.35,0,0,1-2.69-1.49,1.16,1.16,0,0,1-.32-1.31c.78-2.18,8.25-5.47,18.63-5.88,7.27-.29,13.26-2.35,13.24-3.29C536.31,157,536,154.68,514.29,154.39Z"/><path class="cls-3" d="M460.62,425.28a36,36,0,0,1-2.36-6.73c-1.71-8.11-10.17-11.59-14.41-12.3a8.34,8.34,0,0,1-6.06-5c-7,1.67-16.12,5.5-22.24,14.25,1.17.81,2.32,2.3,3.41,5.21a71.59,71.59,0,0,1,2.52,9.56c2,9.34,4.13,19,12.73,19.89,7.77.8,11.9-3,16.28-6.93a37,37,0,0,1,8.11-6.08C464.45,434.22,462.85,430.47,460.62,425.28Z"/><path class="cls-4" d="M437.79,401.29a12.07,12.07,0,0,1-.83-2.24l-39.2-57c.26,17.19.19,38.94-.14,56.73,1.35.57,5.33,2.85,9,10.81,1.94,4.26,3.77,4.54,5.7,4.83a7.22,7.22,0,0,1,3.27,1.09C421.67,406.8,430.84,403,437.79,401.29Z"/><path class="cls-5" d="M300.33,567.73c.35,10,1.32,37.9,1.14,42.69-.16,4.4-18.15,39.79-27.57,58h38.33c.59-8.67,1.93-28.82,2.89-48.06C315.51,612.7,312.71,597.55,300.33,567.73Z"/><path class="cls-5" d="M373.91,559.38c-4.8-46.76-10.56-87.43-11-90.5q-7,.61-13.65.6c-36.29,0-65.76-12.62-83.48-22.67.87,8.21,6.32,58,11.51,68.37l.73,1.45C310.77,581.9,317,609.11,316.4,620.45c-1,19.18-2.29,39.27-2.89,48h50.6C367.49,653.21,378.13,600.46,373.91,559.38Z"/><path class="cls-6" d="M310.25,161.49c.82-2.3,2.26-3.73,4-4s5.07.55,9.44,6.28c1.1,1.44,2.69,3,4.08,2.38,2.25-1,3.52-7.34,2.47-12.26-1.65-7.73,5.39-12.92,8.78-15.42,3.67-2.7,1.49-12.25,1.46-12.35l-.19-.8.82,0a215,215,0,0,0,25.94-1.49,34.76,34.76,0,0,0,12.35-3.63c3.07-1.48,5.1-2.46,9.54-.37,6.14,2.9,7.55,9.35,7.32,15.82a29.43,29.43,0,0,0,2.82-21.91c-3.49-13.94-23-30.22-38-31.67s-41.7,9.13-51.93,20.59S297.31,137,298,148.6c.56,9.43,6,28,16.24,30.75-.29-2.42-.75-4.18-1.28-4.71C311.33,173,308.45,166.57,310.25,161.49Z"/><path class="cls-7" d="M375.18,559.25c-4.81-46.85-10.31-87.56-10.71-90.52,4.42-.43,8.91-1.05,13.48-1.91l.24,0,.15-.19c.65-.84,16-20.8,18-36.79.55-4.49,1-15.74,1.26-29.58,1.47.8,4.76,3.22,7.82,9.93,2.22,4.89,4.59,5.25,6.68,5.57s3.84.59,5.68,5.48c2.22,5.91,3,14.49,5.91,21.9a13.19,13.19,0,0,0,11.11,8.43q.8.06,1.55.06c6.91,0,10.86-3.59,15-7.37a36.06,36.06,0,0,1,7.83-5.89c6.92-3.51,4.83-8.39,2.62-13.56a35,35,0,0,1-2.29-6.49c-1.85-8.77-10.58-12.49-15.45-13.3-4.62-.77-5.87-6.28-5.88-6.33l0-.12-40.43-58.77c-.21-12.12-.6-21.64-1.2-25.36,14.48,3.38,27.6,5.9,34.56,5.89h.29c17.64-.18,28.44-22.43,35.59-37.15,1.34-2.76,2.5-5.15,3.57-7.12,4.36-8,10.35-27.08,17.33-55.06l.16-.65c1.25-5-.52-7.06-1.67-7.85,1.75-1.9,7.32-7.73,11-9.14a31.56,31.56,0,0,0,4.51-2.15,46.66,46.66,0,0,1,8.11-3.61c7.8-2.76,10.36-11.71,10.18-18.54-.13-5.17-8-9.07-12.21-11.16-1.1-.54-2.13-1.06-2.37-1.2.15-1.09,6.58-4.63,17.49-5.06,4.91-.19,14.51-1.78,14.47-4.58,0-1,0-3.59-23.29-3.89h-.53c-27.12,0-38.23,27.68-43.59,41-1.38,3.44-3,7.35-3.67,7.51a22.28,22.28,0,0,0-7,.94l-.23.09-.12.22c-.09.16-8.67,16.34-14,22.93-1.76,2.17-4.15,6-6.92,10.43-5.72,9.15-12.84,20.54-17.41,22-3.72,1.19-26.06-6.73-45.83-14.32-.8-1.6-6.08-11.93-13-19.88-6.41-7.37-3.71-17.28-3-19.39,7,.43,22.28-.47,30.94-15,7.78-13.06,6.6-24.73,5.65-34.1-.45-4.44-.84-8.27-.24-11.55.33-1.78.62-3.72.81-5.7,1-1.28,7.77-10.76,4.24-24.86C396.71,98.8,377,82.33,361.26,80.81s-42.37,9.09-53,21-12.23,35-11.52,46.86c.61,10.21,6.4,29.57,17.65,32a57.62,57.62,0,0,1-.11,10.47c-.54,5.16-10.21,9.77-19.56,14.22-8.36,4-17,8.1-20.23,13-16.36,24.94-16.14,68.71-16,103.88.05,10.62.1,20.64-.35,28.69-1.9,33.49-10.78,82.62-10.87,83.11l-.07.36.28.24A130.81,130.81,0,0,0,264.41,446c.47,4.54,6.12,58.48,11.74,69.72l.73,1.45c9.39,18.71,16.57,34.25,22,47.19.07,1.9,1.47,40.41,1.26,46-.14,3.82-16.06,35.51-27.73,58.08h1.43c9.42-18.24,27.41-53.63,27.57-58,.18-4.78-.78-32.73-1.14-42.69,12.38,29.83,15.18,45,14.79,52.66-1,19.24-2.3,39.39-2.89,48.06h1.28c.6-8.73,1.93-28.81,2.89-48,.57-11.34-5.63-38.55-38.38-103.82l-.73-1.45c-5.2-10.4-10.64-60.16-11.51-68.37,17.72,10,47.19,22.67,83.48,22.67q6.68,0,13.65-.6c.43,3.06,6.19,43.74,11,90.5,4.22,41.08-6.42,93.84-9.79,109.07h1.31C368.88,652.78,379.4,600.25,375.18,559.25Zm22.58-217.18,39.2,57c.23.93,1.77,6.34,6.89,7.19,4.24.71,12.7,4.18,14.41,12.3a36,36,0,0,0,2.36,6.73c2.22,5.19,3.83,8.94-2,11.91a37,37,0,0,0-8.11,6.08c-4.38,4-8.51,7.73-16.28,6.93-8.6-.89-10.7-10.55-12.73-19.89a71.59,71.59,0,0,0-2.52-9.56c-2.1-5.6-4.43-6-6.68-6.3-1.94-.29-3.77-.57-5.7-4.83-3.62-8-7.61-10.24-9-10.81C398,381,398,359.26,397.76,342.07ZM298,148.6c-.69-11.63.88-34.38,11.2-45.93s36.94-22,51.93-20.59,34.51,17.73,38,31.67a29.43,29.43,0,0,1-2.82,21.91c.23-6.47-1.18-12.92-7.32-15.82-4.45-2.1-6.47-1.12-9.54.37a34.76,34.76,0,0,1-12.35,3.63,215,215,0,0,1-25.94,1.49l-.82,0,.19.8c0,.09,2.2,9.65-1.46,12.35-3.39,2.49-10.43,7.69-8.78,15.42,1.05,4.92-.22,11.22-2.47,12.26-1.39.63-3-.94-4.08-2.38-4.37-5.73-7.55-6.58-9.44-6.28s-3.22,1.7-4,4c-1.81,5.08,1.08,11.51,2.71,13.14.53.53,1,2.29,1.28,4.71C304,176.65,298.56,158,298,148.6ZM248.63,433.94c.83-4.62,9-50.87,10.82-82.9.46-8.08.41-18.13.35-28.77-.18-35-.4-78.55,15.75-103.17,3-4.62,11.51-8.66,19.71-12.56,10.11-4.82,19.67-9.36,20.28-15.24a59.15,59.15,0,0,0,0-11.59v-.11h0c-.31-2.82-.87-5-1.7-5.88-1.41-1.41-4-7.3-2.41-11.81.46-1.3,1.37-2.91,3-3.17,2.19-.33,5.11,1.72,8.23,5.79,2.5,3.28,4.44,3.31,5.63,2.77,3.08-1.42,4.26-8.65,3.18-13.69-1.3-6.08,3.21-10.38,8.29-14.12,3.69-2.72,2.59-10.37,2.11-12.88a212.32,212.32,0,0,0,25.31-1.5A35.88,35.88,0,0,0,380,121.36c3-1.46,4.55-2.2,8.44-.36,6.24,2.94,8,10,5.62,22.77-.63,3.45-.24,7.37.22,11.91.93,9.19,2.09,20.62-5.47,33.32-10.93,18.36-33,14-33.36,14-.08,0-7.74-.21-18-7.66l-.75,1c10.6,7.71,18.35,7.85,18.59,7.89,0,0,.91.18,2.35.32-.85,2.8-3.2,12.77,3.37,20.33a102.63,102.63,0,0,1,12.18,18.35c-9.21-3.56-17.71-7-23.29-9.28l-.49,1.18c2.64,1.09,64.62,26.63,71.79,24.34,5-1.6,12-12.72,18.11-22.54,2.75-4.39,5.12-8.19,6.83-10.3,5.13-6.34,12.91-20.82,14-22.91a22.76,22.76,0,0,1,6.33-.8c1.46,0,2.48-2.4,4.86-8.31,5.69-14.18,16.32-40.51,42.91-40.21,21.74.29,22,2.61,22,2.63,0,.93-6,3-13.24,3.29-10.39.41-17.85,3.7-18.63,5.88a1.16,1.16,0,0,0,.32,1.31,15.35,15.35,0,0,0,2.69,1.49c4,2,11.38,5.65,11.5,10,.16,6.4-2.18,14.77-9.33,17.3a48,48,0,0,0-8.3,3.69,30,30,0,0,1-4.35,2.07c-4.73,1.8-11.79,9.76-12.09,10.09l-.63.73.92.3c.13,0,3.07,1.08,1.65,6.75l-.16.65c-8.79,35.23-14.21,49.23-17.22,54.76-1.08,2-2.25,4.4-3.6,7.17-7,14.44-17.6,36.26-34.45,36.43h-.28c-20.58,0-98.15-23-99-23.24-.25-.05-25.43-5.57-34.81-21.24-3.74-6.24-4.49-13.32-2.25-21l-1.23-.36c-2.35,8.08-1.54,15.5,2.38,22.06,9.66,16.14,34.58,21.61,35.59,21.82,2.1.62,35,10.38,63.38,17.07,1.94,9.67,1.9,99.34-.11,115.56-1.83,14.82-16,33.86-17.59,36C306,478.81,253,437.45,248.63,433.94Z"/><path class="cls-3" d="M365.26,230.27c-1.31-1.83-2.73-3.67-4.23-5.39-6.58-7.55-4.22-17.53-3.37-20.33-1.44-.14-2.31-.31-2.35-.32-.24,0-8-.19-18.59-7.89l.75-1c10.24,7.45,17.9,7.66,18,7.66.34.06,22.42,4.38,33.36-14,7.56-12.69,6.4-24.13,5.47-33.32-.46-4.54-.85-8.45-.22-11.91,2.35-12.8.62-19.83-5.62-22.77-3.89-1.84-5.41-1.1-8.44.36a35.88,35.88,0,0,1-12.76,3.75,212.32,212.32,0,0,1-25.31,1.5c.48,2.51,1.57,10.16-2.11,12.88-5.07,3.74-9.59,8-8.29,14.12,1.08,5-.1,12.27-3.18,13.69-1.19.55-3.13.51-5.63-2.77-3.11-4.08-6-6.12-8.23-5.79-1.67.26-2.57,1.87-3,3.17-1.6,4.5,1,10.39,2.41,11.81.83.83,1.4,3.07,1.7,5.88h0v.11a59.15,59.15,0,0,1,0,11.59c-.37,3.58-4.07,6.67-9.19,9.62C315.89,209.94,343.19,233.44,365.26,230.27Z"/><ellipse class="cls-6" cx="376.9" cy="146.67" rx="2.86" ry="6.61"/><ellipse class="cls-6" cx="360.25" cy="146.67" rx="2.86" ry="6.61"/><path class="cls-1" d="M308.07,287.06a76.75,76.75,0,0,0,23.72,10c1.54.46,19.62,5.82,40.33,11.28.7-.33,1.06-.69,1-1.08-8.24-2.17-16.09-4.32-22.68-6.17C331.7,298,318,293,308.07,287.06Z"/><path class="cls-1" d="M332.1,295.78c-.25-.05-25.43-5.57-34.81-21.24-3.74-6.24-4.49-13.32-2.25-21l-1.23-.36c-2.35,8.08-1.54,15.5,2.38,22.06a38.28,38.28,0,0,0,11.87,11.86c10,6,23.63,10.92,42.39,14C339.74,298,332.36,295.85,332.1,295.78Z"/><path class="cls-8" d="M308.07,287.06C284,272.63,281.33,252.22,280,237.93a23.75,23.75,0,0,0-7-14.47c-13.55,25.16-13.35,65.8-13.18,98.82.05,10.64.11,20.68-.35,28.77-1.81,32-10,78.28-10.82,82.9a136,136,0,0,0,17,11.31c15-25.19,18.07-66.81,20.46-87.21,3.05-25.93,11.06-40.42,24.4-43.47,9.11-2.08,54.23-2.74,61.63-6.28-20.7-5.46-38.79-10.82-40.33-11.28A76.75,76.75,0,0,1,308.07,287.06Z"/><path class="cls-4" d="M286.08,358c-2.4,20.4-5.51,62-20.46,87.21,21.78,12.5,62.41,29.5,111.86,20.36,1.6-2.11,15.76-21.15,17.59-36,2-16.22,2-105.89.11-115.56-7.58-1.79-15.49-3.79-23.05-5.79-7.4,3.54-52.53,4.2-61.63,6.28C297.14,317.62,289.13,332.12,286.08,358Z"/><path class="cls-4" d="M485.86,213.67c-10.42-1.47-16.13-6.09-19.27-10.77l-.08,0a22.76,22.76,0,0,0-6.33.8c-1.11,2.09-8.9,16.57-14,22.91-1.71,2.11-4.08,5.91-6.83,10.3-6.14,9.82-13.09,20.94-18.11,22.54-7.17,2.29-69.15-23.25-71.79-24.34l.49-1.18c5.58,2.31,14.08,5.73,23.29,9.28a114.61,114.61,0,0,0-7.95-13c-22.07,3.17-49.37-20.33-58.91-29.34-3.28,1.9-7.14,3.74-11.09,5.62-8.2,3.9-16.68,7.94-19.71,12.56-.91,1.39-1.76,2.84-2.57,4.35a23.75,23.75,0,0,1,7,14.47c1.35,14.3,4,34.7,28.09,49.13A38.28,38.28,0,0,1,296.2,275.2c-3.93-6.56-4.73-14-2.38-22.06l1.23.36c-2.24,7.72-1.48,14.8,2.25,21,9.38,15.67,34.55,21.18,34.81,21.24s7.64,2.26,18.36,5.27h0c16.25,2.66,22.54,4.64,22.68,6.17,22.34,5.87,47.5,11.8,57.95,11.8h.28c16.85-.18,27.44-22,34.45-36.43,1.35-2.78,2.51-5.18,3.6-7.17,3-5.54,8.43-19.53,17.22-54.76l.16-.65C487.78,216.07,486.68,214.37,485.86,213.67Z"/><path class="cls-4" d="M350.46,301h0c6.59,1.85,14.44,4,22.68,6.17C373,305.68,366.71,303.7,350.46,301Z"/><path class="cls-9" d="M164.95,278.39c-3-5.2-2.68-19.43,3-24.28,1.7-1.44,5.35-3.18,10.74,1.31a4.56,4.56,0,0,0,5.67.61c9.45-5.27,17.43-34.34,16.42-41.43l-.19-1.32,1.32-.23c1-.17,24.36-4,36.69,9.47a116.44,116.44,0,0,1,16.41,0c-2.55-6.78-12.09-29.15-29.21-35.6-24.17-9.11-64.57,5.08-76.38,9.65-17.08,6.6-32.51.35-50.39-6.9-6.09-2.47-12.38-5-19.13-7.22-21.78-7.1-43.39-7.1-64.22,0-16,5.46-30.47,4.45-45.45-3.18-6.28-3.19-14.57-1.61-20.64,3.93a19.69,19.69,0,0,0-5.07,22.6l1.16,2.91C-46.58,228.17-37,252.4-6.22,257.95c20,3.61,33.71-.69,43.71-3.83,6.56-2.06,11.74-3.69,16.39-2.44s8.86,6.51,13.82,12.63c8.12,10,17.35,21.35,30.73,20.05a150.35,150.35,0,0,0,22.12-4.16c10.78-2.64,18.56-4.54,24.23.2l1.7,1.43c7.32,6.2,14.27,12,29.95,12.53,0-2.79-.19-5.8-.5-9.06A13.18,13.18,0,0,1,164.95,278.39Z"/><path class="cls-5" d="M206.39,536.08c-3.2,0-6.37-.11-9.49-.36-14.57-1.16-26-5-34.25-11.37L144.2,694.62h36.15c2.52-9.41,25.65-95.67,32.26-110.63a57.42,57.42,0,0,1,20.92-24.23l1.41,2.37A56.27,56.27,0,0,0,216.69,582l14.12,112.66H266.2V523.84C260.67,528.18,232.92,536.08,206.39,536.08Z"/><path class="cls-10" d="M269.73,501.16c-.45-2.58-10.33-59.44-10.74-69.81-.16-3.92,1.34-9.59,3.07-16.17,2.89-11,6.17-23.44,3.53-33.92-1.11-4.42-2.35-8.46-3.58-12l66.63-3c.52,0,12.74-1.33,18.89-10.54,3.85-5.78,4.4-13.3,1.61-22.36-8.88-28.88-45-79.81-47.47-82.32-.2-.2-.51-.54-.94-1-18.4-19.68-32.95-25.8-42.63-27.17-1.75-5.07-11.57-31-31.29-38.48-25.08-9.46-66.31,5-78.35,9.66-16.06,6.21-31,.15-48.35-6.88-6.13-2.49-12.47-5.06-19.31-7.28-22.37-7.29-44.56-7.28-66,0-15.27,5.2-29,4.24-43.31-3-7.29-3.71-16.84-2-23.75,4.35-7.36,6.72-9.51,16.32-5.77,25.67l1.15,2.9c7.54,19,17.87,45.12,50.15,50.94,20.69,3.73,34.75-.69,45-3.91,6.13-1.93,11-3.45,14.85-2.41,3.7,1,7.73,6,12.39,11.7,8.13,10,18.25,22.5,33.13,21.06a152.67,152.67,0,0,0,22.52-4.22c10-2.44,17.21-4.21,21.81-.36l1.69,1.42c7.38,6.25,15,12.68,31.74,13.18-.13,12.34-2.43,19.3-2.45,19.36s-1.56,3.39-11.57,4.14-28.55,4.89-40,24c-4.13,6.88-13.46,15.14-23.34,23.88-15.39,13.61-31.29,27.69-29.92,39.06,2.06,17,31.75,57.68,44.42,75.07l2,2.68c3.69,5.08,6.83,11.84,9.87,18.37,5.22,11.21,10.14,21.79,17.54,23.37a18.62,18.62,0,0,0,3.86.43,12.54,12.54,0,0,0,8.36-2.92,13.69,13.69,0,0,0,3.18-4.15q.86.91,1.78,1.76L141.43,694.62h2.77l18.45-170.27c8.21,6.38,19.68,10.2,34.25,11.37,3.12.25,6.29.36,9.49.36,26.53,0,54.27-7.9,59.8-12.24V694.62H269v-174C273.23,513.3,270.1,502.39,269.73,501.16ZM146.48,281.83l-1.7-1.43c-5.67-4.74-13.45-2.84-24.23-.2a150.35,150.35,0,0,1-22.12,4.16c-13.37,1.3-22.61-10-30.73-20.05-5-6.12-9.26-11.41-13.82-12.63s-9.83.38-16.39,2.44c-10,3.14-23.68,7.44-43.71,3.83C-37,252.4-46.58,228.17-54.29,208.71l-1.16-2.91a19.69,19.69,0,0,1,5.07-22.6c6.07-5.54,14.36-7.12,20.64-3.93,15,7.63,29.43,8.64,45.45,3.18,20.83-7.09,42.43-7.09,64.22,0,6.75,2.2,13,4.75,19.13,7.22,17.87,7.24,33.31,13.5,50.39,6.9,11.81-4.57,52.21-18.76,76.38-9.65,17.12,6.46,26.66,28.83,29.21,35.6a116.44,116.44,0,0,0-16.41,0c-12.34-13.52-35.7-9.65-36.69-9.47l-1.32.23.19,1.32c1,7.08-7,36.15-16.42,41.43a4.56,4.56,0,0,1-5.67-.61c-5.39-4.49-9-2.75-10.74-1.31-5.72,4.84-6.08,19.07-3,24.28a13.18,13.18,0,0,0,11,6.91c.31,3.26.46,6.27.5,9.06C160.75,293.88,153.8,288,146.48,281.83ZM264.63,521.57c-4.44,3.83-37.88,13.76-67.5,11.4-17.23-1.38-29.87-6.54-37.61-15.32a29.24,29.24,0,0,0,1.16-10.49c-.22-4.18.32-5.66.8-6.17s1.13-.42,2.28-.4c1.72,0,4.06.06,6-2.18a6.74,6.74,0,0,0,1.47-6.13c-.95-4-5.23-8.15-10.9-10.56a18.58,18.58,0,0,0-3.25-1c1.08-4.88,4.71-21.78,6.39-36.33,1.91-16.52-13.7-60.87-15.86-66.9,4.43-4,7.47-6.75,7.57-6.84l-1.83-2.06c-1.42,1.26-34.92,31.08-42.74,42.05-6.69,9.39,5.69,29,16.61,46.24,2.72,4.3,5.28,8.36,7.22,11.78,7,12.41,13.36,13.37,19,14.21a23.38,23.38,0,0,1,5.85,1.4c4.82,2,8.55,5.52,9.29,8.65a4,4,0,0,1-.89,3.71c-1,1.19-2.11,1.23-3.83,1.21-1.43,0-3.06,0-4.31,1.25s-1.8,3.85-1.57,8.23c.37,7-1.25,12.36-4.57,15.2-2.48,2.12-5.79,2.76-9.86,1.89-6.05-1.29-10.7-11.27-15.61-21.83-3.1-6.65-6.3-13.53-10.14-18.83l-2-2.69c-11.47-15.73-41.95-57.53-43.91-73.78-1.2-9.93,14.85-24.13,29-36.66,10-8.89,19.53-17.28,23.88-24.53,10.3-17.17,26.28-21.82,37.87-22.69,12-.91,13.79-5.46,14-6s4.21-12.57,2-33.67l-.15-1.38-1.38.16c-.24,0-6.08.62-9.68-5.53-2.72-4.64-1.77-17.21,2.44-20.78.69-.58,2.78-2.35,7.19,1.32a7.29,7.29,0,0,0,8.78.9c10.18-5.68,18.1-33.25,17.91-42.84,4.68-.56,21.55-1.82,31.59,7.41-2.7.55-4.52,1.39-5.68,2.57a6.22,6.22,0,0,0-1.63,5.06c.35,5.39,4.81,11.86,13.73,14.48-.68,2.26-.84,6.29,2.83,8,.55.25,1.29.56,2.16.91.32,2.09,1.1,9.08-.14,22.19-1.7,18-12.43,29.24-28.7,30.13-18,1-29-13.94-29.15-14.09l-2.23,1.62c.39.54,8.07,10.91,21.36,14.25a19.48,19.48,0,0,0,5.89,12.14c5.78,5.4,72.19,8.38,87.09,8.38,1,0,1.69,0,2.2,0,3.25-.16,5.32-1.2,6.16-3.09,1.45-3.27-1.68-7.55-2.45-8.52-6.86-15.81-22.93-52.29-26-53.94-1.57-.84-3.59-.64-5.74-.42-2.76.29-5.63.58-7.51-1.3-3.23-3.23-12.11-6.81-18-9.17-1.61-.65-2.94-1.18-3.79-1.57-2.32-1.06-1.5-4.11-1.28-4.79l.24.05c8.84,1.57,14.6,3.34,18.13,5.56l1.47-2.33c-3.83-2.41-9.91-4.3-19.12-5.94-9.43-1.68-14.06-7.73-14.38-12.64a3.51,3.51,0,0,1,.84-2.95c2.22-2.25,9.68-3,23.46-2.25,9,.47,24,5.46,43.73,26.59.45.48.79.84,1,1.06,2.4,2.4,38.24,53.4,46.78,81.18,2.53,8.22,2.1,14.95-1.26,20-5.4,8.12-16.75,9.33-16.8,9.34L261,366.5a124.86,124.86,0,0,0-5.58-13.27L253,354.51a140.76,140.76,0,0,1,9.89,27.43c2.47,9.8-.71,21.88-3.52,32.54-1.79,6.79-3.33,12.65-3.16,17,.43,10.74,10.37,67.84,10.79,70.26l0,.18C267.11,502,271.34,515.79,264.63,521.57ZM154.33,480.21l-.55-.09c-5.45-.82-10.6-1.6-17-12.84-2-3.48-4.56-7.57-7.29-11.9-9.42-14.89-22.31-35.29-16.69-43.17,5-7.07,21.69-22.77,32.54-32.73,3.11,8.84,17.06,49.61,15.33,64.56C159,458.6,155.37,475.54,154.33,480.21Zm95.24-225c5.38,2.17,13.25,5.45,15.88,8.08,2.81,2.81,6.65,2.41,9.74,2.09,1.71-.18,3.32-.34,4,0,2.39,2.08,16.57,33.52,25,52.85l.2.33c1,1.23,2.87,4.28,2.19,5.81-.48,1.07-2.31,1.38-3.77,1.45-11.14.54-82.4-3.05-87.27-7.61a16.76,16.76,0,0,1-4.91-9.54,33.88,33.88,0,0,0,5.42.44c.62,0,1.26,0,1.9-.05,17.75-1,29.46-13.17,31.3-32.63C250.29,265.32,249.93,258.51,249.57,255.18Z"/><path class="cls-10" d="M235,562.12l-1.41-2.37A57.42,57.42,0,0,0,212.62,584c-6.61,15-29.74,101.23-32.26,110.63h2.86c3.09-11.54,24.23-90.07,31.29-108l13.53,108h2.78L216.69,582A56.27,56.27,0,0,1,235,562.12Z"/><path class="cls-11" d="M93.51,377.17C81.71,387.88,70.87,399,71.87,407.26c2,16.25,32.44,58,43.91,73.78l2,2.69c3.84,5.3,7,12.18,10.14,18.83,4.92,10.57,9.56,20.55,15.61,21.83,4.07.87,7.38.23,9.86-1.89,3.32-2.83,4.94-8.23,4.57-15.2-.23-4.38.24-6.85,1.57-8.23s2.88-1.27,4.31-1.25c1.72,0,2.81,0,3.83-1.21a4,4,0,0,0,.89-3.71c-.74-3.13-4.47-6.61-9.29-8.65a23.38,23.38,0,0,0-5.85-1.4c-5.59-.84-11.93-1.8-19-14.21-1.94-3.43-4.51-7.48-7.22-11.78-10.92-17.27-23.3-36.85-16.61-46.24a93.07,93.07,0,0,1,7.92-9.1A144.26,144.26,0,0,1,93.51,377.17Z"/><path class="cls-11" d="M346.49,334.1c-8.54-27.78-44.38-78.78-46.78-81.18-.21-.21-.55-.57-1-1.06C279,230.74,264,225.74,255,225.27c-13.79-.71-21.24,0-23.46,2.25a3.51,3.51,0,0,0-.84,2.95c.32,4.91,5,11,14.38,12.64,9.21,1.64,15.28,3.52,19.12,5.94l-1.47,2.33c-3.52-2.22-9.28-4-18.13-5.56l-.24-.05c-.22.69-1,3.74,1.28,4.79.84.38,2.18.92,3.79,1.57,5.88,2.37,14.77,5.95,18,9.17,1.88,1.88,4.74,1.59,7.51,1.3,2.14-.22,4.17-.43,5.74.42,3.07,1.65,19.14,38.13,26,53.94.77,1,3.9,5.26,2.45,8.52-.84,1.89-2.91,2.93-6.16,3.09-.5,0-1.24,0-2.2,0-2.22,0-5.59-.07-9.72-.2a293.41,293.41,0,0,1,4.42,36.52l33-1.5s11.39-1.22,16.8-9.34C348.59,349,349,342.32,346.49,334.1Z"/><path class="cls-11" d="M237.36,325c-12.15-1.28-21.69-2.88-23.72-4.78a19.48,19.48,0,0,1-5.89-12.14c-13.29-3.34-21-13.71-21.36-14.25l2.23-1.62c.11.15,11.2,15.05,29.15,14.09,16.27-.89,27-12.15,28.7-30.13,1.24-13.1.46-20.1.14-22.19-.87-.35-1.61-.66-2.16-.91-3.67-1.67-3.51-5.7-2.83-8-8.92-2.62-13.38-9.09-13.73-14.48a6.22,6.22,0,0,1,1.63-5.06c1.16-1.18,3-2,5.68-2.57-10-9.23-26.91-8-31.59-7.41.19,9.59-7.73,37.16-17.91,42.84a7.29,7.29,0,0,1-8.78-.9c-4.41-3.68-6.5-1.91-7.19-1.32-4.21,3.57-5.16,16.14-2.44,20.78,3.6,6.16,9.44,5.56,9.68,5.53l1.38-.16.15,1.38c2.25,21.1-1.79,33.16-2,33.67s-1.42,3.55-8.49,5.17C180.28,332.35,202.9,342,237.36,325Z"/><path class="cls-12" d="M177.36,390c2.07-18.62,31.72-35.17-3.45-44.83-18.12-5-44.85,20.63-66.42,47.09a129.69,129.69,0,0,0,11,9.28c12.7-13.26,33.7-32,34.82-32.95l1.83,2.06c-.1.09-3.14,2.8-7.57,6.84,2.16,6,17.77,50.38,15.86,66.9-1.68,14.55-5.31,31.45-6.39,36.33a18.58,18.58,0,0,1,3.25,1c5.68,2.41,10,6.55,10.9,10.56a6.74,6.74,0,0,1-1.47,6.13c-1.91,2.24-4.25,2.2-6,2.18-1.14,0-1.88,0-2.28.4s-1,2-.8,6.17a29.24,29.24,0,0,1-1.16,10.49c5.64,6.4,13.9,10.87,24.64,13.36,3.06-20,7.26-47.76,10.32-69.3C199.86,423.77,175.29,408.6,177.36,390Z"/><path class="cls-1" d="M253,354.51s.44.87,1.13,2.35a29.89,29.89,0,0,1,1.37-3.52l-.05-.1Z"/><path class="cls-13" d="M237.36,325c-34.46,17-57.09,7.34-69.27-2.43a37.21,37.21,0,0,1-5.47.79c-11.59.88-27.58,5.53-37.87,22.69-4.35,7.25-13.83,15.64-23.88,24.53-2.43,2.15-4.92,4.35-7.36,6.57a153.93,153.93,0,0,0,14,15.07c21.57-26.46,48.29-52.06,66.42-47.09,35.17,9.66,5.52,26.21,3.45,44.83s22.5,33.79,17.11,71.73c-3.06,21.55-7.26,49.33-10.32,69.3a88.66,88.66,0,0,0,13,2c29.63,2.37,63.06-7.56,67.5-11.4,6.71-5.78,2.48-19.53,2.44-19.67l0-.18c-.42-2.43-10.37-59.53-10.79-70.26-.17-4.33,1.37-10.19,3.16-17,2.81-10.66,6-22.75,3.52-32.54a148,148,0,0,0-8.76-25.08c-3,9.25-2.3,20.32-2.3,20.32s-.67-11.06,2.3-20.32c-.68-1.48-1.11-2.32-1.13-2.35l2.45-1.27.05.1C258,348,262.14,344,269,344.53c4.7.35,13.72.53,24.66.6-.78-6.1-1.69-11.76-2.6-16.71C277.16,328,254.62,326.83,237.36,325Z"/><path class="cls-12" d="M255.52,353.33A127.28,127.28,0,0,1,261,366.5l34.39-1.56c-.36-6.87-1-13.56-1.82-19.81-10.94-.07-20-.25-24.66-.6C262.14,344,258,348,255.52,353.33Z"/><ellipse class="cls-5" cx="231.27" cy="245.09" rx="3.22" ry="5.8"/><ellipse class="cls-5" cx="217.99" cy="245.09" rx="3.22" ry="5.8"/></g><path class="cls-14" d="M465.47,379.18l42.16-39.42,44.9,63.07s-28.28,19-29.13,18.85-7.88-4.11-16.11-1.71-7.37,15.08-9.94,18.51S468.9,468,468.9,468l-11.57-18.21s6.72-13.1,7.15-19.95S465.47,379.18,465.47,379.18Z"/><text class="cls-15" transform="translate(486.37 372.91) rotate(40.3)"><tspan class="cls-16">w</tspan><tspan x="17.32" y="0">ork</tspan></text></svg>