<svg id="Layer_1" data-name="Layer 1" xmlns="http://www.w3.org/2000/svg" xmlns:xlink="http://www.w3.org/1999/xlink" viewBox="0 0 604 596"><defs><style>.cls-1{fill:none;}.cls-2{clip-path:url(#clip-path);}.cls-3{fill:#fff;}.cls-4{fill:#fcdace;}</style><clipPath id="clip-path"><rect class="cls-1" x="56.12" y="41.75" width="510.01" height="510.01" rx="13.28" ry="13.28"/></clipPath></defs><title>Untitled-1</title><g class="cls-2"><path d="M197.35,263.88a59.65,59.65,0,0,1,3.9,6.42c1.06,1.94,2.26,4.14,2.88,4.14,0,0,.28,0,.68-.67-1.77-2.3-11.15-14.94-10.21-23.52.89-8.11,5.39-16.52,6.56-18.6-3.06-2.59-17.08-14.83-15.3-20,1-2.92,7.29-12.61,15.27-21.76,7.25-8.32,18.1-18.78,28.57-21.32a152.83,152.83,0,0,1,33-4.28C245,148.58,225,143.17,204.55,149c-20.68,5.83-35,19.35-40.46,38.06-6.34,21.89,1,47.32,19.52,68C185,255.4,192.81,257.57,197.35,263.88Z"/><path class="cls-3" d="M203.29,315.71a7,7,0,0,0-3.1,5c-.1.58-.2,1.18-.31,1.79-.94,5.31-2.11,11.93-.83,20.7,1.36,9.42,6.43,15.26,8.21,16,.41.17,1-.89,1.71-2a14.08,14.08,0,0,1,4.41-5.09h0c2-1.22,3.16-4.35,4.29-7.38,1-2.77,2-5.39,3.64-6.87,3-2.71,6.61-.57,8.11.94a.65.65,0,0,1-.92.91c-.14-.14-3.51-3.45-6.33-.89-1.4,1.27-2.36,3.86-3.3,6.37-1,2.78-2.11,5.65-3.89,7.31,2.8,1.19,10.48,4.59,12.91,6.94S241.54,377,244.4,381c1.89-4.26,3.52-8.81,3.64-10.62a21,21,0,0,0-.27-3.48.63.63,0,0,1-.65-.14,3.76,3.76,0,0,0-2.2-.69h-.55l-.09-.54s-.49-3.06-1.23-7.43c-.5-2.94-4.61-8.43-7.62-12.43-1.38-1.84-2.57-3.43-3.28-4.57-1.81-2.91-15.91-30.14-22.28-42.48-2.35,1.39-2.33,3.89-2.3,6.76a14.48,14.48,0,0,1-.81,6.11h0A10.6,10.6,0,0,1,203.29,315.71Z"/><path class="cls-3" d="M331,328.42c-.94-5.74-2.64-13.12-6.35-18a29.41,29.41,0,0,1-4.27,5.7C320.94,317.89,323.76,326.12,331,328.42Z"/><path class="cls-4" d="M209.54,285.86l-.34-4.12,1.58,3.82a77.43,77.43,0,0,0,20,26.05c9.73,8.23,25,16.64,46.64,16.64a97.13,97.13,0,0,0,23.31-3c12.54-3.1,20.86-9.61,24.7-19.37A39.82,39.82,0,0,0,328,292.55a.64.64,0,0,1,0-.46c.55-22.06-12.59-53.8-39.24-94.67-1.06-1.63-1.83-2.81-2.25-3.51l-.11-.18a127.61,127.61,0,0,0-22.34-28.19,148.33,148.33,0,0,0-34.1,4.24c-19.28,4.68-41.33,37.59-42.92,42.25-1.35,4,10.6,15,15.32,19l.42.35-.28.47c-.06.1-5.69,9.69-6.67,18.56S206,273.18,206.1,273.32l.26.33-.2.37c-.39.73-1,1.7-2,1.71h0c-1.39,0-2.38-1.81-4-4.81a58.62,58.62,0,0,0-3.81-6.29c-3.17-4.39-8.17-6.69-11-7.7l.68.76-3-1.47a4.55,4.55,0,0,0-3.72,0c-1.33.74-2.16,2.46-2.46,5.13-.43,3.84,2.94,10.6,8.6,17.22,5.94,7,12.91,12.16,18.66,14a5.94,5.94,0,0,0,4.12-1.54C209.27,289.82,209.73,288.1,209.54,285.86ZM266.86,211c1.89-1.26,6.45,2.25,10.19,7.85s5.23,11.16,3.34,12.42-6.45-2.25-10.19-7.85S265,212.26,266.86,211Zm-2.77,71.43a1.94,1.94,0,0,1,2.26-1.55c.88.16,21.62,3.65,29.05-19a1.94,1.94,0,1,1,3.68,1.21c-4.44,13.49-13.3,18.64-19.95,20.59A32.67,32.67,0,0,1,270,285a25.89,25.89,0,0,1-4.37-.33A1.94,1.94,0,0,1,264.09,282.43Zm-23.28-54.05c1.89-1.26,6.45,2.25,10.19,7.85s5.23,11.16,3.34,12.42-6.45-2.25-10.19-7.85S238.92,229.64,240.81,228.38ZM206,282.7a.65.65,0,0,1-.91-.07,23.08,23.08,0,0,0-4.74-3.9c-2.54-1.59-4.5-3.85-4.89-5.62a2.25,2.25,0,0,1,.24-1.75c0-.06.08-.33-.08-.86A8.26,8.26,0,0,0,195,269l-3.51,1.95c.08,1.19.44,4.8,2,6.36s2.74,1.39,3.16,1.28l.09,0a.65.65,0,0,1,.79.5.65.65,0,0,1-.51.76l-.07,0a3.73,3.73,0,0,1-.93.12,4.82,4.82,0,0,1-3.47-1.76c-2.16-2.24-2.33-7.39-2.34-7.61v-.39l4.18-2.32a11,11,0,0,0-2.78-3.18,16.46,16.46,0,0,1-1.56-.93c-1.86-1.17-5.31-3.35-6.82-2.89a.79.79,0,0,0-.52.47c-1.19,2.63.47,7.85,3.95,12.41a34.12,34.12,0,0,1,2.46,3.76,13,13,0,0,0,5.82,5.84,32.94,32.94,0,0,1,4.93,3.52c1.95,1.62,2.44,1.91,3.27,1.27a.65.65,0,0,1,.79,1,2.48,2.48,0,0,1-1.53.59c-1.07,0-2.09-.85-3.35-1.89a31.36,31.36,0,0,0-4.74-3.39,14.3,14.3,0,0,1-6.3-6.31,33,33,0,0,0-2.37-3.63c-3.81-5-5.49-10.64-4.1-13.73a2.09,2.09,0,0,1,1.33-1.18c1.91-.58,4.95,1.18,7.88,3,.62.39,1.15.73,1.41.84,1,.44,2.59,2.38,3.71,4.27v0a11,11,0,0,1,1.08,2.33,2.28,2.28,0,0,1-.08,1.93,1,1,0,0,0-.06.76c.31,1.41,2.13,3.42,4.32,4.8a24,24,0,0,1,5,4.15A.65.65,0,0,1,206,282.7Z"/><path class="cls-3" d="M307,549.71c-.61-2.34.11-7.58.95-13.65,1.09-7.93,2.33-16.91.67-20.43-1.51-3.19-1-10.22-.46-17.67.55-7.68,1.13-15.61-.75-18-3.18-4-1.6-11.91-.66-16.63a28,28,0,0,0,.52-3c0-.68.1-1.79.18-3.13.26-4.29.65-10.77.54-12.48v0a.63.63,0,0,1,0-.1c.21-1.68,1-8.42,2.09-16.22-1.07-1.77-8.87-14.66-10.95-17.43a49.81,49.81,0,0,0-5.39-5.2c-3.26-2.9-7-6.19-8.44-8.64-2.12-3.51-16.38-13.95-19.57-16.26a15.52,15.52,0,0,0-1.71,6.93c0,2.35.25,4.72.45,6.92a.64.64,0,0,1,.46.09c.07,0,7.13,4.6,15,9a52,52,0,0,0,8.06,3.39c5.34,1.89,10.38,3.67,14.55,9.21a.65.65,0,0,1-1,.78c-3.93-5.22-8.8-6.95-13.95-8.77a52.93,52.93,0,0,1-8.26-3.47c-6.86-3.8-13.11-7.75-14.68-8.76v.08c.19,2,.37,3.86.42,5.41,1.67.83,8.62,4.42,10.93,7.8.63.92,1.33,1.83,2,2.71,2.06,2.69,4,5.23,4,7.86,0,3.09-1.29,8.33-4.16,10.3a10.76,10.76,0,0,1-1.43.82,15,15,0,0,1,5.56,6.94c.55,1.91-1.54,8.79-6.14,12.05a11.41,11.41,0,0,1-6.06,1.76c3.52,6.55,3.91,8.86.6,14.14-2.31,3.69-4.72,3.63-7.29,3.56a14.11,14.11,0,0,0-4.13.32,9.87,9.87,0,0,1-2.41.25H256a8.73,8.73,0,0,1-.14,9.69c-2.24,3.45-4,4.31-5.9,4.31a13.12,13.12,0,0,1-2.71-.4c-.53-.11-1.07-.23-1.66-.33a42.21,42.21,0,0,0-7-.14,36.9,36.9,0,0,1-8.14-.3c-1.16-.27-2.15-.49-3.07-.66-.36,2.13-1.57,8.32-4,12.15-2.74,4.32-3.67,10.86-2.66,13.81a28.6,28.6,0,0,0,1.81,3.78c1.4,2.61,2.72,5.08,2,6.6-.85,1.92-5.18,3.17-6.78,3.57,0,.57.07.93.08,1l0,.38-.32.21a12.87,12.87,0,0,1-6.08,1.9,5.91,5.91,0,0,1-4.23-1.63A147.89,147.89,0,0,0,190.1,536.4c-6.63,5.53-10.57,5.12-14.38,4.73a15.93,15.93,0,0,0-4.91,0c-2.72.53-6.27,3.18-10,6-4.15,3.1-8.45,6.3-12.61,7.51a47.45,47.45,0,0,1-7.88,1.52l81.54-5.95h85.76A.65.65,0,0,1,307,549.71Z"/><path class="cls-3" d="M322.89,549.51c0-.34,2.12-33.86,0-43.78-1-4.9-.37-10.62.29-16.14.71-6,1.38-11.68-.25-15.54-3.69-8.72-5-15-4.36-21.74.48-5.47.16-19,0-25.27-5.5,9.47-9,16.16-9.29,17.49l0,.18c.1,1.83-.28,8.28-.54,12.57-.08,1.33-.15,2.44-.18,3.11a27.44,27.44,0,0,1-.54,3.22c-.9,4.5-2.41,12,.4,15.57,2.19,2.76,1.63,10.59,1,18.87-.5,6.95-1,14.13.34,17,1.82,3.86.56,13.05-.56,21.16-.78,5.68-1.52,11.05-1,13.14a.65.65,0,0,1-.46.79l-.16,0h15.9A.65.65,0,0,1,322.89,549.51Z"/><path class="cls-3" d="M506.23,549.62c-2.08-19.74-6.34-48.45-19.3-69.84-8.65-14.27-8.72-21.6-8.79-29.36a57.54,57.54,0,0,0-1-11.77c-2.83-13.85-25.16-76.07-30.85-81.77-6.22-6.22-21.14-18.69-27.5-20.37-6-1.59-52.26-18.07-63.8-22.19.59.72.61,1,.63,1.16a35.42,35.42,0,0,1-.89,6.51,70.48,70.48,0,0,0-1.41,10.5c0,6.45-.61,15.69-5.91,21.55-3.47,3.84-3.21,9.35-3,14.21a28.71,28.71,0,0,1-.17,6.75l-.23,1.12c-1.3,6.34-4.34,21.19-9,25.51-2,1.87-7.75,10.57-14.6,22.19l-.65,1.11c.16,4.71.65,21.15.09,27.49-.57,6.5.66,12.62,4.26,21.12,1.77,4.18,1.08,10,.34,16.19-.64,5.42-1.31,11-.31,15.72,2.15,10.1.1,42.75,0,44.13a.65.65,0,0,1-.64.61h91.65a.65.65,0,0,1-.63-.51c-.22-1-5.33-24-4.9-31.64.37-6.65.21-14.28.06-21,0-.93,0-1.84-.06-2.72-.13-6.31,4.06-18.63,7.12-27.63.45-1.32.87-2.55,1.24-3.68,2.81-8.44,5.12-38.9,5.14-39.21a.65.65,0,1,1,1.29.1c-.09,1.26-2.34,30.92-5.2,39.52-.37,1.12-.8,2.36-1.24,3.68-1.69,5-3.74,11-5.19,16.39l2.42,17.87c.56,1,4.52,8.14,5.86,12.52a27.06,27.06,0,0,1,.76,3.27c1.21-17.79.52-27-.41-31.71-2.66-13.6-1.8-22.56.86-35.3,1.59-7.61,5.71-14.22,10.08-21.22a126.07,126.07,0,0,0,9.49-17.24.65.65,0,1,1,1.19.51,127,127,0,0,1-9.59,17.42c-4.3,6.9-8.37,13.42-9.91,20.8-2.63,12.57-3.48,21.41-.86,34.79,1.06,5.43,1.83,16.7-.18,39.82v0a.65.65,0,0,1,0,.14c-.19,2.13-.39,4.35-.63,6.69l0,.35c-.55,5.47,6.17,16.87,6.23,17a.65.65,0,0,1-.56,1h79.34A.65.65,0,0,1,506.23,549.62ZM440.86,361.73c-.92.74-5.07,11.88-4.35,26.75a195,195,0,0,1-.87,28.33.65.65,0,0,1-.64.57h-.08a.65.65,0,0,1-.57-.72,193.65,193.65,0,0,0,.86-28.11c-.73-15,3.36-26.68,4.85-27.84a.65.65,0,0,1,.79,1Z"/><path class="cls-3" d="M427,549.88c-.29-.48-7-11.89-6.41-17.78l0-.35c.24-2.37.45-4.63.63-6.79a44.52,44.52,0,0,0-1.39-10.71c-1.37-4.48-5.77-12.29-5.81-12.37l-.06-.11,0-.12-2-14.78a32.9,32.9,0,0,0-1,7.41c0,.88,0,1.79.06,2.72.15,6.76.32,14.42-.06,21.12-.42,7.44,4.82,31,4.87,31.28a.65.65,0,0,1-.49.77l-.14,0h12.35A.65.65,0,0,1,427,549.88Z"/><path class="cls-3" d="M188.49,521.7c-2.47.12-4.81.23-6.62.2-5.23-.11-8.32-4.51-12.23-10.08-1.65-2.36-3.53-5-5.78-7.67-7.07-8.29-9.59-25.49-11.27-36.88-.13-.87-.25-1.71-.37-2.52-1.11-7.43,3.38-15.3,7.13-20.62-2.93.39-9.68,1.57-13.72,4.66-3.43,2.62-8.86,5.67-14.12,8.62-3.16,1.78-6.15,3.46-8.48,4.92-6.33,4-19.73,25.9-17.23,45.63s17.27,26.14,17.42,26.2a.65.65,0,0,1-.5,1.19c-.16-.06-15.6-6.7-18.21-27.24-1.13-8.94.83-19.48,5.53-29.68,4.23-9.18,9.34-15.36,12.29-17.21,1.7-1.06,3.73-2.24,5.92-3.48a15.17,15.17,0,0,0-11.3.94c-6.75,3.5-12.19,12.69-16.64,28.11-5.48,19,5,44.86,5.12,45.12a.65.65,0,0,1-1.2.49c-.11-.26-10.77-26.58-5.17-46,4.56-15.77,10.21-25.23,17.29-28.9,4-2.08,8.54-2.31,13.45-.68l1.06-.59c5.22-2.93,10.61-6,14-8.52,5.08-3.88,13.8-4.89,15.53-5.05.78-1.06,1.5-2,2.08-2.73a20.52,20.52,0,0,0,1.31-1.76c.5-1,2.86-1.68,8.63-3.29l2.15-.6-6.4-2.27c-.12,0-15.59-4.44-22.6-.5-3.5,2-7.48,4.79-12.09,8-4.92,3.48-10.5,7.42-16.77,11.22-4.65,2.82-11.93,11.11-20.16,34.57-.65,1.85-.65,1.85-1.11,1.88l-.43,0-.19-.39a.65.65,0,0,1,0-.65c.07-.18.26-.7.46-1.29,6.71-19.13,13.68-31,20.71-35.25,6.23-3.78,11.79-7.71,16.69-11.17,4.64-3.28,8.64-6.11,12.2-8.11,7.48-4.21,23,.2,23.63.39l8.15,2.89a132,132,0,0,0,16.7-5.86c11.4-5,16.35-4.94,17.8-4.72,1.42-1.88,8.44-11.13,10.34-13.35a22.1,22.1,0,0,0,2.31-4.62c1.51-3.56,3.39-8,6.22-9.87a29.05,29.05,0,0,1,4.44-2.33c2.28-1,4.07-1.82,5.74-4.12a44.08,44.08,0,0,0,3.52-6.51c-1.82-2.51-14.17-19.52-16.77-22s-11.4-6.21-13.2-7a13.37,13.37,0,0,0-3.74,4.49c-.85,1.42-1.6,2.68-2.68,2.68a1.65,1.65,0,0,1-.64-.14c-2.35-1-7.56-7.14-9-17-1.3-9-.11-15.71.84-21.11.11-.61.21-1.21.31-1.78a8.24,8.24,0,0,1,3.56-5.76,10.71,10.71,0,0,0,2.38-2.43,33,33,0,0,0-8.23,4.23c-2.13,1.48-12.26,5.27-25.07,10.07-20.61,7.72-48.82,18.3-52.06,22.68a64.26,64.26,0,0,1-8.73,8.83c-4.46,4-9.06,8.1-11,12.59a23.18,23.18,0,0,0-2,8.12,10.86,10.86,0,0,1-2.37,6.67c-1.89,2.42-3.84,12.93-5.56,22.2-1.46,7.88-2.73,14.69-3.89,16.4s-.24,3.75.93,6.33a22,22,0,0,1,2.34,7.78l0,.24-.14.19c-.05.07-5.13,7-3.7,13.62.65,3,.09,9.56-.55,17.15-.85,10-1.82,21.35.2,24.52a24.11,24.11,0,0,0,3.15,4c1.56,1.64,2.18,2.45,1.89,5.88-.42,5,.4,26.07,7.56,32.8,3.53,3.32,8.13,5.37,12.58,7.36s8.91,4,11.34,7.08c4.16,5.33,18,4.79,26.32,2.36,3.94-1.15,8.14-4.28,12.2-7.31,3.88-2.89,7.54-5.62,10.55-6.21a17.23,17.23,0,0,1,5.29,0c3.54.37,7.21.75,13.42-4.43a150.11,150.11,0,0,1,17-12.25C203.18,521,194.76,521.4,188.49,521.7Zm-53-169.35a.65.65,0,0,1,1-.22c.68.57,18.63,14.57,37.81,28.26,32.87,23.48,40.85,25.77,42.68,25a.65.65,0,1,1,.48,1.2,2.82,2.82,0,0,1-1.16.23c-2.76,0-11.2-2.87-43-25.62-18.79-13.43-37.37-27.87-37.69-28.19A.65.65,0,0,1,135.45,352.35Zm-2.65,22.8h0c15.52.18,17.91,5.65,20.43,11.45a36.16,36.16,0,0,0,2.19,4.45c1.37,2.26,3,4.49,4.82,6.86,3.95,5.27,8,10.72,9.34,17.19a74.81,74.81,0,0,0,4,13.91.65.65,0,0,1-.33.85.64.64,0,0,1-.26.06.65.65,0,0,1-.59-.38,74.42,74.42,0,0,1-4.07-14.17c-1.26-6.18-5.25-11.52-9.11-16.67-1.79-2.39-3.48-4.65-4.89-7a37.21,37.21,0,0,1-2.27-4.61c-2.46-5.64-4.58-10.5-19.26-10.67a.65.65,0,0,1,0-1.29Z"/><path class="cls-3" d="M333.41,339.16c-.74,6.82-4.7,19-7.17,23-1.5,2.46-1.65,4.5-1.87,7.59a54,54,0,0,1-1.9,11.57c-3,10.7-4.56,15.31-6.35,18.26-.86,1.41-2.89,14.86-4.75,28.64a.65.65,0,0,1,0,.15c-.54,4-1.06,8-1.54,11.77,2.51-5,6.87-12.51,8.67-15.59,0-.54,0-.85,0-.87a.65.65,0,0,1,.62-.67.59.59,0,0,1,.28.05c5.52-9.35,12.26-20.07,14.81-22.43,4.37-4,7.35-18.6,8.63-24.82l.23-1.12a27.9,27.9,0,0,0,.14-6.42c-.24-5.11-.52-10.91,3.31-15.14a17.68,17.68,0,0,0,3.13-5c-2.38-.38-9.32-1.62-12-3.29C335.82,343.71,334.36,341.2,333.41,339.16Z"/><path class="cls-4" d="M315,399c1.73-2.84,3.29-7.37,6.21-17.94a52.81,52.81,0,0,0,1.86-11.32c.23-3.16.4-5.44,2.06-8.17,3.1-5.09,7.82-21.2,7-25.53-.15-.8-.29-1.86-.46-3.09-.13-.92-.27-2-.44-3.09-7.71-2-10.93-9.8-11.88-12.65q-6.85,6.49-18.32,9.34a99.48,99.48,0,0,1-23.82,3.06,76.63,76.63,0,0,1-19-2.32,70.47,70.47,0,0,1-28.29-14.69,81,81,0,0,1-19.18-24.1,6.24,6.24,0,0,1-1.66,3.39,5.74,5.74,0,0,1-.87.72c2.6,5.05,22.9,44.4,25,47.83.68,1.09,1.86,2.66,3.22,4.48,3.25,4.34,7.3,9.74,7.86,13s1,5.89,1.15,6.93a5,5,0,0,1,2.1.68l-.11-.79c-.63-4.43-1.4-9.94-.53-13.54,1.32-5.43,3.83-12.43,8.28-15a7.17,7.17,0,0,1,5.86-.58c8.88,2.72,9.94,26.33,9.07,33.45a28.13,28.13,0,0,1-3.32,9.45l-.57,1.15c2.82,2,17.78,12.93,20.11,16.78,1.38,2.28,5,5.5,8.19,8.34a49.08,49.08,0,0,1,5.57,5.39c1.84,2.45,7.83,12.27,10.19,16.16C312,414.32,314,400.63,315,399Z"/><path class="cls-4" d="M260.71,336.84a5.85,5.85,0,0,0-4.84.47c-4.27,2.43-6.63,9.9-7.67,14.15a26.42,26.42,0,0,0-.06,8.31h0c.12,1.15.87,4.6,4.6,14.73,4.23,11.48,2.12,19.72,2,20.07a.65.65,0,0,1-.62.48l-.17,0a.65.65,0,0,1-.46-.79c0-.08,2.08-8.22-2-19.29q-1.3-3.54-2.26-6.36a13.38,13.38,0,0,1,.07,1.77c1.49,6.81,1,10.75,1,10.92a.65.65,0,0,1-.64.56h-.08a.65.65,0,0,1-.56-.72,30.54,30.54,0,0,0-.43-7.54,80.06,80.06,0,0,1-3.48,8.9.64.64,0,0,1-.07.15,46.23,46.23,0,0,1-3.77,7c-1.87,2.58-4,3.53-6.26,4.54a27.63,27.63,0,0,0-4.25,2.23c-2.51,1.66-4.3,5.89-5.75,9.29a22,22,0,0,1-2.52,5c-1.74,2-8.1,10.41-10,12.91l.37.13-1.06.73c-.05,0-5.54,3.79-12.08,8.05-6.22,4.06-12.06,24.49-12.06,34.51,0,1.85.88,4.16,2.31,6.69a47.59,47.59,0,0,1,14-.86,25.24,25.24,0,0,0-4-6.69.65.65,0,0,1,1-.87,26.78,26.78,0,0,1,4.22,7.06l.47,1h0a23.56,23.56,0,0,0,1.69,3.13c1.91,2.83,9.8,4.8,13.47,4.39a21.13,21.13,0,0,1,5.73,0,.65.65,0,0,1,.33,0,.64.64,0,0,1,.32.14c1.05.18,2.16.43,3.47.73a36.25,36.25,0,0,0,7.81.27,42.14,42.14,0,0,1,7.23.16c.62.1,1.18.22,1.72.34,2.87.62,4.46,1,7.26-3.36a7.59,7.59,0,0,0-.42-9.09c-4.55-.45-10.57-2.11-15.26-3.5l-.77-.23c-2.27-.67-7.61.5-9.48,1a.65.65,0,1,1-.34-1.25c.29-.08,7.09-1.91,10.18-1l.78.23c2.83.84,10.1,3,15.23,3.48h0a12.23,12.23,0,0,0,3.9-.12,15.46,15.46,0,0,1,4.49-.36c2.46.07,4.24.12,6.16-2.95,3-4.72,2.86-6.41-1-13.44-.71,0-1.41-.06-2.11-.13a5,5,0,0,1,2,2.58.65.65,0,0,1-.5.77h-.13a.65.65,0,0,1-.63-.5c0-.06-.66-2.26-5.4-3.68-1-.24-1.81-.5-2.52-.74-3-1.06-20.45-5.4-20.63-5.44a.65.65,0,1,1,.31-1.25c.72.18,17.66,4.4,20.74,5.48s11.48,3,15.65.08c4.34-3.08,5.95-9.58,5.64-10.64a13.49,13.49,0,0,0-5.87-6.7,9.88,9.88,0,0,1-2.78.41,10.06,10.06,0,0,1-2.4-.29c-1.64-.4-9.78-4-15.72-6.58-2.71-1.19-4.85-2.13-5.44-2.35a.65.65,0,1,1,.46-1.21c.61.24,2.77,1.18,5.5,2.38,5.57,2.44,14,6.13,15.51,6.51a8.77,8.77,0,0,0,4.71-.15h0a9.14,9.14,0,0,0,2.39-1.18c2.22-1.52,3.6-6,3.6-9.24,0-2.19-1.81-4.56-3.74-7.07-.68-.89-1.39-1.82-2-2.76-1.91-2.79-7.63-5.92-9.87-7.08a9.8,9.8,0,0,1-.12,1.27c1.39.61,2.44,1.09,2.79,1.28,1.49.82,5.6,5.37,6.06,5.88a.65.65,0,0,1-1,.86c-1.22-1.36-4.62-5-5.72-5.61-1.47-.81-11.65-5.12-13.84-5.38-2.67-.32-11.3-7-11.39-7a.65.65,0,0,1,.81-1,84.48,84.48,0,0,0,8.71,5.91c-.05-2.35-3.88-6.1-5.37-7.36a.65.65,0,1,1,.83-1c.6.51,5.83,5,5.83,8.39a.64.64,0,0,1-.23.49,3.7,3.7,0,0,0,1,.31c1.66.2,6.64,2.17,10.29,3.72a41.88,41.88,0,0,0-.36-7.48c-.25-2.62-.54-5.58-.6-8.52-.08-3.75,1.41-6.73,3-9.88a27.1,27.1,0,0,0,3.2-9C269.77,361.58,268.36,339.19,260.71,336.84Z"/><path class="cls-3" d="M352.34,313.35a.64.64,0,0,1-.17-.17c-4.56-4.4-15.24-13.31-22.93-19.52a40,40,0,0,1-2.58,12.71q-.58,1.48-1.3,2.86c5.28,6.49,6.8,17.54,7.62,23.52.16,1.19.31,2.23.44,3,.18.52,2.17,6.31,4.89,8,2.52,1.59,9.78,2.83,11.76,3.15,1.7-4.78,2-10.19,2-14.4-.19-3.27-1-4.13-2.07-5.21a10.16,10.16,0,0,1-1.91-2.52c-1.86-3.54,3.12-9,3.33-9.25a.65.65,0,0,1,1,.87c-1.28,1.39-4.33,5.5-3.14,7.77a9,9,0,0,0,1.7,2.22,8,8,0,0,1,1.49,1.9c.28-2.12.7-4.41,1.09-6.55a39.86,39.86,0,0,0,.88-6.12A10.78,10.78,0,0,0,352.34,313.35Z"/><path class="cls-3" d="M221,482.1A23.79,23.79,0,0,1,210.21,480a34.81,34.81,0,0,1-3.25,5.45,44.19,44.19,0,0,0-3.43,5.65l1.52,1.72c4.22,4.77,7.87,8.89,8.95,11.21,2.22,4.77,3.27,12.9,3.67,16.88,2.28-.6,5.26-1.75,5.72-2.79s-.92-3.45-2-5.47a29.38,29.38,0,0,1-1.9-4c-1.1-3.24-.23-10.16,2.8-14.92,2.27-3.58,3.46-9.6,3.81-11.66A20,20,0,0,0,221,482.1Z"/><path class="cls-3" d="M205.94,484.66a34.09,34.09,0,0,0,3.11-5.24,7.87,7.87,0,0,1-2.71-2.26,23,23,0,0,1-1.64-3,45.58,45.58,0,0,0-14,.66c3,4.84,7.63,10.37,11.91,15.24A42.37,42.37,0,0,1,205.94,484.66Z"/><path class="cls-3" d="M204.09,493.68l-1.82-2.06h0c-4.83-5.48-10-11.56-13.1-16.86l0-.06c-1.67-2.89-2.71-5.54-2.71-7.74,0-10.3,5.91-31.2,12.65-35.59,4.46-2.91,8.43-5.58,10.52-7-2.27.09-7,.87-15.65,4.68a154.4,154.4,0,0,1-21.17,7.13c-3.64,1-7.41,2.06-7.83,2.64a16.75,16.75,0,0,1-1.43,2c-3.4,4.36-11.37,14.58-10,23.78.12.81.24,1.65.37,2.52,1.65,11.24,4.15,28.22,11,36.23,2.29,2.69,4.18,5.38,5.85,7.76,3.84,5.48,6.62,9.44,11.19,9.53,1.77,0,4.08-.08,6.53-.2s5.29-.26,7.85-.26c5.11,0,9.65.53,11.56,2.67h0c2.7,3.07,7.42.78,8.7.07-.18-2.19-1.15-12.82-3.72-18.33C211.83,502.43,208.24,498.37,204.09,493.68Z"/><path d="M132.8,376.45c14.69.17,16.81,5,19.26,10.67a37.21,37.21,0,0,0,2.27,4.61c1.41,2.31,3.1,4.57,4.89,7,3.86,5.16,7.85,10.49,9.11,16.67a74.42,74.42,0,0,0,4.07,14.17.65.65,0,0,0,.59.38.64.64,0,0,0,.26-.06.65.65,0,0,0,.33-.85,74.81,74.81,0,0,1-4-13.91c-1.31-6.47-5.39-11.92-9.34-17.19-1.77-2.37-3.45-4.6-4.82-6.86a36.16,36.16,0,0,1-2.19-4.45c-2.53-5.8-4.91-11.27-20.43-11.45h0a.65.65,0,0,0,0,1.29Z"/><path d="M173.28,381.25c31.82,22.75,40.27,25.62,43,25.62a2.82,2.82,0,0,0,1.16-.23.65.65,0,1,0-.48-1.2c-1.84.73-9.81-1.56-42.68-25-19.17-13.69-37.13-27.69-37.81-28.26a.65.65,0,0,0-.91.92C135.9,353.38,154.49,367.82,173.28,381.25Z"/><path d="M140.28,556.14l-3.75.27C137.79,556.37,139.05,556.28,140.28,556.14Z"/><path d="M507.52,549.48c-2.09-19.86-6.39-48.76-19.48-70.37-8.47-14-8.53-21.13-8.6-28.71a58.6,58.6,0,0,0-1-12c-3-14.78-25.3-76.52-31.2-82.42-5.31-5.31-20.94-18.82-28.09-20.7-6.54-1.72-63.14-22-66.09-23-1.89-1.84-5.17-4.79-10.88-9.6S330.54,293,329.29,292c.25-12.6-3.81-28.31-12.17-46.94-9.49-21.17-21.92-40.24-27.23-48.39-1.06-1.62-1.82-2.79-2.23-3.47l-.11-.18c-7-11.58-14.57-21.12-22.64-28.55a.64.64,0,0,0-.17-.16c-18.35-16.81-39.14-22.69-60.55-16.65a62.69,62.69,0,0,0-27,15,53.57,53.57,0,0,0-14.37,23.91c-6.32,21.82.62,47,18.55,67.85a4.82,4.82,0,0,0-2.75.54c-1.73.95-2.78,3-3.13,6.13-.48,4.24,2.93,11.22,8.9,18.2,6.13,7.16,13.36,12.54,19.35,14.38l.15,0a7.81,7.81,0,0,0,3.18-.58l2.2,4.26c-3.06,1.75-3,4.88-3,7.92a14.4,14.4,0,0,1-.6,5.3,31.56,31.56,0,0,0-9.8,4.76c-2,1.39-12.56,5.34-24.79,9.93-21.91,8.21-49.18,18.43-52.65,23.12a62.37,62.37,0,0,1-8.55,8.64c-4.56,4.08-9.27,8.29-11.35,13a24.61,24.61,0,0,0-2.13,8.52,9.57,9.57,0,0,1-2.1,6c-2.09,2.67-4,12.88-5.82,22.76-1.32,7.09-2.68,14.42-3.69,15.91-1.57,2.31-.46,4.75.82,7.59a21.4,21.4,0,0,1,2.21,7.1c-.87,1.25-5.22,7.86-3.78,14.47.61,2.81,0,9.59-.58,16.76-.91,10.71-1.86,21.79.39,25.33a25.22,25.22,0,0,0,3.31,4.2c1.34,1.42,1.79,1.89,1.54,4.88-.43,5.18.46,26.8,8,33.85,3.69,3.47,8.39,5.57,12.94,7.59s8.61,3.84,10.84,6.7c2.65,3.39,8.42,4.63,14.45,4.63q.81,0,1.62,0l3.75-.27a47.45,47.45,0,0,0,7.88-1.52c4.16-1.21,8.46-4.41,12.61-7.51,3.76-2.8,7.3-5.45,10-6a15.93,15.93,0,0,1,4.91,0c3.81.39,7.75.8,14.38-4.73a147.89,147.89,0,0,1,17.16-12.32,5.91,5.91,0,0,0,4.23,1.63,12.87,12.87,0,0,0,6.08-1.9l.32-.21,0-.38c0-.08,0-.44-.08-1,1.6-.4,5.93-1.65,6.78-3.57.68-1.52-.65-4-2-6.6a28.6,28.6,0,0,1-1.81-3.78c-1-3-.08-9.49,2.66-13.81,2.43-3.83,3.64-10,4-12.15.92.17,1.91.39,3.07.66a36.9,36.9,0,0,0,8.14.3,42.21,42.21,0,0,1,7,.14c.59.1,1.13.21,1.66.33a13.12,13.12,0,0,0,2.71.4c1.86,0,3.67-.87,5.9-4.31a8.73,8.73,0,0,0,.14-9.69h.51a9.87,9.87,0,0,0,2.41-.25,14.11,14.11,0,0,1,4.13-.32c2.56.07,5,.13,7.29-3.56,3.31-5.29,2.92-7.59-.6-14.14a11.41,11.41,0,0,0,6.06-1.76c4.6-3.27,6.68-10.14,6.14-12.05a15,15,0,0,0-5.56-6.94,10.76,10.76,0,0,0,1.43-.82c2.87-2,4.16-7.21,4.16-10.3,0-2.63-1.94-5.17-4-7.86-.67-.88-1.37-1.79-2-2.71-2.31-3.37-9.26-7-10.93-7.8,0-1.55-.23-3.4-.42-5.41v-.08c1.57,1,7.82,5,14.68,8.76a52.93,52.93,0,0,0,8.26,3.47c5.15,1.82,10,3.54,13.95,8.77a.65.65,0,0,0,1-.78c-4.17-5.54-9.21-7.32-14.55-9.21a52,52,0,0,1-8.06-3.39c-7.86-4.36-14.92-8.91-15-9a.64.64,0,0,0-.46-.09c-.21-2.2-.4-4.57-.45-6.92a15.52,15.52,0,0,1,1.71-6.93c3.19,2.31,17.45,12.75,19.57,16.26,1.48,2.45,5.18,5.74,8.44,8.64a49.81,49.81,0,0,1,5.39,5.2c2.07,2.77,9.87,15.65,10.95,17.43-1,7.81-1.88,14.54-2.09,16.22a.63.63,0,0,0,0,.1v0c.11,1.71-.28,8.19-.54,12.48-.08,1.33-.15,2.45-.18,3.13a28,28,0,0,1-.52,3c-.94,4.72-2.52,12.63.66,16.63,1.88,2.36,1.31,10.3.75,18-.54,7.44-1,14.47.46,17.67,1.66,3.52.42,12.5-.67,20.43-.84,6.07-1.56,11.31-.95,13.65a.65.65,0,0,0,.62.48l.16,0a.65.65,0,0,0,.46-.79c-.54-2.09.2-7.46,1-13.14,1.12-8.11,2.38-17.29.56-21.16-1.36-2.89-.84-10.07-.34-17,.6-8.29,1.16-16.12-1-18.87-2.81-3.53-1.3-11.07-.4-15.57a27.44,27.44,0,0,0,.54-3.22c0-.68.1-1.79.18-3.11.26-4.29.64-10.74.54-12.57l0-.18c.32-1.33,3.79-8,9.29-17.49.19,6.28.51,19.81,0,25.27-.59,6.73.67,13,4.36,21.74,1.63,3.86,1,9.53.25,15.54-.65,5.52-1.33,11.24-.29,16.14,2.11,9.93,0,43.44,0,43.78a.65.65,0,0,0,.6.69h0a.65.65,0,0,0,.64-.61c.09-1.39,2.14-34,0-44.13-1-4.69-.33-10.3.31-15.72.73-6.18,1.42-12-.34-16.19-3.6-8.51-4.83-14.63-4.26-21.12.56-6.34.07-22.78-.09-27.49l.65-1.11c6.85-11.61,12.58-20.32,14.6-22.19,4.67-4.32,7.71-19.17,9-25.51l.23-1.12a28.71,28.71,0,0,0,.17-6.75c-.23-4.86-.49-10.38,3-14.21,5.3-5.86,5.91-15.11,5.91-21.55a70.48,70.48,0,0,1,1.41-10.5,35.42,35.42,0,0,0,.89-6.51c0-.18,0-.43-.63-1.16,11.54,4.12,57.78,20.61,63.8,22.19,6.36,1.68,21.29,14.15,27.5,20.37,5.7,5.7,28,67.91,30.85,81.77a57.54,57.54,0,0,1,1,11.77c.07,7.76.14,15.09,8.79,29.36,13,21.39,17.22,50.1,19.3,69.84a.65.65,0,0,0,.64.58h.07A.65.65,0,0,0,507.52,549.48ZM164.08,187c5.42-18.71,19.79-32.23,40.46-38.06,20.48-5.78,40.41-.37,58.14,15.3a152.83,152.83,0,0,0-33,4.28c-10.47,2.54-21.32,13-28.57,21.32-8,9.16-14.27,18.85-15.27,21.76-1.78,5.2,12.23,17.44,15.3,20-1.18,2.08-5.67,10.49-6.56,18.6-.95,8.59,8.43,21.22,10.21,23.52-.4.63-.63.67-.68.67-.62,0-1.83-2.2-2.88-4.14a59.65,59.65,0,0,0-3.9-6.42c-4.55-6.31-12.35-8.48-13.75-8.82C165,234.33,157.74,208.9,164.08,187Zm40,105.48c-5.75-1.8-12.72-7-18.66-14-5.66-6.62-9-13.37-8.6-17.22.3-2.67,1.13-4.4,2.46-5.13a4.51,4.51,0,0,1,3.7,0l3,1.48-.68-.76c2.85,1,7.85,3.31,11,7.7a58.62,58.62,0,0,1,3.81,6.29c1.64,3,2.63,4.81,4,4.81h0c1,0,1.63-1,2-1.71l.2-.37-.26-.33c-.11-.14-11.17-14.17-10.21-22.93s6.61-18.46,6.67-18.56l.28-.47-.42-.35c-4.72-3.94-16.67-15-15.32-19,1.6-4.66,23.64-37.57,42.92-42.25a148.33,148.33,0,0,1,34.1-4.24,127.61,127.61,0,0,1,22.34,28.19l.11.18c.42.69,1.19,1.87,2.25,3.51C315.46,238.29,328.6,270,328,292.09a.64.64,0,0,0,0,.46,39.82,39.82,0,0,1-2.58,13.33c-3.85,9.76-12.16,16.28-24.7,19.37a97.13,97.13,0,0,1-23.31,3c-21.67,0-36.91-8.41-46.64-16.64a77.43,77.43,0,0,1-20-26.05l-1.58-3.82.34,4.12c.19,2.25-.27,4-1.37,5.09A5.94,5.94,0,0,1,204,292.49Zm120.64,18c3.71,4.86,5.41,12.23,6.35,18-7.28-2.3-10.1-10.54-10.62-12.28A29.41,29.41,0,0,0,324.69,310.45Zm-117.93,1h0a14.48,14.48,0,0,0,.81-6.11c0-2.87-.05-5.37,2.3-6.76,6.37,12.34,20.47,39.57,22.28,42.48.71,1.14,1.9,2.73,3.28,4.57,3,4,7.12,9.49,7.62,12.43.74,4.36,1.23,7.4,1.23,7.43l.09.54h.55a3.76,3.76,0,0,1,2.2.69.63.63,0,0,0,.65.14,21,21,0,0,1,.27,3.48c-.12,1.81-1.76,6.35-3.64,10.62-2.86-3.95-13.93-19.14-16.48-21.61s-10.11-5.75-12.91-6.94c1.79-1.67,2.86-4.53,3.89-7.31.93-2.51,1.9-5.1,3.3-6.37,2.81-2.56,6.18.75,6.33.89a.65.65,0,0,0,.92-.91c-1.5-1.51-5.13-3.65-8.11-.94-1.63,1.48-2.6,4.1-3.64,6.87-1.13,3-2.3,6.17-4.29,7.38h0a14.08,14.08,0,0,0-4.41,5.09c-.67,1.12-1.3,2.18-1.71,2-1.78-.74-6.84-6.58-8.21-16-1.27-8.78-.1-15.39.83-20.7.11-.62.21-1.21.31-1.79a7,7,0,0,1,3.1-5A10.6,10.6,0,0,0,206.76,311.49ZM189.27,535.41c-6.21,5.18-9.87,4.8-13.42,4.43a17.23,17.23,0,0,0-5.29,0c-3,.59-6.68,3.32-10.55,6.21-4.06,3-8.26,6.16-12.2,7.31-8.36,2.43-22.16,3-26.32-2.36-2.43-3.11-6.76-5-11.34-7.08s-9-4-12.58-7.36c-7.16-6.73-8-27.76-7.56-32.8.29-3.43-.34-4.23-1.89-5.88a24.11,24.11,0,0,1-3.15-4c-2-3.17-1-14.51-.2-24.52.65-7.59,1.2-14.15.55-17.15-1.43-6.6,3.65-13.55,3.7-13.62l.14-.19,0-.24a22,22,0,0,0-2.34-7.78c-1.17-2.58-2.09-4.62-.93-6.33s2.43-8.52,3.89-16.4c1.72-9.27,3.67-19.78,5.56-22.2a10.86,10.86,0,0,0,2.37-6.67,23.18,23.18,0,0,1,2-8.12c2-4.49,6.57-8.61,11-12.59a64.26,64.26,0,0,0,8.73-8.83c3.24-4.38,31.46-15,52.06-22.68,12.81-4.8,22.94-8.6,25.07-10.07a33,33,0,0,1,8.23-4.23,10.71,10.71,0,0,1-2.38,2.43,8.24,8.24,0,0,0-3.56,5.76c-.1.58-.2,1.17-.31,1.78-1,5.41-2.14,12.13-.84,21.11,1.43,9.86,6.65,16,9,17a1.65,1.65,0,0,0,.64.14c1.08,0,1.83-1.26,2.68-2.68a13.37,13.37,0,0,1,3.74-4.49c1.8.76,10.73,4.57,13.2,7s14.95,19.53,16.77,22a44.08,44.08,0,0,1-3.52,6.51c-1.66,2.3-3.46,3.1-5.74,4.12a29.05,29.05,0,0,0-4.44,2.33c-2.83,1.87-4.71,6.3-6.22,9.87a22.1,22.1,0,0,1-2.31,4.62c-1.9,2.23-8.92,11.48-10.34,13.35-1.45-.22-6.41-.32-17.8,4.72a132,132,0,0,1-16.7,5.86l-8.15-2.89c-.66-.19-16.15-4.61-23.63-.39-3.56,2-7.56,4.84-12.2,8.11-4.9,3.47-10.46,7.4-16.69,11.17-7,4.26-14,16.12-20.71,35.25-.21.59-.39,1.11-.46,1.29a.65.65,0,0,0,0,.65l.19.39.43,0c.46,0,.46,0,1.11-1.88,8.23-23.46,15.5-31.75,20.16-34.57,6.27-3.8,11.85-7.74,16.77-11.22,4.61-3.26,8.58-6.07,12.09-8,7-3.95,22.48.46,22.6.5l6.4,2.27-2.15.6c-5.77,1.61-8.13,2.3-8.63,3.29a20.52,20.52,0,0,1-1.31,1.76c-.59.75-1.3,1.67-2.08,2.73-1.74.17-10.45,1.17-15.53,5.05-3.35,2.56-8.75,5.59-14,8.52l-1.06.59c-4.91-1.63-9.44-1.41-13.45.68-7.08,3.67-12.73,13.12-17.29,28.9-5.6,19.38,5.06,45.7,5.17,46a.65.65,0,1,0,1.2-.49c-.11-.26-10.6-26.16-5.12-45.12,4.45-15.41,9.9-24.61,16.64-28.11a15.17,15.17,0,0,1,11.3-.94c-2.19,1.24-4.23,2.41-5.92,3.48-3,1.85-8.06,8-12.29,17.21-4.7,10.19-6.66,20.73-5.53,29.68,2.6,20.53,18.05,27.17,18.21,27.24a.65.65,0,0,0,.5-1.19c-.15-.06-14.91-6.41-17.42-26.2s10.9-41.65,17.23-45.63c2.33-1.46,5.32-3.14,8.48-4.92,5.26-3,10.69-6,14.12-8.62,4-3.08,10.79-4.27,13.72-4.66-3.75,5.32-8.25,13.19-7.13,20.62.12.81.24,1.65.37,2.52,1.67,11.38,4.2,28.59,11.27,36.88,2.25,2.64,4.12,5.31,5.78,7.67,3.91,5.57,7,10,12.23,10.08,1.81,0,4.15-.08,6.62-.2,6.27-.3,14.69-.71,17.79,1.46A150.11,150.11,0,0,0,189.27,535.41Zm18.58-12.57h0c-1.9-2.15-6.44-2.67-11.56-2.67-2.56,0-5.26.13-7.85.26s-4.76.23-6.53.2c-4.57-.09-7.35-4.05-11.19-9.53-1.67-2.38-3.56-5.08-5.85-7.76-6.83-8-9.32-25-11-36.23-.13-.87-.25-1.72-.37-2.52-1.38-9.2,6.59-19.42,10-23.78a16.75,16.75,0,0,0,1.43-2c.42-.57,4.18-1.62,7.83-2.64A154.4,154.4,0,0,0,193.93,429c8.61-3.8,13.38-4.59,15.65-4.68-2.08,1.41-6.05,4.08-10.52,7-6.74,4.39-12.65,25.29-12.65,35.59,0,2.2,1,4.85,2.71,7.74l0,.06c3.08,5.3,8.27,11.38,13.1,16.86h0l1.82,2.06c4.15,4.69,7.74,8.75,8.74,10.9,2.57,5.52,3.54,16.15,3.72,18.33C215.27,523.62,210.55,525.9,207.85,522.84Zm-17.14-48a45.58,45.58,0,0,1,14-.66,23,23,0,0,0,1.64,3,7.87,7.87,0,0,0,2.71,2.26,34.09,34.09,0,0,1-3.11,5.24,42.37,42.37,0,0,0-3.32,5.4C198.35,485.19,193.67,479.66,190.71,474.82Zm31.57,18.93c-3,4.76-3.9,11.68-2.8,14.92a29.38,29.38,0,0,0,1.9,4c1.08,2,2.42,4.52,2,5.47s-3.44,2.19-5.72,2.79c-.4-4-1.45-12.11-3.67-16.88-1.08-2.32-4.72-6.44-8.95-11.21l-1.52-1.72a44.19,44.19,0,0,1,3.43-5.65,34.81,34.81,0,0,0,3.25-5.45A23.79,23.79,0,0,0,221,482.1a20,20,0,0,1,5.06,0C225.74,484.16,224.56,490.17,222.28,493.75Zm43.39-115.82c-1.58,3.15-3.06,6.13-3,9.88.06,2.94.35,5.9.6,8.52a41.88,41.88,0,0,1,.36,7.48c-3.65-1.55-8.63-3.52-10.29-3.72a3.7,3.7,0,0,1-1-.31.64.64,0,0,0,.23-.49c0-3.36-5.23-7.89-5.83-8.39a.65.65,0,1,0-.83,1c1.48,1.26,5.32,5,5.37,7.36a84.48,84.48,0,0,1-8.71-5.91.65.65,0,0,0-.81,1c.08.07,8.71,6.71,11.39,7,2.2.27,12.38,4.58,13.84,5.38,1.1.6,4.5,4.26,5.72,5.61a.65.65,0,1,0,1-.86c-.46-.52-4.57-5.06-6.06-5.88-.35-.19-1.4-.68-2.79-1.28a9.8,9.8,0,0,0,.12-1.27c2.24,1.15,8,4.29,9.87,7.08.65.95,1.36,1.87,2,2.76,1.92,2.51,3.74,4.88,3.74,7.07,0,3.25-1.38,7.71-3.6,9.24a9.12,9.12,0,0,1-2.37,1.17l0,0a8.77,8.77,0,0,1-4.71.15c-1.53-.38-9.94-4.06-15.51-6.51-2.73-1.2-4.88-2.14-5.5-2.38a.65.65,0,1,0-.46,1.21c.59.23,2.73,1.16,5.44,2.35,5.94,2.61,14.08,6.17,15.72,6.58a10.06,10.06,0,0,0,2.4.29,9.88,9.88,0,0,0,2.78-.41,13.49,13.49,0,0,1,5.87,6.7c.31,1.07-1.3,7.57-5.64,10.64-4.17,3-12.71.94-15.65-.08s-20-5.3-20.74-5.48a.65.65,0,1,0-.31,1.25c.18,0,17.6,4.39,20.63,5.44.7.25,1.56.5,2.52.74,4.74,1.42,5.38,3.61,5.4,3.68a.65.65,0,0,0,.63.5h.13a.65.65,0,0,0,.5-.77,5,5,0,0,0-2-2.58c.7.07,1.41.12,2.11.13,3.82,7,3.92,8.73,1,13.44-1.92,3.06-3.69,3-6.16,2.95a15.46,15.46,0,0,0-4.49.36,12.23,12.23,0,0,1-3.9.12h0c-5.14-.47-12.4-2.63-15.23-3.48l-.78-.23c-3.08-.9-9.89.92-10.18,1a.65.65,0,1,0,.34,1.25c1.87-.51,7.21-1.68,9.48-1l.77.23c4.68,1.4,10.7,3.05,15.26,3.5a7.59,7.59,0,0,1,.42,9.09c-2.8,4.32-4.39,4-7.26,3.36-.54-.12-1.1-.24-1.72-.34a42.14,42.14,0,0,0-7.23-.16,36.25,36.25,0,0,1-7.81-.27c-1.3-.3-2.41-.55-3.47-.73a.64.64,0,0,0-.32-.14.65.65,0,0,0-.33,0,21.13,21.13,0,0,0-5.73,0c-3.67.41-11.56-1.56-13.47-4.39a23.56,23.56,0,0,1-1.69-3.13h0l-.47-1a26.78,26.78,0,0,0-4.22-7.06.65.65,0,0,0-1,.87,25.24,25.24,0,0,1,4,6.69,47.59,47.59,0,0,0-14,.86c-1.43-2.53-2.31-4.84-2.31-6.69,0-10,5.84-30.45,12.06-34.51,6.54-4.26,12-8,12.08-8.05l1.06-.73-.37-.13c1.89-2.5,8.25-10.86,10-12.91a22,22,0,0,0,2.52-5c1.44-3.4,3.24-7.63,5.75-9.29a27.63,27.63,0,0,1,4.25-2.23c2.26-1,4.39-2,6.26-4.54a46.23,46.23,0,0,0,3.77-7,.64.64,0,0,0,.07-.15,80.06,80.06,0,0,0,3.48-8.9,30.54,30.54,0,0,1,.43,7.54.65.65,0,0,0,.56.72h.08a.65.65,0,0,0,.64-.56c0-.17.49-4.11-1-10.92a13.38,13.38,0,0,0-.07-1.77q1,2.81,2.26,6.36c4.07,11.07,2,19.21,2,19.29a.65.65,0,0,0,.46.79l.17,0a.65.65,0,0,0,.62-.48c.09-.35,2.2-8.59-2-20.07-3.73-10.13-4.48-13.57-4.6-14.73h0a26.42,26.42,0,0,1,.06-8.31c1-4.24,3.4-11.72,7.67-14.15a5.85,5.85,0,0,1,4.84-.47c7.65,2.35,9.06,24.74,8.17,32.06A27.1,27.1,0,0,1,265.68,377.93Zm34.45,32.25a49.08,49.08,0,0,0-5.57-5.39c-3.19-2.84-6.81-6.06-8.19-8.34-2.33-3.85-17.29-14.74-20.11-16.78l.57-1.15a28.13,28.13,0,0,0,3.32-9.45c.87-7.12-.2-30.72-9.07-33.45a7.17,7.17,0,0,0-5.86.58c-4.45,2.53-7,9.54-8.28,15-.88,3.6-.1,9.11.53,13.54l.11.79a5,5,0,0,0-2.1-.68c-.17-1-.58-3.6-1.15-6.93s-4.6-8.65-7.86-13c-1.36-1.82-2.54-3.39-3.22-4.48-2.14-3.43-22.43-42.78-25-47.83a5.74,5.74,0,0,0,.87-.72,6.24,6.24,0,0,0,1.66-3.39,81,81,0,0,0,19.18,24.1,70.47,70.47,0,0,0,28.29,14.69,76.63,76.63,0,0,0,19,2.32,99.48,99.48,0,0,0,23.82-3.06q11.45-2.83,18.32-9.34c.94,2.85,4.17,10.61,11.88,12.65.17,1.13.31,2.17.44,3.09.17,1.23.31,2.29.46,3.09.79,4.33-3.93,20.44-7,25.53-1.66,2.73-1.83,5-2.06,8.17A52.81,52.81,0,0,1,321.22,381c-2.92,10.57-4.49,15.1-6.21,17.94-1,1.67-3.05,15.36-4.69,27.39C308,422.45,302,412.63,300.13,410.18Zm46.34-57c-3.83,4.23-3.56,10-3.31,15.14a27.9,27.9,0,0,1-.14,6.42l-.23,1.12c-1.27,6.22-4.26,20.78-8.63,24.82-2.55,2.36-9.28,13.07-14.81,22.43a.59.59,0,0,0-.28-.05.65.65,0,0,0-.62.67s0,.34,0,.87c-1.8,3.07-6.16,10.61-8.67,15.59.48-3.76,1-7.78,1.54-11.77a.65.65,0,0,0,0-.15c1.86-13.78,3.89-27.23,4.75-28.64,1.79-3,3.4-7.56,6.35-18.26a54,54,0,0,0,1.9-11.57c.23-3.09.37-5.13,1.87-7.59,2.48-4.07,6.43-16.22,7.17-23,1,2,2.41,4.56,4.21,5.7,2.65,1.67,9.59,2.91,12,3.29A17.68,17.68,0,0,1,346.47,353.17Zm7-31.42c-.39,2.13-.8,4.43-1.09,6.55a8,8,0,0,0-1.49-1.9,9,9,0,0,1-1.7-2.22c-1.19-2.27,1.86-6.38,3.14-7.77a.65.65,0,0,0-1-.87c-.21.23-5.19,5.71-3.33,9.25A10.16,10.16,0,0,0,350,327.3c1.05,1.09,1.89,1.95,2.07,5.21,0,4.2-.27,9.62-2,14.4-2-.32-9.24-1.56-11.76-3.15-2.72-1.72-4.71-7.51-4.89-8-.14-.76-.28-1.8-.44-3-.82-6-2.34-17-7.62-23.52q.71-1.38,1.3-2.86a40,40,0,0,0,2.58-12.71c7.68,6.21,18.37,15.12,22.93,19.52a.64.64,0,0,0,.17.17,10.78,10.78,0,0,1,2,2.29A39.86,39.86,0,0,1,353.47,321.76Z"/><path d="M428.09,549.22c-.07-.11-6.78-11.52-6.23-17l0-.35c.23-2.34.44-4.56.63-6.69a.65.65,0,0,0,0-.14v0c2-23.13,1.24-34.4.18-39.83-2.62-13.38-1.77-22.22.86-34.79,1.54-7.39,5.61-13.9,9.91-20.8a127,127,0,0,0,9.59-17.42.65.65,0,1,0-1.19-.51,126.07,126.07,0,0,1-9.49,17.24c-4.37,7-8.49,13.61-10.08,21.22-2.66,12.74-3.53,21.7-.86,35.3.92,4.71,1.61,13.92.41,31.71a27.06,27.06,0,0,0-.76-3.27c-1.34-4.37-5.3-11.51-5.86-12.52l-2.42-17.87c1.45-5.4,3.5-11.41,5.19-16.39.45-1.32.87-2.56,1.24-3.68,2.87-8.6,5.11-38.26,5.2-39.52a.65.65,0,1,0-1.29-.1c0,.31-2.33,30.76-5.14,39.21-.37,1.12-.79,2.36-1.24,3.68-3.06,9-7.25,21.32-7.12,27.63,0,.88,0,1.79.06,2.72.15,6.74.31,14.37-.06,21-.43,7.62,4.68,30.66,4.9,31.64a.65.65,0,0,0,.63.51l.14,0a.65.65,0,0,0,.49-.77c-.05-.24-5.29-23.85-4.87-31.28.38-6.7.21-14.36.06-21.12,0-.93,0-1.84-.06-2.72a32.9,32.9,0,0,1,1-7.41l2,14.78,0,.12.06.11c0,.08,4.44,7.89,5.81,12.37A44.52,44.52,0,0,1,421.24,525c-.19,2.16-.4,4.41-.63,6.79l0,.35C420,538,426.69,549.4,427,549.88a.65.65,0,0,0,1.11-.66Z"/><path d="M440.07,360.71c-1.49,1.16-5.57,12.87-4.85,27.84a193.65,193.65,0,0,1-.86,28.11.65.65,0,0,0,.57.72H435a.65.65,0,0,0,.64-.57,195,195,0,0,0,.87-28.33c-.72-14.88,3.43-26,4.35-26.75a.65.65,0,0,0-.79-1Z"/><path d="M201.05,277.64c-2.19-1.38-4-3.4-4.32-4.8a1,1,0,0,1,.06-.76,2.28,2.28,0,0,0,.08-1.93,11,11,0,0,0-1.08-2.33h0l0,0c-1.12-1.89-2.73-3.82-3.71-4.27-.25-.11-.79-.45-1.41-.84-2.94-1.85-6-3.61-7.88-3a2.09,2.09,0,0,0-1.33,1.18c-1.4,3.09.29,8.73,4.1,13.73a33,33,0,0,1,2.37,3.63,14.3,14.3,0,0,0,6.3,6.31,31.36,31.36,0,0,1,4.74,3.39c1.26,1,2.28,1.89,3.35,1.89a2.48,2.48,0,0,0,1.53-.59.65.65,0,0,0-.79-1c-.82.63-1.32.34-3.27-1.27a32.94,32.94,0,0,0-4.93-3.52,13,13,0,0,1-5.82-5.84,34.12,34.12,0,0,0-2.46-3.76c-3.48-4.56-5.14-9.78-3.95-12.41a.79.79,0,0,1,.52-.47c1.51-.46,5,1.72,6.82,2.89a16.46,16.46,0,0,0,1.56.93,11,11,0,0,1,2.78,3.18l-4.18,2.32v.39c0,.22.18,5.38,2.34,7.61A4.82,4.82,0,0,0,196,280a3.73,3.73,0,0,0,.93-.12l.07,0a.65.65,0,1,0-.25-1.27l-.13,0c-.43.1-1.56.38-3.16-1.28s-1.87-5.17-2-6.36L195,269a8.26,8.26,0,0,1,.66,1.52c.16.53.12.8.08.86a2.25,2.25,0,0,0-.24,1.75c.39,1.77,2.36,4,4.89,5.62a23.08,23.08,0,0,1,4.74,3.9.65.65,0,0,0,1-.84A24,24,0,0,0,201.05,277.64Z"/><ellipse cx="247.57" cy="238.52" rx="4.12" ry="12.19" transform="translate(-90.75 177.51) rotate(-33.71)"/><ellipse cx="273.62" cy="221.14" rx="4.12" ry="12.19" transform="translate(-76.72 189.05) rotate(-33.71)"/><path d="M265.64,284.69A25.89,25.89,0,0,0,270,285a32.67,32.67,0,0,0,9.12-1.29c6.65-1.95,15.51-7.1,19.95-20.59a1.94,1.94,0,1,0-3.68-1.21c-7.44,22.61-28.17,19.11-29.05,19a1.94,1.94,0,0,0-.71,3.81Z"/></g></svg>