<svg id="Layer_1" data-name="Layer 1" xmlns="http://www.w3.org/2000/svg" viewBox="0 0 612.9 606"><defs><style>.cls-1{fill:#99b4ca;}.cls-2{fill:#fcdace;}.cls-3{fill:#e8e8cf;}.cls-4{fill:#050505;}.cls-5{font-size:20.87px;}.cls-5,.cls-7{fill:#231f20;font-family:DINPro-Medium, DINPro;}.cls-6{letter-spacing:-0.03em;}.cls-7{font-size:20.87px;}</style></defs><title>Untitled-1</title><path class="cls-1" d="M414.1,443.1a110.34,110.34,0,0,1-12.64,6.25c1,2,5.32,9.64,13.43,11.66,9.17,2.28,78.31-21.84,82.89-23.44.43-1.59-1.49-4.44-3.36-7.21-2.64-3.91-5.62-8.35-4-11.65.82-1.64,1-2.95.47-3.9a3.56,3.56,0,0,0-2.43-1.57c-12.57,1.74-56.82,18-58.26,18.55-6.91,5.19-13,9.57-15.22,10.8Z"/><path class="cls-2" d="M137.74,337.49a9.09,9.09,0,0,0,.26-2.59v0a.11.11,0,0,1,0,0c-.11-7.43-4.24-23.46-4.29-23.65l-.08-.3.22-.21a9.21,9.21,0,0,1,5.83-2.43c1.94.08,3.2,2,4.22,3.63.4.62,1.06,1.65,1.33,1.67a4.79,4.79,0,0,0,2-2.7,6.66,6.66,0,0,0-.75-6.12c-1.93-2.92-1.28-4.82-.64-6.65a7.78,7.78,0,0,0,.56-4.19c-.67-3.82-10.39-5.52-13.66-5.67a.89.89,0,0,1-.76-.44c-.52-.88.41-2.8,2.39-6.72,2.19-4.32,5.49-10.85,3.62-12.59a.61.61,0,0,0-.58-.14c-2,.37-5.84,5.38-10.06,12.08a.5.5,0,0,1-.06.09c-4.47,7.09-9.37,16-13,23.39-4.27,8.59-2,21.21-.7,28.74a39.3,39.3,0,0,1,.75,5.29c0,3.83,3.19,10.52,3.65,11.46,5.51,4.1,16.08-1.88,20.86-4.64C138,343.77,136.51,341.48,137.74,337.49Z"/><path class="cls-1" d="M396.46,414.6c1.69-.33,8.29-4.22,15.44-8.53-.84-5-10.6-63.08-13.55-74.58-2.31-9-6.64-13.59-8.58-15.28,2,12.05,2.87,35.3,3.66,56.42C394.13,391.54,394.93,412.93,396.46,414.6Z"/><path class="cls-2" d="M532.57,416.36c.54-.6,6.1-6.92,6.36-11.77a22.65,22.65,0,0,0,0-2.91,27.66,27.66,0,0,1-6.64,11.41.52.52,0,0,1-.71-.76,27.2,27.2,0,0,0,6.92-13.14c1-5,.54-6,.41-6.19-2.42,7.6-8.21,14.07-8.54,14.43a.52.52,0,0,1-.77-.7c.1-.12,10.47-11.69,9.22-21.72-.53-4.22-1.13-4.65-1.2-4.68-.44.2-1.29,2.95-1.3,3.84a.51.51,0,0,1-.22.41,21.82,21.82,0,0,1-2.7,8.5,46,46,0,0,1-5.44,6.66.52.52,0,1,1-.73-.73,45.88,45.88,0,0,0,5.3-6.49c2.1-3.27,3.28-9.89,2.52-14.17a13.91,13.91,0,0,0-.66-2.72c-.38.39-1.17,2-2.83,6.87-3.26,9.61-9.59,14.44-14.19,14.28-.3,0-1.2,0-1.53-.76-.48-1,.65-2.49,2.35-4.71s3.89-5.07,4-7.37c.06-.94-.36-1-.57-1.06-2.47-.46-10.83,5.75-12.78,12.15-2.27,7.45-14.72,17.6-17,19.41.6,1.25.43,2.84-.51,4.72-1.38,2.77,1.42,6.93,3.9,10.61a40.47,40.47,0,0,1,2.84,4.61c.42-.3,2.46-1.6,7.86-2.89C511.65,430.15,531.38,417.15,532.57,416.36Z"/><path class="cls-3" d="M144.6,284c-.09-.82-.45-1-.57-1-1-.46-3.18.63-4.33,1.42a.52.52,0,0,1-.37.08l.55,4a23.2,23.2,0,0,1,3.43,1.22A9.35,9.35,0,0,0,144.6,284Z"/><path class="cls-3" d="M142,340.64c2.28,1,5.24-.9,6.36-1.63l.24-.15c.17-1.81-2.09-15.58-3.65-24.34-.67-.19-1.23-1.06-1.9-2.1-.89-1.38-2-3.1-3.39-3.15a7.56,7.56,0,0,0-4.85,2c.6,2.35,4.09,16.34,4.22,23.5h0C139.45,337.94,140.45,339.93,142,340.64Z"/><path class="cls-2" d="M310,297c18.13-.12,31.85-10.37,33.88-12-5.62-2.52-10.23-4.45-12.56-5.28-7.38-2.63-4.37-23.65-3.44-29.22-4.61,7-11.44,13-21.47,14-.74.07-1.46.11-2.17.11-10.29,0-17-7.5-21.36-16,.7,7.64,2,28.59-4.12,33-2,1.41-5.16,2.46-9.2,3.64,4.63,2.45,23.12,11.65,40.13,11.65Z"/><path class="cls-3" d="M135.32,281.5c-1.11,2.2-2.49,4.92-2.43,5.65a36.66,36.66,0,0,1,5.9.94l-1.47-10.64C136.69,278.8,136,280.17,135.32,281.5Z"/><path class="cls-4" d="M329.11,249.41c-1.41,7.42-3.7,27.16,2.53,29.38,2.52.9,9.48,3.83,17.69,7.62-1.25-2.31-3.4-6.92-2.6-10.16,1-4.14-1.6-23.36-4.71-27.34s-3.82-16.13-3.93-18.39a4.3,4.3,0,0,1-1.66-1.7,65.39,65.39,0,0,1-7.53,20.06A.52.52,0,0,1,329.11,249.41Z"/><path class="cls-2" d="M334.77,216.73a.64.64,0,0,1-.25-.05c-.85-.37-.82-2.27,1-15,.47-3.26.88-6.07.9-7,0-2.12-3.69-6.55-5.26-8.21-22.76-8-39.19-4.79-47.8-1.64-.21,1.21-1,5.62-1.86,10.86-.21,1.25-.46,2.93-.73,4.76-1.79,12-2.46,14.81-3.58,14.92h-.07c-.39,0-.69-.31-.9-.91-1.13-3.28-1.87-5.47-2-6-.43-.4-2.58-2.34-4.44-2a3.1,3.1,0,0,0-2.17,2c-2,4.32,3.56,19.57,6.3,21.26.24.15.28.09.35,0a6,6,0,0,0,1.53-3.72c-.05-.35-.08-.55-.08-.55l-.58-4.68,1.58,4.42a2.6,2.6,0,0,1,.11.72c.77,5.08,6.84,39.84,29.46,37.62,24.35-2.4,29.34-36.08,29.39-36.42l.28-2,.72,1.91c.33.88,1.29,2.68,2.18,2.68h0c.34,0,1.24-.35,2.29-3.44,2.48-7.31,3.79-16.47,1.85-17.8-.74-.51-2,.35-3,1.17-.37.6-2.76,4.47-4.53,6.72A.85.85,0,0,1,334.77,216.73Zm-38.49,0c-1.4,0-2.53-3.07-2.53-6.85s1.13-6.85,2.53-6.85,2.53,3.07,2.53,6.85S297.67,216.73,296.27,216.73Zm21.81,0c-1.4,0-2.53-3.07-2.53-6.85s1.13-6.85,2.53-6.85,2.53,3.07,2.53,6.85S319.48,216.73,318.08,216.73Z"/><path class="cls-2" d="M473.56,337.49h0c-2.77-1-5.48,3.92-6.43,6.2a17.63,17.63,0,0,1,2.47,6.81c.17.8.34,1.62.56,2.47a47.69,47.69,0,0,1,1.22,9.12C474.06,350,475.54,338.27,473.56,337.49Z"/><path class="cls-1" d="M268.77,165.39l6.1,24a15.36,15.36,0,0,1,.89-2l.16-.17A33.51,33.51,0,0,1,282.6,184a.49.49,0,0,1,.36-.13c8.78-3.23,25.5-6.5,48.62,1.61l.13,0c1.45.51,2.92,1.05,4.42,1.66a7.51,7.51,0,0,1,3.85,3.53l.07.14,6.58-23.6C309.31,144,272.64,163.22,268.77,165.39Z"/><path class="cls-4" d="M336.57,201.82C336,206.1,335,212.9,335,215.18c1.71-2.28,3.78-5.64,4.08-6.12.25-.92,3.13-11.93,0-17.8a6.49,6.49,0,0,0-3.32-3.06c-.84-.34-1.66-.65-2.49-1,1.71,2,4.29,5.37,4.24,7.49C337.47,195.69,337.07,198.4,336.57,201.82Z"/><path class="cls-4" d="M275.2,230.16c.18,1.33,1,8.76-1.12,12.71-.59,1.08-1.36,2.22-2.18,3.42-2.35,3.47-5,7.41-4.72,11.87.07,1.1.19,2.19.3,3.25.52,5,1,9.67-3,13.26-3.64,3.28-5.93,10.53-6.65,13.09,3.09-1,6.07-1.87,8.8-2.65,5.18-1.47,9.27-2.64,11.47-4.23,6.87-5,3.45-34.51,3.42-34.81a.49.49,0,0,1,0-.09,81.82,81.82,0,0,1-5.33-17.47A9.9,9.9,0,0,1,275.2,230.16Z"/><path class="cls-4" d="M279.77,200.33c.27-1.84.52-3.53.74-4.78.77-4.58,1.45-8.53,1.76-10.26a32.77,32.77,0,0,0-5.65,2.79c-3.84,7.13-1.58,19.36-1.45,20,.05.15.8,2.39,2,6C278,212.21,279.14,204.59,279.77,200.33Z"/><path class="cls-1" d="M212.79,321.84c-7.48,11.19-28.18,57-28.39,57.43l-.29.64-.53-.46c-15.64-13.68-39.45-34.16-41.7-35.19-.33.12-1.3.68-2.24,1.22-5.27,3-16.23,9.39-22.37,4.65l-.36-.26c1.79,4.53,19.89,28.77,27.55,37.94,8.46,10.13,24.13,23.93,31.81,26.71,10.4-2.93,24.61-6.54,28-7.4-.05-3-.35-22.46,0-41.71.37-20.25,8.25-39.16,24.78-59.51.46-.56.93-1.09,1.41-1.62C225.08,308.44,217.32,315.05,212.79,321.84Z"/><path class="cls-3" d="M136,267.82a.51.51,0,0,1,.41-.56l58.33-11.81-8.3-60.63L64.74,220l12.93,57.85,48.47-8,1.12,8.81C130.53,273.56,133.73,269.3,136,267.82Z"/><path class="cls-2" d="M469.63,377.68c1.21-8.94,1-18.54-.51-24.46-.22-.86-.4-1.7-.57-2.51-.94-4.46-1.69-8-8.49-11.16a44.9,44.9,0,0,0-19.49-4.11c-.65,0-.87.19-.88.23-.1.34,1.52,2.2,7.77,4.21l.85.27c7.76,2.5,13.37,4.3,15.07,10.4a.52.52,0,1,1-1,.28c-1.55-5.56-6.94-7.29-14.39-9.69l-.85-.27c-1.31-.42-2.48-.86-3.52-1.3h0c-2.32-.88-11.22-.81-13.85.68-.42.24-.5.42-.51.49-.26,1.43,3.26,3.36,5,4.07a.51.51,0,0,1,.29.33c6-.89,16.5-.29,20.13,2.35,5,3.65,5.14,8,5.15,8.2a.52.52,0,0,1-.51.53h0a.52.52,0,0,1-.52-.51s-.14-4.05-4.72-7.38c-3.91-2.84-16.91-3.14-21.68-1.68-1.19.36-1.34.69-1.35.72a1.08,1.08,0,0,0,.06.94c.61,1.14,2.94,1.94,3.79,2.15a.51.51,0,0,1,.34.29c5.41,0,13.26,1.53,16.85,5.37a.52.52,0,1,1-.76.71c-4.76-5.08-18-5.94-20.68-4.39-.1.06-.28.18-.26.25.37,1.24,4.22,2.88,7.31,4.2,2.79,1.19,5.43,2.32,6.57,3.42l0,0h0c2.77,2.75,2.31,8.82-1,13.31-3,4-1.79,15-1.58,16.76l.07,0,0,.34c0,.06-.65,5.64,1,8.14,1.27,2,6.6,6.82,10.74,6.89a4,4,0,0,0,3.62-1.88h0C457.2,403.77,468.37,387.06,469.63,377.68Z"/><path class="cls-1" d="M310.71,134.08,255,165.69l14.16,5.38-1.57-6.18.33-.2c.39-.24,39.68-23.3,79.6,2l.33.21-1.6,5.72,10.84-4.45Z"/><path class="cls-3" d="M473.89,336.5h0L515.12,355l31.67-51.59-99.26-56.69-28.36,58.63,42.6,24.68-4.16,7.33c1,.36,1.92.76,2.9,1.21a17.16,17.16,0,0,1,5.88,4.14C467.35,340.63,470.25,335.2,473.89,336.5Z"/><path class="cls-3" d="M436.39,383.57a4.94,4.94,0,0,0,3.89.74c-.05-4,.33-8.77,2.19-11.28,3.06-4.12,3.23-9.05,1.56-11.43l-9.44,18.34A5.52,5.52,0,0,0,436.39,383.57Z"/><path class="cls-2" d="M140.9,429c-3,5.65-12.33,20.62-15.36,24.73-2.83,3.84-5.09,11.38-4.83,16.15.5,9.31,1.67,17,2.65,17.44,1.37-1.19,1.81-11.23,1.76-17.28a.51.51,0,0,1,.09-.28c0-.84,0-1.45,0-1.74a.52.52,0,0,1,.52-.51h0a.52.52,0,0,1,.51.53c-.2,8-.11,21.26,1,22.67,1.42,1.84,2.52,2.83,4,2.58l-.16-.32a14.84,14.84,0,0,1-2-8.71c.17-4.61,0-15.7,0-15.81a.52.52,0,0,1,.51-.53h0a.52.52,0,0,1,.52.51c0,.11.19,11.23,0,15.86a13.71,13.71,0,0,0,1.85,8.21l.43.89c1.1,2.29,3.69,3.92,5,4.63a50.06,50.06,0,0,1-3-9.48,72.76,72.76,0,0,1,.12-8.08c.17-4.19.43-10.53,0-11.28a.51.51,0,0,1,.09-.72.53.53,0,0,1,.73.09c.62.79.55,4.43.24,12a76.08,76.08,0,0,0-.13,7.89c.46,3.17,4.34,15.43,7.83,15.65a.82.82,0,0,0,.79-.48c1.77-3-.88-15.18-2.67-18.07-2.53-4.08,2.59-17.28,3.18-18.77.32-.81.73-1.67,1.41-1.49.38.09,1.53.37.37,12.25-.53,5.46,2.38,7.51,4,8.62,1.23-1.48,3.61-13.64,4.64-18.91.35-1.8.64-3.28.83-4.14.48-2.18.2-7.6,0-12.39-.33-6.43-.42-9.32.13-10.12,1.07-1.54,8.38-.73,11.77-.26.68-.84,3.35-4.72,2.8-13.69-.44-7.16-3.92-7-5.23-7-.35,0-.71,0-.89-.27C160.34,420.22,143.46,424.11,140.9,429Z"/><path class="cls-1" d="M364.43,465.16s.14-.92-.88-5.08a11.13,11.13,0,0,0-2.54-4.31c-1.73-2.14-3.7-4.56-3.53-9.16a65.51,65.51,0,0,0-.76-9.44c-.8-6.44-1.71-13.73-.08-19.75a68.35,68.35,0,0,1,3.45-9.57.51.51,0,0,1,.15-.35l.54-1.24a80.31,80.31,0,0,0,4.86-13.58c2.64-10.56,4.3-42.67,4.31-43a.5.5,0,0,1,.54-.49.52.52,0,0,1,.49.54c0,.32-1.68,32.54-4.34,43.19a81.28,81.28,0,0,1-4.91,13.75l-.56,1.3c.74,2.74,8.21,29.92,16.78,39.7,5.14,5.87,14.39,4.14,22.55.95l.05,0,.08,0a108.06,108.06,0,0,0,13-6.38l.92-.52c2.45-1.36,8.41-5.65,15.11-10.7a.51.51,0,0,1,.19-.14c11.87-8.95,26-20.22,27.29-21.9a3.25,3.25,0,0,0,.41-3.86,5,5,0,0,1-4.07,1.78c-4.56-.08-10.19-5.2-11.59-7.37-1.53-2.36-1.3-6.83-1.17-8.33-2.57.27-15.21,7.91-24.55,13.56s-17.66,10.68-19.64,10.92a.81.81,0,0,1-.65-.21c-1.82-1.55-2.46-16.49-3.45-42.76-.79-21-1.73-46-3.85-57.56v0c-.54-2.93-1.15-5-1.86-5.9-4-5.12-21.7-14.33-36.32-21.17h0c-1.88-.88-3.72-1.72-5.46-2.51a.51.51,0,0,1-.09.12c-.15.12-14.87,12.3-34.81,12.43h-.31c-18.86,0-39.43-11.1-41.56-12.27l-1.17.34c-11.22,3.2-26.59,7.57-37,20.44-16.38,20.16-24.18,38.87-24.55,58.87-.39,20.84,0,41.87,0,42.08v.41l-.4.1c-13.62,3.43-33.71,8.73-38.45,10.57,1.87.21,4.7,1.46,5.09,7.93.49,8.11-1.53,12.25-2.62,13.86,3.66.25,16.64,1,22-.06,1.8-.37,5.3-.9,9.74-1.56,10.74-1.62,27-4.07,30.61-6.16,4.06-2.33,6.25-29.53,6.75-39.81a.49.49,0,0,1,.54-.49h0c-3.57-13.43-1.69-37.81-1.59-39a.52.52,0,0,1,1,.08c0,.32-2.51,32.55,3.31,43.33,6.13,11.32,3.94,36.91,2.12,43a19.19,19.19,0,0,0-.53,9.67,17.23,17.23,0,0,1,.29,2.7c0,3.13-2.59,6.89-4,7.9-.71.5-.82,3.48-.67,5.33l125.86.2A.51.51,0,0,1,364.43,465.16Z"/><path class="cls-4" d="M283.45,184.52l-.06.34c8.6-3.15,25-6.34,47.8,1.64l-.1-.11a.52.52,0,0,1,0-.73.51.51,0,0,1,.47-.12c-23.12-8.12-39.84-4.84-48.62-1.61H283A.52.52,0,0,1,283.45,184.52Z"/><path class="cls-4" d="M274.59,229.52a.52.52,0,0,1,.59.44l0,.2a9.9,9.9,0,0,0,1-1.65A81.82,81.82,0,0,0,281.55,246a.51.51,0,0,1,1,0c0,.21.14,1.22.28,2.76,4.33,8.45,11.07,16,21.36,16,.7,0,1.43,0,2.17-.11,10-1,16.86-7.06,21.47-14,.12-.72.21-1.2.23-1.32a.52.52,0,0,1,.61-.41.51.51,0,0,1,.2.09,65.39,65.39,0,0,0,7.53-20.06,4.3,4.3,0,0,0,1.66,1.7c0-.18,0-.31,0-.35a.52.52,0,0,1,.5-.54.54.54,0,0,1,.54.5s0,.21,0,.54c1.15-.19,2.13-1.53,3-4.11,1.79-5.3,4.51-16.91,1.45-19-.8-.55-1.87-.41-3.16.4.71-3.05,2-10.31.26-15.53l0,.15a.52.52,0,0,1-.5.38l-.14,0a.52.52,0,0,1-.36-.64l.39-1.41-.07-.14a7.51,7.51,0,0,0-3.85-3.53c-1.5-.6-3-1.14-4.42-1.66a.5.5,0,0,1,.13.09c.17.18.72.76,1.41,1.57.82.31,1.65.62,2.49,1a6.49,6.49,0,0,1,3.32,3.06c3.16,5.86.28,16.88,0,17.8l0-.06a.52.52,0,1,1,.89.54l0,.08c1-.83,2.3-1.68,3-1.17,1.94,1.32.62,10.49-1.85,17.8-1,3.09-1.95,3.43-2.29,3.44h0c-.88,0-1.85-1.8-2.18-2.68l-.72-1.91-.28,2c0,.34-5,34-29.39,36.42-22.62,2.23-28.7-32.54-29.46-37.62a2.6,2.6,0,0,0-.11-.72l-1.58-4.42.57,4.65s0,.23.08.57a6,6,0,0,1-1.53,3.72c-.06.08-.11.14-.35,0-2.75-1.69-8.35-16.94-6.3-21.26a3.1,3.1,0,0,1,2.17-2c1.86-.3,4,1.64,4.44,2l0-.12a.52.52,0,1,1,1-.33v0c-.12-.65-2.39-12.88,1.45-20a32.77,32.77,0,0,1,5.65-2.79l.16-.95a.51.51,0,0,1,.17-.29,33.51,33.51,0,0,0-6.68,3.24l-.16.17a15.36,15.36,0,0,0-.89,2l.44,1.73a.52.52,0,0,1-1,.26l0-.15c-1.56,5.81-.81,12.69-.36,15.63a6.05,6.05,0,0,0-4.31-1.45,4.05,4.05,0,0,0-2.94,2.56c-2.3,4.85,3.51,20.63,6.7,22.59a1.43,1.43,0,0,0,.87.23c0-.43-.08-.7-.09-.71A.52.52,0,0,1,274.59,229.52Z"/><path class="cls-4" d="M412.55,406.85h-.09a.52.52,0,0,1-.51-.43l-.06-.35c-7.14,4.31-13.75,8.2-15.44,8.53-1.53-1.68-2.33-23.07-3-42-.79-21.12-1.67-44.37-3.66-56.42a10.46,10.46,0,0,0-1-.79.52.52,0,0,1-.22-.32c2.12,11.56,3.07,36.6,3.85,57.56,1,26.27,1.63,41.21,3.45,42.76a.81.81,0,0,0,.65.21c2-.24,10.17-5.19,19.64-10.92s22-13.3,24.55-13.56c-.13,1.5-.36,6,1.17,8.33,1.4,2.17,7,7.29,11.59,7.37a5,5,0,0,0,4.07-1.78,3.25,3.25,0,0,1-.41,3.86c-1.28,1.69-15.42,13-27.29,21.9h0l3.24-1.18c11.21-8.5,23.48-18.26,24.85-20.08a4.26,4.26,0,0,0,.23-5.36l-.21.32a.52.52,0,0,1-.86-.58,4,4,0,0,1-3.62,1.88c-4.13-.07-9.47-4.92-10.74-6.89-1.61-2.49-1-8.08-1-8.14l0-.34-.07,0,0,.25a.52.52,0,0,1-.44.59h-.07a.52.52,0,0,1-.51-.45c0-.06,0-.28-.07-.61-2.76.32-10.6,4.91-25.07,13.65l-2.74,1.66.13.75A.52.52,0,0,1,412.55,406.85Zm-16,7.8h0Z"/><path class="cls-4" d="M401.22,448.86s.09.19.24.49a110.34,110.34,0,0,0,12.64-6.25l.92-.51c2.23-1.23,8.31-5.61,15.22-10.8h0a.52.52,0,0,1-.67-.31.51.51,0,0,1,.1-.51c-6.7,5-12.66,9.34-15.11,10.7l-.92.52a108.06,108.06,0,0,1-13,6.38A.52.52,0,0,1,401.22,448.86Z"/><path class="cls-4" d="M349.32,286.41c-8.21-3.79-15.16-6.72-17.69-7.62-6.23-2.22-3.94-22-2.53-29.38a.52.52,0,0,0-.21-.52q-.5.83-1,1.65c-.94,5.57-3.94,26.59,3.44,29.22,2.33.83,6.94,2.75,12.56,5.28l.27-.21a.51.51,0,0,1,.76.68c1.75.79,3.58,1.63,5.46,2.51a.52.52,0,0,1-.19-.18C350.1,287.76,349.77,287.22,349.32,286.41Z"/><path class="cls-4" d="M400.49,448.63c-8.15,3.19-17.4,4.92-22.55-.95-8.57-9.79-16-37-16.78-39.7l-.66,1.54c1.73,6.24,8.59,29.64,16.66,38.84,2.69,3.07,6.36,4.23,10.4,4.23a37.45,37.45,0,0,0,12.92-2.85l-.22-.46A.51.51,0,0,1,400.49,448.63Z"/><path class="cls-4" d="M350.87,288a.52.52,0,0,1-.28.08.52.52,0,0,1-.24-.06c14.62,6.84,32.31,16.05,36.32,21.17.71.9,1.32,3,1.86,5.9a.51.51,0,0,1,.07-.38.52.52,0,0,1,.72-.16l.17.11c-.57-3-1.23-5.14-2-6.12-4.25-5.43-22-14.6-36.53-21.38l.07.12A.52.52,0,0,1,350.87,288Z"/><path class="cls-4" d="M360.08,407.85l.15-.35A.51.51,0,0,0,360.08,407.85Z"/><path class="cls-4" d="M328.69,248.8a.52.52,0,0,0-.61.41c0,.13-.11.6-.23,1.32q.54-.82,1-1.65A.51.51,0,0,0,328.69,248.8Z"/><path class="cls-4" d="M364.76,465.82l.16,0a.52.52,0,0,0,.49-.35h-1A.51.51,0,0,0,364.76,465.82Z"/><path class="cls-4" d="M364.56,459.84a11.92,11.92,0,0,0-2.74-4.72c-1.7-2.09-3.45-4.26-3.3-8.47a66.3,66.3,0,0,0-.77-9.61c-.79-6.34-1.69-13.53-.11-19.35a63.13,63.13,0,0,1,2.87-8.18c-.23-.84-.37-1.38-.41-1.52a.5.5,0,0,1,0-.15,68.35,68.35,0,0,0-3.45,9.57c-1.63,6-.72,13.32.08,19.75a65.51,65.51,0,0,1,.76,9.44c-.16,4.6,1.8,7,3.53,9.16a11.13,11.13,0,0,1,2.54,4.31c1,4.16.87,5.08.88,5.08a.51.51,0,0,0,0,.33h1C365.49,465.28,365.64,464.23,364.56,459.84Z"/><path class="cls-4" d="M360.46,407.36a.52.52,0,0,1,.63.37l.06.24.56-1.3a81.28,81.28,0,0,0,4.91-13.75c2.66-10.66,4.33-42.87,4.34-43.19a.52.52,0,0,0-.49-.54.5.5,0,0,0-.54.49c0,.32-1.67,32.44-4.31,43a80.31,80.31,0,0,1-4.86,13.58l-.54,1.24A.5.5,0,0,1,360.46,407.36Z"/><path class="cls-4" d="M361.1,407.73a.52.52,0,0,0-.63-.37.5.5,0,0,0-.23.14l-.15.35a.5.5,0,0,0,0,.15c0,.14.18.68.41,1.52l.66-1.54Z"/><path class="cls-4" d="M388.53,315.12v0Z"/><path class="cls-4" d="M398.34,331.5c3,11.5,12.72,69.59,13.55,74.58l1-.58c-1.2-7.14-10.6-63-13.5-74.26s-8.8-15.82-9.87-16.57c.09.49.19,1,.28,1.55C391.7,317.91,396,322.5,398.34,331.5Z"/><path class="cls-4" d="M412,406.42a.52.52,0,0,0,.51.43h.09a.52.52,0,0,0,.43-.6l-.13-.75-1,.58Z"/><path class="cls-4" d="M388.59,314.72a.51.51,0,0,0-.07.38v0a.52.52,0,0,0,.22.32,10.46,10.46,0,0,1,1,.79c-.09-.54-.18-1.06-.28-1.55l-.17-.11A.52.52,0,0,0,388.59,314.72Z"/><path class="cls-4" d="M488.49,413.24a3.56,3.56,0,0,1,2.43,1.57c.51,1,.35,2.27-.47,3.9-1.65,3.31,1.33,7.74,4,11.65,1.86,2.77,3.79,5.62,3.36,7.21-4.58,1.61-73.72,25.72-82.89,23.44-8.12-2-12.42-9.66-13.43-11.66l-1,.39c1,2,5.39,10.09,14.15,12.29a7.44,7.44,0,0,0,1.74.17c14.44,0,79.1-22.71,82-23.72l.21-.08.09-.21a3.79,3.79,0,0,0-.13-2.83l-.17,0a.52.52,0,0,1-.33-.92l.09-.06a40.47,40.47,0,0,0-2.84-4.61c-2.48-3.68-5.28-7.84-3.9-10.61.94-1.89,1.11-3.48.51-4.72l-.35.27a.52.52,0,1,1-.64-.82l.39-.31a5.09,5.09,0,0,0-2.74-1.4h-.14c-10.88,1.47-44.64,13.55-55.35,17.45l-2.84,2.14C431.67,431.26,475.92,415,488.49,413.24Z"/><path class="cls-4" d="M429.63,431l.19-.14A.51.51,0,0,0,429.63,431Z"/><path class="cls-4" d="M400.54,448.59l-.05,0,.13-.05Z"/><path class="cls-4" d="M429.81,430.84l-.19.14a.51.51,0,0,0-.1.51.52.52,0,0,0,.67.31h0l2.84-2.14-3.24,1.18Z"/><path class="cls-4" d="M401.22,448.86a.52.52,0,0,0-.6-.29l-.13.05a.51.51,0,0,0-.22.65l.22.46,1-.39C401.31,449.05,401.23,448.87,401.22,448.86Z"/><path class="cls-4" d="M444.28,339.25a.52.52,0,0,1-.66.3c1,.44,2.21.88,3.52,1.3l.85.27c7.45,2.4,12.83,4.13,14.39,9.69a.52.52,0,1,0,1-.28c-1.7-6.1-7.31-7.9-15.07-10.4l-.85-.27c-6.25-2-7.87-3.87-7.77-4.21,0,0,.23-.2.88-.23a44.9,44.9,0,0,1,19.49,4.11c6.8,3.19,7.55,6.71,8.49,11.16.17.81.35,1.65.57,2.51,1.52,5.93,1.71,15.53.51,24.46-1.27,9.38-12.44,26.09-12.55,26.26h0l.35-.51.44.44a3.51,3.51,0,0,1,.28.34c1.61-2.43,11.29-17.38,12.51-26.38a89.46,89.46,0,0,0,.79-11.6v0a.52.52,0,0,1-.5.4l-.12,0a.52.52,0,0,1-.38-.63c.32-1.31.63-2.62.92-3.93a47.69,47.69,0,0,0-1.22-9.12c-.22-.85-.39-1.67-.56-2.47a17.63,17.63,0,0,0-2.47-6.81l-.11.25a.52.52,0,0,1-1-.38c0-.06.15-.37.35-.81a17.16,17.16,0,0,0-5.88-4.14c-1-.46-1.94-.85-2.9-1.21l-.3.53a.52.52,0,1,1-.9-.51l.22-.38a46.55,46.55,0,0,0-16.09-2.62c-1.5.07-1.81.74-1.87,1.13-.1.75.62,1.61,2,2.51a13.22,13.22,0,0,1,3.31.55A.52.52,0,0,1,444.28,339.25Z"/><path class="cls-4" d="M457.44,403.43l-.35.51h0a.52.52,0,0,0,.86.58l.21-.32a3.51,3.51,0,0,0-.28-.34Z"/><path class="cls-4" d="M444.17,360.2a.52.52,0,0,1,.16.12l0,0c-1.14-1.1-3.78-2.23-6.57-3.42-3.09-1.32-6.94-3-7.31-4.2,0-.07.15-.19.26-.25,2.69-1.55,15.92-.69,20.68,4.39a.52.52,0,1,0,.76-.71c-3.6-3.84-11.45-5.38-16.85-5.37a.51.51,0,0,1-.59.72,12.42,12.42,0,0,1-1.77-.6,7.52,7.52,0,0,0-2.74.68,1.22,1.22,0,0,0-.73,1.45c.51,1.7,4.1,3.23,7.9,4.85a32.14,32.14,0,0,1,6,3l.19-.37A.52.52,0,0,1,444.17,360.2Z"/><path class="cls-4" d="M441.5,390.28l.23.13c-.21-1.79-1.38-12.78,1.58-16.76,3.34-4.49,3.8-10.56,1-13.31a.52.52,0,0,1,.06.57l-.36.7c1.67,2.38,1.5,7.31-1.56,11.43-1.86,2.5-2.24,7.3-2.19,11.28.15,0,.28,0,.43-.05a.52.52,0,0,1,.61.41.52.52,0,0,1-.41.61l-.61.09c.07,2.14.25,3.93.35,4.83A1.42,1.42,0,0,1,441.5,390.28Z"/><path class="cls-4" d="M441.24,391.25h.07a.52.52,0,0,0,.45-.58l0-.26-.23-.13a1.42,1.42,0,0,0-.84-.09c0,.33.07.55.07.61A.52.52,0,0,0,441.24,391.25Z"/><path class="cls-4" d="M434.9,350.44c-.85-.21-3.18-1-3.79-2.15a1.08,1.08,0,0,1-.06-.94s.16-.36,1.35-.72c4.77-1.46,17.76-1.16,21.68,1.68,4.58,3.33,4.72,7.34,4.72,7.38a.52.52,0,0,0,.52.51h0a.52.52,0,0,0,.51-.53c0-.18-.13-4.55-5.15-8.2-3.63-2.64-14.1-3.24-20.13-2.35a.51.51,0,0,1,0,.35.52.52,0,0,1-.48.32.51.51,0,0,1-.2,0c-.12,0-.42-.17-.81-.36-.34.08-.67.16-1,.25-1.16.35-1.82.8-2,1.36a2.14,2.14,0,0,0,.12,1.78,5.45,5.45,0,0,0,2.69,2.06,23,23,0,0,1,2.36-.11A.51.51,0,0,0,434.9,350.44Z"/><path class="cls-4" d="M435.28,351.07a.51.51,0,0,0,0-.34,23,23,0,0,0-2.36.11,12.42,12.42,0,0,0,1.77.6A.51.51,0,0,0,435.28,351.07Z"/><path class="cls-4" d="M434.26,344.79c-1.75-.71-5.27-2.65-5-4.07,0-.07.09-.25.51-.49,2.63-1.48,11.53-1.56,13.85-.68h0a20.17,20.17,0,0,1-3-1.52c-3.81-.27-9.27.09-11.42,1.3a1.84,1.84,0,0,0-1,1.2c-.39,2.14,3.13,4.07,4.82,4.86.46-.1,1-.19,1.5-.27A.51.51,0,0,0,434.26,344.79Z"/><path class="cls-4" d="M444.28,339.25a.52.52,0,0,0-.3-.67,13.22,13.22,0,0,0-3.31-.55,20.17,20.17,0,0,0,3,1.52A.52.52,0,0,0,444.28,339.25Z"/><path class="cls-4" d="M434.06,345.79a.52.52,0,0,0,.48-.32.51.51,0,0,0,0-.35c-.54.08-1,.17-1.5.27.4.19.69.31.81.36A.51.51,0,0,0,434.06,345.79Z"/><path class="cls-4" d="M471.36,362.08c.07,1.34.1,2.73.1,4.14,1-4.14,5.27-22.31,3.63-28l-1.53-.69C475.54,338.27,474.06,350,471.36,362.08Z"/><path class="cls-4" d="M473.53,337.48h0a.52.52,0,0,1,.41-1h0c-3.64-1.31-6.54,4.12-7.51,6.24a10.93,10.93,0,0,1,.72.94C468.05,341.4,470.76,336.5,473.53,337.48Z"/><path class="cls-4" d="M466,343.55a.52.52,0,0,0,1,.38l.11-.25a10.93,10.93,0,0,0-.72-.94C466.18,343.19,466.05,343.49,466,343.55Z"/><path class="cls-4" d="M471.36,362.08c-.29,1.31-.6,2.63-.92,3.93a.52.52,0,0,0,.38.63l.12,0a.52.52,0,0,0,.5-.4v0C471.46,364.8,471.42,363.42,471.36,362.08Z"/><path class="cls-4" d="M238.6,392.29a.49.49,0,0,0-.54.49c-.5,10.28-2.69,37.48-6.75,39.81-3.65,2.1-19.87,4.54-30.61,6.16-4.43.67-7.93,1.2-9.74,1.56-5.34,1.09-18.32.31-22,.06,1.09-1.61,3.11-5.75,2.62-13.86-.39-6.47-3.22-7.72-5.09-7.93,4.74-1.84,24.83-7.14,38.45-10.57l.4-.1v-.41c0-.21-.39-21.24,0-42.08.37-20,8.17-38.71,24.55-58.87,10.45-12.87,25.82-17.24,37-20.44l1.17-.34-.19-.11a.52.52,0,0,1,.52-.9l1.1.6c4-1.18,7.25-2.23,9.2-3.64,6.13-4.42,4.82-25.37,4.12-33-.46-.9-.9-1.82-1.31-2.73a.49.49,0,0,0,0,.09c0,.3,3.46,29.86-3.42,34.81-2.21,1.59-6.3,2.76-11.47,4.23-2.73.78-5.71,1.63-8.8,2.65-.16.56-.24.91-.25.92a.52.52,0,0,1-.51.4H257a.52.52,0,0,1-.38-.63l.07-.28c-6.85,2.35-14.18,5.6-20.66,10.86a.52.52,0,0,1,.56.87c-.06,0-2.58,1.71-6.06,4.38-.47.53-1,1.06-1.41,1.62-16.53,20.35-24.41,39.26-24.78,59.51-.35,19.25-.06,38.66,0,41.71-3.4.86-17.61,4.46-28,7.4l.15.06a.52.52,0,0,1-.17,1,.51.51,0,0,1-.17,0c-.45-.16-.92-.35-1.42-.58-4.9,1.4-8.68,2.6-9.62,3.18l.08,0a.52.52,0,1,1,.2,1l-.9.19c.19.28.54.28.89.27,1.31-.05,4.79-.18,5.23,7,.55,9-2.12,12.86-2.8,13.69l.28,0a.52.52,0,1,1-.15,1l-1.06-.14-.06.06,1.15.09c.45,0,7.63.58,14.29.58a50.52,50.52,0,0,0,9-.59c1.78-.36,5.44-.92,9.68-1.56,11.46-1.73,27.15-4.1,31-6.29,5-2.87,6.87-33.08,7.22-39.72-.15-.48-.3-1-.43-1.48Z"/><path class="cls-4" d="M282,245.5a.51.51,0,0,0-.45.48c.41.92.84,1.83,1.31,2.73-.14-1.54-.26-2.55-.28-2.76A.51.51,0,0,0,282,245.5Z"/><path class="cls-4" d="M238.57,465.29l-.47.56A.52.52,0,0,0,238.57,465.29Z"/><path class="cls-4" d="M239.25,460c1.41-1,4-4.77,4-7.9a17.23,17.23,0,0,0-.29-2.7,19.19,19.19,0,0,1,.53-9.67c1.82-6.06,4-31.65-2.12-43-5.83-10.77-3.34-43-3.31-43.33a.52.52,0,0,0-1-.08c-.09,1.17-2,25.56,1.59,39a.52.52,0,0,1,.48.54c0,.22,0,.54,0,.94a20,20,0,0,0,1.41,3.43c6,11.08,3.82,36.22,2,42.18a20.09,20.09,0,0,0-.56,10.13,16.17,16.17,0,0,1,.28,2.53c0,2.81-2.48,6.28-3.57,7.05-1.44,1-1.17,5.4-1.1,6.26a.52.52,0,0,0,.52.48h0l.47-.56C238.43,463.43,238.54,460.46,239.25,460Z"/><path class="cls-4" d="M238.61,392.29c.14.51.28,1,.43,1.48,0-.4,0-.72,0-.94A.52.52,0,0,0,238.61,392.29Z"/><path class="cls-4" d="M144.48,387.8c-7.66-9.17-25.76-33.41-27.55-37.94l.36.26c6.14,4.74,17.1-1.6,22.37-4.65.94-.54,1.91-1.11,2.24-1.22,2.25,1,26.06,21.51,41.7,35.19l.53.46.29-.64c.21-.46,20.9-46.24,28.39-57.43,4.53-6.78,12.29-13.39,17.71-17.55A47.53,47.53,0,0,1,236,299h0c-.16.11-16.49,10.91-24.06,22.22-7,10.54-25.64,51.33-28.18,56.94-15.22-13.31-40.28-35-41.89-35h0a7.45,7.45,0,0,0-2,1,2.69,2.69,0,0,0,.24.2.52.52,0,0,1-.59.85,4,4,0,0,1-.58-.52c-4.78,2.77-15.35,8.75-20.86,4.64l.05.11a.52.52,0,1,1-.93.47c0-.08-.3-.59-.66-1.39a.66.66,0,0,0-.53.2c-.44.46-1.18,1.22,10.46,17.21,5.94,8.16,13.21,17.63,17.28,22.5,8.11,9.71,22.82,22.77,31,26.5l1.61-.46C168.61,411.73,152.94,397.94,144.48,387.8Z"/><path class="cls-4" d="M230.5,304.28c3.48-2.67,6-4.34,6.06-4.38A.52.52,0,0,0,236,299,47.53,47.53,0,0,0,230.5,304.28Z"/><path class="cls-4" d="M176.26,415.58a.52.52,0,0,0,.17-1l-.15-.06-1.61.46c.5.23,1,.42,1.42.58A.51.51,0,0,0,176.26,415.58Z"/><path class="cls-4" d="M125.22,469.76a.51.51,0,0,0-.09.28c0,6.05-.39,16.09-1.76,17.28-1-.47-2.15-8.13-2.65-17.44-.26-4.76,2-12.31,4.83-16.15,3-4.11,12.41-19.08,15.36-24.73,2.56-4.9,19.44-8.79,23.53-9.67a.51.51,0,0,1-.08-.11c-.16-.43.22-.73.55-1l.14-.08c-1.59.32-22,4.49-25.07,10.38-2.93,5.62-12.26,20.51-15.27,24.6s-5.3,11.86-5,16.82c.28,5.21,1.16,17.42,3.27,18.34a1,1,0,0,0,.38.08,1,1,0,0,0,.67-.26c.61-.5,1-1.91,1.36-3.74C125.1,479.3,125.16,472.92,125.22,469.76Z"/><path class="cls-4" d="M164.36,419.22a.51.51,0,0,0,.08.11l.9-.19a.52.52,0,1,0-.2-1l-.08,0-.14.08C164.58,418.5,164.2,418.79,164.36,419.22Z"/><path class="cls-4" d="M167.76,440.28c-3.39-.47-10.7-1.29-11.77.26-.55.8-.47,3.69-.13,10.12.25,4.79.53,10.21,0,12.39-.19.87-.48,2.34-.83,4.14-1,5.28-3.41,17.43-4.64,18.91-1.63-1.1-4.55-3.16-4-8.62,1.16-11.87,0-12.15-.37-12.25-.68-.18-1.09.68-1.41,1.49-.59,1.49-5.71,14.68-3.18,18.77,1.79,2.89,4.44,15.11,2.67,18.07a.82.82,0,0,1-.79.48c-3.49-.22-7.36-12.49-7.83-15.65a76.08,76.08,0,0,1,.13-7.89c.31-7.53.39-11.17-.24-12a.53.53,0,0,0-.73-.09.51.51,0,0,0-.09.72c.45.75.19,7.09,0,11.28a72.76,72.76,0,0,0-.12,8.08,50.06,50.06,0,0,0,3,9.48c.47.25.78.39.79.4a.52.52,0,0,1,.27.68.51.51,0,0,1-.44.3c1.46,3,3.25,5.55,5.21,5.68h.13a1.83,1.83,0,0,0,1.62-1c2.12-3.53-.93-16.32-2.68-19.15s1.33-13,3.26-17.84c.06-.16.12-.29.17-.4a61.94,61.94,0,0,1-.39,10.67c-.6,6.14,2.86,8.49,4.53,9.62l.11.08a.75.75,0,0,0,.72.07c1.22-.5,2.52-5.3,5.35-19.76.35-1.79.64-3.26.83-4.12.51-2.32.24-7.58,0-12.67-.2-3.93-.46-8.83-.05-9.47s4.89-.58,10,.08l.77-.74Z"/><path class="cls-4" d="M168.48,440.91a.52.52,0,0,0-.44-.59l-.28,0-.16.18-.77.74,1.06.14A.52.52,0,0,0,168.48,440.91Z"/><path class="cls-4" d="M132.43,493.4l-.43-.89a13.71,13.71,0,0,1-1.85-8.21c.17-4.63,0-15.75,0-15.86a.52.52,0,0,0-.52-.51h0a.52.52,0,0,0-.51.53c0,.11.19,11.2,0,15.81a14.84,14.84,0,0,0,2,8.71l.16.32a3.08,3.08,0,0,0,.56-.15.52.52,0,0,1,.37,1,4.12,4.12,0,0,1-.44.12c1.8,3.22,5.93,5.07,6.11,5.14a.52.52,0,0,0,.21,0h0c-.22-.45-.42-.91-.62-1.38C136.13,497.32,133.53,495.69,132.43,493.4Z"/><path class="cls-4" d="M138.5,499.11a.52.52,0,0,0-.27-.68s-.32-.14-.79-.4c.2.47.41.93.62,1.38A.51.51,0,0,0,138.5,499.11Z"/><path class="cls-4" d="M131.22,493.29c-1.43.25-2.54-.74-4-2.58-1.08-1.41-1.17-14.65-1-22.67a.52.52,0,0,0-.51-.53h0a.52.52,0,0,0-.52.51c0,.29,0,.91,0,1.74a.51.51,0,0,1,.42-.24h0a.52.52,0,0,1,.52.52,98.56,98.56,0,0,1-.8,14.32c.18,3.43.5,6.24,1.08,7,1.15,1.5,2.51,3,4.36,3a3.66,3.66,0,0,0,.9-.13c-.07-.13-.15-.25-.21-.39Z"/><path class="cls-4" d="M126.16,470a.52.52,0,0,0-.52-.52h0a.51.51,0,0,0-.42.24c-.06,3.15-.12,9.54.14,14.59A98.56,98.56,0,0,0,126.16,470Z"/><path class="cls-4" d="M132.45,493.44a.52.52,0,0,0-.67-.3,3.08,3.08,0,0,1-.56.15l.27.56c.06.13.14.26.21.39a4.12,4.12,0,0,0,.44-.12A.52.52,0,0,0,132.45,493.44Z"/><path class="cls-4" d="M491.84,414.32l.06.13c2.28-1.81,14.73-12,17-19.41,1.95-6.4,10.31-12.61,12.78-12.15.21,0,.63.12.57,1.06-.15,2.31-2.31,5.12-4,7.37s-2.83,3.69-2.35,4.71c.33.71,1.23.75,1.53.76,4.59.16,10.92-4.66,14.19-14.28,1.66-4.91,2.46-6.48,2.83-6.87a13.91,13.91,0,0,1,.66,2.72c.75,4.27-.42,10.89-2.52,14.17a45.88,45.88,0,0,1-5.3,6.49.52.52,0,1,0,.73.73,46,46,0,0,0,5.44-6.66,21.82,21.82,0,0,0,2.7-8.5.51.51,0,0,1-.3.11h0a.52.52,0,0,1-.52-.52,11.67,11.67,0,0,1,1-3.66,17.09,17.09,0,0,0-.23-2.33c-.43-2.43-.73-3.59-1.58-3.65s-1.67,1-3.92,7.65c-3,9-8.76,13.58-12.94,13.58h-.22c-.47,0-.61-.12-.63-.16-.21-.45,1.2-2.29,2.24-3.64,1.82-2.37,4.08-5.32,4.26-7.94.11-1.69-1-2.07-1.42-2.15-3.25-.59-11.92,6.15-14,12.87-2.13,7-14.25,17-16.59,18.86A3.4,3.4,0,0,1,491.84,414.32Z"/><path class="cls-4" d="M490.82,414.63a.52.52,0,0,0,.73.09l.35-.27-.06-.13a3.4,3.4,0,0,0-.53-.73l-.39.31A.52.52,0,0,0,490.82,414.63Z"/><path class="cls-4" d="M536.11,384.59a.51.51,0,0,0,.22-.41c0-.89.86-3.64,1.3-3.84.07,0,.67.46,1.2,4.68,1.25,10-9.11,21.6-9.22,21.72a.52.52,0,1,0,.77.7c.33-.36,6.11-6.83,8.54-14.43l0,0a.57.57,0,0,1-.77-.09.49.49,0,0,1,.07-.71,1.18,1.18,0,0,1,1-.17,18.37,18.37,0,0,0,.64-7.12c-.5-4-1.16-5.62-2.24-5.58-.52,0-1,.53-1.3,1.2A25.39,25.39,0,0,1,536.11,384.59Z"/><path class="cls-4" d="M535.8,384.7h0a.51.51,0,0,0,.3-.11,25.39,25.39,0,0,0,.2-4.07,11.67,11.67,0,0,0-1,3.66A.52.52,0,0,0,535.8,384.7Z"/><path class="cls-4" d="M538.5,399.2a27.2,27.2,0,0,1-6.92,13.14.52.52,0,0,0,.71.76,27.66,27.66,0,0,0,6.64-11.41,4.35,4.35,0,0,0-.13-.87.42.42,0,0,1-.38-.15.52.52,0,0,1,0-.73.74.74,0,0,1,.82-.18.85.85,0,0,1,.18.1c0-.16.08-.3.11-.46,1.17-5.68.57-6.89-.09-7.31a.93.93,0,0,0-.23-.09q-.14.5-.3,1C539,393.19,539.52,394.23,538.5,399.2Z"/><path class="cls-4" d="M538.18,392.18a.49.49,0,0,0-.07.71.57.57,0,0,0,.77.09l0,0q.16-.5.3-1A1.18,1.18,0,0,0,538.18,392.18Z"/><path class="cls-4" d="M538.93,404.59c-.26,4.85-5.82,11.17-6.36,11.77-1.19.78-20.92,13.79-26.58,15.14-5.4,1.29-7.44,2.59-7.86,2.89a10.36,10.36,0,0,1,.41,1,.51.51,0,0,0,.15-.08s1.81-1.39,7.54-2.76c6-1.43,26.12-14.76,27-15.32l.1-.08c.26-.28,6.38-7,6.67-12.46.19-3.59-.15-4.48-.55-4.78q-.21.94-.47,1.82A22.65,22.65,0,0,1,538.93,404.59Z"/><path class="cls-4" d="M498,434.46a.52.52,0,0,0,.33.92l.17,0a10.36,10.36,0,0,0-.41-1Z"/><path class="cls-4" d="M538.41,399.94a.52.52,0,0,0,0,.73.42.42,0,0,0,.38.15,4.35,4.35,0,0,1,.13.87q.26-.88.47-1.82a.85.85,0,0,0-.18-.1A.74.74,0,0,0,538.41,399.94Z"/><path class="cls-4" d="M137.74,337.49c-1.23,4,.24,6.28,1.13,7.24l.26-.15.67-.39c-.63-.59-2.2-2.52-1.1-6.25a15.56,15.56,0,0,1-.7-3A9.09,9.09,0,0,1,137.74,337.49Z"/><path class="cls-4" d="M136,267.87a.49.49,0,0,1,0-.05c-2.31,1.48-5.51,5.74-8.78,10.84l.18,1.42a.51.51,0,0,1-.07.31c4.22-6.7,8.06-11.71,10.06-12.08a.61.61,0,0,1,.58.14c1.87,1.74-1.43,8.27-3.62,12.59-2,3.91-2.91,5.83-2.39,6.72a.89.89,0,0,0,.76.44c3.27.16,13,1.85,13.66,5.67a7.78,7.78,0,0,1-.56,4.19c-.63,1.84-1.29,3.73.64,6.65a6.66,6.66,0,0,1,.75,6.12,4.79,4.79,0,0,1-2,2.7c-.27,0-.93-1-1.33-1.67-1-1.58-2.29-3.55-4.22-3.63a9.21,9.21,0,0,0-5.83,2.43l-.22.21.08.3c0,.19,4.17,16.21,4.29,23.62a.51.51,0,0,1,1-.07c-.13-7.16-3.62-21.15-4.22-23.5a7.56,7.56,0,0,1,4.85-2c1.4.05,2.5,1.77,3.39,3.15.67,1,1.23,1.9,1.9,2.1l-.07-.4a.52.52,0,1,1,1-.18l.07.39a6.47,6.47,0,0,0,2.27-3.13,7.69,7.69,0,0,0-.86-7.05c-1.65-2.49-1.15-3.92-.53-5.74a8.73,8.73,0,0,0,.61-4.71c-.27-1.5-1.52-2.69-3.21-3.62-.17.29-.3.47-.32.49a.52.52,0,0,1-.84-.62s.09-.13.22-.34a23.2,23.2,0,0,0-3.43-1.22l0,.33a.52.52,0,0,1-.44.59h-.07a.52.52,0,0,1-.51-.45l-.1-.75a36.66,36.66,0,0,0-5.9-.94c-.06-.73,1.32-3.45,2.43-5.65.67-1.33,1.37-2.7,2-4l-.25-1.81a.52.52,0,0,1,.44-.59.53.53,0,0,1,.59.44l0,.15c1.4-3.33,2.12-6.3.73-7.81l-2.19.44A.52.52,0,0,1,136,267.87Z"/><path class="cls-4" d="M118,349.37c-.46-.94-3.65-7.63-3.65-11.46a39.3,39.3,0,0,0-.75-5.29c-1.34-7.54-3.58-20.15.7-28.74,3.65-7.34,8.55-16.29,13-23.39a.52.52,0,0,1-.32.18h-.07a.52.52,0,0,1-.51-.45l0-.17c-6.47,10.32-12.91,23.16-13,23.37-4.43,8.9-2.15,21.73-.79,29.39a39.61,39.61,0,0,1,.73,5.11c0,3.27,2.07,8.25,3.16,10.65a3,3,0,0,1,1.44.75Z"/><path class="cls-4" d="M117.6,350.23a.52.52,0,0,0,.46-.75l-.06-.12-.09-.06a3,3,0,0,0-1.44-.75c.36.8.62,1.31.66,1.39A.52.52,0,0,0,117.6,350.23Z"/><path class="cls-4" d="M138.87,344.73a4,4,0,0,0,.58.52.52.52,0,0,0,.59-.85,2.69,2.69,0,0,1-.24-.2l-.67.39Z"/><path class="cls-4" d="M139.7,284.33c1.16-.79,3.35-1.88,4.33-1.42.12.05.48.22.57,1a9.35,9.35,0,0,1-1.3,5.64c.32.15.64.3.93.47a10.28,10.28,0,0,0,1.39-6.21,2.13,2.13,0,0,0-1.17-1.88c-1.74-.8-4.68,1.06-5.27,1.45l.14,1A.52.52,0,0,0,139.7,284.33Z"/><path class="cls-4" d="M143.08,289.94a.52.52,0,0,0,.84.62s.15-.2.32-.49c-.3-.16-.61-.32-.93-.47C143.18,289.81,143.09,289.93,143.08,289.94Z"/><path class="cls-4" d="M144.94,314.51c1.55,8.76,3.82,22.53,3.65,24.34l-.24.15c-1.12.73-4.08,2.68-6.36,1.63-1.54-.71-2.54-2.7-3-5.92h0a10.56,10.56,0,0,1-.29,3.08l0,.14a5.83,5.83,0,0,0,2.86,3.65,4.48,4.48,0,0,0,1.88.39c2.26,0,4.5-1.47,5.48-2.1l.33-.21c.42-.21,1.12-.57-3.29-25.35a1.87,1.87,0,0,1-.44.2A1,1,0,0,1,144.94,314.51Z"/><path class="cls-4" d="M138,334.9s0-.08,0-.08,0,0,0,0Z"/><path class="cls-4" d="M145.28,313.51a.52.52,0,0,0-.42.6l.07.4a1,1,0,0,0,.58,0,1.87,1.87,0,0,0,.44-.2l-.07-.39A.52.52,0,0,0,145.28,313.51Z"/><path class="cls-4" d="M139,334.71a.51.51,0,0,0-1,.07s0,.08,0,.12a15.56,15.56,0,0,0,.7,3l0-.14A10.56,10.56,0,0,0,139,334.71Z"/><path class="cls-4" d="M138.79,288.09l1.09.28-.55-4a.51.51,0,0,1-.35-.22.52.52,0,0,1,.14-.72l.08-.05-1.07-7.77q-.37.89-.8,1.8Z"/><path class="cls-4" d="M137.51,275.06a.52.52,0,0,0-.44.59l.25,1.81q.43-.91.8-1.8l0-.15A.53.53,0,0,0,137.51,275.06Z"/><path class="cls-4" d="M138.89,288.84a.52.52,0,0,0,.51.45h.07a.52.52,0,0,0,.44-.59l0-.33-1.09-.28Z"/><path class="cls-4" d="M139,284.2a.51.51,0,0,0,.35.22l-.14-1-.08.05A.52.52,0,0,0,139,284.2Z"/><path class="cls-4" d="M126.14,269.85l-48.47,8L64.74,220l121.74-25.14,8.3,60.63-58.33,11.81a.51.51,0,0,0-.41.56,3.53,3.53,0,0,1,1.21-.53,1.65,1.65,0,0,1,1.47.4s.08.1.13.15l56.61-11.46.48-.1-8.58-62.69L63.5,219.16l13.27,59.36.11.48,48.38-8,1.14,9,.87-1.38Z"/><path class="cls-4" d="M127.37,280.38l-.06.09A.5.5,0,0,0,127.37,280.38Z"/><path class="cls-4" d="M137.25,267.29a3.53,3.53,0,0,0-1.21.53.49.49,0,0,0,0,.05.52.52,0,0,0,.61.41l2.19-.44s-.08-.1-.13-.15A1.65,1.65,0,0,0,137.25,267.29Z"/><path class="cls-4" d="M126.92,280.66H127a.52.52,0,0,0,.32-.18l.06-.09a.51.51,0,0,0,.07-.31l-.18-1.42-.87,1.38,0,.17A.52.52,0,0,0,126.92,280.66Z"/><path class="cls-4" d="M473.54,337.48h0Z"/><path class="cls-4" d="M461.77,330.05l-42.6-24.68,28.36-58.63,99.26,56.69L515.12,355l-41.19-18.5h0a2.28,2.28,0,0,1,1.17,1.66l40.44,18.17,32.71-53.29-100.68-57.5-.48-.27-29.27,60.5,42.55,24.65L456.62,337l1,.37Z"/><path class="cls-4" d="M456.6,338.11a.52.52,0,0,0,.71-.19l.3-.53-1-.37-.22.38A.52.52,0,0,0,456.6,338.11Z"/><path class="cls-4" d="M473.91,336.51a.52.52,0,0,0-.41,1h.05l1.53.69A2.28,2.28,0,0,0,473.91,336.51Z"/><path class="cls-4" d="M444.32,360.33h0Z"/><path class="cls-4" d="M436.39,383.57a5.52,5.52,0,0,1-1.8-3.63L444,361.6a3.85,3.85,0,0,0-.46-.56c-.08-.08-.19-.16-.29-.24l-9.74,18.91v.14a6.6,6.6,0,0,0,2.2,4.53,5.34,5.34,0,0,0,3.39,1.08,8.63,8.63,0,0,0,1.17-.09q0-.52,0-1.06A4.94,4.94,0,0,1,436.39,383.57Z"/><path class="cls-4" d="M441.33,384.66a.52.52,0,0,0-.61-.41c-.15,0-.29,0-.43.05q0,.54,0,1.06l.61-.09A.52.52,0,0,0,441.33,384.66Z"/><path class="cls-4" d="M444,361.6l.36-.7a.52.52,0,0,0-.06-.57h0a.52.52,0,0,0-.85.1l-.19.37c.1.08.21.16.29.24A3.85,3.85,0,0,1,444,361.6Z"/><path class="cls-4" d="M268.77,165.39c3.87-2.16,40.54-21.44,77.85,1.93L340,190.91a11.15,11.15,0,0,1,.65,1.54l5.19-18.62-.24.1a.51.51,0,0,1-.2,0,.52.52,0,0,1-.2-1l1-.4,1.6-5.72-.33-.21c-39.92-25.26-79.21-2.19-79.6-2l-.33.2,1.57,6.18.93.35a.52.52,0,0,1-.37,1l-.25-.1,4.82,19a19.27,19.27,0,0,1,.6-1.84Z"/><path class="cls-4" d="M339.64,192.32a.52.52,0,0,0,.36.64l.14,0a.52.52,0,0,0,.5-.38l0-.15a11.15,11.15,0,0,0-.65-1.54Z"/><path class="cls-4" d="M274.94,191.79a.52.52,0,0,0,.38-.63l-.44-1.73a19.27,19.27,0,0,0-.6,1.84l0,.15A.52.52,0,0,0,274.94,191.79Z"/><polygon class="cls-4" points="254.98 165.69 310.71 134.08 357.07 168.12 346.23 172.57 345.88 173.83 359.18 168.38 310.78 132.84 252.55 165.87 269.46 172.3 269.14 171.07 254.98 165.69"/><path class="cls-4" d="M345.25,173a.52.52,0,0,0,.39,1l.24-.1.35-1.27Z"/><path class="cls-4" d="M270.38,172.09a.52.52,0,0,0-.3-.67l-.93-.35.31,1.23.25.1A.52.52,0,0,0,270.38,172.09Z"/><path class="cls-4" d="M336.45,194.71c0,.89-.43,3.7-.9,7-1.85,12.73-1.89,14.64-1,15a.64.64,0,0,0,.25.05.85.85,0,0,0,.66-.39c1.77-2.26,4.16-6.13,4.53-6.72l-.06.05-1.3,1.1.46-1.63,0-.07c-.3.49-2.38,3.84-4.08,6.12,0-2.28.95-9.08,1.57-13.35.5-3.42.89-6.13.91-7.08,0-2.13-2.53-5.5-4.24-7.49l-2.06-.74C332.76,188.17,336.5,192.59,336.45,194.71Z"/><path class="cls-4" d="M331.7,185.58l-.13,0Z"/><path class="cls-4" d="M331.11,185.66a.52.52,0,0,0,0,.73l.1.11,2.06.74c-.69-.81-1.24-1.39-1.41-1.57a.5.5,0,0,0-.13-.09l-.13,0A.51.51,0,0,0,331.11,185.66Z"/><path class="cls-4" d="M338.6,210.76l1.3-1.1.06-.05,0-.08a.52.52,0,1,0-.89-.54l0,.06,0,.06Z"/><path class="cls-4" d="M277.15,215.4h.07c1.13-.1,1.8-2.89,3.58-14.92.27-1.84.52-3.51.73-4.76.88-5.24,1.65-9.65,1.86-10.86l-1.13.43c-.3,1.74-1,5.69-1.76,10.26-.21,1.26-.46,2.94-.74,4.78-.63,4.26-1.77,11.88-2.58,13.73-1.23-3.58-2-5.82-2-6v0l.34,1.72-1.22-1.25-.08-.08c.17.52.91,2.71,2,6C276.46,215.1,276.76,215.4,277.15,215.4Z"/><path class="cls-4" d="M282.6,184l.36-.13A.49.49,0,0,0,282.6,184Z"/><path class="cls-4" d="M275.51,209.84l-.34-1.71v-.06a.52.52,0,1,0-1,.33l0,.12.08.08Z"/><path class="cls-4" d="M283.45,184.52a.52.52,0,0,0-.42-.6H283l-.36.13a.51.51,0,0,0-.17.29l-.16.95,1.13-.43Z"/><path class="cls-4" d="M338.85,230.71a1.81,1.81,0,0,1-.77-.18c.12,2.26.87,14.47,3.93,18.39s5.73,23.2,4.71,27.34c-.8,3.24,1.35,7.85,2.6,10.16l1.63.76c-.54-.89-4.13-7-3.23-10.67,1.08-4.38-1.58-24-4.9-28.22-2.76-3.53-3.55-15-3.7-17.61a1.73,1.73,0,0,1-.25,0Z"/><path class="cls-4" d="M350.34,288h0Z"/><path class="cls-4" d="M338.56,229.63a.52.52,0,0,0-.5.54s0,.17,0,.35a1.81,1.81,0,0,0,.77.18h0a1.73,1.73,0,0,0,.25,0c0-.33,0-.52,0-.52A.54.54,0,0,0,338.56,229.63Z"/><path class="cls-4" d="M350.15,287.84a.52.52,0,0,0,.19.18h0a.52.52,0,0,0,.24.06.52.52,0,0,0,.44-.8l-.07-.12-1.63-.76C349.77,287.22,350.1,287.76,350.15,287.84Z"/><path class="cls-4" d="M264.5,274.68c4-3.59,3.49-8.29,3-13.26-.11-1.06-.22-2.15-.3-3.25-.3-4.46,2.37-8.4,4.72-11.87.82-1.2,1.59-2.34,2.18-3.42,2.16-4,1.3-11.38,1.12-12.71l-.13.19a1.16,1.16,0,0,1-.84.47c.23,2.08.72,8.28-1.07,11.55-.57,1-1.33,2.16-2.13,3.34-2.45,3.61-5.22,7.7-4.9,12.52.07,1.12.19,2.22.3,3.29.51,4.91,1,9.15-2.64,12.38-4.31,3.89-6.72,12.61-7.14,14.26l1.19-.4C258.57,285.21,260.86,278,264.5,274.68Z"/><path class="cls-4" d="M275.07,230.35l.13-.19,0-.2a.52.52,0,0,0-1,.15s0,.28.09.71A1.16,1.16,0,0,0,275.07,230.35Z"/><path class="cls-4" d="M257,289.07h.12a.52.52,0,0,0,.51-.4s.09-.36.25-.92l-1.19.4-.07.28A.52.52,0,0,0,257,289.07Z"/><path class="cls-4" d="M310,297h-.31c-17,0-35.5-9.19-40.13-11.65l-1.42.41c2.12,1.17,22.69,12.27,41.56,12.27H310c19.95-.13,34.67-12.31,34.81-12.43a.51.51,0,0,0,.09-.12l-1-.46C341.82,286.64,328.09,296.9,310,297Z"/><path class="cls-4" d="M344.85,284.89a.52.52,0,0,0-.73-.06l-.27.21,1,.46A.51.51,0,0,0,344.85,284.89Z"/><path class="cls-4" d="M268.43,284.77a.52.52,0,0,0-.52.9l.19.11,1.42-.41Z"/><ellipse class="cls-4" cx="296.27" cy="209.88" rx="2.53" ry="6.85"/><ellipse class="cls-4" cx="318.08" cy="209.88" rx="2.53" ry="6.85"/><text class="cls-5" transform="translate(86.78 250.42) rotate(-13.72)">Ha<tspan class="cls-6" x="25.48" y="0">r</tspan><tspan x="33.99" y="0">d Skill</tspan></text><text class="cls-7" transform="matrix(0.8, 0.61, -0.61, 0.8, 442.77, 278.68)">Soft Skill</text></svg>