<svg id="Layer_1" data-name="Layer 1" xmlns="http://www.w3.org/2000/svg" viewBox="0 0 566.93 566.93"><defs><style>.cls-1{fill:#fbc8a5;}.cls-2{fill:#fcd8c0;}.cls-3{fill:none;}.cls-4{fill:#99b4ca;}.cls-5{fill:#fcdace;}.cls-6{fill:#272c2f;}.cls-7{fill:#f1f0f6;}.cls-8{fill:#74a9d6;}.cls-9{fill:#163a40;}.cls-10{fill:#c7494f;}.cls-11{fill:#33414b;}.cls-12{fill:#a2524c;}</style></defs><title>Untitled-1</title><path class="cls-1" d="M497.55,270.78c-34.59-13.18-62.36-50-84.73-44.3S384,231.11,388,251.57s-39.15,5.66-56.55,3.49S310,275.57,283.5,295.15s-43.75,12.42-91.67-40.09-74.2-29.21-74.2-29.21c-4.05,1.28-10.36,6.32-17.09,12.59,1.65,8.32,3,16.41,3.24,24,.91,34-74.65,1.61-87.91,35.53s20.71,95.75,73.65,87.3,106.15-22.2,126.11-19.37,47.57,23.27,84.81,18.71,42.31-47,70.9-62.22,117.25,4.22,145.42-6.24c14.08-5.23,25.6-21.71,31.94-42.81C540.23,276.33,522.1,280.13,497.55,270.78Z"/><path class="cls-1" d="M241.3,271c34.17,19.14,79.23-1.36,78.3-28.41s21.13-33.54,53.44-42.87,74.88,22.06,110,42.87c19.15,11.35,47.54,14,69.39,14.1a128.7,128.7,0,0,0-2.95-54c-14-49.63-61.42-35.24-61.42-35.24s-5.8,4.35-46.31-14.09-88.65,18.64-116,31S272.32,167.1,240.42,146s-91.56-23.61-126.94,7.46c-19.17,16.83-20.68,37.44-17.89,58.19,8.36-4,19.06-7.21,32.61-8.55C169.83,198.95,207.13,251.88,241.3,271Z"/><path class="cls-2" d="M483,242.62c-35.11-20.81-77.68-52.19-110-42.87s-54.38,15.82-53.44,42.87S275.47,290.17,241.3,271s-71.47-72.07-113.1-67.94c-13.55,1.34-24.25,4.59-32.61,8.55,1.21,9,3.22,18,5,26.82,6.73-6.27,13-11.31,17.09-12.59,0,0,26.28-23.3,74.2,29.21s65.2,59.67,91.67,40.09,30.51-42.26,47.91-40.09,60.51,17,56.55-3.49,2.49-19.42,24.86-25.1,50.15,31.12,84.73,44.3c24.55,9.36,42.69,5.55,51.14,2.56a124.18,124.18,0,0,0,3.74-16.62C530.58,256.63,502.19,254,483,242.62Z"/><path class="cls-3" d="M468.47,401.52h-1.73a2.53,2.53,0,0,0,2,.13h0A.39.39,0,0,1,468.47,401.52Z"/><path class="cls-3" d="M446,401.46h-3.65A10.47,10.47,0,0,0,446,401.46Z"/><path class="cls-3" d="M482.2,401.56h-2.59A5.41,5.41,0,0,0,482.2,401.56Z"/><path class="cls-3" d="M420,401.62l-.15,0a.41.41,0,0,1-.38-.26l-1.13-.22a2.64,2.64,0,0,0,3.12.22h-1.24A.4.4,0,0,1,420,401.62Z"/><path class="cls-3" d="M497.12,401.6h0Z"/><path class="cls-4" d="M172.18,369.71a28.2,28.2,0,0,1-13.87-4.45,13.18,13.18,0,0,1-2.81-3.58,14.67,14.67,0,0,1,.68,4.63,5,5,0,0,1-1.09,2.49,9.26,9.26,0,0,0-1.56,3.25,15.38,15.38,0,0,0-.57,4.66c0,.33,0,.63,0,.9l.12-.1c1.32-1.15,3.77-3.3,6.23-3.44l1.29-.07a37.44,37.44,0,0,0,10.27-1.53,33.3,33.3,0,0,0,6.86-3.31c-.11-.28-.22-.58-.33-.9A8.47,8.47,0,0,1,172.18,369.71Z"/><path class="cls-5" d="M284.74,413.24c-2.14-1.32-5.06-3.13-6.25-5-.33-.53-.73-1.06-1.15-1.62-.29-.38-.58-.77-.86-1.18a7.24,7.24,0,0,0,.44,1.64c.84,2.24,4.06,7.07,6.43,8.08a8.16,8.16,0,0,0,4.82,0,7.57,7.57,0,0,1-1.79-.85C285.94,414,285.38,413.63,284.74,413.24Z"/><path class="cls-6" d="M152.12,232.09c2.7-4.85,22.73-18.55,28.21-20.47,5-1.74,23.46-13.49,25.88-15-3.21-9.75-.06-30.54.08-31.43a.41.41,0,0,1,.46-.34.41.41,0,0,1,.34.46c0,.22-3.33,21.91,0,31.34,2.51,7.15,2.44,18.23,2.38,26.32,0,2.82,0,5.25.07,6.88a86.33,86.33,0,0,0,2,10.38c1.91,8.42,4.29,18.89,3.94,27-.55,12.76,7.7,22.72,9.36,24.59a27.69,27.69,0,0,1,3.85,6.73c1-1.52,3.4-5.81,2.38-10.67-.86-4.12.87-8.38,2.53-12.49a33.48,33.48,0,0,0,2.16-6.49c.37-2.18,1.79-4.86,3.16-7.45,2.16-4.08,4.39-8.3,2.59-10.48-2.07-2.5-2-10.74-1.84-19.45a146.92,146.92,0,0,0-.26-14.84c-.35-3.6-.5-6.61-.63-9.26-.27-5.44-.47-9.37-2.18-13.6-2-4.92-6-16.14-7.63-20.86a23.42,23.42,0,0,1-2.12-5.79c-.74-3.59,2.56-7.3,6-8.67a6.12,6.12,0,0,1,5.57.17.41.41,0,0,1,.32,0c.35.17,8.75,4,16.82-5.84s21.55-21.41,24.57-23.21c-.44-2.29-4-18-19.41-19.12a71.15,71.15,0,0,1-21.27-4.54,37.08,37.08,0,0,0-8.06-2.22c-7.24-.89-18.94,8.28-24.13,15.25-2.42,3.24-5.14,11.24-8,19.7-3.2,9.39-6.83,20-10.88,26.78-6.43,10.72-23.7,35.77-35.12,52.34l-5.72,8.31C138,240,133,265.14,140.92,271.47,144,258.74,150.07,235.77,152.12,232.09Z"/><path class="cls-6" d="M249.29,200.4a26.66,26.66,0,0,0-2.94,2.94c.31,1.32,2.15,9.13,2.73,11.83a40.35,40.35,0,0,0,3.25,9.77c1.33,2.32,2.67,11.5,3.39,16.44l.15,1c.61,4.12,2.6,6.83,4.93,9.69a7.81,7.81,0,0,0,3.94,2.71,8.52,8.52,0,0,1,2.37,1.18c1,.74,2,2.5,3.08,4.55,1.32,2.39,2.81,5.1,4.59,6.63a5.9,5.9,0,0,0,4.93,1.68c-.87-.83-2.2-2.84-2.25-7.4-.07-6.34-3.78-25.26-4.84-27.79-.43-1-1-2.78-1.56-4.83a78.47,78.47,0,0,0-3.1-9.11c-1.91-4.19-9.44-11.66-11.82-13.76a13,13,0,0,1-3.41-5.78A10,10,0,0,0,249.29,200.4Z"/><path class="cls-7" d="M274.19,329.58c-1.44,2.77-2.35,4.19-4.44,5.2h0a3.52,3.52,0,0,0,1.49-.3,12.57,12.57,0,0,0,3.46-4.54c.33-.8,1.13-2.24,2-3.77s1.64-3,1.94-3.73a4.09,4.09,0,0,0,.26-1.35c-.43.93-1.37,2.6-2.37,4.37C275.64,326.91,274.79,328.41,274.19,329.58Z"/><path class="cls-4" d="M206.63,347.59a19.23,19.23,0,0,0,1.6-8.87c-3.07,2-5.82,3.79-7.55,4.74.08,1.41.13,2.69.13,3.76s0,1.92,0,2.87c-.05,3.88-.12,8.72,1.1,8.89a.41.41,0,0,1-.06.81h-.06c-1.93-.28-1.87-4.44-1.79-9.71,0-1,0-1.92,0-2.86,0-2.95-.39-7.59-.77-12.07-.33-4-.65-7.71-.65-9.83a10.83,10.83,0,0,1,3-7.46.41.41,0,0,1,.56.59,9,9,0,0,0-1.3,1.75c.55-.25,1.67-.69,3.94-1.55a12,12,0,0,0-4.22-2.26c-1.76-.36-8,3.28-10.25,4.71l-.16.1-.18-.06c-2.8-.92-5.38-.32-12.55,2.93-5.69,2.58-7.6,9.11-5.85,20a69.16,69.16,0,0,0,3.13,11.81,80.78,80.78,0,0,1,2.41,8.18c1.42,6.28,2.88,7.54,3.21,7.54h0a.38.38,0,0,1,.54.13.37.37,0,0,1,.05.17c3-2.42,7.5-5.39,15.74-8.44a22,22,0,0,1,7.23-1.32,32.18,32.18,0,0,0,1.3-8.55A18.53,18.53,0,0,1,206.63,347.59Z"/><path class="cls-8" d="M270,391.1c0-1.54,0-2.88-.08-3.53a36.61,36.61,0,0,0-1.52-5.11c-.91,3.07-3.12,9.7-5.31,10.09a2.82,2.82,0,0,1-.49,0c-1.15,0-2.05-.75-3.26-1.74a23.37,23.37,0,0,0-6.29-3.91c-1-.42-1.92-.79-2.76-1.13-4.56-1.84-6.85-2.76-6.13-5.35a40.47,40.47,0,0,1,2.73-7,8.74,8.74,0,0,0,.43-1.17A23.42,23.42,0,0,1,244.9,374c-1.58,1-4.33,1.25-6.82,1.25-1.53,0-3-.1-4-.19,1.08.9,2,1.72,2.67,2.4,5.45,5.4,23.63,19.85,30.13,24.19a38.52,38.52,0,0,0,6.52,3.75,35.69,35.69,0,0,1-2.55-4.22C270,399.22,270,394.72,270,391.1Z"/><path class="cls-5" d="M276.46,408.07a6.45,6.45,0,0,0-.48,1.38c-.31,1.3,2.41,5.87,3.82,6.8a4.91,4.91,0,0,0,3.65.28,2.28,2.28,0,0,0,.66-.33,5.16,5.16,0,0,1-1.08-.31C280.58,414.84,277.65,410.61,276.46,408.07Z"/><path class="cls-4" d="M244.47,373.27c2.72-1.7,3.2-2.45,3.27-2.56.31-1.27.63-2.75.92-4.14a38.63,38.63,0,0,1,1.34-5.39,19.45,19.45,0,0,1,1.08-1.93c.64-1.06,1.61-2.67,1.43-3.19,0,0,0-.07-.11-.1l-.28-.1c-1.37-.5-2-.81-2.94-3.65l-.29-.88c-1.12-3.4-3.21-9.72-7-12.23-3.32-2.21-9.06-6.46-10.3-10.08a24,24,0,0,0-1.39-3.44,16.6,16.6,0,0,0-4.22,1.28c-.82.41-4.42,2.85-8.59,5.68l-.47.32c5.09,5.55,17.83,18.86,20.64,19.23.56.07.77,0,.81-.07.24-.37-.77-2.12-1.58-3.53a39,39,0,0,1-3.18-6.47c-2.14-6.09-4.44-12.93-4.46-13a.41.41,0,1,1,.77-.26c0,.07,2.32,6.9,4.46,13a38.3,38.3,0,0,0,3.12,6.33c1.29,2.25,2.08,3.6,1.55,4.39a1.24,1.24,0,0,1-1.09.46,3.86,3.86,0,0,1-.5,0c-3.57-.46-18.57-16.68-21.22-19.57-2.36,1.6-4.88,3.31-7.25,4.88a17.08,17.08,0,0,1-.41,5.92.4.4,0,0,1,.36.07s3.17,2.62,7.63,6.77c2.87,2.67,5.83,3.92,9.26,5.37,1.85.78,3.77,1.59,5.82,2.69,5.17,2.78,12.32,8.81,12.55,11.17a1,1,0,0,1-.35.94,1.82,1.82,0,0,1-1.13.28c-4.05,0-15.91-5.32-19.61-7.49-5.15-3-14.54-9-14.64-9a.41.41,0,0,1,.44-.68c.09.06,9.47,6,14.61,9,5.92,3.46,18.56,8.33,19.82,7.29,0,0,.08-.06.06-.23-.19-1.9-6.88-7.71-12.13-10.54-2-1.08-3.91-1.88-5.75-2.66-3.35-1.41-6.52-2.75-9.5-5.52-4.45-4.14-7.57-6.72-7.6-6.74l0,0c-.3,1.07-.67,2.07-1,3.06a17.87,17.87,0,0,0-1.43,5.72,34.84,34.84,0,0,1-1.26,8.52c10.78.13,21.89,6.92,28.26,12C234,374.21,241.59,375.07,244.47,373.27Z"/><path class="cls-4" d="M158.8,364.61c3.4,2.57,14.11,6.4,18.29,2.85l0,0c-.28-.9-.57-2-.85-3.23a80.16,80.16,0,0,0-2.39-8.1,69.72,69.72,0,0,1-3.16-11.94c-1.82-11.28.25-18.1,6.32-20.85,7.25-3.28,10-3.93,13-3,1.39-.87,8.42-5.2,10.69-4.72a13.45,13.45,0,0,1,4.94,2.72l4.08-1.52c5.79-2.16,13.25-4.93,16.81-6.49a7.86,7.86,0,0,1-1.85-4.87c.06-2.59,1.76-8.15,2.07-9.16a19.69,19.69,0,0,0-2.51-3.94c-1.7-1.91-10.13-12.09-9.57-25.17.35-8-2-18.4-3.92-26.77a86.56,86.56,0,0,1-2-10.5c-.11-1.66-.09-4.11-.07-6.94.05-7.85.11-18.52-2.18-25.55-3.11,2-20.85,13.25-25.87,15-5.26,1.84-25.2,15.49-27.77,20.1S140.81,274,140,279.4c-.31,2.11.26,5.75.87,9.6,1,6.22,2.08,13.27.18,17.29-3,6.41,2.41,30.31,4.41,32.69,1.83,2.18,3.87,7.19,4.74,9.32l.32.78.31.76C154.24,358.22,156.91,363.18,158.8,364.61Z"/><path class="cls-5" d="M244,310.9a13.16,13.16,0,0,0-2.64-2c-3.94-2.27-10.54-.39-12.39,1.05a10,10,0,0,1-1.63.86h0c-3.4,1.54-11,4.37-17.33,6.73-4.45,1.66-8.66,3.22-9.11,3.5a.41.41,0,0,1-.52,0h0a10,10,0,0,0-1,4.25c0,2.09.31,5.82.65,9.76.22,2.56.43,5.16.58,7.48,3.5-2,10.58-6.79,16.32-10.7,4.36-3,7.81-5.3,8.68-5.73a17.28,17.28,0,0,1,4.43-1.35l.05-.06a.4.4,0,0,1,.43,0c.59-.12,1.22-.26,1.92-.43,1.92-.47,5.6,1,10.94,4.45l.22.14c.45.29,2.26,1.26,4,2.21s3.27,1.77,4,2.2c1,.58,3.47.91,6.79.91.37,0,1.06,0,1.92.1,2.66.17,7.61.48,9.06-.21,1.89-.91,2.69-2.17,4.08-4.84.61-1.18,1.46-2.68,2.29-4.14,1.06-1.87,2.05-3.63,2.41-4.47.72-1.68,1.2-4.6-.07-5.53-.78-.56-4.25,2.38-7,5.5l-.75,1.64a38.21,38.21,0,0,1-3.28,6.32l-.4.51c-1.05,1.37-2.06,2.68-4.91,2.68a12.52,12.52,0,0,1-1.86-.15c-4.47-.67-9.51-1.11-9.56-1.11a.41.41,0,0,1-.37-.44.42.42,0,0,1,.44-.37s5.11.44,9.61,1.12c3.86.58,4.81-.66,6-2.22l.41-.52a38.69,38.69,0,0,0,3.18-6.15c.56-1.24,1.09-2.41,1.5-3.17.93-1.74,1.9-5,1.24-5.85-.06-.08-.22-.29-.79-.16-1.65.37-3.09,2.32-4.48,4.2a25.21,25.21,0,0,1-2.27,2.79c-.66.66-1.22,1.32-1.72,1.9-1.26,1.48-2.26,2.64-3.78,2.68h-.07c-2.06,0-10.34-2.25-10.7-2.35a.41.41,0,0,1,.21-.78c3,.81,8.92,2.32,10.47,2.32h.06a3.4,3.4,0,0,0,2.3-1.39,39.52,39.52,0,0,1-4.7-2.84.4.4,0,0,1-.14-.19,42.71,42.71,0,0,1-8.38.87,23.86,23.86,0,0,0-8.1,1.22.41.41,0,0,1-.3-.75,24.25,24.25,0,0,1,8.4-1.28c4.57,0,11.71-1,13.31-3.08a1.26,1.26,0,0,0,.23-1.17c-.88-3-6.79-3.52-12.26-2.65C246.16,312.74,245.36,312.16,244,310.9Z"/><path class="cls-4" d="M263.08,354.51c.36-3.82-1.23-6.61-2.64-9.07-.41-.72-.79-1.39-1.13-2.08-1.44-3-5.58-4.12-8-4.18-2.08,0-5.16,1.45-6.2,2,2.29,3.1,3.69,7.33,4.54,9.91l.29.88c.88,2.58,1.31,2.74,2.44,3.15l.29.1a1,1,0,0,1,.6.59c.31.88-.57,2.33-1.5,3.87a19,19,0,0,0-1,1.84,39.91,39.91,0,0,0-1.29,5.22c-.31,1.45-.62,2.92-.93,4.19h0a16.78,16.78,0,0,1-.9,2.86,39.74,39.74,0,0,0-2.68,6.9c-.5,1.8,1.06,2.53,5.65,4.38.84.34,1.76.71,2.77,1.13a24.1,24.1,0,0,1,6.49,4c1.29,1.06,2.07,1.7,3.09,1.52,1.56-.28,3.82-6.46,4.94-10.48-.95-.75-4.58-3.86-5.71-8.12-1-3.7-.2-9.74.42-14.59C262.79,357.08,263,355.69,263.08,354.51Z"/><path class="cls-8" d="M363.8,399l-52.45,14.83C329.16,411.57,351.13,403.64,363.8,399Z"/><path class="cls-7" d="M497.12,401.6h.25l0,0Z"/><path class="cls-4" d="M257.69,318.81a28.93,28.93,0,0,0,4.44,2.61l.31-.37c.51-.59,1.08-1.27,1.76-1.94a20.3,20.3,0,0,0,1.82-2.2.38.38,0,0,1-.09-.12c0-.06-2.16-6.55-2.76-7.87-.29-.65-1.86-2.84-3.24-4.77a43.6,43.6,0,0,1-3-4.51,8,8,0,0,0-1.53-1.91c-.44-.47-.9-.94-1.3-1.44a72,72,0,0,1-4.39,6.45c-1.09,1.25-1.29,2.88-.64,5.31.38,1.43.7,2.71.84,3.3,5.32-.78,11.73-.38,12.79,3.28a2.05,2.05,0,0,1-.36,1.88C261.53,317.52,259.79,318.27,257.69,318.81Z"/><path class="cls-7" d="M264,343.07c.45-1.56,1.71-6,2.13-7.52-1.63-.1-3.1-.27-3.64-.33l-.08,0-2.16-.13c-.85-.05-1.53-.1-1.87-.1-2,0-5.68-.13-7.2-1-.72-.42-2.38-1.32-4-2.19-1.83-1-3.57-1.93-4-2.23l-.23-.14c-6.75-4.32-9.36-4.58-10.31-4.34-.58.14-1.11.26-1.62.37a27.51,27.51,0,0,1,1.33,3.35c1.16,3.4,6.75,7.52,10,9.67a10.57,10.57,0,0,1,2.25,2.09c.92-.49,4.24-2.15,6.6-2.15h.12c2.26.06,7,1.1,8.72,4.64.32.66.7,1.33,1.1,2,.5.87,1,1.79,1.47,2.77a7.34,7.34,0,0,1,.89-3.46A8,8,0,0,0,264,343.07Z"/><path class="cls-7" d="M267,378.63l-.38-1c-.26.59-.19.82-.15.89S266.84,378.65,267,378.63Z"/><path class="cls-7" d="M267.21,379.43h-.15l.39.37-.15-.42Z"/><path class="cls-4" d="M271.86,228.6c.6,2,1.12,3.77,1.53,4.74,1.07,2.56,4.82,21.69,4.9,28.09.07,6,2.47,7.18,2.49,7.19l.8.35-.78.39a4.52,4.52,0,0,1-1.87.36,7.12,7.12,0,0,1-4.66-1.94c-1.89-1.62-3.43-4.4-4.78-6.85-1-1.88-2-3.65-2.86-4.29a7.75,7.75,0,0,0-2.17-1.07,8.6,8.6,0,0,1-4.29-3c-2.33-2.85-4.47-5.76-5.11-10.08l-.15-1c-.66-4.53-2-14-3.3-16.15a40.89,40.89,0,0,1-3.34-10c-.51-2.39-2-8.84-2.57-11.16-.12.18-.23.35-.33.52a7.53,7.53,0,0,1-1.84,2.16c0,1.41.18,10.4.94,14.26.18.92.36,1.75.52,2.52a27.17,27.17,0,0,1,.91,7.25,56.84,56.84,0,0,1-1.13,6.88,32.25,32.25,0,0,0-.84,5.27c.2,1,.72,1.41,1.95,1.36a7.91,7.91,0,0,0,1.14-.18,2.73,2.73,0,0,1,2.07.06,1.33,1.33,0,0,1,.53.93c.12.74-.46,1.6-1.26,2.77a15.06,15.06,0,0,0-2.93,6.61l-.06.45c-.61,4.7-1.1,8.42.23,11.36l.18.4c1.4,3.08,3.3,7.3,3.85,11.41a42.69,42.69,0,0,0,3.26,11.23,9.14,9.14,0,0,1,.78,3.28,5.64,5.64,0,0,0,.68,2.62,16.92,16.92,0,0,0,1.59,1.83,8.32,8.32,0,0,1,1.7,2.17c.2.49,1.66,2.53,3,4.34a53.68,53.68,0,0,1,3.32,4.91c.53,1.19,2.19,6.16,2.66,7.58a17.21,17.21,0,0,1,3-3.34.39.39,0,0,1,0-.21c0-.09,2.05-9.08,1.85-13.58a43.94,43.94,0,0,1,.1-5,31.53,31.53,0,0,0-.1-6.61c-.6-4.7-3.92-24.33-4-24.53a.41.41,0,1,1,.8-.13c0,.2,3.35,19.84,4,24.56a32.22,32.22,0,0,1,.11,6.76,43.1,43.1,0,0,0-.1,4.94c.18,4-1.31,11.2-1.75,13.25a3.94,3.94,0,0,1,.9-.34,1.46,1.46,0,0,1,1.61.46c.88,1.16.06,4-.71,5.76a21.26,21.26,0,0,1,4.11-3.39.39.39,0,0,1,0-.06c0-.13,2.19-13.14,2.84-19,.15-1.37.55-3.89,1.07-7.06a.4.4,0,0,1,.08-.5c.35-2.08.74-4.42,1.16-6.89,1.72-10.11,3.85-22.69,4.07-27.21.35-7.22-4.68-19-4.73-19.13a.41.41,0,0,1,.74-.32c.21.49,5.15,12.08,4.8,19.49-.22,4.57-2.36,17.17-4.08,27.3-.35,2.08-.69,4.07-1,5.89,1.81-1.69,5.63-5.67,6.71-10,1.45-5.82,2.31-18.13,2.32-18.25a.39.39,0,0,1,.43-.38.41.41,0,0,1,.38.43c0,.12-.88,12.51-2.34,18.39-1.35,5.43-6.56,10.12-7.71,11.11-.54,3.25-.95,5.84-1.1,7.23-.58,5.29-2.37,16.24-2.76,18.62a1.45,1.45,0,0,1,1.33.08c1.35,1,1.27,3.08.9,4.72a6.73,6.73,0,0,1-.15,3.62c-.32.78-1.12,2.25-2,3.81s-1.61,2.94-1.93,3.69a13.32,13.32,0,0,1-3.74,4.89,7,7,0,0,1-3.22.48c-.47,0-1,0-1.45,0-.36,1.27-1.71,6.08-2.18,7.7a8.66,8.66,0,0,1-.58,1.41c-.57,1.18-1.16,2.4-.58,5.47a.4.4,0,0,1-.08.32c.08.33.15.67.2,1a33,33,0,0,1,3.73-3c.51-1.11,6-13.21,7.15-16.32.9-2.55,4.3-8,7.3-12.88.91-1.47,1.76-2.85,2.47-4s1.57-2.48,2.62-4.08c3.41-5.17,8.56-13,8.07-16.24a.41.41,0,1,1,.8-.12c.54,3.55-4.51,11.21-8.2,16.81-1,1.59-2,3-2.61,4s-1.57,2.57-2.48,4c-2.83,4.57-6.35,10.25-7.22,12.73-1,2.71-5.09,11.82-6.63,15.21a41.69,41.69,0,0,1,16.34-6.11,9.71,9.71,0,0,1,4.09.16c2.79-10.78,2-16.49,1.24-22-.39-2.83,1.19-7.56,2.85-12.57,1.81-5.42,3.67-11,2.65-13.49-1.17-2.81-1.77-11.1-2.35-19.11a149.52,149.52,0,0,0-1.53-15.24c-.92-4.42-3.94-12.15-6.36-18.36-1.57-4-2.93-7.52-3.37-9.2-.95-3.62-11.4-11-13.76-12.62l.12.23A79.17,79.17,0,0,1,271.86,228.6Z"/><path class="cls-5" d="M380.46,204.74c.36,1.94,1.09,4.63,2.3,5.45,2.22,1.51,6.14,2.13,10.48,1.67a65.91,65.91,0,0,0,10.52-2.31c4.18-3.19,9.45-6.88,12.53-7.8a7.86,7.86,0,0,0,1.32-.54.39.39,0,0,1,0-.07c-.09-3.06-.18-8.29.24-8.89a16.3,16.3,0,0,1,5.34-4.5,17,17,0,0,1,2.63-2,14.12,14.12,0,0,1,3.83-1.24.4.4,0,0,1,.22-.24,30.28,30.28,0,0,1,5.12-1.86l.84-.08c-.11-.76-.19-2.14.61-2.61,1.05-.62,2.4.79,2.54,1a.41.41,0,0,1-.6.55c-.41-.45-1.18-1-1.53-.8s-.32,1.09-.21,1.84c2.86-.23,4.61-.16,5.33.19a2.34,2.34,0,0,1,1,.94c.7-1.26,2.26-4.37,2.13-5.71,0-.19-.47-4.71-3.49-4.71h-.15a13.26,13.26,0,0,0-5.07,1.86,16.28,16.28,0,0,1-2.88,1.3A1.79,1.79,0,0,1,432,176c-.83-.53-1.05-1.77-1.29-3.1-.09-.51-.18-1-.31-1.51-.24-.84-1.76-2.71-3.37-4.69-2.16-2.65-4.61-5.65-5.67-8.1a20,20,0,0,1-1.21-7c-.1-2.11-.19-3.92-1-4.91-1.31-1.67-1.21-4.38-1-5.84a15,15,0,0,1-5.88,2.07,24.33,24.33,0,0,1-6.77-.5c-3.8-.6-8.1-1.27-12.89-.45-6.67,1.15-10.22,8-12.13,11.62-.4.76-.71,1.37-1,1.78-1.46,2.26-1.18,5-.63,10.4l0,.16a9.69,9.69,0,0,1-.68,5.5,15,15,0,0,0-1.14,5.85c-.23,6.71,3.14,25.82,3.17,26C380.27,203.59,380.35,204.13,380.46,204.74Zm58-28.44c.49-.29,3-1.68,4.08-.93s2.27,2,.49,6.5a.41.41,0,0,1-.38.26l-.15,0a.41.41,0,0,1-.23-.53c1.69-4.26.6-5-.19-5.53-.5-.34-2.22.37-3.22,1a.41.41,0,0,1-.41-.7Zm-36-3.83c.41-1.87,1.17-3.29,1.69-3.17s.6,1.72.19,3.59-1.17,3.29-1.69,3.17S402,174.33,402.44,172.47Zm-2.88,23.92a.41.41,0,1,1,.3.75,14.84,14.84,0,0,1-5.5.93,32,32,0,0,1-9.7-1.74.41.41,0,1,1,.28-.76C385,195.6,393.76,198.71,399.56,196.38Zm-17.2-29.29c.41-1.87,1.17-3.29,1.69-3.17s.6,1.72.19,3.59-1.17,3.29-1.69,3.17S381.94,169,382.36,167.09ZM382,182.48a30.63,30.63,0,0,1,3-4.5,29.47,29.47,0,0,0,3.61-5.66,16.2,16.2,0,0,0,.79-5.32.4.4,0,0,1,.39-.42.38.38,0,0,1,.42.39,16.69,16.69,0,0,1-.83,5.63,29.65,29.65,0,0,1-3.72,5.87,30.56,30.56,0,0,0-2.88,4.35c-.86,2,1.88,3.58,1.91,3.6a.41.41,0,0,1-.4.7C383,186.43,381,184.59,382,182.48Z"/><path class="cls-9" d="M379.76,153.14c2-3.79,5.65-10.83,12.71-12,4.92-.84,9.49-.13,13.15.45a23.75,23.75,0,0,0,6.53.5,12.77,12.77,0,0,0,6.28-2.47l.93-.83-.26,1.21s-.85,4.14.73,6.16c.93,1.19,1,3.13,1.14,5.37a19.31,19.31,0,0,0,1.15,6.75c1,2.35,3.43,5.3,5.55,7.91,1.81,2.22,3.24,4,3.52,5,.14.5.24,1.05.33,1.59.19,1.09.39,2.22.92,2.55a1,1,0,0,0,.82,0,15.75,15.75,0,0,0,2.72-1.24,13.81,13.81,0,0,1,5.41-2c3.12-.16,4.29,3.35,4.48,5.44.16,1.68-1.64,5.1-2.17,6.07a4.31,4.31,0,0,1,1-.07c.79-1.56,5.78-11.47,7.36-15.83,1.67-4.61.47-18.83-3.7-25.26S437.69,130.18,435,129a6.15,6.15,0,0,0-3.53-.35,6.62,6.62,0,0,1-3.13-.18,22,22,0,0,0-4.23-.82,37.68,37.68,0,0,1-4.26-.73l-1.14-.29a29.22,29.22,0,0,0-12-1c-7.85.83-18.35,5.05-24.31,14.42-4.49,7.07-4.62,13.13-4.32,16.08a6.92,6.92,0,0,1,.66-1.3C379.07,154.47,379.39,153.86,379.76,153.14Z"/><path class="cls-10" d="M436,308.67a38.26,38.26,0,0,1,5.77-2.09.4.4,0,0,1,.07-.29l12.26-16.76c-6.7,7.23-14.48,15.58-14.61,15.72S438,306.77,436,308.67Z"/><path class="cls-5" d="M282.84,404.6a1.82,1.82,0,0,1,.08-.24,5.28,5.28,0,0,1-1.53-3.17c-1-.73-3.57-2.26-4.85-1.83a1.1,1.1,0,0,0-.7.83c-.62,2.23.78,4.1,2.14,5.91.43.57.84,1.12,1.19,1.67,1.09,1.73,3.92,3.49,6,4.77.65.4,1.23.76,1.67,1.07,1.8,1.24,6.06,1.8,7.08,1.32.72-.34,1-1.84,1.15-2.65-3.55-1.1-9-3-10.55-4.31C283.19,406.84,282.58,405.62,282.84,404.6Z"/><path class="cls-5" d="M398.87,241.11a.4.4,0,0,1,0-.16c0-1.06-.45-25,3.51-30.15a61,61,0,0,1-9,1.86,26.65,26.65,0,0,1-2.82.15c-3.38,0-6.33-.69-8.2-2-1.44-1-2.21-3.74-2.58-5.64-1.93.23-11,1.57-12.32,6.19-1.47,5.11,2.4,15.45,10.5,22.71A60.42,60.42,0,0,1,386,242.7a9.58,9.58,0,0,0,2.81,2.82,6.76,6.76,0,0,0,3.48,1c-.25-1.83-.42-3-.43-3l0-.31.28-.13A35.83,35.83,0,0,1,398.87,241.11Z"/><path class="cls-5" d="M443.39,184.55a17.71,17.71,0,0,1,.23,3.66c0,2-1.1,5.06-2.06,7.77a22.11,22.11,0,0,0-1.46,5.13,5.91,5.91,0,0,1-1.43,3.94.41.41,0,0,1-.59-.56,5.18,5.18,0,0,0,1.21-3.36,21.37,21.37,0,0,1,1.5-5.41c.93-2.66,2-5.67,2-7.51,0-3.37-.27-4.61-1.23-5.07-.4-.19-1.77-.44-6.49,0a11.48,11.48,0,0,0-2.19.67,5.59,5.59,0,0,1,3.74,1.18c.9.94-.1,8.56-.57,11.8a.41.41,0,0,1-.4.35h-.06a.41.41,0,0,1-.34-.46c.72-5,1.21-10.5.78-11.13a5.31,5.31,0,0,0-4.25-.79c-.42.12-1,.24-1.56.37a15.76,15.76,0,0,0-4,1.24,13.17,13.17,0,0,0-1.29.9c2.54-.15,3.83.63,4,2.46,0,.41.06,1.28.08,2.39a36.05,36.05,0,0,0,.31,5.4.41.41,0,0,1-.07.75.6.6,0,0,1-.43-.08c-.43-.31-.55-1.5-.62-6.07,0-1,0-1.94-.07-2.32-.1-1-.57-1.93-3.29-1.73s-6,4.07-6.35,4.59a59.46,59.46,0,0,0-.11,8.07,7.35,7.35,0,0,0,3.29-4.64c.35-2.33.75-5,1.57-6a.41.41,0,1,1,.64.5c-.68.87-1.1,3.62-1.41,5.63a8.58,8.58,0,0,1-6,6.28c-2.51.75-7,3.62-13.12,8.32-3.53,2.73-3.91,22.65-3.76,30.09v0a57.44,57.44,0,0,1,18.14-.36c-.08-.74-1.72-16,.66-19.64s10.13-9.71,10.47-10l.11-.06c3.2-1.23,11.75-4.88,12.94-7.05a10.37,10.37,0,0,0,1.07-3.7,9.44,9.44,0,0,1,1.24-3.93c1.53-2.42,3.67-9.28,2.36-10.92A2.88,2.88,0,0,0,443.39,184.55Z"/><path class="cls-4" d="M295.62,358.28c-1.75-2.23-3.57-4.54-3.84-7a23.6,23.6,0,0,1-.1-2.46c0-2.17,0-4.42-1.4-5.62-1-.87-2.65-1.15-5-.83a40.41,40.41,0,0,0-21.33,10.1,12.31,12.31,0,0,1,0,2.07c-.11,1.19-.29,2.59-.48,4.08-.61,4.78-1.38,10.74-.44,14.28a13.49,13.49,0,0,0,2.71,5c.18-.85,1-2.28,3.28-4.86a25.83,25.83,0,0,1,15.22-8.54h0c2.35-.51,4.88.68,7.1,1.73a9.29,9.29,0,0,0,3.51,1.21.4.4,0,0,1,.43.38.41.41,0,0,1-.38.43,9.57,9.57,0,0,1-3.91-1.28c-2-.93-4.19-2-6.18-1.72.19.87.62,2.93,1,5.13,4-.38,10.24-1.22,11.31-2,.27-.21.55-.39.82-.57,1.31-.85,2.25-1.46,1-4.54A23,23,0,0,0,295.62,358.28Z"/><path class="cls-5" d="M284,365.42a27,27,0,0,0-16.81,11.26c.21.56.86,2.27,1.55,4.19l.12.09,0,.14a45.87,45.87,0,0,1,1.94,6.36c.09.71.09,2,.08,3.63,0,3.35,0,7.94.83,9.69a52,52,0,0,0,4.27,6.62l.18-.28a4.68,4.68,0,0,1-.34-2.88,5.47,5.47,0,0,1-.67-4.26,1.91,1.91,0,0,1,1.22-1.38c1.5-.51,3.79.76,5,1.53a8.7,8.7,0,0,1,0-1.57,29.6,29.6,0,0,0-.43-8.26c-.53-3,1.51-6.92,1.59-7.09a.41.41,0,0,1,.72.38s-2,3.87-1.51,6.57a30.4,30.4,0,0,1,.43,8.5,8.23,8.23,0,0,0,.05,2.24v0a4.7,4.7,0,0,0,1.22,2.79,4,4,0,0,1,2.06-1,9.57,9.57,0,0,1,2.69-.12,54.19,54.19,0,0,0,1.45-8.48,19.59,19.59,0,0,1,.47-3.71,6.31,6.31,0,0,0,.24-2.41.41.41,0,1,1,.75-.32,5.92,5.92,0,0,1-.19,2.89,19,19,0,0,0-.46,3.56,53,53,0,0,1-1.45,8.56c1.28.16,2.58.45,3.8.73l1,.21a11.65,11.65,0,0,1,2.32-6.12.41.41,0,0,1,.61.54c-1.61,1.82-2,4.75-2.13,5.74A12.32,12.32,0,0,0,296,404c2.66.18,5,2.59,5.07,2.7a.41.41,0,0,1-.59.56s-2.19-2.29-4.53-2.44a24.48,24.48,0,0,1-3.33-.6c-2.33-.52-5-1.11-7-.69-.8.17-1.79.53-2,1.28s.35,1.64,1.42,2.55c1.91,1.63,11.14,4.52,13.15,5,1.42.33,2.35-1.24,3.38-3.88.64-1.63.13-4.24-.45-7.26-.2-1-.41-2.11-.58-3.21-.56-3.55-7.55-9.79-10.19-12.14-.47-.42-.84-.74-1-.95-1.66-1.58-3.14-5.26-3.37-8.38C285.73,373.83,284.32,367.12,284,365.42Z"/><path class="cls-8" d="M359.26,357.48l.91-.64c.75-.52,1.46-1,2.09-1.5a25.2,25.2,0,0,0-9.27,2.87A53.45,53.45,0,0,1,359.26,357.48Z"/><path class="cls-5" d="M428.46,212.38c-2.18,1.78-7.54,6.27-9.34,9s-1.11,12.52-.73,17c10.59-7.87,12-13.85,13.33-19.13l.12-.5a5.06,5.06,0,0,0-.42-4,5.16,5.16,0,0,0-3-2.06Z"/><path class="cls-8" d="M363.45,354.36c.65-.61,1-1.16,1-1.64a.88.88,0,0,0-.07-.25c-5.89.94-12.37,2.87-16.64,6.8,1-.22,2.07-.44,3.21-.67C354.37,356,358.95,354.81,363.45,354.36Z"/><path class="cls-8" d="M290.89,385.25c.73.65,1.7,1.52,2.76,2.52a103.72,103.72,0,0,1,12.48-6.57c3.56-1.39,10-4.37,16-7.12a22.85,22.85,0,0,0-4.76.69.41.41,0,1,1-.23-.78,24.47,24.47,0,0,1,6.76-.73l4.75-2.19.86-.37a16.72,16.72,0,0,0-7,1.21.41.41,0,1,1-.35-.73,18.21,18.21,0,0,1,9.13-1.15c2.17-.76,4.58-1.42,7.11-2.1,6.1-1.64,12.4-3.34,16.32-6.87a42.39,42.39,0,0,1,3.33-2.67c-1.78.15-3.49.37-5.08.66-4.81.88-7.89,1.66-12.16,2.74-3.28.83-7.35,1.86-13.51,3.27-14,3.19-37.22,19-37.45,19.14h0l.1.1C290.07,384.51,290.43,384.83,290.89,385.25Z"/><path d="M438.86,177c1-.59,2.72-1.3,3.22-1,.79.54,1.88,1.28.19,5.53a.41.41,0,0,0,.23.53l.15,0a.41.41,0,0,0,.38-.26c1.78-4.49.68-5.71-.49-6.5s-3.6.64-4.08.93a.41.41,0,0,0,.41.7Z"/><path d="M497.54,401.64h.09l.07,0h-.33A.4.4,0,0,0,497.54,401.64Z"/><path d="M306.78,415.14h0Z"/><path d="M306.72,414.33a.41.41,0,0,0,0,.81h.08l4.52-1.28C309.78,414.06,308.23,414.22,306.72,414.33Z"/><path d="M390.73,385c4.66-2.93,9.42-12.25,8.63-16.91-.5-3-1.91-5.76-3.54-9-.91-1.8-1.94-3.84-2.91-6.12-2.87-6.75-17.24-7.09-19.94-6.87l-.89.07c-4.61.35-18.64,1.41-23.86,3.89-3.29,1.57-20,6.93-32.78,11,.94-3.64,5.26-8.57,6-9.42a20.59,20.59,0,0,0,2.09.1c5.26,0,11.86-1.63,15.88-2.79l-.06,0a.41.41,0,0,0,.49.65c1.3-1,37.57-18.85,56.86-28.3,1.73,2.68,4.57,4.74,9.4,4.74q.86,0,1.81-.09c8.46-.81,19.28-9.34,25.81-15.19,1-.62,11.4-6.55,22.53-3.82,9,2.2,13.82,7.77,17,11.46a21.94,21.94,0,0,0,2.59,2.7c2.08,1.62,13.85,48.89,21.26,80.26a.39.39,0,0,0,.2.25,3.27,3.27,0,0,0,.47,0,.39.39,0,0,0,.13-.39c-1.89-8-18.57-78.39-21.55-80.71a21.44,21.44,0,0,1-2.47-2.59c-3.08-3.53-8.23-9.45-17.45-11.72a28.89,28.89,0,0,0-13.63.17l16-21.93c2.23-2.41,3.94-4.26,4.56-5,2.8-3.12,8.13-12,11.09-19.11,2.79-6.76,2.7-12.68-.28-18.66-2.26-4.51-6.66-7.41-10.54-10l-1.7-1.13-3-2c-5.19-3.46-13.89-9.26-17.65-12.51-4-3.47-10.36-4.06-12.28-4.16l.27-.22c1-.39,11.77-4.6,13.3-7.4a11,11,0,0,0,1.16-4,8.66,8.66,0,0,1,1.12-3.62c1.55-2.46,4-9.77,2.31-11.86a3.25,3.25,0,0,0-1.66-1.12c1.07-2.12,5.75-11.46,7.29-15.7,1.76-4.86.58-19.25-3.78-26s-11-12.54-13.73-13.74a7,7,0,0,0-3.95-.41,5.9,5.9,0,0,1-2.77-.14,22.62,22.62,0,0,0-4.39-.85,37,37,0,0,1-4.17-.71l-1.13-.29a29.93,29.93,0,0,0-12.26-1c-8,.85-18.8,5.18-24.91,14.79-6.25,9.84-4.36,17.65-4.1,18.56a39.79,39.79,0,0,0,.38,7.57l0,.16a8.93,8.93,0,0,1-.63,5.12,15.73,15.73,0,0,0-1.2,6.11c-.22,6.32,2.6,22.84,3.11,25.73a35.06,35.06,0,0,0-7.69,1.48,23.46,23.46,0,0,1-5.11.87,113.42,113.42,0,0,0-16.66,2.91c-15.56,3.69-21.38,12-24.71,18.88-3.56,7.32-16.56,66.39-17.58,85.95-1.11,21.11,5,31.92,8.81,36.48a6.56,6.56,0,0,0,4.08,2c-1.4,1.59-5.3,6.3-6,9.84h0c-7.3,2.3-13.16,4.11-14.22,4.43a7.1,7.1,0,0,0-.66-2.76,23.54,23.54,0,0,0-3.4-5.17c-1.76-2.24-3.42-4.36-3.67-6.55a22.77,22.77,0,0,1-.09-2.37c0-2.35,0-4.78-1.68-6.22a4,4,0,0,0-.83-.55c2.86-11,2-17.08,1.29-22.44-.36-2.64,1.25-7.51,2.82-12.2,1.94-5.82,3.77-11.32,2.63-14.06s-1.71-10.91-2.29-18.85a149.43,149.43,0,0,0-1.54-15.35c-.93-4.48-4-12.25-6.4-18.49-1.56-4-2.91-7.47-3.34-9.11-1.14-4.36-14-13-14.57-13.42a.4.4,0,0,0-.5,0c-2.61-4.39-9.17-10.89-11.38-12.84a12.1,12.1,0,0,1-3.07-5.09,29.62,29.62,0,0,1,4.37.87c4.61,1.25,8.66,1.06,11.12-.53a5.9,5.9,0,0,0,2.67-4.21c.65-4.11,1.59-4.69,2.42-5.2a5,5,0,0,0,.63-.44,3.55,3.55,0,0,0,1.29-2.68,2.67,2.67,0,0,0-1-1.93l.5-.26c2-1,2-1.91,1.48-3.9a12.81,12.81,0,0,1-.26-3.57,7.16,7.16,0,0,1,2.24-.69c2.13-.22,3.49-.8,4.15-1.76a3.17,3.17,0,0,0,.31-2.7,12,12,0,0,0-2.33-3.86c-1.28-1.65-2.59-3.35-2.73-5.2-.25-3.36.28-5.64,1.81-7.85s2.69-6.79.81-12.18a20.67,20.67,0,0,1-1-6,16,16,0,0,0-1.42-6.51,16.88,16.88,0,0,1,2.16-1.5l.27-.13,0-.29c0-.19-3-18.86-20.21-20.09a70.39,70.39,0,0,1-21.05-4.49,37.64,37.64,0,0,0-8.24-2.26c-7.82-1-19.68,8.59-24.89,15.57-2.49,3.35-5.11,11-8.15,19.92-3.19,9.35-6.8,20-10.81,26.62-6.42,10.7-23.68,35.73-35.1,52.3l-5.72,8.31c-9.08,13.23-15.56,39.95-6.15,46.72-.78,3.3-1.32,5.81-1.49,6.94-.33,2.23.23,5.76.87,9.84,1,6.1,2,13,.25,16.81-3.12,6.58,2.47,31.12,4.52,33.56,1.75,2.09,3.75,7,4.61,9.11l.33.8.3.74c.64,1.58,1.92,4.75,3.42,7.83.17.48,2.13,6.19,1.86,8.22a4.26,4.26,0,0,1-.95,2.13,10.07,10.07,0,0,0-1.68,3.5,16.11,16.11,0,0,0-.6,4.88,5.32,5.32,0,0,1-.11,1.49s0,0,0,0v0l0,.12s0,0,0,.06c-.21,1.55-1.68,12.7-2,16.26s.55,7.47,1.31,11c.11.52.22,1,.32,1.53a30,30,0,0,0,2.88,7.65.41.41,0,0,0,.71-.4,29.81,29.81,0,0,1-2.8-7.41c-.1-.5-.21-1-.32-1.53-.75-3.51-1.6-7.5-1.29-10.8s1.69-13.84,2-16a7.45,7.45,0,0,0,.83-.67c1.24-1.09,3.56-3.11,5.74-3.24l1.29-.07a38.11,38.11,0,0,0,10.48-1.58,33.71,33.71,0,0,0,6.93-3.32c.76,1.66,1.42,2.23,1.85,2.4a1,1,0,0,0,.36.08c-.79.67-1.47,1.29-2.07,1.84a15.8,15.8,0,0,1-2.53,2.06c-3.28,1.89-8.81,11.47-10,15.75a15.52,15.52,0,0,1-2.64,4.83,22.09,22.09,0,0,0-3.75,7.23.41.41,0,1,0,.78.22,18.65,18.65,0,0,1,.89-2.44,1.61,1.61,0,0,0,.65,1.28c.68.42,1.73.1,3.18-1a21.23,21.23,0,0,1,8.93-4.1,38.62,38.62,0,0,0,.37,4.15.41.41,0,0,0,.4.34h.07a.41.41,0,0,0,.33-.47,38,38,0,0,1-.36-4.12c.35,0,.7-.05,1.06-.05a27.35,27.35,0,0,0,1,7.43.4.4,0,0,0,.37.25.4.4,0,0,0,.15,0,.4.4,0,0,0,.22-.53,26.67,26.67,0,0,1-.89-7.1,10.71,10.71,0,0,1,1.77.25,15.92,15.92,0,0,1,4.05,1.6,11.92,11.92,0,0,0,7.6,1.58c6.14-.47,13.09,3.26,17.15,6.61a81.93,81.93,0,0,0,10.59,6.93h.88a.4.4,0,0,0-.17-.54,83.5,83.5,0,0,1-10.79-7c-4.18-3.44-11.34-7.3-17.73-6.79a11.1,11.1,0,0,1-7.16-1.49,16.86,16.86,0,0,0-4.24-1.67,11.53,11.53,0,0,0-2-.28c0-5,1-11.14,4.75-14.65a.41.41,0,0,0-.56-.59c-4,3.73-5,10-5,15.23q-.54,0-1.07.05a40.73,40.73,0,0,1,.39-6.71.41.41,0,0,0-.34-.46.41.41,0,0,0-.46.34,41.62,41.62,0,0,0-.39,6.93,22,22,0,0,0-9.39,4.27c-1.6,1.2-2.14,1-2.27.95-.34-.21-.3-1.07-.24-1.44a.4.4,0,0,0-.21-.43,30.56,30.56,0,0,1,2.11-3.26,16.14,16.14,0,0,0,2.76-5.08c1.28-4.48,6.77-13.61,9.65-15.27a16.36,16.36,0,0,0,2.67-2.16c2.84-2.61,7.14-6.55,18.15-10.63,11.89-4.4,27.11,3.81,35.57,10.51a.4.4,0,0,0,.15.12,45.55,45.55,0,0,1,3.61,3.17c5.47,5.42,23.73,19.93,30.25,24.29,5.08,3.39,7.07,4,7.71,4.14.59.84,1,1.42,1.08,1.48a.4.4,0,0,0,.31.16,7.82,7.82,0,0,0-.38,1.19c-.44,1.83,2.77,6.74,4.16,7.67a4.75,4.75,0,0,0,2.55.63,6,6,0,0,0,1.8-.26,2.28,2.28,0,0,0,1.37-1h.37a13.28,13.28,0,0,0,4.18-.78,14.31,14.31,0,0,0,3,.37,4.14,4.14,0,0,0,1.62-.24c1.1-.51,1.47-2.26,1.59-3.15,1,.3,1.78.52,2.16.61a2.55,2.55,0,0,0,.57.07c2,0,3-2.64,3.75-4.44s.2-4.57-.41-7.71c-.2-1-.41-2.1-.58-3.18-.43-2.71-4-6.56-7.08-9.52a101.19,101.19,0,0,1,12.16-6.4c3.79-1.48,10.85-4.75,17.08-7.63l.55-.25c3.75.15,8.31,1.28,11.52,5.25a.4.4,0,0,0,.32.15.4.4,0,0,0,.26-.09.41.41,0,0,0,.06-.57,15.35,15.35,0,0,0-10.65-5.43l3.4-1.57c.75-.34,1.55-.66,2.4-1a20.5,20.5,0,0,1,9.57,4,.41.41,0,1,0,.48-.65,21.66,21.66,0,0,0-8.43-3.85c1.75-.56,3.64-1.07,5.6-1.6,6.19-1.67,12.59-3.39,16.65-7a47.12,47.12,0,0,1,4.32-3.38c7-.37,14.65.58,20.07,4.16a.41.41,0,1,0,.45-.68c-5.24-3.46-12.54-4.54-19.3-4.34a36,36,0,0,0,3-2.24,62.48,62.48,0,0,1,16,.82.41.41,0,1,0,.16-.8,62.19,62.19,0,0,0-15.26-1,2.26,2.26,0,0,0,.59-1.61,1.66,1.66,0,0,0-.06-.3,71.18,71.18,0,0,1,12.93-.67.41.41,0,1,0,.05-.81,70.12,70.12,0,0,0-13.44.68,6.64,6.64,0,0,0-2.27-1.49.41.41,0,1,0-.33.74,7.94,7.94,0,0,1,1.59.91c-6.29,1.06-13.19,3.29-17.48,7.89-1.83.43-3.61.88-5.66,1.4-3.27.83-7.34,1.86-13.5,3.27-14.11,3.22-37.49,19.1-37.73,19.26a.4.4,0,0,0-.09.09,15.2,15.2,0,0,1-2.52-7.16c-.09-1.24-.42-3.25-.79-5.25,1.72-.16,10.12-1,11.66-2.21.25-.19.51-.36.77-.53a3.75,3.75,0,0,0,1.81-1.94.38.38,0,0,0,.2,0c1.74-.54,42.68-13.15,48.19-15.77,5.09-2.42,19-3.47,23.58-3.81l.89-.07c4.08-.32,16.69.62,19.13,6.38,1,2.31,2,4.36,2.93,6.17,1.6,3.16,3,5.89,3.46,8.75.73,4.32-3.91,13.34-8.27,16.09a63.54,63.54,0,0,0-5.44,4.14c-3.83,3.11-8.17,6.63-11.39,7.3-1.27.26-4.49,1.44-8.94,3.06l-.73.26,12.55-3.55a57.53,57.53,0,0,0,9-6.45A63.07,63.07,0,0,1,390.73,385Zm51.11-78.67a.4.4,0,0,0-.07.29,38.26,38.26,0,0,0-5.77,2.09c2-1.89,3.3-3.22,3.49-3.42s7.91-8.5,14.61-15.72Zm-1-89.64c3.8,3.28,12.52,9.1,17.73,12.57l3,2,1.71,1.14c3.8,2.5,8.1,5.34,10.26,9.66,2.87,5.75,3,11.46.26,18-3.17,7.67-8.51,16.16-10.95,18.88-2.57,2.87-23.71,25.59-23.92,25.82s-18.63,19.24-31,20.43c-5.72.54-8.83-1.6-10.62-4.52v0l0,0c-1.61-2.66-2.14-6-2.53-8.45-.1-.64-.2-1.23-.3-1.72-.94-4.61-1.43-26.31.14-35.41,1.5-8.7-1.35-28.41-1.78-31.25,1.8-.72,12-4.44,26.55-2.07.33,4.27,3.42,43.6,5.34,49s2.09,10.38.61,14.74a.41.41,0,0,0,.77.26c1.54-4.54,1.33-9.82-.61-15.27-.54-1.53-1.19-6-1.85-11.58,1.24-1.5,13.38-16.12,19-20.2,5.9-4.27,15.41-7.48,15.51-7.52a.41.41,0,1,0-.26-.77c-.1,0-9.73,3.28-15.73,7.63-5.33,3.86-16,16.53-18.66,19.74-1.66-14.61-3.32-36.11-3.34-36.42l0-.32-.31-.05-1.16-.18a.39.39,0,0,0,0-.19s-.05-.48-.12-1.22c11.19-8.19,12.7-14.4,14-19.89l.12-.5a5.82,5.82,0,0,0-.52-4.63,5.14,5.14,0,0,0-1.37-1.43C433.39,213.16,437.87,214.07,440.84,216.64Zm-49,26.87s.18,1.19.43,3a6.76,6.76,0,0,1-3.48-1A9.58,9.58,0,0,1,386,242.7a60.42,60.42,0,0,0-8.09-8.59c-8.1-7.26-12-17.6-10.5-22.71,1.33-4.62,10.38-6,12.32-6.19.37,1.89,1.14,4.66,2.58,5.64,1.87,1.27,4.82,2,8.2,2a26.65,26.65,0,0,0,2.82-.15,61,61,0,0,0,9-1.86c-4,5.17-3.54,29.09-3.51,30.15a.4.4,0,0,0,0,.16,35.83,35.83,0,0,0-6.76,2l-.28.13Zm39.55-28.8a5.06,5.06,0,0,1,.42,4l-.12.5c-1.28,5.29-2.74,11.27-13.33,19.13-.38-4.43-1-14.33.73-17s7.16-7.24,9.34-9l0,.27A5.16,5.16,0,0,1,431.42,214.71Zm15.2-29.39c1.31,1.64-.83,8.5-2.36,10.92a9.44,9.44,0,0,0-1.24,3.93,10.37,10.37,0,0,1-1.07,3.7c-1.19,2.17-9.74,5.82-12.94,7.05l-.11.06c-.33.26-8.12,6.4-10.47,10s-.74,18.91-.66,19.64a57.15,57.15,0,0,0-18.14.37v0c-.15-7.45.24-27.37,3.76-30.09,6.07-4.69,10.61-7.57,13.12-8.32a8.58,8.58,0,0,0,6-6.28c.3-2,.72-4.75,1.41-5.63a.41.41,0,1,0-.64-.5c-.82,1-1.22,3.68-1.57,6a7.35,7.35,0,0,1-3.29,4.64,59.46,59.46,0,0,1,.11-8.07c.35-.52,3.69-4.4,6.35-4.59s3.18.72,3.29,1.73c0,.38.05,1.28.07,2.32.08,4.56.2,5.75.62,6.07a.6.6,0,0,0,.43.08.41.41,0,0,0,.07-.75,36.05,36.05,0,0,1-.31-5.4c0-1.1,0-2-.08-2.39-.19-1.83-1.47-2.62-4-2.46a13.17,13.17,0,0,1,1.29-.9,15.76,15.76,0,0,1,4-1.24c.59-.13,1.14-.25,1.56-.37a5.31,5.31,0,0,1,4.25.79c.44.63-.05,6.15-.78,11.13a.41.41,0,0,0,.34.46h.06a.41.41,0,0,0,.4-.35c.47-3.24,1.47-10.86.57-11.8a5.59,5.59,0,0,0-3.74-1.18,11.48,11.48,0,0,1,2.19-.67c4.73-.48,6.1-.23,6.49,0,1,.47,1.26,1.7,1.23,5.07,0,1.85-1.08,4.86-2,7.51a21.37,21.37,0,0,0-1.5,5.41,5.18,5.18,0,0,1-1.21,3.36.41.41,0,0,0,.59.56,5.91,5.91,0,0,0,1.43-3.94,22.11,22.11,0,0,1,1.46-5.13c1-2.72,2-5.79,2.06-7.77a17.71,17.71,0,0,0-.23-3.66A2.88,2.88,0,0,1,446.62,185.32Zm-68.46-29.16c-.31-2.94-.18-9,4.32-16.08,6-9.37,16.46-13.59,24.31-14.42a29.22,29.22,0,0,1,12,1l1.14.29a37.68,37.68,0,0,0,4.26.73,22,22,0,0,1,4.23.82,6.62,6.62,0,0,0,3.13.18A6.15,6.15,0,0,1,435,129c2.65,1.16,9.18,7,13.37,13.44s5.37,20.66,3.7,25.26c-1.58,4.37-6.57,14.28-7.36,15.83a4.31,4.31,0,0,0-1,.07c.53-1,2.33-4.38,2.17-6.07-.19-2.09-1.36-5.59-4.48-5.44a13.81,13.81,0,0,0-5.41,2,15.75,15.75,0,0,1-2.72,1.24,1,1,0,0,1-.82,0c-.53-.33-.73-1.46-.92-2.55-.09-.53-.19-1.08-.33-1.59-.28-1-1.71-2.76-3.52-5-2.12-2.61-4.53-5.56-5.55-7.91a19.31,19.31,0,0,1-1.15-6.75c-.11-2.24-.2-4.18-1.14-5.37-1.59-2-.74-6.11-.73-6.16l.26-1.21-.93.83a12.77,12.77,0,0,1-6.28,2.47,23.75,23.75,0,0,1-6.53-.5c-3.67-.58-8.23-1.29-13.15-.45-7.06,1.22-10.74,8.26-12.71,12-.37.72-.7,1.33-.95,1.72A6.92,6.92,0,0,0,378.16,156.16Zm-1.1,21a15,15,0,0,1,1.14-5.85,9.69,9.69,0,0,0,.68-5.5l0-.16c-.55-5.42-.83-8.14.63-10.4.27-.42.59-1,1-1.78,1.91-3.66,5.46-10.48,12.13-11.62,4.79-.83,9.09-.15,12.89.45a24.33,24.33,0,0,0,6.77.5,15,15,0,0,0,5.88-2.07c-.17,1.45-.27,4.16,1,5.84.77,1,.86,2.81,1,4.91a20,20,0,0,0,1.21,7c1.06,2.45,3.51,5.45,5.67,8.1,1.61,2,3.14,3.85,3.37,4.69.13.47.22,1,.31,1.51.23,1.32.45,2.57,1.29,3.1a1.79,1.79,0,0,0,1.47.14,16.28,16.28,0,0,0,2.88-1.3,13.26,13.26,0,0,1,5.07-1.86h.15c3,0,3.47,4.51,3.49,4.71.12,1.34-1.43,4.45-2.13,5.71a2.34,2.34,0,0,0-1-.94c-.73-.35-2.47-.41-5.33-.19-.11-.75-.1-1.66.21-1.84s1.12.36,1.53.8a.41.41,0,0,0,.6-.55c-.15-.16-1.49-1.58-2.54-1-.79.47-.72,1.85-.61,2.61l-.84.08a30.28,30.28,0,0,0-5.12,1.86.4.4,0,0,0-.22.24,14.12,14.12,0,0,0-3.83,1.24,17,17,0,0,0-2.63,2,16.3,16.3,0,0,0-5.34,4.5c-.42.61-.33,5.83-.24,8.89a.39.39,0,0,0,0,.07,7.86,7.86,0,0,1-1.32.54c-3.08.92-8.35,4.61-12.53,7.8a65.91,65.91,0,0,1-10.52,2.31c-4.34.46-8.26-.16-10.48-1.67-1.21-.82-1.95-3.51-2.3-5.45-.11-.61-.19-1.14-.23-1.52C380.2,203,376.83,183.91,377.06,177.2ZM317,349c-3.69-4.47-9.72-15.08-8.63-35.92,1-19.51,14-78.36,17.5-85.64,3.25-6.69,8.94-14.83,24.17-18.44a112.79,112.79,0,0,1,16.56-2.89,24.42,24.42,0,0,0,5.28-.91,34.66,34.66,0,0,1,7.57-1.45c0,.18.06.42.1.7-2.17.26-11.48,1.65-12.95,6.77-1.53,5.32,2.14,15.83,10.74,23.54a59.74,59.74,0,0,1,8,8.48,10.26,10.26,0,0,0,3.06,3,7.83,7.83,0,0,0,3.72,1.11h.25c.89,6.76,2.45,20.72,1.29,27.48-1.54,8.94-1.1,29.92-.21,35.31-3.16.6-24.73,4.71-29.5,5.74-2.75.59-8.44,1.14-13.45,1.63-3.09.3-6.06.59-8.15.86-2.22-1.69-1.59-16.9,1.86-45.25,1.77-14.51-3.46-34.63-3.51-34.83a.41.41,0,1,0-.78.21c.05.2,5.24,20.17,3.49,34.53-3.39,27.86-4,42.12-2,45.48-.48.07-.89.15-1.22.22-3.49.78-16.18,5.9-20.13,12.15a.41.41,0,0,0,.69.43c3.83-6,16.21-11,19.62-11.79,1.67-.37,5.8-.77,10.18-1.2,5.28-.51,10.74-1,13.54-1.64,4.75-1,26.29-5.13,29.47-5.74.07.4.14.82.22,1.3a25.31,25.31,0,0,0,2.44,8.36c-4.53,2.22-41.5,20.34-53.34,26.42a.4.4,0,0,0-.2,0c-.17.06-13.67,4.6-21.33,3.77a.4.4,0,0,0-.19,0A6.3,6.3,0,0,1,317,349ZM282.36,231.78c.44,1.69,1.8,5.17,3.37,9.2,2.42,6.21,5.44,13.94,6.36,18.36a149.52,149.52,0,0,1,1.53,15.24c.58,8,1.18,16.3,2.35,19.11,1,2.46-.84,8.07-2.65,13.49-1.67,5-3.25,9.74-2.85,12.57.76,5.52,1.55,11.23-1.24,22a9.71,9.71,0,0,0-4.09-.16,41.69,41.69,0,0,0-16.34,6.11c1.55-3.39,5.68-12.5,6.63-15.21.87-2.47,4.39-8.16,7.22-12.73.91-1.47,1.77-2.85,2.48-4s1.56-2.46,2.61-4c3.69-5.59,8.73-13.25,8.2-16.81a.41.41,0,1,0-.8.12c.49,3.24-4.66,11.06-8.07,16.24-1.05,1.6-2,3-2.62,4.08s-1.56,2.56-2.47,4c-3,4.84-6.39,10.33-7.3,12.88-1.1,3.11-6.63,15.2-7.15,16.32a33,33,0,0,0-3.73,3c-.06-.35-.12-.69-.2-1a.4.4,0,0,0,.08-.32c-.59-3.07,0-4.29.58-5.47a8.66,8.66,0,0,0,.58-1.41c.47-1.62,1.82-6.43,2.18-7.7.49,0,1,0,1.45,0a7,7,0,0,0,3.22-.48,13.32,13.32,0,0,0,3.74-4.89c.32-.76,1.14-2.25,1.93-3.69s1.66-3,2-3.81a6.73,6.73,0,0,0,.15-3.62c.37-1.64.45-3.73-.9-4.72a1.45,1.45,0,0,0-1.33-.08c.39-2.38,2.18-13.33,2.76-18.62.15-1.38.56-4,1.1-7.23,1.15-1,6.37-5.68,7.71-11.11,1.46-5.88,2.33-18.26,2.34-18.39a.41.41,0,0,0-.38-.43.39.39,0,0,0-.43.38c0,.12-.88,12.44-2.32,18.25-1.08,4.34-4.91,8.33-6.71,10,.3-1.82.64-3.81,1-5.89,1.72-10.13,3.86-22.73,4.08-27.3.36-7.41-4.59-19-4.8-19.49a.41.41,0,0,0-.74.32c.05.12,5.08,11.91,4.73,19.13-.22,4.52-2.35,17.1-4.07,27.21-.42,2.47-.82,4.8-1.16,6.89a.4.4,0,0,0-.08.5c-.52,3.17-.92,5.69-1.07,7.06-.65,5.9-2.81,18.91-2.84,19a.39.39,0,0,0,0,.06,21.26,21.26,0,0,0-4.11,3.39c.77-1.79,1.59-4.59.71-5.76a1.46,1.46,0,0,0-1.61-.46,3.94,3.94,0,0,0-.9.34c.45-2.05,1.93-9.23,1.75-13.25a43.1,43.1,0,0,1,.1-4.94,32.22,32.22,0,0,0-.11-6.76c-.6-4.72-3.92-24.36-4-24.56a.41.41,0,1,0-.8.13c0,.2,3.35,19.82,4,24.53a31.53,31.53,0,0,1,.1,6.61,43.94,43.94,0,0,0-.1,5c.2,4.51-1.83,13.49-1.85,13.58a.39.39,0,0,0,0,.21,17.21,17.21,0,0,0-3,3.34c-.47-1.42-2.13-6.39-2.66-7.58a53.68,53.68,0,0,0-3.32-4.91c-1.29-1.81-2.76-3.85-3-4.34a8.32,8.32,0,0,0-1.7-2.17,16.92,16.92,0,0,1-1.59-1.83,5.64,5.64,0,0,1-.68-2.62,9.14,9.14,0,0,0-.78-3.28,42.69,42.69,0,0,1-3.26-11.23c-.55-4.11-2.46-8.33-3.85-11.41l-.18-.4c-1.33-2.94-.84-6.66-.23-11.36l.06-.45a15.06,15.06,0,0,1,2.93-6.61c.8-1.18,1.38-2,1.26-2.77a1.33,1.33,0,0,0-.53-.93,2.73,2.73,0,0,0-2.07-.06,7.91,7.91,0,0,1-1.14.18c-1.23,0-1.75-.31-1.95-1.36a32.25,32.25,0,0,1,.84-5.27,56.84,56.84,0,0,0,1.13-6.88,27.17,27.17,0,0,0-.91-7.25c-.16-.77-.34-1.59-.52-2.52-.77-3.86-.92-12.85-.94-14.26a7.53,7.53,0,0,0,1.84-2.16c.1-.17.21-.35.33-.52.55,2.32,2.06,8.76,2.57,11.16a40.89,40.89,0,0,0,3.34,10c1.25,2.18,2.63,11.62,3.3,16.15l.15,1c.64,4.32,2.78,7.24,5.11,10.08a8.6,8.6,0,0,0,4.29,3,7.75,7.75,0,0,1,2.17,1.07c.84.63,1.82,2.41,2.86,4.29,1.35,2.45,2.88,5.23,4.78,6.85a7.12,7.12,0,0,0,4.66,1.94,4.52,4.52,0,0,0,1.87-.36l.78-.39-.8-.35s-2.42-1.14-2.49-7.19c-.08-6.4-3.83-25.53-4.9-28.09-.41-1-.93-2.72-1.53-4.74a79.17,79.17,0,0,0-3.14-9.21l-.12-.23C271,220.78,281.41,228.16,282.36,231.78ZM262.18,373.15c1.13,4.26,4.76,7.37,5.71,8.12-1.12,4-3.39,10.2-4.94,10.48-1,.18-1.8-.46-3.09-1.52a24.1,24.1,0,0,0-6.49-4c-1-.42-1.93-.79-2.77-1.13-4.59-1.85-6.15-2.58-5.65-4.38a39.74,39.74,0,0,1,2.68-6.9,16.78,16.78,0,0,0,.9-2.86h0c.31-1.27.62-2.74.93-4.19a39.91,39.91,0,0,1,1.29-5.22,19,19,0,0,1,1-1.84c.93-1.54,1.81-3,1.5-3.87a1,1,0,0,0-.6-.59l-.29-.1c-1.14-.41-1.56-.56-2.44-3.15l-.29-.88c-.85-2.58-2.25-6.81-4.54-9.91,1-.54,4.12-2,6.2-2,2.43.06,6.58,1.23,8,4.18.33.69.72,1.36,1.13,2.08,1.4,2.46,3,5.25,2.64,9.07-.11,1.18-.29,2.57-.48,4.05C262,363.41,261.2,369.45,262.18,373.15Zm4.45,4.46.38,1c-.17,0-.46,0-.53-.13S266.38,378.2,266.63,377.61Zm.43,1.83h.15l.09,0,.15.42Zm-4.44-31.63c-.46-1-1-1.9-1.47-2.77-.4-.71-.78-1.37-1.1-2-1.72-3.54-6.46-4.58-8.72-4.64h-.12c-2.37,0-5.68,1.66-6.6,2.15a10.57,10.57,0,0,0-2.25-2.09c-3.23-2.15-8.82-6.27-10-9.67a27.51,27.51,0,0,0-1.33-3.35c.51-.11,1-.22,1.62-.37,1-.23,3.56,0,10.31,4.34l.23.14c.48.3,2.21,1.24,4,2.23,1.6.87,3.26,1.77,4,2.19,1.52.89,5.16,1,7.2,1,.34,0,1,0,1.87.1l2.16.13.08,0c.54.07,2,.23,3.64.33-.42,1.49-1.68,6-2.13,7.52a8,8,0,0,1-.53,1.28A7.34,7.34,0,0,0,262.62,347.81Zm0-33.19c-1.07-3.66-7.47-4.06-12.79-3.28-.15-.6-.46-1.87-.84-3.3-.65-2.42-.45-4.06.64-5.31a72,72,0,0,0,4.39-6.45c.4.5.86,1,1.3,1.44a8,8,0,0,1,1.53,1.91,43.6,43.6,0,0,0,3,4.51c1.38,1.93,3,4.12,3.24,4.77.59,1.32,2.74,7.81,2.76,7.87a.38.38,0,0,0,.09.12,20.3,20.3,0,0,1-1.82,2.2c-.68.68-1.25,1.35-1.76,1.94l-.31.37a28.93,28.93,0,0,1-4.44-2.61c2.09-.54,3.84-1.29,4.6-2.3A2.05,2.05,0,0,0,262.66,314.62Zm-.78.23a1.26,1.26,0,0,1-.23,1.17c-1.59,2.12-8.74,3.08-13.31,3.08a24.25,24.25,0,0,0-8.4,1.28.41.41,0,1,0,.3.75,23.86,23.86,0,0,1,8.1-1.22,42.71,42.71,0,0,0,8.38-.87.4.4,0,0,0,.14.19,39.52,39.52,0,0,0,4.7,2.84,3.4,3.4,0,0,1-2.3,1.39h-.06c-1.55,0-7.51-1.51-10.47-2.32a.41.41,0,0,0-.21.78c.36.1,8.64,2.35,10.7,2.35h.07c1.52,0,2.52-1.21,3.78-2.68.5-.58,1.06-1.24,1.72-1.9a25.21,25.21,0,0,0,2.27-2.79c1.39-1.88,2.83-3.83,4.48-4.2.57-.13.73.08.79.16.67.88-.3,4.1-1.24,5.85-.4.75-.93,1.93-1.5,3.17a38.69,38.69,0,0,1-3.18,6.15l-.41.52c-1.2,1.57-2.15,2.8-6,2.22-4.5-.68-9.56-1.11-9.61-1.12a.42.42,0,0,0-.44.37.41.41,0,0,0,.37.44c.05,0,5.08.44,9.56,1.11a12.52,12.52,0,0,0,1.86.15c2.86,0,3.86-1.31,4.91-2.68l.4-.51a38.21,38.21,0,0,0,3.28-6.32l.75-1.64c2.77-3.12,6.24-6.05,7-5.5,1.27.93.79,3.85.07,5.53-.36.85-1.36,2.61-2.41,4.47-.82,1.45-1.67,3-2.29,4.14-1.39,2.67-2.19,3.93-4.08,4.84-1.45.69-6.4.38-9.06.21-.87-.06-1.55-.1-1.92-.1-3.33,0-5.8-.33-6.79-.91-.73-.43-2.39-1.33-4-2.2s-3.54-1.92-4-2.21l-.22-.14c-5.34-3.42-9-4.92-10.94-4.45-.7.17-1.33.31-1.92.43a.4.4,0,0,0-.43,0l-.05.06a17.28,17.28,0,0,0-4.43,1.35c-.87.43-4.32,2.77-8.68,5.73-5.74,3.9-12.82,8.71-16.32,10.7-.15-2.32-.37-4.92-.58-7.48-.33-3.95-.65-7.68-.65-9.76a10,10,0,0,1,1-4.25h0a.41.41,0,0,0,.52,0c.46-.28,4.66-1.85,9.11-3.5,6.34-2.36,13.93-5.19,17.33-6.73h0A10,10,0,0,0,229,310c1.85-1.44,8.46-3.32,12.39-1.05a13.16,13.16,0,0,1,2.64,2c1.35,1.26,2.15,1.84,5.61,1.3C255.08,311.33,261,311.82,261.88,314.85Zm17,6.24a4.09,4.09,0,0,1-.26,1.35c-.3.73-1.13,2.26-1.94,3.73s-1.63,3-2,3.77a12.57,12.57,0,0,1-3.46,4.54,3.52,3.52,0,0,1-1.49.3h0c2.1-1,3-2.43,4.44-5.2.61-1.17,1.45-2.66,2.27-4.11C277.46,323.69,278.41,322,278.83,321.09ZM256.17,206c2.38,2.1,9.91,9.57,11.82,13.76a78.47,78.47,0,0,1,3.1,9.11c.61,2,1.13,3.81,1.56,4.83,1.06,2.52,4.76,21.44,4.84,27.79.05,4.56,1.38,6.57,2.25,7.4a5.9,5.9,0,0,1-4.93-1.68c-1.78-1.53-3.28-4.24-4.59-6.63-1.13-2-2.1-3.81-3.08-4.55a8.52,8.52,0,0,0-2.37-1.18,7.81,7.81,0,0,1-3.94-2.71c-2.34-2.86-4.32-5.57-4.93-9.69l-.15-1c-.72-4.94-2.07-14.12-3.39-16.44a40.35,40.35,0,0,1-3.25-9.77c-.58-2.7-2.42-10.51-2.73-11.83a26.66,26.66,0,0,1,2.94-2.94,10,10,0,0,1,3.47-.21A13,13,0,0,0,256.17,206Zm23.09-67.75a21.32,21.32,0,0,0,1.08,6.22c1.78,5.1.73,9.36-.71,11.45-1.64,2.38-2.21,4.81-1.95,8.37.15,2.09,1.55,3.89,2.9,5.63a11.48,11.48,0,0,1,2.19,3.57,2.38,2.38,0,0,1-.19,2c-.52.75-1.69,1.21-3.56,1.41a9.07,9.07,0,0,0-3,1c-1.27.61-2,.92-2.73.35-1.27-1,.48-3.26.5-3.29a.41.41,0,0,0-.64-.5c-.09.12-2.26,2.89-.37,4.42a2,2,0,0,0,1.32.49,4.77,4.77,0,0,0,1.94-.58,13.11,13.11,0,0,0,.3,3.37c.44,1.85.41,2.24-1.06,3-1.71.88-5.5,2.92-5.53,2.94a.41.41,0,0,0,.39.71s2.4-1.3,4.23-2.26h0a2,2,0,0,1,1,1.54,2.72,2.72,0,0,1-1,2,4.22,4.22,0,0,1-.53.37c-1,.6-2.09,1.29-2.8,5.76a5.12,5.12,0,0,1-2.31,3.66c-2.26,1.46-6.08,1.62-10.47.42-6.49-1.76-9.17-.74-9.28-.69l-.11.06a21.64,21.64,0,0,0-4.15,4.57,7.17,7.17,0,0,1-1.95,2.17,4.43,4.43,0,0,0-1.25,1.34.41.41,0,0,0,.17.55.41.41,0,0,0,.19,0,.41.41,0,0,0,.36-.22,2.42,2.42,0,0,1,.54-.66c0,2.57.24,10.17.95,13.75.18.92.36,1.76.52,2.53a26.15,26.15,0,0,1,.89,7,57.61,57.61,0,0,1-1.11,6.75c-.6,3-1,4.91-.84,5.57.27,1.46,1.15,2.11,2.78,2a8.29,8.29,0,0,0,1.26-.19c.59-.12,1.19-.24,1.44-.07,0,0,.14.1.19.39s-.49,1.24-1.13,2.19a15.75,15.75,0,0,0-3.06,7l-.06.45c-.63,4.83-1.13,8.65.29,11.8l.18.4c1.37,3,3.25,7.19,3.79,11.19a43.61,43.61,0,0,0,3.34,11.49,8.37,8.37,0,0,1,.7,3,6.88,6.88,0,0,0,.69,2.75,78,78,0,0,1-4.5,6.65c-1.67,1.91-1.26,4.37-.81,6.05.37,1.37.67,2.59.82,3.21-2.83.4-3.37-.11-4.49-1.15a13.9,13.9,0,0,0-2.78-2.11c-4.15-2.39-11.07-.61-13.3,1.11a7.52,7.52,0,0,1-1.19.64,7.26,7.26,0,0,1-1.8-4.5,43.17,43.17,0,0,1,1.79-8.11c.58,1.23.94,2.15.95,2.17l.26.66.44-.55c.18-.22,4.29-5.5,3-11.93-.81-3.88.87-8,2.49-12a34.1,34.1,0,0,0,2.21-6.66c.35-2.05,1.74-4.67,3.08-7.2,2.28-4.32,4.65-8.78,2.5-11.37-1.88-2.27-1.76-10.74-1.65-18.92a147.61,147.61,0,0,0-.26-14.93c-.35-3.58-.5-6.58-.63-9.23-.28-5.52-.48-9.51-2.24-13.86-1.56-3.85-4.35-11.59-6.27-17a16.31,16.31,0,0,0,3.85,4.19,2.58,2.58,0,0,0,1.41.42c1.53,0,2.91-1.37,3.54-2.3a.41.41,0,0,0-.67-.46s-2,2.84-3.84,1.64c-1.37-.87-3.82-3.8-5.66-7.37L229,170.5a.4.4,0,0,0-.34-.27,19.81,19.81,0,0,1-1-3.26c-.63-3.08,2.35-6.5,5.54-7.76,1.29-.51,4.5-1.38,6.3,1.56l3.58,5.85a.41.41,0,1,0,.69-.42l-3.58-5.85a5.61,5.61,0,0,0-.38-.51c2.88.77,9.88,1.52,16.44-6.52,6.42-7.87,16.65-17.08,21.76-21.13A15.54,15.54,0,0,1,279.26,138.23ZM147.53,226.09l5.72-8.31c11.43-16.58,28.69-41.62,35.12-52.34,4-6.74,7.68-17.39,10.88-26.78,2.89-8.46,5.61-16.46,8-19.7,5.2-7,16.89-16.14,24.13-15.25a37.08,37.08,0,0,1,8.06,2.22,71.15,71.15,0,0,0,21.27,4.54c15.39,1.1,19,16.84,19.41,19.12-3,1.8-16.5,13.32-24.57,23.21s-16.46,6-16.82,5.84a.41.41,0,0,0-.32,0,6.12,6.12,0,0,0-5.57-.17c-3.48,1.37-6.77,5.08-6,8.67a23.42,23.42,0,0,0,2.12,5.79c1.66,4.72,5.64,15.94,7.63,20.86,1.71,4.23,1.91,8.16,2.18,13.6.13,2.65.29,5.66.63,9.26a146.92,146.92,0,0,1,.26,14.84c-.12,8.72-.24,17,1.84,19.45,1.8,2.17-.43,6.4-2.59,10.48-1.37,2.59-2.79,5.27-3.16,7.45a33.48,33.48,0,0,1-2.16,6.49c-1.67,4.11-3.39,8.37-2.53,12.49,1,4.87-1.38,9.15-2.38,10.67a27.69,27.69,0,0,0-3.85-6.73c-1.66-1.87-9.92-11.83-9.36-24.59.35-8.09-2-18.57-3.94-27a86.33,86.33,0,0,1-2-10.38c-.11-1.63-.09-4.07-.07-6.88.05-8.09.13-19.17-2.38-26.32-3.31-9.43,0-31.12,0-31.34a.41.41,0,0,0-.34-.46.41.41,0,0,0-.46.34c-.14.89-3.29,21.67-.08,31.43-2.42,1.54-20.91,13.3-25.88,15-5.48,1.92-25.51,15.61-28.21,20.47-2.05,3.68-8.16,26.65-11.2,39.38C133,265.14,138,240,147.53,226.09Zm3.32,123.77-.31-.76-.32-.78c-.87-2.14-2.91-7.14-4.74-9.32-2-2.38-7.44-26.28-4.41-32.69,1.9-4,.8-11.07-.18-17.29-.6-3.85-1.18-7.49-.87-9.6.79-5.37,10.17-42.2,12.8-46.92s22.51-18.26,27.77-20.1c5-1.76,22.77-13,25.87-15,2.3,7,2.23,17.71,2.18,25.55,0,2.83,0,5.28.07,6.94a86.56,86.56,0,0,0,2,10.5c1.9,8.37,4.27,18.79,3.92,26.77-.57,13.07,7.87,23.26,9.57,25.17a19.69,19.69,0,0,1,2.51,3.94c-.31,1-2,6.57-2.07,9.16a7.86,7.86,0,0,0,1.85,4.87c-3.57,1.56-11,4.34-16.81,6.49l-4.08,1.52a13.45,13.45,0,0,0-4.94-2.72c-2.27-.48-9.3,3.85-10.69,4.72-3-.92-5.7-.27-13,3-6.07,2.75-8.14,9.57-6.32,20.85a69.72,69.72,0,0,0,3.16,11.94,80.16,80.16,0,0,1,2.39,8.1c.29,1.26.57,2.32.85,3.23l0,0c-4.18,3.54-14.89-.29-18.29-2.85C156.91,363.18,154.24,358.22,150.86,349.85Zm20,22.61A37.44,37.44,0,0,1,160.6,374l-1.29.07c-2.46.14-4.92,2.28-6.23,3.44l-.12.1c0-.27,0-.57,0-.9a15.38,15.38,0,0,1,.57-4.66,9.26,9.26,0,0,1,1.56-3.25,5,5,0,0,0,1.09-2.49,14.67,14.67,0,0,0-.68-4.63,13.18,13.18,0,0,0,2.81,3.58,28.2,28.2,0,0,0,13.87,4.45,8.47,8.47,0,0,0,5.22-1.47c.11.33.22.62.33.9A33.3,33.3,0,0,1,170.87,372.46Zm33-10.35a22,22,0,0,0-7.23,1.32c-8.23,3-12.76,6-15.74,8.44a.37.37,0,0,0-.05-.17.38.38,0,0,0-.54-.13h0c-.32,0-1.79-1.26-3.21-7.54a80.78,80.78,0,0,0-2.41-8.18A69.16,69.16,0,0,1,171.53,344c-1.75-10.87.16-17.41,5.85-20,7.17-3.25,9.75-3.85,12.55-2.93l.18.06.16-.1c2.26-1.43,8.48-5.07,10.25-4.71a12,12,0,0,1,4.22,2.26c-2.27.86-3.39,1.3-3.94,1.55a9,9,0,0,1,1.3-1.75.41.41,0,0,0-.56-.59,10.83,10.83,0,0,0-3,7.46c0,2.12.32,5.87.65,9.83.38,4.49.77,9.12.77,12.07,0,.95,0,1.91,0,2.86-.07,5.27-.13,9.43,1.79,9.71h.06a.41.41,0,0,0,.06-.81c-1.22-.17-1.15-5-1.1-8.89,0-1,0-1.92,0-2.87s-.05-2.35-.13-3.76c1.73-1,4.48-2.71,7.55-4.74a19.23,19.23,0,0,1-1.6,8.87,18.53,18.53,0,0,0-1.48,6A32.18,32.18,0,0,1,203.85,362.11Zm.85,0a34.84,34.84,0,0,0,1.26-8.52,17.87,17.87,0,0,1,1.43-5.72c.37-1,.74-2,1-3.06l0,0s3.15,2.6,7.6,6.74c3,2.77,6.14,4.1,9.5,5.52,1.83.77,3.73,1.57,5.75,2.66,5.26,2.83,11.94,8.64,12.13,10.54,0,.17,0,.21-.06.23-1.26,1-13.9-3.83-19.82-7.29-5.14-3-14.52-9-14.61-9a.41.41,0,0,0-.44.68c.09.06,9.49,6,14.64,9,3.7,2.16,15.56,7.49,19.61,7.49a1.82,1.82,0,0,0,1.13-.28,1,1,0,0,0,.35-.94c-.23-2.36-7.38-8.39-12.55-11.17-2-1.1-4-1.91-5.82-2.69-3.43-1.45-6.39-2.69-9.26-5.37-4.47-4.16-7.6-6.75-7.63-6.77a.4.4,0,0,0-.36-.07,17.08,17.08,0,0,0,.41-5.92c2.37-1.58,4.89-3.28,7.25-4.88,2.65,2.89,17.65,19.11,21.22,19.57a3.86,3.86,0,0,0,.5,0,1.24,1.24,0,0,0,1.09-.46c.52-.79-.26-2.14-1.55-4.39a38.3,38.3,0,0,1-3.12-6.33c-2.14-6.08-4.44-12.92-4.46-13a.41.41,0,1,0-.77.26c0,.07,2.32,6.91,4.46,13a39,39,0,0,0,3.18,6.47c.81,1.41,1.82,3.16,1.58,3.53,0,.06-.25.14-.81.07-2.82-.36-15.56-13.68-20.64-19.23l.47-.32c4.16-2.83,7.76-5.27,8.59-5.68a16.6,16.6,0,0,1,4.22-1.28,24,24,0,0,1,1.39,3.44c1.24,3.63,7,7.88,10.3,10.08,3.77,2.51,5.86,8.83,7,12.23l.29.88c1,2.84,1.56,3.15,2.94,3.65l.28.1c.08,0,.1.07.11.1.18.52-.79,2.12-1.43,3.19a19.45,19.45,0,0,0-1.08,1.93,38.63,38.63,0,0,0-1.34,5.39c-.29,1.39-.61,2.87-.92,4.14-.06.12-.55.87-3.27,2.56-2.89,1.8-10.48.93-11.52.81C226.59,369,215.48,362.25,204.7,362.12Zm62.22,39.5c-6.5-4.34-24.68-18.79-30.13-24.19-.69-.68-1.59-1.5-2.67-2.4,1,.09,2.43.19,4,.19,2.49,0,5.24-.26,6.82-1.25a23.42,23.42,0,0,0,2.41-1.69,8.74,8.74,0,0,1-.43,1.17,40.47,40.47,0,0,0-2.73,7c-.72,2.59,1.57,3.51,6.13,5.35.84.34,1.76.71,2.76,1.13a23.37,23.37,0,0,1,6.29,3.91c1.2,1,2.11,1.74,3.26,1.74a2.82,2.82,0,0,0,.49,0c2.18-.39,4.39-7,5.31-10.09a36.61,36.61,0,0,1,1.52,5.11c.08.66.08,2,.08,3.53,0,3.62,0,8.12.91,10a35.69,35.69,0,0,0,2.55,4.22A38.52,38.52,0,0,1,266.92,401.61Zm16.52,14.92a4.91,4.91,0,0,1-3.65-.28c-1.4-.94-4.13-5.5-3.82-6.8a6.45,6.45,0,0,1,.48-1.38c1.19,2.54,4.11,6.78,6.56,7.82a5.16,5.16,0,0,0,1.08.31A2.28,2.28,0,0,1,283.44,416.53Zm-.1-1.39c-2.37-1-5.59-5.85-6.43-8.08a7.24,7.24,0,0,1-.44-1.64c.28.4.57.8.86,1.18.42.56.82,1.09,1.15,1.62,1.19,1.89,4.12,3.7,6.25,5,.64.39,1.21.75,1.64,1a7.57,7.57,0,0,0,1.79.85A8.16,8.16,0,0,1,283.34,415.14Zm10.57-.21c-1,.48-5.28-.07-7.08-1.32-.44-.3-1-.66-1.67-1.07-2.07-1.28-4.9-3-6-4.77-.35-.56-.76-1.1-1.19-1.67-1.36-1.81-2.77-3.68-2.14-5.91a1.1,1.1,0,0,1,.7-.83c1.28-.43,3.82,1.09,4.85,1.83a5.28,5.28,0,0,0,1.53,3.17,1.82,1.82,0,0,0-.08.24c-.26,1,.36,2.24,1.68,3.37,1.54,1.31,7,3.21,10.55,4.31C295,413.09,294.63,414.6,293.91,414.93Zm66.26-58.09-.91.64a53.45,53.45,0,0,0-6.27.73,25.2,25.2,0,0,1,9.27-2.87C361.63,355.82,360.92,356.32,360.17,356.84Zm4.2-4.37a.88.88,0,0,1,.07.25c0,.48-.34,1-1,1.64-4.51.45-9.08,1.65-12.51,4.24-1.14.22-2.2.44-3.21.67C352,355.34,358.49,353.41,364.37,352.47ZM289.81,384.2c.23-.16,23.49-15.95,37.45-19.14,6.16-1.41,10.24-2.44,13.51-3.27,4.27-1.08,7.35-1.86,12.16-2.74,1.59-.29,3.3-.52,5.08-.66a42.39,42.39,0,0,0-3.33,2.67c-3.92,3.52-10.22,5.22-16.32,6.87-2.52.68-4.94,1.34-7.11,2.1a18.21,18.21,0,0,0-9.13,1.15.41.41,0,1,0,.35.73,16.72,16.72,0,0,1,7-1.21l-.86.37-4.75,2.19a24.47,24.47,0,0,0-6.76.73.41.41,0,1,0,.23.78,22.85,22.85,0,0,1,4.76-.69c-5.95,2.75-12.42,5.73-16,7.12a103.72,103.72,0,0,0-12.48,6.57c-1.06-1-2-1.86-2.76-2.52-.46-.41-.82-.73-1-.93l-.1-.1Zm-.51.7c.21.21.58.53,1,.95C293,388.2,300,394.44,300.54,398c.17,1.09.38,2.17.58,3.21.59,3,1.09,5.63.45,7.26-1,2.64-2,4.21-3.38,3.88-2-.47-11.23-3.36-13.15-5-1.06-.9-1.59-1.86-1.42-2.55s1.18-1.11,2-1.28c2-.42,4.64.17,7,.69a24.48,24.48,0,0,0,3.33.6c2.34.16,4.51,2.42,4.53,2.44a.41.41,0,0,0,.59-.56c-.1-.1-2.4-2.52-5.07-2.7a12.32,12.32,0,0,1-1.44-.21c.1-1,.52-3.93,2.13-5.74a.41.41,0,0,0-.61-.54,11.65,11.65,0,0,0-2.32,6.12l-1-.21c-1.22-.27-2.53-.57-3.8-.73a53,53,0,0,0,1.45-8.56,19,19,0,0,1,.46-3.56,5.92,5.92,0,0,0,.19-2.89.41.41,0,1,0-.75.32,6.31,6.31,0,0,1-.24,2.41,19.59,19.59,0,0,0-.47,3.71,54.19,54.19,0,0,1-1.45,8.48,9.57,9.57,0,0,0-2.69.12,4,4,0,0,0-2.06,1,4.7,4.7,0,0,1-1.22-2.79v0a8.23,8.23,0,0,1-.05-2.24,30.4,30.4,0,0,0-.43-8.5c-.48-2.7,1.5-6.53,1.51-6.57a.41.41,0,0,0-.72-.38c-.09.17-2.12,4.11-1.59,7.09a29.6,29.6,0,0,1,.43,8.26,8.7,8.7,0,0,0,0,1.57c-1.19-.77-3.48-2-5-1.53a1.91,1.91,0,0,0-1.22,1.38,5.47,5.47,0,0,0,.67,4.26,4.68,4.68,0,0,0,.34,2.88l-.18.28a52,52,0,0,1-4.27-6.62c-.84-1.75-.83-6.34-.83-9.69,0-1.63,0-2.93-.08-3.63a45.87,45.87,0,0,0-1.94-6.36l0-.14-.12-.09c-.69-1.92-1.33-3.63-1.55-4.19A27,27,0,0,1,284,365.42c.36,1.7,1.77,8.42,2,11.11C286.16,379.64,287.64,383.32,289.3,384.9Zm8.63-17.1c-.27.18-.55.36-.82.57-1.07.83-7.29,1.67-11.31,2-.42-2.2-.85-4.26-1-5.13,2-.24,4.21.79,6.18,1.72a9.57,9.57,0,0,0,3.91,1.28.41.41,0,0,0,.38-.43.4.4,0,0,0-.43-.38,9.29,9.29,0,0,1-3.51-1.21c-2.22-1-4.75-2.23-7.1-1.73h0A25.83,25.83,0,0,0,269,373.08c-2.31,2.57-3.1,4-3.28,4.86a13.49,13.49,0,0,1-2.71-5c-.94-3.54-.17-9.5.44-14.28.19-1.48.37-2.89.48-4.08a12.31,12.31,0,0,0,0-2.07,40.41,40.41,0,0,1,21.33-10.1c2.39-.32,4,0,5,.83,1.38,1.2,1.39,3.44,1.4,5.62a23.6,23.6,0,0,0,.1,2.46c.27,2.43,2.09,4.73,3.84,7a23,23,0,0,1,3.29,5C300.18,366.34,299.23,367,297.93,367.8Z"/><path d="M497.34,401.58l0,0h.33l.11-.07A3.27,3.27,0,0,1,497.34,401.58Z"/><path d="M311.35,413.85l-4.52,1.28c18.89-1.36,44.31-10.63,58-15.61,4.42-1.61,7.61-2.77,8.82-3a11.18,11.18,0,0,0,2.73-1L363.8,399C351.13,403.64,329.16,411.57,311.35,413.85Z"/><path d="M217.53,414.91l.33.18a.41.41,0,0,0,.55-.16h-.88Z"/><path d="M392.44,396.13,392,396A.4.4,0,0,0,392.44,396.13Z"/><path d="M468.75,401.64l.12,0a.4.4,0,0,0,.15-.1h0Z"/><path d="M468.47,401.52a.39.39,0,0,0,.27.12h0l.24-.12Z"/><path d="M408.48,352.48c1.21-3.81,5-7.36,10.5-9.72,6.24-2.7,13-3.17,17.13-1.19,6.63,3.15,15.13,19.33,19.21,27.11,1,1.88,1.77,3.36,2.25,4.17,2.52,4.17,10.7,28.28,10.78,28.52a.39.39,0,0,0,.11.15H469l.07,0a.39.39,0,0,0,.07-.37c-.34-1-8.29-24.43-10.85-28.68-.48-.79-1.25-2.26-2.23-4.13-4.44-8.46-12.7-24.19-19.58-27.46-4.37-2.08-11.36-1.62-17.8,1.18-5.67,2.46-9.66,6.19-11,10.22-10.68,33.51-14.44,42-15.71,43.23a.41.41,0,0,0,0,.57l.45.09a.4.4,0,0,0,.12-.08C394.51,394.17,399.87,379.51,408.48,352.48Z"/><path d="M469,401.52h0s0,0,0,0Z"/><path d="M419.86,401.64l.15,0a.4.4,0,0,0,.23-.23h-.75A.41.41,0,0,0,419.86,401.64Z"/><path d="M420.24,401.09l-8.73-22.73c0-.06-2.58-6.53,3.44-19.55a.41.41,0,1,0-.74-.34c-6.19,13.39-3.57,19.93-3.46,20.19l8.72,22.72h.75A.4.4,0,0,0,420.24,401.09Z"/><path d="M235.36,160.9a3.54,3.54,0,0,0-3.39,1,7.58,7.58,0,0,0-1.61,6.62.41.41,0,1,0,.79-.18,6.83,6.83,0,0,1,1.39-5.87,2.72,2.72,0,0,1,2.64-.81c3,.64,2.6,4.15,1.93,7.7-.62,3.29,0,4.43,0,4.55a.4.4,0,0,0,.34.2.41.41,0,0,0,.36-.6s-.51-1,0-4S239.39,161.76,235.36,160.9Z"/><ellipse cx="272.59" cy="161.03" rx="4.19" ry="0.86" transform="translate(58.7 394.45) rotate(-78.07)"/><ellipse cx="403.38" cy="172.68" rx="3.46" ry="0.96" transform="matrix(0.22, -0.98, 0.98, 0.22, 147.41, 529.06)"/><ellipse cx="383.3" cy="167.3" rx="3.46" ry="0.96" transform="translate(136.93 505.25) rotate(-77.49)"/><path d="M384.42,195.81a.4.4,0,0,0,.24.52,32,32,0,0,0,9.7,1.74,14.84,14.84,0,0,0,5.5-.93.41.41,0,1,0-.3-.75c-5.8,2.33-14.53-.78-14.62-.82A.41.41,0,0,0,384.42,195.81Z"/><path d="M384.21,187.11a.41.41,0,0,0,.4-.7s-2.77-1.62-1.91-3.6a30.56,30.56,0,0,1,2.88-4.35,29.65,29.65,0,0,0,3.72-5.87,16.69,16.69,0,0,0,.83-5.63.38.38,0,0,0-.42-.39.4.4,0,0,0-.39.42,16.2,16.2,0,0,1-.79,5.32,29.47,29.47,0,0,1-3.61,5.66,30.63,30.63,0,0,0-3,4.5C381,184.59,383,186.43,384.21,187.11Z"/><path class="cls-3" d="M398.34,397.28l-2.17-.42A6,6,0,0,0,398.34,397.28Z"/><path class="cls-11" d="M396.17,396.86l2.17.42c1.13-.38,2.62-1.46,4-4.29,2.81-5.68,5.71-3.89,6.42,0s1.28,6.2,3.11,4.47,3.35-.88,4.12,1.08a6.51,6.51,0,0,0,2.35,2.63l1.13.22-8.72-22.72c-.11-.26-2.73-6.8,3.46-20.19a.41.41,0,1,1,.74.34c-6,13-3.47,19.49-3.44,19.55l8.73,22.73a.4.4,0,0,1,0,.29h1.24a4.13,4.13,0,0,0,1.29-2.31c1.42-5.44,5.27-5.21,8.65-2.16,2.38,2.14,7.13,4,10.89,4.54H446l.33-.07c3.31-1,1.42-7,4.87-5.22s5.71,1.78,5.92-2,4,2.08,5.17,3.55a14.27,14.27,0,0,0,4.49,3.83h1.73a.39.39,0,0,1-.11-.15c-.08-.24-8.26-24.34-10.78-28.52-.49-.81-1.27-2.29-2.25-4.17-4.08-7.78-12.58-24-19.21-27.11-4.17-2-10.89-1.52-17.13,1.19-5.46,2.37-9.29,5.91-10.5,9.72-7.33,23-12.29,37-14.82,41.87l.29.55A4.19,4.19,0,0,0,396.17,396.86Z"/><path class="cls-11" d="M497.14,401.33C489.74,370,478,322.69,475.89,321.07a21.94,21.94,0,0,1-2.59-2.7c-3.21-3.69-8.07-9.26-17-11.46-11.12-2.73-21.48,3.19-22.53,3.82-6.53,5.86-17.36,14.38-25.81,15.19q-.95.09-1.81.09c-4.83,0-7.67-2.06-9.4-4.74-19.29,9.45-55.56,27.31-56.86,28.3a.41.41,0,1,1-.49-.65l.06,0c-4,1.15-10.62,2.79-15.88,2.79a20.59,20.59,0,0,1-2.09-.1c-.76.85-5.08,5.78-6,9.42,12.8-4,29.49-9.39,32.78-11,5.22-2.48,19.25-3.54,23.86-3.89l.89-.07c2.71-.22,17.08.12,19.94,6.87,1,2.28,2,4.32,2.91,6.12,1.63,3.22,3,6,3.54,9,.79,4.65-4,14-8.63,16.91a63.07,63.07,0,0,0-5.37,4.08,57.62,57.62,0,0,1-9,6.44c2.66,0,9.58-.25,12.61-1.59s3.51-1.46,4.22-.37c2-4,6.12-14.92,14.51-41.28,1.29-4,5.28-7.76,11-10.22,6.44-2.79,13.43-3.26,17.8-1.18,6.88,3.27,15.14,19,19.58,27.46,1,1.87,1.75,3.34,2.23,4.13,2.56,4.25,10.52,27.68,10.85,28.68a.39.39,0,0,1-.07.37c.82-.56,1.44-1.9,1.62-4.5.66-9.58,2.94,1,6.59,3.52a7,7,0,0,0,2.36,1.06h2.59a3.62,3.62,0,0,0,2.9-3.23c.2-3,1.76-5.55,3.25-2.74,1.2,2.27,5.62,6,8.72,6h.06l.22,0A.39.39,0,0,1,497.14,401.33Z"/><path class="cls-3" d="M284.69,416.75a28,28,0,0,1-5.34.17,4.75,4.75,0,0,0,2.55.63,6,6,0,0,0,1.8-.26A2.76,2.76,0,0,0,284.69,416.75Z"/><path class="cls-3" d="M198.55,415h0Z"/><path class="cls-3" d="M171.27,415.08h-1.43A3.24,3.24,0,0,0,171.27,415.08Z"/><path class="cls-3" d="M157.15,415.13H155A4.75,4.75,0,0,0,157.15,415.13Z"/><path class="cls-8" d="M398.57,368.18c-.48-2.86-1.86-5.59-3.46-8.75-.92-1.81-2-3.86-2.93-6.17-2.44-5.76-15.06-6.7-19.13-6.38l-.89.07c-4.57.35-18.49,1.4-23.58,3.81-5.51,2.62-46.45,15.24-48.19,15.77a.38.38,0,0,1-.2,0,3.75,3.75,0,0,1-1.81,1.94c-.26.17-.52.33-.77.53-1.54,1.19-9.93,2-11.66,2.21.37,2,.7,4,.79,5.25a15.2,15.2,0,0,0,2.52,7.16.4.4,0,0,1,.09-.09c.24-.16,23.62-16,37.73-19.26,6.15-1.41,10.22-2.44,13.5-3.27,2.05-.52,3.83-1,5.66-1.4,4.29-4.61,11.19-6.84,17.48-7.89a7.94,7.94,0,0,0-1.59-.91.41.41,0,1,1,.33-.74,6.64,6.64,0,0,1,2.27,1.49,70.12,70.12,0,0,1,13.44-.68.41.41,0,1,1-.05.81,71.18,71.18,0,0,0-12.93.67,1.66,1.66,0,0,1,.06.3,2.26,2.26,0,0,1-.59,1.61,62.19,62.19,0,0,1,15.26,1,.41.41,0,1,1-.16.8,62.48,62.48,0,0,0-16-.82,36,36,0,0,1-3,2.24c6.76-.2,14.05.87,19.3,4.34a.41.41,0,1,1-.45.68c-5.41-3.57-13.11-4.53-20.07-4.16a47.12,47.12,0,0,0-4.32,3.38c-4.06,3.65-10.46,5.38-16.65,7-2,.53-3.84,1-5.6,1.6a21.66,21.66,0,0,1,8.43,3.85.41.41,0,0,1-.48.65,20.5,20.5,0,0,0-9.57-4c-.84.3-1.65.62-2.4,1l-3.4,1.57a15.35,15.35,0,0,1,10.65,5.43.41.41,0,0,1-.06.57.4.4,0,0,1-.26.09.4.4,0,0,1-.32-.15c-3.21-4-7.77-5.1-11.52-5.25l-.55.25c-6.23,2.88-13.29,6.15-17.08,7.63a101.19,101.19,0,0,0-12.16,6.4c3.09,3,6.65,6.82,7.08,9.52.17,1.08.38,2.15.58,3.18.61,3.15,1.14,5.86.41,7.71s-1.74,4.44-3.75,4.44a2.55,2.55,0,0,1-.57-.07c-.37-.09-1.15-.3-2.16-.61-.12.88-.5,2.63-1.59,3.15a4.14,4.14,0,0,1-1.62.24,14.31,14.31,0,0,1-3-.37,13.28,13.28,0,0,1-4.18.78h-.37a1.7,1.7,0,0,1-.37.44c2.15-.23,4-.47,5.07,0a8.57,8.57,0,0,0,8.61-1.24c3.4-2.51,7.81-6.56,7.1-3.82-.4,1.53.07,2.43,1,2.81a.4.4,0,0,1,.3-.17c1.5-.11,3.05-.27,4.63-.47L363.8,399l.73-.26c4.45-1.62,7.66-2.79,8.94-3.06,3.22-.67,7.56-4.19,11.39-7.3a63.54,63.54,0,0,1,5.44-4.14C394.66,381.52,399.3,372.5,398.57,368.18Z"/><path class="cls-8" d="M236.81,413c14.91,5.68,6.34-4.06,9.63-2.54s10.7,7.11,11.76,4.8-1.22-4.85,1.72-2.74,10.45,5.8,11.87,3.3,3.2.74,7.55,1.11c-1.38-.92-4.6-5.84-4.16-7.67a7.82,7.82,0,0,1,.38-1.19.4.4,0,0,1-.31-.16c0-.06-.48-.64-1.08-1.48-.65-.11-2.63-.75-7.71-4.14-6.52-4.35-24.78-18.87-30.25-24.29a45.55,45.55,0,0,0-3.61-3.17.4.4,0,0,1-.15-.12C224,368,208.79,359.8,196.9,364.2c-11,4.08-15.31,8-18.15,10.63a16.36,16.36,0,0,1-2.67,2.16c-2.88,1.66-8.37,10.79-9.65,15.27a16.14,16.14,0,0,1-2.76,5.08,30.56,30.56,0,0,0-2.11,3.26.4.4,0,0,1,.21.43c-.07.36-.1,1.23.24,1.44.13.08.67.25,2.27-.95a22,22,0,0,1,9.39-4.27,41.62,41.62,0,0,1,.39-6.93.41.41,0,0,1,.46-.34.41.41,0,0,1,.34.46,40.73,40.73,0,0,0-.39,6.71q.53,0,1.07-.05c0-5.18,1.06-11.5,5-15.23a.41.41,0,0,1,.56.59c-3.73,3.51-4.73,9.64-4.75,14.65a11.53,11.53,0,0,1,2,.28,16.86,16.86,0,0,1,4.24,1.67,11.1,11.1,0,0,0,7.16,1.49c6.4-.51,13.55,3.35,17.73,6.79a83.5,83.5,0,0,0,10.79,7,.4.4,0,0,1,.17.54l5.25.22C227.63,414.73,221.91,407.32,236.81,413Z"/><path class="cls-7" d="M154.87,415.14h0Z"/><path class="cls-8" d="M206.94,408c-4.07-3.35-11-7.08-17.15-6.61a11.92,11.92,0,0,1-7.6-1.58,15.92,15.92,0,0,0-4.05-1.6,10.71,10.71,0,0,0-1.77-.25,26.67,26.67,0,0,0,.89,7.1.4.4,0,0,1-.22.53.4.4,0,0,1-.15,0,.4.4,0,0,1-.37-.25,27.35,27.35,0,0,1-1-7.43c-.35,0-.71,0-1.06.05a38,38,0,0,0,.36,4.12.41.41,0,0,1-.33.47h-.07a.41.41,0,0,1-.4-.34,38.62,38.62,0,0,1-.37-4.15,21.23,21.23,0,0,0-8.93,4.1c-1.46,1.09-2.5,1.41-3.18,1a1.61,1.61,0,0,1-.65-1.28,18.65,18.65,0,0,0-.89,2.44.41.41,0,1,1-.78-.22,22.09,22.09,0,0,1,3.75-7.23,15.52,15.52,0,0,0,2.64-4.83c1.22-4.28,6.74-13.86,10-15.75a15.8,15.8,0,0,0,2.53-2.06c.61-.56,1.29-1.18,2.07-1.84a1,1,0,0,1-.36-.08c-.43-.18-1.09-.74-1.85-2.4a33.71,33.71,0,0,1-6.93,3.32,38.11,38.11,0,0,1-10.48,1.58l-1.29.07c-2.19.13-4.5,2.15-5.74,3.24a7.45,7.45,0,0,1-.83.67c-.29,2.17-1.66,12.59-2,16s.54,7.29,1.29,10.8c.11.52.22,1,.32,1.53a29.81,29.81,0,0,0,2.8,7.41.41.41,0,0,1-.15.55.39.39,0,0,1-.15,0h2.22a4.17,4.17,0,0,0,1.38-.63c3.65-2.56,7-3.76,9.43-.67a3.34,3.34,0,0,0,1.88,1.26h1.43a4.37,4.37,0,0,0,3.18-2.7c.25-1.56,1,.57,2.84.52s-1.52-5.17,1.32-3.25,5,5.38,7.92,5.36,3-3.41,4.86-2.64c1.64.67,3.27,2.49,6.75,2.6h.41a11.69,11.69,0,0,0,1.25-.07c4.66-.53,1.93-4.51,6.19-2.5,2.53,1.2,6.87,2.07,10.82,2.5h.73A81.93,81.93,0,0,1,206.94,408Z"/><ellipse class="cls-3" cx="272.59" cy="161.03" rx="4.19" ry="0.86" transform="translate(58.7 394.45) rotate(-78.07)"/><path class="cls-3" d="M235.36,160.9a3.54,3.54,0,0,0-3.39,1,7.58,7.58,0,0,0-1.61,6.62.41.41,0,1,0,.79-.18,6.83,6.83,0,0,1,1.39-5.87,2.72,2.72,0,0,1,2.64-.81c3,.64,2.6,4.15,1.93,7.7-.62,3.29,0,4.43,0,4.55a.4.4,0,0,0,.34.2.41.41,0,0,0,.36-.6s-.51-1,0-4S239.39,161.76,235.36,160.9Z"/><path class="cls-7" d="M240.49,231.5c-.11,8.19-.23,16.65,1.65,18.92,2.15,2.59-.21,7.06-2.5,11.37-1.34,2.53-2.73,5.15-3.08,7.2a34.1,34.1,0,0,1-2.21,6.66c-1.62,4-3.3,8.14-2.49,12,1.34,6.43-2.78,11.71-3,11.93l-.44.55-.26-.66s-.37-.94-.95-2.17a43.17,43.17,0,0,0-1.79,8.11,7.26,7.26,0,0,0,1.8,4.5,7.52,7.52,0,0,0,1.19-.64c2.23-1.73,9.14-3.5,13.3-1.11a13.9,13.9,0,0,1,2.78,2.11c1.12,1,1.66,1.55,4.49,1.15-.15-.62-.46-1.84-.82-3.21-.45-1.68-.85-4.14.81-6.05a78,78,0,0,0,4.5-6.65,6.88,6.88,0,0,1-.69-2.75,8.37,8.37,0,0,0-.7-3,43.61,43.61,0,0,1-3.34-11.49c-.53-4-2.41-8.15-3.79-11.19l-.18-.4c-1.42-3.15-.92-7-.29-11.8l.06-.45a15.75,15.75,0,0,1,3.06-7c.64-.95,1.2-1.76,1.13-2.19s-.15-.37-.19-.39c-.25-.17-.86-.05-1.44.07a8.29,8.29,0,0,1-1.26.19c-1.64.09-2.51-.56-2.78-2-.13-.67.24-2.55.84-5.57a57.61,57.61,0,0,0,1.11-6.75,26.15,26.15,0,0,0-.89-7c-.13-.62-.27-1.3-.42-2a14.77,14.77,0,0,1-3.25,1.6C240.57,226,240.53,228.78,240.49,231.5Z"/><path class="cls-5" d="M282.76,173.47a11.48,11.48,0,0,0-2.19-3.57c-1.35-1.74-2.74-3.54-2.9-5.63-.26-3.56.3-6,1.95-8.37,1.44-2.1,2.5-6.35.71-11.45a21.32,21.32,0,0,1-1.08-6.22,15.54,15.54,0,0,0-1.27-6c-5.11,4.05-15.34,13.26-21.76,21.13-6.56,8-13.56,7.3-16.44,6.52a5.61,5.61,0,0,1,.38.51l3.58,5.85a.41.41,0,1,1-.69.42l-3.58-5.85c-1.8-2.94-5-2.07-6.3-1.56-3.18,1.26-6.17,4.68-5.54,7.76a19.81,19.81,0,0,0,1,3.26.4.4,0,0,1,.34.27l.73,2.09c1.84,3.57,4.29,6.5,5.66,7.37,1.87,1.19,3.82-1.62,3.84-1.64a.41.41,0,0,1,.67.46c-.63.93-2,2.3-3.54,2.3a2.58,2.58,0,0,1-1.41-.42,16.31,16.31,0,0,1-3.85-4.19c1.93,5.43,4.71,13.17,6.27,17,1.76,4.35,2,8.34,2.24,13.86.13,2.65.28,5.64.63,9.23.2,2,.28,4.38.31,6.83a14.77,14.77,0,0,0,3.25-1.6l-.1-.51c-.71-3.57-.9-11.18-.95-13.75a2.42,2.42,0,0,0-.54.66.41.41,0,0,1-.36.22.41.41,0,0,1-.19,0,.41.41,0,0,1-.17-.55,4.43,4.43,0,0,1,1.25-1.34,7.17,7.17,0,0,0,1.95-2.17,21.64,21.64,0,0,1,4.15-4.57l.11-.06c.11,0,2.79-1.07,9.28.69,4.39,1.19,8.2,1,10.47-.42a5.12,5.12,0,0,0,2.31-3.66c.71-4.47,1.82-5.16,2.8-5.76a4.22,4.22,0,0,0,.53-.37,2.72,2.72,0,0,0,1-2,2,2,0,0,0-1-1.54h0c-1.83,1-4.2,2.25-4.23,2.26a.41.41,0,1,1-.39-.71s3.83-2.07,5.53-2.94c1.46-.75,1.5-1.14,1.06-3a13.11,13.11,0,0,1-.3-3.37,4.77,4.77,0,0,1-1.94.58,2,2,0,0,1-1.32-.49c-1.89-1.53.28-4.3.37-4.42a.41.41,0,0,1,.64.5s-1.76,2.26-.5,3.29c.71.57,1.46.26,2.73-.35a9.07,9.07,0,0,1,3-1c1.88-.2,3-.66,3.56-1.41A2.38,2.38,0,0,0,282.76,173.47Zm-44.89.07a.41.41,0,0,1-.36.6.4.4,0,0,1-.34-.2c-.07-.12-.67-1.26,0-4.55.67-3.55,1.07-7.06-1.93-7.7a2.72,2.72,0,0,0-2.64.81,6.83,6.83,0,0,0-1.39,5.87.41.41,0,1,1-.79.18,7.58,7.58,0,0,1,1.61-6.62,3.54,3.54,0,0,1,3.39-1c4,.85,3.11,5.73,2.56,8.64S237.87,173.53,237.88,173.54Zm35.55-12.33c-.48,2.26-1.24,4-1.71,3.92s-.45-2,0-4.28,1.24-4,1.71-3.92S273.91,158.94,273.43,161.21Z"/><path class="cls-3" d="M425.22,305.38a.41.41,0,0,0,.77.26c1.54-4.54,1.33-9.82-.61-15.27-.54-1.53-1.19-6-1.85-11.58,1.24-1.5,13.38-16.12,19-20.2a41.43,41.43,0,0,1,5.27-3.17,31.55,31.55,0,0,0-5.17,2.57,31.55,31.55,0,0,1,5.17-2.57A83.71,83.71,0,0,1,458,251.06a.41.41,0,1,0-.26-.77c-.1,0-9.73,3.28-15.73,7.63-5.33,3.86-16,16.53-18.66,19.74-.34-3-.69-6.34-1-9.71l-.7,1.27c1,9.81,2.06,19,2.92,21.41C426.49,295.91,426.7,301,425.22,305.38Z"/><path class="cls-3" d="M342.4,318.35c-2.22-1.69-1.59-16.9,1.86-45.25,1.72-14.12-3.18-33.54-3.49-34.77l-.8,0a.4.4,0,0,0,0,.18c.05.2,5.24,20.17,3.49,34.53-3.39,27.86-4,42.12-2,45.48-.48.07-.89.15-1.22.22-3.49.78-16.18,5.9-20.13,12.15a.41.41,0,0,0,.69.43c3.83-6,16.21-11,19.62-11.79,1.67-.37,5.8-.77,10.18-1.2,2.4-.23,4.83-.47,7-.71q-.13-.38-.22-.79c-2.21.24-4.62.48-6.89.7C347.46,317.79,344.49,318.08,342.4,318.35Z"/><path class="cls-3" d="M340.74,238.27a.4.4,0,0,0-.79,0l.8,0Z"/><path class="cls-10" d="M340,238.3a.4.4,0,0,1,.79,0l0,.07c4.28.27,8,1.49,10.34,4.23,9.6,11.22.07,41,1.19,51.65s7.26,2.51,5.34,13.63a23.16,23.16,0,0,0-.19,8.95c2.67-.3,5.06-.61,6.56-.93,4.76-1,26.34-5.14,29.5-5.74-.9-5.38-1.33-26.37.21-35.31,1.16-6.76-.41-20.72-1.29-27.48h-.25a7.83,7.83,0,0,1-3.72-1.11,10.26,10.26,0,0,1-3.06-3,59.74,59.74,0,0,0-8-8.48c-8.6-7.7-12.27-18.21-10.74-23.54,1.47-5.12,10.78-6.51,12.95-6.77,0-.28-.08-.52-.1-.7a34.66,34.66,0,0,0-7.57,1.45,24.42,24.42,0,0,1-5.28.91A112.79,112.79,0,0,0,350.08,209c-15.23,3.61-20.92,11.75-24.17,18.44-.89,1.82-2.36,6.87-4.08,13.71C327.51,239.48,334.18,238.09,340,238.3Z"/><path class="cls-12" d="M357.62,307.85c1.92-11.12-4.22-2.95-5.34-13.63s8.41-40.43-1.19-51.65c-2.34-2.74-6.06-4-10.34-4.23.32,1.23,5.21,20.65,3.49,34.77-3.45,28.35-4.07,43.56-1.86,45.25,2.09-.28,5.06-.56,8.15-.86,2.27-.22,4.68-.45,6.89-.7A23.16,23.16,0,0,1,357.62,307.85Z"/><path class="cls-10" d="M357.66,317.58c-2.2.24-4.64.48-7,.71-4.38.42-8.52.82-10.18,1.2-3.41.76-15.79,5.74-19.62,11.79a.41.41,0,0,1-.69-.43c4-6.24,16.64-11.37,20.13-12.15.32-.07.73-.14,1.22-.22-2-3.36-1.42-17.62,2-45.48,1.75-14.36-3.44-34.33-3.49-34.53a.4.4,0,0,1,0-.18c-5.78-.21-12.45,1.18-18.13,2.81-5.18,20.54-12.65,57.3-13.42,71.92-1.09,20.84,4.94,31.45,8.63,35.92a6.3,6.3,0,0,0,4.2,1.8.4.4,0,0,1,.19,0c7.66.83,21.16-3.71,21.33-3.77a.4.4,0,0,1,.2,0c11.84-6.08,48.81-24.2,53.34-26.42a19.6,19.6,0,0,1-1.91-5.43c-7.88,3.59-16.77,4.73-23.27,6.28C363.11,323.34,359.05,321.81,357.66,317.58Z"/><path class="cls-10" d="M393.64,310.92c-3.18.61-24.72,4.71-29.47,5.74-1.53.33-3.86.64-6.51.93,1.4,4.23,5.45,5.75,13.46,3.84,6.5-1.55,15.39-2.69,23.27-6.28-.23-1.05-.39-2.06-.53-2.93C393.78,311.74,393.71,311.31,393.64,310.92Z"/><path class="cls-10" d="M473.51,242c-2.16-4.32-6.46-7.16-10.26-9.66l-1.71-1.14-3-2c-5.21-3.47-13.93-9.29-17.73-12.57-3-2.57-7.45-3.48-10.11-3.81a5.14,5.14,0,0,1,1.37,1.43,5.82,5.82,0,0,1,.52,4.63l-.12.5c-1.33,5.49-2.84,11.7-14,19.89.07.74.12,1.19.12,1.22a.39.39,0,0,1,0,.19l1.16.18.31.05,0,.32c0,.24,1.07,13.81,2.33,26.71,2.12-3.8,4.23-7.11,6.33-10.52,5.81-9.47,8.4-6.22,16.37-13.25s1,6.76,7.41,3.52,20.56-4.78,16.64-1.17c-3.06,2.82-13.91,5.83-21.33,8.88a41.43,41.43,0,0,0-5.27,3.17c-5.63,4.08-17.77,18.71-19,20.2.65,5.62,1.3,10.05,1.85,11.58,1.94,5.45,2.15,10.73.61,15.27a.41.41,0,0,1-.77-.26c1.48-4.37,1.27-9.47-.61-14.74-.86-2.42-1.95-11.6-2.92-21.41-3.54,6.53-7.09,14.62-10.62,27.06-2.74,9.66-8.88,15.13-15.93,18.51a18.17,18.17,0,0,0,2.05,5.74l0,0v0c1.79,2.92,4.9,5.07,10.62,4.52,12.42-1.19,30.86-20.24,31-20.43s21.35-22.94,23.92-25.82c2.43-2.72,7.78-11.22,10.95-18.88C476.47,253.47,476.39,247.75,473.51,242Z"/><path class="cls-10" d="M411.07,296.28c3.53-12.44,7.09-20.53,10.62-27.06-1.21-12.14-2.23-25.23-2.42-27.6-14.52-2.37-24.75,1.35-26.55,2.07.43,2.84,3.27,22.55,1.78,31.25-1.57,9.11-1.07,30.8-.14,35.41.1.5.19,1.08.3,1.72.13.83.28,1.76.48,2.71C402.19,311.41,408.32,305.95,411.07,296.28Z"/><path class="cls-12" d="M442.07,257.92c6-4.35,15.63-7.6,15.73-7.63a.41.41,0,1,1,.26.77,83.71,83.71,0,0,0-10.24,4.35c7.42-3.05,18.26-6.06,21.33-8.88,3.92-3.61-10.27-2.07-16.64,1.17s.56-10.55-7.41-3.52-10.56,3.79-16.37,13.25c-2.09,3.41-4.21,6.72-6.33,10.52.33,3.36.67,6.68,1,9.71C426.08,274.45,436.74,261.78,442.07,257.92Z"/></svg>