<svg id="Layer_1" data-name="Layer 1" xmlns="http://www.w3.org/2000/svg" viewBox="0 0 566.93 566.93"><defs><style>.cls-1{fill:#eaa4a4;}.cls-2{fill:#9c5341;}.cls-3{fill:#f2c175;}.cls-4{fill:#9599cb;}.cls-5{fill:#ef4a4c;}.cls-6{fill:#fff;}.cls-7{fill:#36395a;}.cls-8{fill:#8999cd;}.cls-9{fill:#cbaaa8;}.cls-10{fill:#f2bcc9;}.cls-11{fill:#edcf8d;}.cls-12{fill:none;}.cls-13{fill:#6355a3;}.cls-14{fill:#b79cb1;}</style></defs><title>Untitled-1</title><path class="cls-1" d="M240.24,445.75l-1.6,48.8c.73.49,3.63,2.07,6.7-1.24-1.36-7,2.73-37.19,3.64-43.68l.76.11A17.16,17.16,0,0,1,243,446.8,5.25,5.25,0,0,0,240.24,445.75Z"/><path class="cls-2" d="M286.24,496.88a33.12,33.12,0,0,0,3.85-.45,15.62,15.62,0,0,0-5-.44c-.7,0-1.38,0-2,0a3.88,3.88,0,0,1-2.84-1.26,4.6,4.6,0,0,1-3.87,1.73,8.52,8.52,0,0,1-2.32-.34c.63,3.09,1.09,5.26,1.26,6h6.23C281.77,500.9,282.77,497.12,286.24,496.88Z"/><path class="cls-3" d="M275.11,446.83c5.27,1.77,8.4-.05,9.15-.58l-2.83-47c-3.66.9-10.45,1.54-17.6,1.54-7.95,0-16.31-.78-21.27-2.85a11.12,11.12,0,0,1-3.48-2.15l-10.84,46c0,.25.39,1.65,3.35,2.77a12.18,12.18,0,0,0,5,.32c2.43-.17,4.94-.34,6.89,1.22,3,2.39,10,4.46,13.67,2.14S268.52,444.61,275.11,446.83Z"/><path class="cls-1" d="M279.68,493.94a3.83,3.83,0,0,1-.42-1.08l-4.7-45.27a23.34,23.34,0,0,0-10.45-.75c2.79,13.93,7.35,36.66,9.73,48.27C274.75,495.42,278.17,496.4,279.68,493.94Z"/><path d="M295,494.92a5.63,5.63,0,0,0-1.88,1.19c-.23.31-.92,1.26-6.83,1.66-2.72.18-3.61,3.17-3.86,4.37h19.71l-1.23-7.21Z"/><path d="M196.14,495.2a6.84,6.84,0,0,1-2.34-.36l-.19,6.26,17.14,1A6.23,6.23,0,0,0,207.9,498a13.55,13.55,0,0,0-3.05-1.16c-1.68-.48-3.27-1-4-2.4A17,17,0,0,1,196.14,495.2Z"/><polygon class="cls-4" points="303.33 485.11 291.77 485.11 291.61 485.11 290.69 485.11 291.4 488.65 304.56 488.48 305.22 485.11 303.96 485.11 303.33 485.11"/><path class="cls-1" d="M227.41,492.75c-.71-1.92-.88-4.87-.68-9.92,0-.32,0-.68,0-1a19.16,19.16,0,0,0-6.7,0c.09,4.44.16,9.2.21,13h0C220.35,494.84,225.86,496.15,227.41,492.75Z"/><path class="cls-5" d="M223.14,456.84c.16-6.22-6.42-50.5-7.14-55.3a47.44,47.44,0,0,1-6.61.48c-6.05,0-11.78-1.17-14.41-3.64a83.85,83.85,0,0,0-.77,13.39c.27,6.79,1.14,31.27,1.15,31.52l-1.13,37.13a14.35,14.35,0,0,1,6.91.06c.25-3,.52-6.11.78-9,.44-5,.83-9.34.83-10.43,0-2.95,4.1-30.31,4.42-32.45-1.6-4.3-3-8.26-3.54-9.87-1.32-4.25-1.85-6.66-1.86-6.68l.87-.19s.53,2.4,1.84,6.61,9.14,24.73,9.22,24.94c.24.81,5.72,19.31,6.09,27.91.1,2.38.19,5.83.27,9.58a19.14,19.14,0,0,1,3.08-.29C223.12,477.83,223,462.83,223.14,456.84Z"/><path class="cls-2" d="M245.62,494.27a6.12,6.12,0,0,1-4.31,2,5.86,5.86,0,0,1-2.71-.69l-.2,6c.09.22.15.41.19.56h18.32a11,11,0,0,0-1.07-3.42c-.55-1.16-2.51-1.58-4.59-2s-4.07-.87-5.4-2A1.16,1.16,0,0,1,245.62,494.27Z"/><path d="M232.49,496.87a9.45,9.45,0,0,1-4-2.27,5.2,5.2,0,0,1-.62-.85c-1.19,1.82-3.37,2.24-5.13,2.24a12.38,12.38,0,0,1-2.45-.25c0,3.08.07,5.46.08,6.4H237.5v-.38A8.64,8.64,0,0,0,232.49,496.87Z"/><polygon class="cls-1" points="300.67 494.04 301.05 489.42 294.75 489.5 295.31 494.04 300.67 494.04"/><path class="cls-1" d="M344.69,477.32q.11,1.76.21,3.57a19.77,19.77,0,0,1,6.77,0c.08-3.75.17-7.21.27-9.58.34-7.94,5-24.3,5.93-27.39l-11.53-1.65C343.68,461.12,344.17,469,344.69,477.32Z"/><path class="cls-2" d="M370.87,494.4c-.73,1.44-2.31,1.92-4,2.4a13.55,13.55,0,0,0-3.05,1.16A6.23,6.23,0,0,0,361,502.1l17.14-1-.19-6.26a6.84,6.84,0,0,1-2.34.36A17,17,0,0,1,370.87,494.4Z"/><path class="cls-6" d="M370.65,481.37c.46,5.69.78,10.63.58,11.93,0,.09,0,.17-.07.25,1.15.35,4.69,1.3,6.73.32l-.38-12.52A13.37,13.37,0,0,0,370.65,481.37Z"/><path class="cls-7" d="M362.49,402.09a45.22,45.22,0,0,1-10.47-1.2,22.19,22.19,0,0,1-5.94-2.25L342,440.76,364.71,444c1.2-2.72,9.89-23,7.91-34.3l.87-.15c1.74,9.91-4.31,26-6.95,32.42l14,.87c0-1.88.08-9.52,0-24.93-.08-14.53-2.57-18.8-3.41-19.84C374.73,400.79,368.82,402.09,362.49,402.09Z"/><path class="cls-1" d="M368.48,443c.08,2.64.49,15.38.49,18.06,0,1.09.38,5.41.83,10.42.26,2.91.53,6,.78,9a14.34,14.34,0,0,1,6.91-.06l-1.13-37Z"/><path class="cls-2" d="M343.85,493.75a5.19,5.19,0,0,1-.62.85,9.45,9.45,0,0,1-4,2.27,8.72,8.72,0,0,0-5.17,5.27h17.28c0-.94,0-3.32.08-6.4A12.39,12.39,0,0,1,349,496C347.21,496,345,495.57,343.85,493.75Z"/><polygon class="cls-4" points="336.49 481.07 335.34 481.41 325.17 484.46 323.89 484.91 325.64 487.79 337.18 484.36 336.49 481.07"/><polygon class="cls-1" points="334.68 489.81 334.28 486.15 329.13 487.68 330.26 491.02 334.68 489.81"/><path d="M335,490.65,330.12,492a2.69,2.69,0,0,0-1.58,2.1c-.19,1.4-1.81,1.88-3.54,2.4a12.59,12.59,0,0,0-3.07,1.21c-1.67,1.05-1.74,3.39-1.7,4.28,1.52.1,7.2.41,9.45-.3s6.55-4.12,7.61-5Z"/><path class="cls-4" d="M334.69,480.68c-.28-3.15-2.33-25.86-3.22-31.82s.29-46.56.5-53.68c-2.11,1.76-5.21,2.67-10.44,2.67a85.63,85.63,0,0,1-10.21-.75c-2.42-.3-4.58-.56-6.52-.82-4.53,15.4-12.78,44.63-12.27,47.53.63,3.57,2.93,36.2,3.22,40.43h7.33c.12-4.23,1.06-35.2,2.39-38.24.42-1,1.62-3.47,3.13-6.64,3.31-6.93,8.32-17.41,9.06-19.9a37.87,37.87,0,0,0,1-9.12l.89,0a38,38,0,0,1-1,9.39c-.48,1.63-2.61,6.31-5,11.39,0,1.23.16,14.15.37,17.38s10.12,31.31,11.43,35Z"/><path class="cls-6" d="M344.94,481.78c0,.35,0,.69.05,1,.21,5,0,8-.68,9.92,1.55,3.4,7.06,2.1,7.12,2.08h0c.05-3.85.12-8.6.21-13A19.13,19.13,0,0,0,344.94,481.78Z"/><path class="cls-4" d="M467.43,411.76c-1.3,4.7-4.68,11.19-8.33,17.84.18,1.54,2,16.76,4.73,20.94,2,3.11,16.52,17.12,26.1,26.39,4.22,4.08,7.55,7.3,8.51,8.33a8.68,8.68,0,0,1,1.57,2.45c.91-.27,3.23-1.17,3.84-3.43-2-1.86-13-20-24.53-39.45-1.86-3.13-3.25-5.46-3.84-6.42-2.32-3.8-5.21-25.55-6.44-35.53A52.71,52.71,0,0,1,467.43,411.76Z"/><path class="cls-4" d="M468.27,392.62c-2.24,1.25-6.94,1.93-11.79,2l-30.71,99.17a13.76,13.76,0,0,0,4.06.63c1.12-3.32,4-10.31,8.13-20.26,3.85-9.28,7.84-18.89,9.28-23.25s5-10.81,8.81-17.64c4.42-8,9-16.21,10.53-21.78A55.69,55.69,0,0,0,468.27,392.62Z"/><path class="cls-5" d="M500.24,488.27a11.4,11.4,0,0,1,.65,5.23,6.11,6.11,0,0,1-2.32,4.54,19.56,19.56,0,0,0-4.76,5.22h10c4.81-6,9.49-12.86,9.06-14s-2.78-2-4.87-2.9a25.11,25.11,0,0,1-3.63-1.71A6,6,0,0,1,500.24,488.27Z"/><path class="cls-1" d="M358.95,342.9c-.87-1.33-1.25-2.91-.76-4,1-2.12,3.74-2.07,3.35-4.14s-1.53-1-2.66-.1-1.62.54-2-2.36c0-.22-1.64-2.06-1.48-4.17a9.12,9.12,0,0,0-1.53,11.34c1.23,2.22,2.5,3.43,3.78,3.6A2.43,2.43,0,0,0,358.95,342.9Z"/><path class="cls-6" d="M444.63,328.75v0l.05.09Z"/><path class="cls-1" d="M200.56,493.56c0-.09-.05-.16-.07-.25-.2-1.3.12-6.24.58-11.93a13.41,13.41,0,0,0-6.87,0l-.38,12.52C195.88,494.86,199.41,493.91,200.56,493.56Z"/><path class="cls-1" d="M449.49,349.06c1.67-.44,6.45-2,6.95-4.86a3.52,3.52,0,0,1-.76-1.86,11.68,11.68,0,0,1,.35-3.85c.29-1.33.35-1.82-.12-2.08l-.64-.34a1.75,1.75,0,0,0-.58-.07,1.26,1.26,0,0,0-.24.28.74.74,0,0,1-1,.19,4.85,4.85,0,0,1-2.17-3.15c-1.17-.21-4.42-.59-5.46-2.42-.49-.86-.8-1.31-1-1.72A7.59,7.59,0,0,0,442.7,332a10.52,10.52,0,0,0,.15,2.39c.23,1.81.33,2.85-.2,3.27,0,.12.41.44,1.12.9.5.32.5,1,.49,2.11s0,3,.8,3.32a2.65,2.65,0,0,0,2.21-.35c.69-.32,1.39-.65,2-.12C449.64,343.91,449.67,346.13,449.49,349.06Z"/><path class="cls-5" d="M429.63,495c-4.48-.1-6.9-1.9-7.75-2.7-2.19,3.12-6.73,4-10.95,4.56-4.38.58-5.4,4.57-5.62,5.92,11.81.6,24.38.66,25.64-.28a9.93,9.93,0,0,0-.71-2.18,9.26,9.26,0,0,1-.94-3.91A6.21,6.21,0,0,1,429.63,495Z"/><path class="cls-4" d="M455.85,394.67h-.74a46.93,46.93,0,0,1-9-.77c-.59,3.41-4.92,28.06-8.83,42.53-1.56,5.77-3.75,14.06-6,22.44-3.77,14.24-7.66,29-8.5,31.59a7,7,0,0,1-.61,1.37,9,9,0,0,0,3,1.8Z"/><path class="cls-1" d="M329.13,314.56c-3.75-5.37-6.56-9.5-6.83-9.93-1-1.58-2-3.81-2.28-8.33-.1-1.56-.52-2.63-1.2-3.09a1.71,1.71,0,0,0-1.37-.21c-.13,0-1,.18-1,2.3a1.49,1.49,0,0,1-.47,1.18c-.91.86-2.95.68-4.91.5a8.77,8.77,0,0,0-2.92,0c-.35.15-.39.57-.37.89a5,5,0,0,0,3.67,3.81c3.61.93,7.17,3.62,8.27,6.24.43,1,3.77,8,8.32,16.71C328.45,321.39,328.82,317.88,329.13,314.56Z"/><path class="cls-5" d="M223.73,480.6a19.4,19.4,0,0,1,3.08.28c.48-14.44,1-59.38-2-81.82a22.55,22.55,0,0,1-4.44,1.64,38.35,38.35,0,0,1-3.79.76c.75,5,7.31,49,7.14,55.4C223.58,462.84,223.71,477.86,223.73,480.6Z"/><path class="cls-1" d="M210.61,342.38l-.09-.09.29-.31v0l-.44.09.23-.5c.31-.16.53.07.67.22a3.52,3.52,0,0,0,2.8,1.32c1.28-.16,2.55-1.37,3.78-3.6a9.37,9.37,0,0,0-2.05-11.84c-1.29,3.71-5,9.19-5.69,15.17l1.05.07C210.9,342.68,210.72,342.5,210.61,342.38Z"/><path class="cls-1" d="M310.65,340.66a15,15,0,0,0,1.55-.17l.12,0c-1.34-1-1.94-2.57-2.49-4.66-.81-3.13.27-5.42.54-6.89a2.81,2.81,0,0,0,0-1,37.11,37.11,0,0,0-1.78,5.7C308.1,336.3,308.95,340,310.65,340.66Z"/><path class="cls-4" d="M294.87,394.37c-.79,5.31-7,46.89-6.85,50.2s3.92,35.71,4.38,39.66h2.77c-.3-4.28-2.6-36.84-3.21-40.33s10.8-42.75,12.26-47.71A53.79,53.79,0,0,1,294.87,394.37Z"/><path class="cls-1" d="M261.19,301.3a4.83,4.83,0,0,0,2.72-3.44c0-.32,0-.74-.37-.89a5.91,5.91,0,0,0-2.13-.06C261.33,298.35,261.25,299.83,261.19,301.3Z"/><circle class="cls-8" cx="369.08" cy="278.8" r="1.13"/><circle class="cls-8" cx="391.08" cy="256.92" r="2.76"/><path class="cls-9" d="M205.83,256.6c-5.09-3.4-9.2-2.86-10.07-1.61a.89.89,0,0,0-.11.72c.28,1.35,2.54,3.37,4.53,4.59,2.67,1.64,9.6,3.09,11.66,3.49a60.94,60.94,0,0,0,7.17.82c1.42.1,2.65.19,3.62.34,2.57.38,9.52,4.21,14.15,9.11h0a1.45,1.45,0,0,1,.36,1.17,1.77,1.77,0,0,1-1.12,1.18c-1.74.82-4.75-.8-7.66-2.37l-.41-.22a3.57,3.57,0,0,0-2.44-.45c-1.11.11-2.26.24-4.86-2.25-3.19-3-6-3.93-7.5-3.93a1.79,1.79,0,0,0-1,.24.6.6,0,0,0-.29.51c0,.34.33,1.14,2.4,2.6,1.28.9,5.59,2.39,9.39,3.71,2.56.89,5,1.73,6.53,2.39a22.93,22.93,0,0,1,3.21,1.71c1.44.89,2.24,1.38,4,.95a8.37,8.37,0,0,0,1.81-.62c.71-.33,1.1-.47,3.6-.37,2.9.11,3.32-.22,3.37-.36s0-.53-2-2a9,9,0,0,0-2.69-1.38c-1.14-.38-2-.68-5.15-4a66.36,66.36,0,0,0-12.29-10.73c-1.71-1.15-4.7-2.69-7.86-4.32-4.92-2.53-10.49-5.4-13.18-7.77-5.43-4.8-9.25-14.12-10.29-16.86-2.18-5.75-10.06-21.38-14.79-24.28-2.73-1.68-5.7-2-7.39-.74-1.19.87-1.57,2.43-1.09,4.39,1,4,7.29,10.83,11.06,14.94,1.45,1.58,2.6,2.83,3.08,3.5.24.34.53.72.83,1.12,1.9,2.52,3.19,4.39,2.61,5.38-.27.46-.88.61-1.84.48-3.84-.54-6.86-1-12.4-8.13-4.34-5.61-7.07-16.14-8.87-23.11-.46-1.78-.86-3.32-1.22-4.52-1.89-6.36-15.55-28.33-19.41-29a5.53,5.53,0,0,0-5.41,1.71c-1.25,1.63-1.17,4.13.23,7,1.72,3.59,6.68,8,10.67,11.62,4.52,4.06,6.85,6.23,6.07,7.34a1.55,1.55,0,0,1-2.21.46l-.15-.07a7.77,7.77,0,0,0,.25,1.4,3.9,3.9,0,0,0,2.92,3.25,5.78,5.78,0,0,1,2.21,1.31c1.24,1.27,4,4.9,3.35,6.31a1,1,0,0,1-1,.57h0c-1.49,0-2.82-1.61-4.83-4a58.65,58.65,0,0,0-5.13-5.58c-1.91-1.78-19-17.58-29-23.78-3.71-2.3-7.94-6.12-12-9.82-5.8-5.23-11.8-10.65-16.2-11.62-1.92-.42-3.2-.23-3.8.57-1.3,1.75.2,6.45,4.6,14.38,5,9,10.69,12.55,14.61,14,1.15.42,2.67.85,4.15,1.27,4,1.13,5.66,1.67,5.75,2.44,0,.18,0,.45-.46.68-.63.34-1,.77-.9,1.21.08.65.92,1.28,2.14,1.58a16.09,16.09,0,0,0,3,.35,10.48,10.48,0,0,1,4.67,1c.58.34,1.78.85,3.3,1.5,4,1.72,10.09,4.31,13.36,7.28,1.51,1.37,3.09,2.66,4.63,3.9,3.07,2.5,5.73,4.65,6.82,6.68.72,1.35,2.81,2.73,4.64,3.94,2.35,1.56,4.21,2.79,3.51,3.94-.81,1.34-3.57-.28-6.78-2.14a33.21,33.21,0,0,0-4.59-2.4c-2.7-1-6.12-1-6.89,0-.26.33-.2.78.19,1.36,1.76,2.67,5,3.12,9,3.69l.45.06a18,18,0,0,1,7.1,2.56l.69.39c.17.09,4.09,2.18,4.78,4.52a2.19,2.19,0,0,1-.17,1.75c-.88,1.56-2.93,1.57-4.58,1.57-.84,0-1.78,0-1.91.28s-.51,1.27-.06,1.87,1.31.65,2.68.43c2.86-.45,7,.8,10,1.72,1,.31,1.89.57,2.51.71l1.53.31c3.71.72,10.62,2.06,12.91,4.2a66.29,66.29,0,0,0,6.73,4.94c2,1.33,3.8,2.58,4.72,3.39,2,1.77,15.44,8.47,18.56,9.74,1.21.49,1.62.8,1.57,1.19s-.8.57-1.9.69l-.76.09C217,262.86,210.91,260,205.83,256.6Z"/><circle class="cls-10" cx="346.47" cy="77.95" r="5.61"/><path class="cls-11" d="M225.38,241.66a5.49,5.49,0,0,1,2.34,1,6.63,6.63,0,0,0,7.75,1.13,2.27,2.27,0,0,0,1.44-1.6c.17-1.17-1-2.41-1.25-2.71l-2.85-.25c-1.69-.15-2.69-1.7-3.65-3.2-.82-1.27-1.59-2.48-2.68-2.64a7.46,7.46,0,0,0-1.11-.08c-1.46,0-3.33.36-4.25,1.5a3,3,0,0,0-.22,3.11C222,240.72,223.78,241.22,225.38,241.66Z"/><path class="cls-11" d="M243,229.58a179.19,179.19,0,0,1-11.29-14.77c-2.85-4.37-4.75-12.07-6.77-20.23-2.34-9.45-4.76-19.23-8.94-25.89a90.45,90.45,0,0,1-6.76-14.32c-3.61-9-6.72-16.7-13.29-17.56a8.6,8.6,0,0,0-1.13-.08,4.76,4.76,0,0,0-3.35,1.18c-2.9,2.63-2.67,9.29-2.44,15.73.1,2.84.19,5.53,0,7.91-.69,10.24,4.65,25.35,10.79,30.5,6.58,5.52,9.8,11.68,12.15,16.18,2.47,4.74,15.1,19.59,20.15,22.54,1,.59,2.25,1.27,3.58,2,6.27,3.45,11.09,6.23,11.25,8a1,1,0,0,1-.39.89c-.39.32-.83.63-1.3,1-1.31.92-2.79,2-2.68,2.89.07.6.8,1.19,2.17,1.76l1.27.53c4.35,1.79,6.34,2.61,8.39,5.7.79,1.19,2.77,5.53,5.06,10.55,3.16,6.93,8.41,18.46,9.68,19a3,3,0,0,0-.27-3.47l-.28-.33.21-.07c-.57-2.55-11.53-29.86-16.43-37.4A152.63,152.63,0,0,0,243,229.58Z"/><path class="cls-8" d="M348.89,271.23a20.5,20.5,0,0,0-4.82,3.3l-.05,0c-.33.24-1.19,1-1.17,1.62a.85.85,0,0,0,.48.67c.81.51,1.94,0,3.26-.67a10,10,0,0,1,3.72-1.22c.48,0,1.11,0,1.85,0,3.8.05,10.9.16,16.89-3.75,2-1.3,4.14-2.51,6.22-3.69,4.14-2.34,8.05-4.55,8.27-6.21a1.17,1.17,0,0,0-.42-1c-2.72-2.66-4-1.68-7.38,1-3.84,3-13.81,9.67-18.43,10.2-2.93.34-4.23.18-4.51-.54s.61-1.76,3-3.46a41.92,41.92,0,0,0,6.1-5.95c2.31-2.56,4.48-5,6.38-5.63,2.06-.71,8.14-2,14-3.26,3.75-.8,7.62-1.63,10.27-2.26,7.52-1.81,16.45-5.68,17.76-8.79a6.48,6.48,0,0,0,.08-5.37,2.93,2.93,0,0,0-1.92-1.61,11.51,11.51,0,0,0-8.73,2l-.57.41c-3.49,2.55-12.76,9.31-17.41,10.67-5,1.46-10.92,3.41-14.42,4.73-2.39.91-4.35,3.67-6.07,6.11a32.47,32.47,0,0,1-2.31,3c-1.57,1.72-2.38,2.31-3,2.15s-.7-.68-.83-1.21a.78.78,0,0,0-.77-.64h-.14c-.55.09-1.06.7-1,1.86.21,2.46-1.36,5.74-3.3,6.87Z"/><circle class="cls-8" cx="438.83" cy="212.46" r="2.25"/><path class="cls-6" d="M379.49,325.15,378,326.23a6.84,6.84,0,0,1,.95,1.07l1.61-1.08A5.13,5.13,0,0,1,379.49,325.15Z"/><path class="cls-11" d="M455.32,256.65a6.64,6.64,0,0,0,7.75-1.13,5.5,5.5,0,0,1,2.34-1c1.61-.44,3.43-.94,4.48-3.72a3,3,0,0,0-.22-3.11c-1.18-1.46-3.92-1.65-5.37-1.42-1.09.17-1.86,1.37-2.68,2.64-1,1.5-2,3.05-3.65,3.2l-2.85.25c-.3.3-1.42,1.54-1.25,2.71A2.27,2.27,0,0,0,455.32,256.65Z"/><path class="cls-8" d="M481.2,174.48c-.38-1.49-1.37-2.67-2.22-2.67h0c-.73,0-1.31,1-1.6,2.65-.8,4.63-3,7.65-8.44,14.95l-.62.84a84.91,84.91,0,0,1-7.13,8.26c-2.78,2.92-5,5.23-5.67,7.74a10,10,0,0,0-.44,3.9,4,4,0,0,1-.93,3.13c-1,1.41-1.4,1.79-1.8,1.66s-.43-.81-.38-2.12v-.37a3.44,3.44,0,0,0-1.87-3.14,1,1,0,0,0-.26,0c-.39,0-.73.26-1,.78a10.84,10.84,0,0,0-.56,4.06c-.11,3.17-.26,7.12-2.9,9.42-3.83,3.33-15.37,7.06-21.59,8.73-4.76,1.28-5.73,6.53-6.06,8.25l0,.18a1.51,1.51,0,0,0,.28,1.35c.91,1.05,3.57.95,4.44.91a27.5,27.5,0,0,0,5.37-1.73,41.11,41.11,0,0,1,5.37-1.81,8.63,8.63,0,0,1,4,.36,13.59,13.59,0,0,0,4.29.57c1.52-.07,2.57-.55,2.93-1.35s.05-1.93-.86-3.09c-.57-.73-.76-1.24-.61-1.7.26-.82,1.5-1.19,4-1.93,1.31-.39,2.93-.87,4.9-1.57,7.53-2.66,16.7-10.34,20.71-14.55s5.48-7.89,5.09-13.51c-.21-3.07.69-4.9,1.84-7.22a35.2,35.2,0,0,0,2.83-7.35c1.59-6.16.48-9.31-.4-11.83C481.55,175.63,481.34,175.05,481.2,174.48Z"/><path class="cls-10" d="M312.4,224.41a178.42,178.42,0,0,1,2.45-18.33c1.07-5.08,5.15-11.84,9.47-19,5-8.3,10.18-16.88,11.93-24.51a90,90,0,0,1,5.32-14.84c3.77-8.84,7-16.48,3-21.71a5.24,5.24,0,0,0-3.92-2.38c-3.9-.22-8.41,4.66-12.78,9.35-1.93,2.07-3.76,4-5.54,5.59-7.69,6.72-14.56,21.11-13.87,29.06.75,8.53-1.33,15.12-2.84,19.94-1.59,5.07-3.16,24.41-1.68,30,.29,1.12.69,2.48,1.11,3.93,2,6.84,3.42,12.18,2.28,13.55a1,1,0,0,1-.9.35c-.5-.05-1-.14-1.6-.24a15.84,15.84,0,0,0-2.49-.3,1.8,1.8,0,0,0-1.43.45c-.37.47-.28,1.4.29,2.77l.53,1.27c1.8,4.32,2.62,6.3,1.89,9.91-.28,1.39-1.94,5.84-3.87,11-2.65,7.09-7.07,18.9-6.58,20.2a3,3,0,0,0,2.25-2.63l0-.43.2.1c1.39-2.2,12.9-29.13,14.76-37.88A152.07,152.07,0,0,0,312.4,224.41Z"/><path class="cls-11" d="M334.3,244.26c-2.72,4-10.1,13.5-14.32,15.45-2.67,1.23-4,1.49-4.45.9s0-1.86,1.75-4.22a42,42,0,0,0,3.93-7.56c1.39-3.15,2.7-6.13,4.3-7.34s7.11-4.45,12.31-7.48c3.31-1.93,6.73-3.93,9-5.36,6.58-4.07,13.85-10.54,14.12-13.9a6.48,6.48,0,0,0-1.6-5.13,3,3,0,0,0-2.33-.92,11.52,11.52,0,0,0-7.67,4.64l-.41.57c-2.52,3.51-9.21,12.83-13.21,15.58-4.29,2.95-9.31,6.65-12.22,9-2,1.61-3,4.85-3.86,7.7a32.42,32.42,0,0,1-1.25,3.61c-1,2.13-1.54,2.93-2.17,3s-.87-.43-1.17-.89a.78.78,0,0,0-1.05-.31c-.5.26-.79,1-.34,2.07,1,2.27.5,5.88-1,7.55l-.83.92a20.46,20.46,0,0,0-3.55,4.64l0,.06c-.24.33-.81,1.32-.6,1.91a.85.85,0,0,0,.67.49c.94.23,1.84-.64,2.89-1.66a10,10,0,0,1,3.15-2.32c.44-.17,1.05-.36,1.76-.58,3.63-1.14,10.4-3.26,14.87-8.84,1.49-1.86,3.15-3.68,4.76-5.44,3.2-3.51,6.23-6.83,5.91-8.48A1.17,1.17,0,0,0,341,241C337.59,239.37,336.7,240.7,334.3,244.26Z"/><path class="cls-11" d="M413.65,279.57c6.46-1,7.62-2,10.44-4.45.69-.61,1.48-1.3,2.46-2.1,2.4-1.95,6.92-3.69,11.29-5.37,4.68-1.8,9.53-3.67,10.77-5.53.77-1.16.92-2.18.44-3-.78-1.28-3.21-1.9-6-1.57-4.56.55-23.42,6.14-30.46,10.52-2.5,1.55-4.33,2.87-5.68,3.83-1.92,1.38-2.71,1.94-3.27,1.67-.36-.18-.42-.65-.43-1a1,1,0,0,0-.61-.88c-1.52-.86-5.45-.55-8.68,1.28-1.54.87-4.67,2.38-8,4-5.57,2.68-11.89,5.71-13.6,7.11-2.41,2-6,2.62-10.37,1.84-.69-.12-1.21,0-1.45.28a1.22,1.22,0,0,0,0,1.23,4,4,0,0,0,3.3,2.19,4,4,0,0,1,.49.1c1.19.29,4.37,1.07,12-2,3.41-1.4,3.47-1.93,3.46-2s-1-.43-1.34-.52c-.72-.17-1.19-.28-1.22-.67s.33-.53.9-.75c.75-.28,1.77-.74,3-1.27,4.27-1.91,10.71-4.8,16.11-4.92a20.68,20.68,0,0,1,7.07,1.17A18.51,18.51,0,0,0,413.65,279.57Z"/><path class="cls-9" d="M125.22,207.49c-3.26-.7-8.27-3.44-11-4.9a14.13,14.13,0,0,1-3.06-2.36c-1.11-1.05-2-1.89-3.52-1.89h-.21c-.49,0-.78.17-.86.42-.31,1,1.76,3.86,5.76,7,2.59,2.06,6.21,3.15,9.72,4.21a36.41,36.41,0,0,1,7.53,2.86,30.12,30.12,0,0,1,4.12,2.86,7.53,7.53,0,0,0,4.48,2.12c.55.06.79,0,.83-.11.24-.54-1.65-2.69-3.56-4.38C135.15,213.1,128.14,208.12,125.22,207.49Z"/><path class="cls-10" d="M454.44,116.32a13.37,13.37,0,0,1,5.74,6l.27.55c2.63,5.36,3.51,7.23,2.87,7.73-.37.29-1,0-2.17-1.06l-1.22-1.08c-1.32-1.18-2.81-2.51-3.4-2.51a.26.26,0,0,0-.13,0c-.09,0-.38.35-.14,2.17a25.1,25.1,0,0,0,1.34,5c.79,2.27,1.47,4.22.69,6.07l-.24.56c-1.14,2.67-2.32,5.43-.81,8.35a34.12,34.12,0,0,0,1.9,3c2.47,3.66,5.86,8.67,4.49,12.3-2.13,5.62-12.2,23.07-25.81,29.63-3.76,1.81-8.09,4-12.67,6.22-12.38,6.12-26.41,13.05-33.38,15.55-2.75,1-4.31,1.87-4.62,2.64a1.23,1.23,0,0,0,.17,1.05,1.48,1.48,0,0,1,.19,1.21c-.18.45-.67.81-1.61,1.19-4.2,1.68-36.48,23.84-46.44,36.14-7.6,9.39-12.07,21.05-12,22.83a6.62,6.62,0,0,0,1-1.33c0-.06.08-.22.17-.46,3.77-11,12.07-18.8,18.36-23.45,9.13-6.75,15.82-8.13,19.81-9,2.79-.58,3.66-.82,3.48-2a1.32,1.32,0,0,0-.54-.91c-1.13-.82-3.67-.41-5.53-.11-1.62.26-2.29.35-2.52,0s.1-.63.19-.73c2-2.31,7.06-6.46,14.88-10.53,2.06-1.07,4-2.19,5.83-3.27,5.71-3.33,10.66-6.21,16.49-5.75a49.93,49.93,0,0,1,7.5,1.3c3.82.88,6.83,1.57,9.88.19a39,39,0,0,0,3.67-1.92c1.93-1.12,3.1-1.8,5.89-1.55s5-.24,6-1.31a2.76,2.76,0,0,0,.72-2.35c-.33-3-1.32-4.81-5.59-5.72-2.36-.51-5.93,2.13-8.53,4.06-2.24,1.66-3.73,2.75-4.38,2a.76.76,0,0,1-.21-.59c.05-.68,1-1.41,2-2.18.68-.53,1.71-1.34,1.65-1.66,0-.06-.14-.17-.47-.25-2.23-.59-3.38.55-4.71,1.88-.24.24-.48.48-.73.71-1.78,1.65-6.11,3.53-9.26,2.64-1.07-.31-1.61-.73-1.64-1.31,0-1,1.65-2.17,5-3.48a282.74,282.74,0,0,0,30.58-15.54c12.89-7.56,25.59-20.35,31.62-31.83,6.62-12.61,17.14-36.64,13.16-55.94-2.9-14.06-4.64-18.86-5.92-22.37-.53-1.47-1-2.74-1.44-4.38-1.45-5.37-9.54-21.65-15.58-22.83a7.31,7.31,0,0,0-6.81,1.72c-1.9,1.9-2.59,5-1.9,8.61.26,1.35.55,2.65.83,3.9,1.23,5.49,2.29,10.22-.12,14.7a9.1,9.1,0,0,1-3.12,3.74c-.93.66-1.61,1.13-2.47,4.4-1.61,6.11-.36,8.49,3.94,14.27A18.86,18.86,0,0,0,454.44,116.32Z"/><path class="cls-6" d="M121.74,357a.78.78,0,0,0,.3-.43,1.27,1.27,0,0,0,0-.13A1.9,1.9,0,0,1,121.74,357Z"/><path class="cls-1" d="M132.33,402c1,1.29,5.94,6.29,11.24,11.56-1.56-3.19-4.4-8.76-6-10.47s-2.55-13.86-2.92-21.59a49.71,49.71,0,0,1-1.58,6.94C131,395,130.24,399.28,132.33,402Z"/><path class="cls-10" d="M172.35,285.28c2.81,2.48,4,3.5,10.44,4.45a18.52,18.52,0,0,0,9.47-.87,20.61,20.61,0,0,1,6.64-1.18h.44c5.39.12,11.84,3,16.11,4.92,1.19.53,2.21,1,3,1.27.57.22.92.42.9.75s-.5.5-1.22.67c-.36.09-1.33.32-1.34.52s.06.59,3.46,2c7.61,3.11,10.78,2.34,12,2a4,4,0,0,1,.49-.1,4,4,0,0,0,3.3-2.19,1.22,1.22,0,0,0,0-1.23c-.24-.3-.76-.4-1.45-.28-4.37.77-8,.14-10.37-1.84-1.71-1.4-8-4.44-13.6-7.11-3.31-1.59-6.45-3.1-8-4-3.22-1.82-7.16-2.14-8.68-1.28a1,1,0,0,0-.61.88c0,.39-.07.85-.43,1-.56.27-1.35-.29-3.27-1.67-1.34-1-3.18-2.28-5.68-3.84-7-4.37-25.9-10-30.46-10.52-2.82-.34-5.25.29-6,1.57-.48.79-.33,1.81.44,3,1.24,1.86,6.08,3.73,10.77,5.53,4.37,1.68,8.88,3.42,11.29,5.37C170.87,284,171.65,284.67,172.35,285.28Z"/><circle class="cls-10" cx="367.65" cy="208.39" r="2.25"/><path class="cls-8" d="M92.9,124.46c7,6.82,13.07,12.71,13.67,16.67.44,2.89-.29,4-.87,5-.89,1.41-1.42,2.26,5.23,10.21,7.43,8.89,15.23,7.68,22.77,6.52a38.62,38.62,0,0,1,9.19-.69c6.58.58,12.61,10.87,17.44,19.14,2.79,4.77,5.2,8.89,7.21,10.46s4.69,2.46,7.68,3.4c4.75,1.49,10.66,3.35,16.6,9.63,4.59,4.86,6.95,12.19,9.23,19.27,2.5,7.77,4.86,15.12,9.91,19,4.27,3.26,10.59,6.52,16.71,9.67,8.06,4.15,15.67,8.07,18.34,11.79,4,5.54,8,6.82,16.78,8.23-1.12-2.39-2.41-5.19-3.89-8.43-2.28-5-4.25-9.32-5-10.47-1.95-2.94-3.88-3.73-8.12-5.48l-1.27-.53c-1.61-.67-2.44-1.4-2.53-2.24-.14-1.27,1.42-2.38,2.93-3.44.46-.33.9-.64,1.27-.94a.41.41,0,0,0,.18-.38c-.15-1.61-6.64-5.18-10.94-7.54-1.33-.73-2.58-1.42-3.59-2-5.12-3-17.88-18-20.38-22.78-2.32-4.45-5.51-10.56-12-16-6.25-5.24-11.7-20.6-11-31,.16-2.35.07-5,0-7.85-.23-6.57-.46-13.37,2.64-16.18a5.91,5.91,0,0,1,5-1.25c6.91.91,10.08,8.8,13.76,17.93a90,90,0,0,0,6.71,14.23c4.23,6.74,6.66,16.56,9,26.06,2,8.11,3.9,15.77,6.69,20.05a178.74,178.74,0,0,0,11.25,14.72,153,153,0,0,1,9.43,12.27c3.33,5.13,10.85,22.56,14.49,31.94l.19,0c6.84,1,9.93-3.23,12.66-7,1.92-2.63,3.6-4.95,6.22-4.95a5,5,0,0,1,1.24.16c3.61.91,5.67,5,7.56,9.29,1-2.92,2.35-6.53,4-10.9,1.92-5.12,3.57-9.55,3.84-10.9.7-3.44-.1-5.36-1.86-9.57l-.53-1.27c-.66-1.61-.73-2.71-.2-3.36.8-1,2.67-.67,4.49-.36.56.1,1.08.19,1.56.24a.39.39,0,0,0,.39-.14c1-1.24-1-8.32-2.39-13-.42-1.45-.82-2.82-1.12-3.94-1.5-5.7.08-25.25,1.69-30.37,1.5-4.77,3.55-11.3,2.82-19.71-.71-8.09,6.26-22.73,14.07-29.55,1.76-1.54,3.58-3.49,5.5-5.54,4.47-4.79,9.06-9.75,13.25-9.54a5.87,5.87,0,0,1,4.36,2.61c4.22,5.5.91,13.29-2.93,22.3a89.44,89.44,0,0,0-5.29,14.74c-1.77,7.72-7,16.34-12,24.68-4.3,7.12-8.35,13.85-9.4,18.82A178.19,178.19,0,0,0,313,224.47a152.17,152.17,0,0,1-2,15.27c-1.43,6.73-10.15,28.27-13.69,35.78,1.21,2.38,2.53,4.19,4.26,4.41,1,.12,2,.34,3,.55,4.6,1,8.57,1.86,12.53-6.86a104.15,104.15,0,0,1,6-10.95,47.47,47.47,0,0,1-6.7,2.54c-.7.22-1.3.41-1.72.57a9.39,9.39,0,0,0-3,2.19c-1,1-1.93,1.86-3,1.86a1.85,1.85,0,0,1-.45-.06,1.41,1.41,0,0,1-1.08-.86c-.34-.94.48-2.18.66-2.43a21,21,0,0,1,3.65-4.78l.83-.91c1.33-1.51,1.77-4.87.89-6.93-.6-1.41-.13-2.44.6-2.82a1.36,1.36,0,0,1,1.83.52c.27.42.48.61.63.62.34,0,.9-.91,1.67-2.63a32,32,0,0,0,1.22-3.54c.9-2.94,1.92-6.27,4-8,2.92-2.36,8-6.07,12.26-9,3.91-2.69,10.56-12,13.06-15.44l.41-.57a12.15,12.15,0,0,1,8.09-4.88,3.52,3.52,0,0,1,2.8,1.09,7.08,7.08,0,0,1,1.78,5.6c-.32,4-8.61,10.78-14.4,14.36-2.32,1.43-5.75,3.43-9.06,5.36-5.18,3-10.54,6.15-12.25,7.44-1.48,1.12-2.76,4-4.12,7.11a42.31,42.31,0,0,1-4,7.67c-2,2.78-1.87,3.38-1.77,3.49s.72.33,3.75-1.06c4.2-1.94,11.79-11.85,14.08-15.24,2.16-3.2,3.35-4.94,6.43-3.84a68.43,68.43,0,0,1,15-12.31c4.69-2.68,8.87-4.94,12.55-6.92,9.47-5.11,15.19-8.2,15.59-11,.36-2.42,8.22-5.17,17.33-8.36,6.66-2.33,13.55-4.74,16.42-6.81,6.74-4.86,29.61-25.59,32.19-32.61,1.77-4.82-.89-20.22-7.11-23.92-2.82-1.67-5.94-.6-9.27,3.19-5.07,5.78-9.32,12.71-12.73,18.28-4.17,6.82-7.19,11.74-9.77,11.78h0a2.66,2.66,0,0,1-2.17-1.45c-4.71-7.21,3.26-24.7,13.27-34.92,1-1.06,2.08-2.1,3.11-3.11,9.25-9.16,17.24-17.08,13.9-37.4-3.67-22.37-11.45-29.72-23.64-34.85-8.11-3.42-16.22-2.11-18.7,1.24-1.21,1.64-1,3.58.73,5.6,1.39,1.66,2.91,3.3,4.38,4.88,3.77,4.06,5.87,6.42,5.19,7.64-.4.72-1.63.83-4,.36-4.64-.93-8-3.57-11.61-6.36-3.41-2.66-6.95-5.41-12-7.24-7.5-2.71-14.28-2.89-16.85-.45-1.07,1-1.33,2.44-.79,4.22A10.86,10.86,0,0,0,364.79,75c1.48,1.35,2.54,2.32,1.38,5.41-.53,1.42-.51,3.61-.49,5.93,0,4,.08,8.56-2.67,11-1.69,1.5-4.19,2-7.64,1.58-13.44-1.71-21.34-6.37-30.22-17.84-8.27-10.68-25.32-20.09-35-21.38-2.18-.28-3.68.86-4.23,3.25-1.49,6.42,4.55,21.14,18.86,25.94,5.34,1.79,9.65,3.13,13.12,4.2,7.44,2.31,10.53,3.26,11.14,4.76a1.7,1.7,0,0,1-.17,1.51,12.88,12.88,0,0,0-.66,1.48c-.4,1-.74,1.89-1.67,2.3-1.2.52-3.23.14-6.81-1.29-2.35-.93-5.09-1.72-8-2.55-7.2-2.06-15.37-4.4-20.8-9.93a40.2,40.2,0,0,1-5.66-7.3c-1-1.52-1.6-2.52-2.36-2.66-.56-.1-1.33.24-2.47,1.12-2.09,1.59-2.95,2.68-3.07,3.86-.2,1.87,1.54,4.3,4.81,8.12,2.76,3.23,9.1,11.38,8.29,17.4a6,6,0,0,1-2.67,4.31c-1.88,1.27-3.3,1.71-4.48,1.36-1.92-.56-3-3.08-4.62-6.87-.59-1.39-1.26-3-2.07-4.65h0c-.09-.21-8.68-20.8-15.86-22.85a3.45,3.45,0,0,0-3.14.53c-4.35,3.12-3.1,7.15-2.35,9.56.33,1.06.53,1.7.14,2s-1,.11-2.41-.7a24.27,24.27,0,0,1-5.2-4.13c-3.19-3-7.55-7.22-20.62-13.81-14.25-7.18-17.39-7.08-23.66-6.89a81.35,81.35,0,0,1-9.7-.17,65.68,65.68,0,0,0-11.94.53c-11,1.15-22.28,2.35-35.22-11.85-13.33-14.63-33.67-14.75-41.31-10.71-1.93,1-2.84,2.21-2.57,3.35.1.42.19.83.28,1.22,1.22,5.39,2,9,13.86,9h.87c10,0,18.1,1.72,18.61,4,.17.77-.44,1.49-1.81,2.13-4,1.85-18,7.33-32.29,0-1.54-.79-3-1.56-4.42-2.31-10.65-5.61-17.69-9.32-23.54-3.28-6.86,7.08-6.51,31,.64,44.19C78.57,110.52,86.19,117.93,92.9,124.46Zm127.76,110c1.34-1.66,4.27-1.89,5.91-1.63,1.35.21,2.23,1.58,3.08,2.91s1.8,2.81,3.2,2.93l3.06.27.07.07c.07.07,1.75,1.65,1.5,3.3a2.82,2.82,0,0,1-1.77,2,7.69,7.69,0,0,1-3.41.84,7.51,7.51,0,0,1-5-2.06,5,5,0,0,0-2.1-.9c-1.66-.45-3.72-1-4.88-4.08A3.55,3.55,0,0,1,220.67,234.46Zm147-28.92a2.85,2.85,0,1,1-2.85,2.84A2.85,2.85,0,0,1,367.65,205.54Z"/><path class="cls-11" d="M113.6,220.61c1.43.49,2.66.91,3.65,1.29,1.87.72,4.06,1.33,6.37,2,7.54,2.1,16.93,4.72,26.56,13.63,6.28,5.81,12.68,10.68,17.34,14.24,5.2,4,7,5.37,6.87,6.16a.52.52,0,0,1-.36.41c-2,.75-7.88-.86-13.21-5.72-2.76-2.52-4-3-5.21-3.38a11.57,11.57,0,0,1-4.41-2.66c-.73-.64-1.48-1.31-2.22-2-3.35-3-6.8-6.15-9.56-6.15a3.24,3.24,0,0,0-1,.15,3.1,3.1,0,0,0-1.88,2.83c-.4,3.27,1.69,8.1,6.44,11,5.79,3.54,21.34,7.27,30.63,9.49,2.56.61,4.76,1.14,6.26,1.54l1.73.45c5.78,1.47,9.68,2.46,22.78,14.58A43.48,43.48,0,0,0,191.18,266a88.23,88.23,0,0,0-8-4.24c-4.85-2.33-8.69-4.17-15.14-11-8.89-9.48-15.15-15.75-22.76-21.76-3.45-2.72-9.73-4.57-16.38-6.54-7.47-2.21-15.2-4.49-20.23-8.29-5.29-4-7.33-9.22-9.48-14.74-1.74-4.45-3.53-9-7.17-13.27-6.63-7.69-15.29-10.11-17.62-8.82a1.26,1.26,0,0,0-.52,1.69c.65,2.05,3.79,5.39,7.12,8.93,4.23,4.49,8.6,9.14,9.54,12.67.45,1.68.25,2.81-.58,3.33-2.3,1.45-8.34-2.45-11.6-5.24-.65-.56-1.35-1.14-2.09-1.76-5.17-4.3-12.26-10.18-14.42-18-.93-3.37-1.78-5.68-2.45-7.53a25.76,25.76,0,0,1-2-9,13.55,13.55,0,0,1,1-6c.76-2.09,1.55-4.26.87-9.37-.49-3.71.94-6.54,2.46-9.53C64,133,66.48,128,63.16,119c-3.83-10.45-4-13.58-4.17-16.89a36.73,36.73,0,0,0-.61-5.48c-.32-1.68-.52-3.23-.7-4.59-.38-2.86-.66-4.93-1.59-5.34-.53-.24-1.38.06-2.6.9C48.78,90.88,41.11,109.41,40,123.18c-.71,8.95-1.08,40.18,23.89,66.39C83.76,210.42,103.91,217.3,113.6,220.61Z"/><circle class="cls-11" cx="128.28" cy="235.96" r="2.71"/><path class="cls-10" d="M126.55,260.94c1.05,2.78,2.87,3.28,4.48,3.72a5.49,5.49,0,0,1,2.34,1,6.64,6.64,0,0,0,7.75,1.13,2.27,2.27,0,0,0,1.44-1.6c.18-1.17-1-2.41-1.25-2.71l-2.85-.25c-1.69-.15-2.69-1.7-3.65-3.2-.82-1.27-1.59-2.48-2.67-2.64a7.48,7.48,0,0,0-1.12-.08c-1.46,0-3.33.36-4.25,1.5A3,3,0,0,0,126.55,260.94Z"/><path d="M383.69,327.35a5.12,5.12,0,1,0-5.12-5.12,5.06,5.06,0,0,0,.63,2.41l-1.69,1.2a15.21,15.21,0,0,0-4.08-2.18c-2.48-.94-.67-5.71-5.8-7.48s-10.19,2.81-10.73,5.12,1.18,2.17-.79,4.95a4.1,4.1,0,0,0-.3.5l-.07-.09c-.07.05-7,5.45-2.63,13.27a9.63,9.63,0,0,0,2.79,3.38,8.23,8.23,0,0,1-6.17-2.49c-2.3-2.39-7.08-8.78-12-15.57-.24-12.2-1-24.36-1.46-26.92a11.7,11.7,0,0,1,.65-5c.68-2.46,1.38-5-1.19-6.24a3,3,0,0,0-2.46-.23c-1.32.53-1.94,2.16-2.43,3.48a5.17,5.17,0,0,1-.72,1.51c-.28.26-.65,0-1.41-.77-.55-.54-1.08-1.06-1.67-1a.77.77,0,0,0-.67.44c-.44.91.88,3.06,1.46,3.94a4.1,4.1,0,0,1,.48,2.72v.06a2.17,2.17,0,0,0,.55,1.72c.21.32.5.76.89,1.44s.08,6.26-.52,12.81c-3.43-4.92-5.95-8.62-6.2-9-.91-1.49-1.88-3.59-2.15-7.92-.12-1.87-.65-3.14-1.59-3.77a2.49,2.49,0,0,0-2-.34c-.08,0-1.77.19-1.68,3.19a.62.62,0,0,1-.19.51c-.62.59-2.62.41-4.23.26a8.31,8.31,0,0,0-3.35.06,1.64,1.64,0,0,0-.9,1.77,5.85,5.85,0,0,0,4.34,4.6c3.37.87,6.67,3.33,7.68,5.73.47,1.11,4.09,8.76,9,18-.38,3.46-.74,6.51-1,8.53-.28,2.4-.45,3.85-.47,4.17a2,2,0,0,1-.8,1.58c-.63.47-1.94.88-4.58.56a3.16,3.16,0,0,0,1-1.08c1-1.85-.27-3.42.25-4.28s1.53.34,2.17-.79,1.7-2.49-.2-3.84-1.3-2.34-1.18-4.58-2.31-5.83-4.87-6.2-3.81,2.27-4.89,2.12a6.39,6.39,0,0,0-3-.1,1.81,1.81,0,0,0-1.08,2.22,10,10,0,0,0,.66,2,42.46,42.46,0,0,0-2.23,6.89c-.45,2.41.08,5.46,1.37,7.07a8.79,8.79,0,0,1-2.3-.92c-1.72-.94-5.43-7.32-10.64-18.14,2.53-12.17,5.17-24.59,5.68-25.45a18.35,18.35,0,0,1,1.39-1.67c2.09-2.36,5-5.59,3.3-7.49s-4.53.1-6.34,1.51c-.42.33-.8.63-1.13.84s-.41.22-.51.18c-.25-.1-.43-.89-.56-1.42a5.76,5.76,0,0,0-.47-1.46,1,1,0,0,0-1.18-.57c-.93.23-2,1.92-2.11,5.9,0,1.78-1.63,8.75-3.82,17.23q-2.3-5.12-4.84-11l-.39-.9c-.33-.74,0-1.95.36-3.11.39-1.32.75-2.57.2-3.41a1.57,1.57,0,0,0-1.09-.74c-1.11-.17-2.39.87-3.74,2-.8.65-2.14.35-3.68,0a11.65,11.65,0,0,0-4-.4c-1.5.2-1.77,1-1.8,1.39-.08,1.19,1.57,2.66,3.61,3.22s4.06,4.9,4.62,6.48c.29,1.11,1.47,4.67,3.11,9.6,1.08,3.25,2.37,7.14,3.72,11.28-1.79,6.35-3.63,12.46-5.17,17.08.16-4.43,0-9.47-1.88-11.14a9.79,9.79,0,0,0-6.5-2.61s-5.27-.25-7.48,4c-.65,1.23-1.91,3.2-3.39,5.4l-1.14-23.1c-.1-2,0-6.29.21-10.81a5.75,5.75,0,0,0,3.65-4.34,1.64,1.64,0,0,0-.9-1.77,5.83,5.83,0,0,0-2.44-.13c.26-4.38.55-8,.74-8.76.07-.24,1.59-6,.43-6.53-.55-.26-1,.43-1.22.72-.58.86-.82.91-.81.92a5.79,5.79,0,0,1-.71-1.89c-.1-.37-.22-.76-.34-1.18a3.31,3.31,0,0,0-1.6-2.17,2.18,2.18,0,0,0-1.65-.08h0c-3.15,1.39-2.4,5.21-1.6,9.24a35.41,35.41,0,0,1,.85,6.2c0,.08,0,.2,0,.3a1.54,1.54,0,0,0-1-.64,2.6,2.6,0,0,0-2.14.32c-.94.63-1.48,1.9-1.59,3.77-.28,4.33-1.24,6.43-2.15,7.92-.74,1.2-21.06,30.8-26.68,36.64a8,8,0,0,1-6,2.39,10,10,0,0,0,2.64-3.27c4.09-7.38-1.83-12.61-2.55-13.21a3.67,3.67,0,0,0,0-2.15c-1.38-3.57-3.35-2.34-3.35-2.34s-5-1.8-9.45,4-17.14,19.59-17.33,28.65-6.8,12.21-4.14,16.15c2.22,3.28,6.62,8.81,12,5.5-1.39,9.36-1.66,17.9.4,21a86.41,86.41,0,0,0-.88,14.32c.27,6.79,1.14,31.27,1.15,31.48l-1.77,58.2v.43l19.05,1.12,0-.5a7.17,7.17,0,0,0-3.37-5.36,14.28,14.28,0,0,0-3.25-1.24c-1.92-.55-3.44-1-3.72-2.78s.71-13.32,1.44-21.63c.46-5.24.83-9.38.83-10.51,0-2.52,3.24-24.43,4.17-30.73,2.44,6.55,5,13.28,5.05,13.37s5.68,19.18,6,27.66.59,31,.59,31.24V503h38.31l0-.42a9.91,9.91,0,0,0-1.17-4.26c-.74-1.56-2.91-2-5.2-2.52-1.89-.4-3.84-.82-5-1.85-1.81-1.6,1.12-28,3.39-44.22a16.25,16.25,0,0,0,3.25.36,8.64,8.64,0,0,0,4.58-1.12,16.74,16.74,0,0,1,5.57-2c.48,2.41,3,15,5.55,27.63,1.41,7,2.83,14,3.9,19.28,1.77,8.65,1.86,9.12,2.23,9.12H303.2l-1.46-8.62-.21,0,.42-5,3.35,0,1-5.13H304c.35-12.32,1.26-35.48,2.31-37.89.42-1,1.61-3.45,3.12-6.61,1-2.13,2.14-4.48,3.24-6.81,0,4,.18,13,.35,15.61.21,3.29,10.1,31.36,11.47,35.23l-1.92.67,2.68,4.4,3-.9,1.15,3.41a3.53,3.53,0,0,0-1.77,2.62c-.11.83-1.41,1.22-2.91,1.67a13.48,13.48,0,0,0-3.28,1.31c-2.55,1.61-2.1,5.35-2.08,5.5l0,.36.36,0c.17,0,2.43.18,4.89.18a20.34,20.34,0,0,0,5.28-.5,17.62,17.62,0,0,0,3.93-2.16,8.55,8.55,0,0,0-.85,2.13l-.12.54h19.31v-.44c0-.23.23-22.7.59-31.24.33-7.84,5.16-24.64,5.93-27.3l6.5.93.14-.3c.07-.14.36-.8.8-1.84l1.41.09c.08,2.45.49,15.42.49,18.11,0,1.13.37,5.26.83,10.5.74,8.31,1.74,19.7,1.44,21.63s-1.8,2.22-3.72,2.78a14.27,14.27,0,0,0-3.25,1.24,7.18,7.18,0,0,0-3.37,5.36l0,.5L379,501.93l-1.78-58.4,4.12.26v-.47c0-.07.1-7.5,0-25.42-.08-15.3-2.82-19.56-3.78-20.59,4.17-7.22-2.14-38.3-6.87-48.94,2.86-1,3.08-4.57,2.23-6.1-1-1.76.34-5.33,1.67-5.72s4.63-1,5.22-5.44a5.18,5.18,0,0,0-.62-3.31l1.81-1.21A5.08,5.08,0,0,0,383.69,327.35Zm-29.8,12.14a9.12,9.12,0,0,1,1.53-11.34c-.16,2.11,1.46,3.95,1.48,4.17.34,2.91.84,3.3,2,2.36s2.27-2,2.66.1-2.36,2-3.35,4.14c-.5,1.06-.11,2.65.76,4a2.43,2.43,0,0,1-1.27.19C356.4,342.92,355.12,341.71,353.9,339.49Zm-16.37,4.68c0-.25,0-.52,0-.78a124.89,124.89,0,0,0,8.69,12.77c1.6,2-.09,11.33-1.58,19.56-1.31,7.23-2.66,14.7-2.16,18.51a5.8,5.8,0,0,0,2.71,3.87l-4.18,43.42,4.39.63c-2.66,18.95-2.15,27.23-1.65,35.23.11,1.79.22,3.58.3,5.49.28,6.66-.13,9.58-1.53,11.14a8.65,8.65,0,0,1-3.64,2c-.28.1-.54.22-.8.34l-2.4-6.21-.11,0-.48-4.32,3.08-.91-1.06-5-1.6.48c-.33-3.7-2.33-25.8-3.2-31.69-.92-6.2.46-51.81.54-54.43a14.08,14.08,0,0,0,2.38-4c1.64-3.85,1.72-15.24,1.8-27.29C337.13,356.32,337.17,349.37,337.53,344.17Zm-17.76-36.25c-1.1-2.62-4.66-5.31-8.27-6.24a5,5,0,0,1-3.67-3.81c0-.32,0-.74.37-.89a8.77,8.77,0,0,1,2.92,0c2,.18,4,.36,4.91-.5a1.49,1.49,0,0,0,.47-1.18c-.06-2.12.85-2.27,1-2.3a1.71,1.71,0,0,1,1.37.21c.69.46,1.1,1.53,1.2,3.09.29,4.52,1.31,6.75,2.28,8.33.27.43,3.08,4.56,6.83,9.93-.32,3.32-.69,6.82-1,10.07C323.54,316,320.2,308.94,319.77,307.92Zm-11.18,25.71a37.11,37.11,0,0,1,1.78-5.7,2.81,2.81,0,0,1,0,1c-.27,1.48-1.36,3.77-.54,6.89.54,2.09,1.15,3.63,2.49,4.66l-.12,0a15,15,0,0,1-1.55.17C308.95,340,308.1,336.3,308.59,333.63Zm-13.48-41.78c.07-3.56,1-4.94,1.44-5.05,0,0,.09,0,.19.14a5.25,5.25,0,0,1,.38,1.23c.2.87.41,1.77,1.09,2a1.43,1.43,0,0,0,1.32-.26c.34-.23.75-.54,1.19-.88,2.13-1.66,4-2.93,5.13-1.62s-1.63,4.44-3.29,6.32a18.3,18.3,0,0,0-1.47,1.78c-.54.83-2.66,10.62-5.56,24.61-1.42-3-2.94-6.26-4.56-9.84C293.33,301.16,295.08,293.55,295.11,291.85Zm-11.49,20.06c-1.63-4.91-2.81-8.46-3.1-9.58-.09-.26-2.27-6.26-5.24-7.07-1.84-.5-3-1.72-3-2.31,0-.39.73-.53,1-.57a5.32,5.32,0,0,1,.73,0,14,14,0,0,1,2.94.44c1.7.37,3.31.73,4.43-.19s2.33-1.88,3.05-1.78a.69.69,0,0,1,.49.35c.33.49,0,1.6-.31,2.67-.38,1.32-.78,2.68-.32,3.72l.39.89c6.38,14.74,17.66,39.79,21.62,42a7.94,7.94,0,0,0,6,1c.4-.06.82-.12,1.28-.17a8.11,8.11,0,0,0,1.35.42,10.48,10.48,0,0,0,4.62.11c3.16.6,5.4.43,6.64-.51a2.88,2.88,0,0,0,1.15-2.23c0-.3.21-1.9.46-4.12,2.73-23.46,3.52-33.58,2.73-34.93-.41-.7-.7-1.15-.91-1.48-.43-.67-.44-.68-.41-1.15a4.93,4.93,0,0,0-.61-3.35,8.84,8.84,0,0,1-1.47-3h0c.2,0,.68.48,1,.76.67.66,1.69,1.66,2.63.8a5.06,5.06,0,0,0,1-1.85c.43-1.15,1-2.58,1.93-3a2.14,2.14,0,0,1,1.74.21c1.82.87,1.48,2.46.72,5.2a12.51,12.51,0,0,0-.67,5.36c.69,4,2.18,31.27,1.2,45.64-.36,5.23-.4,12.19-.45,18.92-.08,11.44-.16,23.26-1.73,27-2.49,5.85-5.58,8.38-23,6.23-17.76-2.18-20.69-2.71-20-8.67a67.9,67.9,0,0,1,2.33-9.53c1.7-5.86,3.62-12.5,3.58-18.08C297.29,353.09,288.4,326.3,283.62,311.91Zm8.34,132c.61,3.48,2.91,36,3.21,40.33H292.4c-.46-4-4.25-36.32-4.38-39.66s6.06-44.88,6.85-50.2a53.79,53.79,0,0,0,9.35,1.82C302.76,401.15,291.32,440.27,292,443.9Zm-1.29,45.65,3.18,0,.58,4.7a5.78,5.78,0,0,0-2,1.38,2.31,2.31,0,0,1-1.18.58c-1-1.08-3.62-1.08-6.16-1.06-.69,0-1.36,0-2,0a3.07,3.07,0,0,1-3-2.36l-4.66-44.87c6,1.77,9.38-.94,9.53-1.06l.17-.14L282.31,399a4.22,4.22,0,0,0,1.79-.87c2-2.26,1.73-8.68,1.54-14.35-.07-2.09-.14-4.06-.09-5.58.19-5.42,2.84-20.61,4.32-26.7.35-1.45,1.16-5.3,2.2-10.3,2.48,8.36,4.36,15.64,4.39,18.71,0,5.44-1.86,12-3.54,17.82a68.26,68.26,0,0,0-2.36,9.67c-.4,3.47.42,5.34,3.46,6.61-.7,4.7-7,47.08-6.89,50.55s3.85,35.14,4.38,39.62H289.6ZM263.54,297c.35.15.39.57.37.89a4.83,4.83,0,0,1-2.72,3.44c.07-1.47.14-3,.22-4.38A5.91,5.91,0,0,1,263.54,297Zm-7.14-4.48a36.11,36.11,0,0,0-.86-6.36c-.87-4.43-1.29-7.2,1.08-8.26a1.28,1.28,0,0,1,.93.06,2.49,2.49,0,0,1,1.13,1.63c.13.4.23.79.34,1.15.41,1.45.68,2.4,1.41,2.52s1.23-.6,1.7-1.29l.07-.09a26.82,26.82,0,0,1-.86,5.18c-.51,1.92-1.55,21-1.29,26.1l1.2,24.29c-3.47,5.12-7.67,11.05-8.09,12.43-.64,2.09,3,4.92,3,4.92l4-4.28-2.41,5.12s7.51,7.16,17.63,4.87l.25-2.56.64,2.61s3.4-.3,5-2.51-.44-7.46-.34-10.59c0-.79.14-2.17.25-3.82,1.68-4.6,3.77-11.42,5.82-18.64,1.54,4.73,3.12,9.73,4.55,14.46-1.19,5.77-2.14,10.29-2.53,11.87-1.5,6.13-4.15,21.23-4.35,26.87-.05,1.56,0,3.54.09,5.65.18,5.23.4,11.74-1.32,13.74s-29.42,4.19-40.53-.44c-3.16-1.32-4.68-3-4.52-5.11.5-6.42,4-18.65,6.85-28.48,2.27-7.88,4.06-14.09,3.88-15.72s1.62-13.73,3.36-25.39C254.43,309.34,256.46,295.79,256.41,292.49ZM238.37,395l-10.43,44.3c-.24-14.93-.88-30.27-2.28-40.67,2.09-1.23,3.32-2.72,3.54-4.38.5-3.81-.86-11.28-2.16-18.51-1.49-8.23-3.18-17.56-1.57-19.56,11.26-14,26.33-45.53,27.32-47.89a6.59,6.59,0,0,1,1.14-1.73c-.68,4.82-1.5,10.33-2.32,15.77-1.91,12.79-3.56,23.84-3.36,25.62.16,1.45-1.79,8.22-3.85,15.38-2.84,9.87-6.38,22.15-6.89,28.66A4.46,4.46,0,0,0,238.37,395Zm-21.78,6.47a38.35,38.35,0,0,0,3.79-.76,22.55,22.55,0,0,0,4.44-1.64c3,22.45,2.46,67.39,2,81.82a19.4,19.4,0,0,0-3.08-.28c0-2.74-.15-17.76,0-23.74C223.9,450.5,217.35,406.49,216.59,401.45Zm-.81-73.81a9.37,9.37,0,0,1,2.05,11.84c-1.23,2.22-2.5,3.43-3.78,3.6a3.52,3.52,0,0,1-2.8-1.32c-.14-.15-.36-.38-.67-.22l-.23.5.44-.09v0l-.29.31.09.09c.11.12.3.31.53.51l-1.05-.07C210.82,336.84,214.49,331.36,215.78,327.65Zm-20.93,48.14a15,15,0,0,0,2.33-2.41c6.89-8.76,3.74-10.14,10-14.38s3.35-4,2.76-13.2a15.57,15.57,0,0,1,0-2.1c.76,0,1.53.09,2.31.16,3.59.33,7.31.67,10.32-2.45,5.65-5.87,26.06-35.58,26.8-36.79,1-1.58,2-3.81,2.28-8.33.1-1.55.51-2.62,1.19-3.08a1.76,1.76,0,0,1,1.47-.2s.94.16.88,2.28a1.36,1.36,0,0,0,.06.41c-.24,2.34-.66,5.59-1.18,9.36a8.68,8.68,0,0,0-2.16,2.85c-.95,2.25-16.2,34-27.19,47.68-1.86,2.31-.28,11,1.39,20.27,1.3,7.16,2.64,14.57,2.16,18.24-.18,1.4-1.27,2.67-3.11,3.74l-.53.08,0,.22a21.61,21.61,0,0,1-4.55,1.69c-8.75,2.29-21.9,1.6-25.12-2.7C192.94,394.33,193.34,385.44,194.84,375.79Zm-.63,105.57a13.41,13.41,0,0,1,6.87,0c-.46,5.69-.78,10.63-.58,11.93,0,.09,0,.17.07.25-1.15.35-4.69,1.3-6.73.32Zm10.64,15.43A13.55,13.55,0,0,1,207.9,498a6.23,6.23,0,0,1,2.85,4.15l-17.14-1,.19-6.26a6.84,6.84,0,0,0,2.34.36,17,17,0,0,0,4.72-.8C201.58,495.84,203.17,496.31,204.85,496.8Zm14.94-25.49c-.37-8.6-5.84-27.1-6.09-27.91-.08-.21-7.91-20.72-9.22-24.94s-1.83-6.59-1.84-6.61l-.87.19s.54,2.43,1.86,6.68c.5,1.61,1.94,5.57,3.54,9.87-.32,2.14-4.42,29.5-4.42,32.45,0,1.09-.38,5.42-.83,10.43-.26,2.9-.53,6-.78,9a14.35,14.35,0,0,0-6.91-.06l1.13-37.13c0-.25-.88-24.72-1.15-31.52a83.85,83.85,0,0,1,.77-13.39c2.63,2.46,8.36,3.64,14.41,3.64a47.44,47.44,0,0,0,6.61-.48c.72,4.8,7.3,49.08,7.14,55.3-.16,6,0,21,0,23.76a19.14,19.14,0,0,0-3.08.29C220,477.14,219.9,473.68,219.79,471.31Zm.5,23.53c-.05-3.85-.12-8.6-.21-13a19.16,19.16,0,0,1,6.7,0c0,.37,0,.73,0,1-.21,5,0,8,.68,9.92-1.55,3.4-7.06,2.1-7.12,2.08Zm17.21,7.3H220.38c0-.94,0-3.32-.08-6.4a12.38,12.38,0,0,0,2.45.25c1.76,0,3.94-.42,5.13-2.24a5.2,5.2,0,0,0,.62.85,9.45,9.45,0,0,0,4,2.27,8.64,8.64,0,0,1,5,4.89Zm-4.7-6.1a8.67,8.67,0,0,1-3.64-2c-1.41-1.56-1.81-4.48-1.53-11.14.26-6.17.57-22.27.37-39.63a7.29,7.29,0,0,0,3.29,2.16,13,13,0,0,0,5.42.38c.91-.06,1.8-.12,2.64-.1l-1.78,54.23A9.34,9.34,0,0,0,232.8,496Zm18.47.65c2.08.45,4,.87,4.59,2a11,11,0,0,1,1.07,3.42H238.6c0-.15-.11-.34-.19-.56l.2-6a5.86,5.86,0,0,0,2.71.69,6.12,6.12,0,0,0,4.31-2,1.16,1.16,0,0,0,.25.36C247.2,495.82,249.27,496.26,251.27,496.69ZM249,449.63c-.91,6.48-5,36.68-3.64,43.68-3.07,3.31-6,1.73-6.7,1.24l1.6-48.8A5.25,5.25,0,0,1,243,446.8a17.16,17.16,0,0,0,6.75,2.93Zm8.23-1.38c-3.72,2.32-10.69.25-13.67-2.14-1.95-1.56-4.46-1.39-6.89-1.22a12.18,12.18,0,0,1-5-.32c-3-1.12-3.31-2.51-3.35-2.77l10.84-46a11.12,11.12,0,0,0,3.48,2.15c5,2.07,13.32,2.85,21.27,2.85,7.15,0,13.94-.63,17.6-1.54l2.83,47c-.75.53-3.88,2.35-9.15.58C268.52,444.61,261,445.91,257.21,448.25Zm6.91-1.41a23.34,23.34,0,0,1,10.45.75l4.7,45.27a3.83,3.83,0,0,0,.42,1.08c-1.51,2.46-4.94,1.48-5.84,1.17C271.47,483.5,266.9,460.77,264.11,446.84Zm11.2,55.29c-.18-.77-.63-2.94-1.26-6a8.52,8.52,0,0,0,2.32.34,4.6,4.6,0,0,0,3.87-1.73,3.88,3.88,0,0,0,2.84,1.26c.62,0,1.3,0,2,0a15.62,15.62,0,0,1,5,.44,33.12,33.12,0,0,1-3.85.45c-3.47.24-4.47,4-4.7,5.25Zm26.84,0H282.44c.25-1.2,1.14-4.18,3.86-4.37,5.9-.4,6.6-1.35,6.83-1.66a5.63,5.63,0,0,1,1.88-1.19h5.92Zm-7.4-12.64,6.3-.08-.38,4.62H295.3Zm10.47-4.38-.66,3.37-13.16.17-.71-3.54h14.53Zm8.67-36.64c-.21-3.24-.35-16.15-.37-17.38,2.39-5.08,4.52-9.76,5-11.39a38,38,0,0,0,1-9.39l-.89,0a37.87,37.87,0,0,1-1,9.12c-.74,2.5-5.75,13-9.06,19.9-1.51,3.17-2.71,5.67-3.13,6.64-1.33,3-2.27,34-2.39,38.24h-7.33c-.3-4.23-2.59-36.86-3.22-40.43-.51-2.9,7.73-32.12,12.27-47.53,1.93.26,4.09.52,6.52.82a85.63,85.63,0,0,0,10.21.75c5.23,0,8.34-.9,10.44-2.67-.22,7.13-1.39,47.7-.5,53.68s2.93,28.67,3.22,31.82l-9.37,2.8C324,479.78,314.1,451.6,313.89,448.47Zm11.75,39.32-1.75-2.89,1.28-.45,10.17-3,1.15-.34.69,3.29Zm3.49-.11,5.15-1.53.41,3.66L330.26,491Zm.56,14c-2.25.72-7.93.4-9.45.3,0-.89,0-3.23,1.7-4.28a12.59,12.59,0,0,1,3.07-1.21c1.72-.52,3.35-1,3.54-2.4a2.69,2.69,0,0,1,1.58-2.1l4.85-1.33,2.34,6C336.24,497.56,332,501,329.69,501.68Zm21.66.46H334.07a8.72,8.72,0,0,1,5.17-5.27,9.45,9.45,0,0,0,4-2.27,5.19,5.19,0,0,0,.62-.85C345,495.57,347.21,496,349,496a12.39,12.39,0,0,0,2.45-.25C351.38,498.82,351.36,501.2,351.35,502.14Zm.09-7.31h0c-.06,0-5.57,1.32-7.12-2.08.71-1.92.88-4.87.68-9.92,0-.36,0-.7-.05-1a19.13,19.13,0,0,1,6.71,0C351.56,486.23,351.48,491,351.43,494.83Zm.5-23.52c-.1,2.38-.19,5.83-.27,9.58a19.77,19.77,0,0,0-6.77,0q-.1-1.81-.21-3.57c-.52-8.32-1-16.2,1.64-35l11.53,1.65C357,447,352.27,463.37,351.93,471.31Zm26.18,29.79-17.14,1a6.23,6.23,0,0,1,2.85-4.15,13.55,13.55,0,0,1,3.05-1.16c1.68-.48,3.27-1,4-2.4a17,17,0,0,0,4.72.8,6.84,6.84,0,0,0,2.34-.36Zm-.22-7.21c-2,1-5.58,0-6.73-.32,0-.09.05-.16.07-.25.2-1.3-.12-6.24-.58-11.93a13.37,13.37,0,0,1,6.87,0Zm-.41-13.46a14.34,14.34,0,0,0-6.91.06c-.25-3-.52-6.11-.78-9-.44-5-.83-9.33-.83-10.42,0-2.68-.4-15.41-.49-18.06l7.88.49Zm3-62.52c.08,15.42,0,23.06,0,24.93l-14-.87c2.64-6.38,8.69-22.51,6.95-32.42l-.87.15c2,11.27-6.71,31.58-7.91,34.3L342,440.76l4.05-42.12a22.19,22.19,0,0,0,5.94,2.25,45.22,45.22,0,0,0,10.47,1.2c6.33,0,12.24-1.3,14.59-4C377.93,399.1,380.41,403.37,380.49,417.9Zm-3.81-20.75c-3,4.26-15.58,5.05-24.45,2.88-5.28-1.29-8.5-3.45-8.82-5.92-.48-3.67.86-11.07,2.16-18.24,1.67-9.24,3.25-18,1.39-20.27a129.29,129.29,0,0,1-9.3-13.82c.2-4.4.23-9.66.14-15,4.65,6.43,9.09,12.34,11.3,14.63,3.06,3.18,6.75,2.89,10.33,2.61l.42,0a4.14,4.14,0,0,0,2.67,1.32c2.81.1,2.41,3.55,6.7,3.35a5.6,5.6,0,0,0,.67-.07C374.49,358.78,381,390.95,376.68,397.15Zm2.24-69.85a6.84,6.84,0,0,0-.95-1.07l1.52-1.08a5.13,5.13,0,0,0,1,1.08Z"/><path d="M464.71,347.44a27.07,27.07,0,0,0-3.37-1.45c-2.45-.92-4.57-1.72-4.77-3.74a8.65,8.65,0,0,1,.06-2.09,11.9,11.9,0,0,0,4.78-1.19,4,4,0,0,0,1.38-3.64c-.1-1.9-1.38-2.88-2-4.38s1.58-4.41,1.58-6.45-2.81-4-4.58-5.37-4.19-.42-5.66-.15-3.52-1.62-5.61-1.62-3.52,2.46-3.89,4.43,1.55,1.9,1.72,4.63a13.52,13.52,0,0,0,.21,1.91h0l-.15.1c-.29.2-2.25,2-2.51,3.44a10.38,10.38,0,0,0,.14,2.66,8.93,8.93,0,0,1,.13,2.47.84.84,0,0,0-.34.7c0,.62.74,1.13,1.54,1.62a5.59,5.59,0,0,1,.08,1.38c0,1.5,0,3.57,1.34,4.14a3.48,3.48,0,0,0,2.93-.36c.44-.21.86-.41,1-.34a24.15,24.15,0,0,1,0,5.36c-.92,1.38-10.56,15.82-12.39,17.66-1.25,1.25-10.6,3.31-16.19,4.54-3,.66-5.33,1.17-6.1,1.45-1.15.43-2.11-.18-3.12-.83a5.34,5.34,0,0,0-2.52-1.06,2,2,0,0,0-2,.9,2.7,2.7,0,0,0,.36,2.74.25.25,0,0,1,.06.18c-.09.28-1,.66-1.59.94a5.39,5.39,0,0,0-2.62,1.77,3,3,0,0,0,.15,2.83,4.38,4.38,0,0,0,2.93,2.45l.22,0c1.17,0,3.08-1.13,5.6-2.7a16.86,16.86,0,0,1,3-1.66c.37-.08,1.75-.19,3.49-.33,4.68-.37,12.5-1,16.05-2.15,3.81-1.23,8.73-4.24,10.84-5.6-2.41,7.84-5.21,18.85-2.82,21.48a7.09,7.09,0,0,0,3.38,1.55c-.57,3.26-4.91,28-8.82,42.5-1.56,5.77-3.75,14.06-6,22.44-3.76,14.23-7.66,28.94-8.49,31.55-1.21,3.78-5.17,5-11.16,5.82s-6.44,7.13-6.44,7.19l0,.45.45,0c2.3.12,9.64.48,16.09.48,5.32,0,10-.24,10.77-1.06a.7.7,0,0,0,.19-.58,10.27,10.27,0,0,0-.79-2.5,8.56,8.56,0,0,1-.87-3.56c0-1.28,4.57-12.25,8.58-21.92,3.86-9.3,7.85-18.92,9.31-23.31s5-10.69,8.74-17.49l1.55-2.81c.52,4.13,2.21,16.25,4.72,20.09,2.08,3.19,16.61,17.24,26.23,26.55,4.21,4.07,7.53,7.29,8.48,8.3a9.74,9.74,0,0,1,2.21,7.52,5.34,5.34,0,0,1-1.93,3.91,21.58,21.58,0,0,0-5.46,6.18l-.39.67h12l.13-.17c2.39-3,10.14-12.89,9.33-15-.54-1.43-2.89-2.39-5.36-3.41a20.85,20.85,0,0,1-3.85-1.87c-1.82-1.33-17.64-27.93-24.4-39.29-1.86-3.13-3.25-5.47-3.84-6.43-2.87-4.69-6.86-39.78-6.9-40.13h0a49.25,49.25,0,0,0-.24-5.82c2.85-2.65,2.88-9.81,2.25-14.09,6.27,11.23,12.19,22,12.36,23a17.77,17.77,0,0,1,0,4.63c0,.4-.29,3.91,1,4.64A1.15,1.15,0,0,0,486,410a4.51,4.51,0,0,0,1.34-1.79l.11-.22h0a7,7,0,0,1,.23,2.43c0,2.09,0,4.69,1.82,4.69,2.23,0,4-2,4.86-5.43.81-3.25,0-5.35-1.9-8.32-.58-.9-1-1.49-1.36-2a10.63,10.63,0,0,1-2-4.34c-.53-1.78-2.54-6.56-4.88-12.09-2.84-6.72-6.05-14.35-6.79-17.14C476.1,360.57,468.34,349.41,464.71,347.44Zm-20.07-18.69,0,.12-.05-.09Zm2.64,14.93a2.65,2.65,0,0,1-2.21.35c-.82-.35-.81-2.06-.8-3.32s0-1.79-.49-2.11c-.72-.46-1.1-.78-1.12-.9.53-.42.42-1.46.2-3.27a10.52,10.52,0,0,1-.15-2.39,7.59,7.59,0,0,1,2.12-2.86c.21.41.53.86,1,1.72,1,1.83,4.29,2.2,5.46,2.42a4.85,4.85,0,0,0,2.17,3.15.74.74,0,0,0,1-.19,1.26,1.26,0,0,1,.24-.28,1.75,1.75,0,0,1,.58.07l.64.34c.47.27.41.75.12,2.08a11.68,11.68,0,0,0-.35,3.85,3.52,3.52,0,0,0,.76,1.86c-.49,2.9-5.28,4.42-6.95,4.86.18-2.93.15-5.16-.24-5.51C448.67,343,448,343.36,447.27,343.68Zm-13.69,31.75c-3.46,1.12-11.22,1.74-15.85,2.11-1.91.15-3.17.25-3.6.34a14.61,14.61,0,0,0-3.28,1.77c-1.82,1.13-4.34,2.67-5.23,2.56a3.53,3.53,0,0,1-2.26-2,2.2,2.2,0,0,1-.17-2,5,5,0,0,1,2.2-1.39c1-.44,1.89-.82,2.09-1.5a1.08,1.08,0,0,0-.17-.92,1.88,1.88,0,0,1-.33-1.82,1.29,1.29,0,0,1,1.22-.45,4.63,4.63,0,0,1,2.09.92c1.1.7,2.34,1.49,3.9.91.71-.26,3.16-.8,6-1.42,8.32-1.83,15.31-3.45,16.63-4.78,1.65-1.65,9-12.53,11.63-16.49-.42,5.22-1.23,11.76-2.08,14.26-.36,1.06-.79,2.35-1.24,3.78C444.18,370,438,374,433.58,375.43Zm-10.77,115c.84-2.63,4.74-17.35,8.5-31.59,2.22-8.38,4.41-16.67,6-22.44,3.9-14.48,8.23-39.12,8.83-42.53a46.93,46.93,0,0,0,9,.77h.74l-30.65,99a9,9,0,0,1-3-1.8A7,7,0,0,0,422.82,490.46Zm7.42,9.89a9.93,9.93,0,0,1,.71,2.18c-1.25.93-13.82.88-25.64.28.22-1.35,1.23-5.34,5.62-5.92,4.22-.56,8.75-1.44,10.95-4.56.86.8,3.28,2.6,7.75,2.7a6.21,6.21,0,0,0-.33,1.41A9.26,9.26,0,0,0,430.24,500.35Zm25.81-67c-3.79,6.83-7.37,13.28-8.81,17.64s-5.43,14-9.28,23.25c-4.13,10-7,16.94-8.13,20.26a13.76,13.76,0,0,1-4.06-.63l30.71-99.17c4.86-.11,9.55-.79,11.79-2a55.69,55.69,0,0,1-1.69,18.91C465,417.1,460.47,425.34,456,433.31Zm48.33,51.33a25.11,25.11,0,0,0,3.63,1.71c2.09.86,4.47,1.83,4.87,2.9s-4.24,8-9.06,14h-10a19.56,19.56,0,0,1,4.76-5.22,6.11,6.11,0,0,0,2.32-4.54,11.4,11.4,0,0,0-.65-5.23A6,6,0,0,0,504.38,484.64Zm-28.89-46.23c.59,1,2,3.29,3.84,6.42,11.56,19.43,22.5,37.59,24.53,39.45-.61,2.26-2.93,3.16-3.84,3.43a8.68,8.68,0,0,0-1.57-2.45c-1-1-4.3-4.26-8.51-8.33-9.59-9.27-24.08-23.29-26.1-26.39-2.73-4.18-4.55-19.4-4.73-20.94,3.65-6.64,7-13.14,8.33-17.84a52.71,52.71,0,0,0,1.62-8.88C470.28,412.87,473.17,434.62,475.49,438.42ZM488.3,395.3a11.36,11.36,0,0,0,2.12,4.62c.34.46.76,1,1.33,1.92,2,3.19,2.45,5,1.79,7.63-.76,3-2.21,4.76-4,4.76-.91,0-.93-2.2-.94-3.8s0-2.47-.41-3a1,1,0,0,0-.81-.49c-.41,0-.59.42-.8.86a3.65,3.65,0,0,1-1.07,1.46c-.09.07-.26.17-.36.12-.4-.22-.73-1.83-.56-3.79a18.78,18.78,0,0,0,0-4.82c-.23-1.81-18.24-33.62-20.29-37.24l-.77.44c2,3.45,4.15,7.33,6.35,11.26l-.05,0c1,1.94,2.17,13.23-1.46,16.22s-23,3.11-25.82,0c-2.18-2.4,1-14.85,4.66-25.71.72-2.14,1.82-10,2.24-15.85,1.38-.34,6.64-1.82,7.74-5.06a14.5,14.5,0,0,0,3.85,1.89,25.93,25.93,0,0,1,3.26,1.4c3.42,1.85,11,12.84,12.34,17.82.75,2.86,4,10.51,6.83,17.26C485.68,388.58,487.78,393.57,488.3,395.3Z"/><path d="M160.78,435c0-2.42-2.89-5.23-3-5.35l-.1.11c.39-.85.58-1.4.59-1.42l.09-.26-.2-.19c-.12-.12-6.36-6.19-12.69-12.46-.41-.88-4.91-10.47-7.24-12.94-1.65-1.75-2.65-17.3-2.91-27.33h0a23.87,23.87,0,0,0-.14-4.19c-.53-3.55-3.29-8.76-5.36-10.13a6.41,6.41,0,0,1-2.56-3.13c.26.11.6.27.88.41a7.44,7.44,0,0,0,3.56,1.09,1.31,1.31,0,0,0,.88-.53c.82-1.08.6-3.55.28-5.82l0-.28c-.05-.4.48-.91.88-1.28s1-.93.59-1.44a2.54,2.54,0,0,0-.34-.35,3.09,3.09,0,0,1-1.05-2.19,3.38,3.38,0,0,0-1.87-2.84l-.28-.13a18.65,18.65,0,0,0-1-3.61c-.87-2.16-10.56-4.6-13.81,1.21s-2.88,8.91-6.8,9.43-9.16,1.77-11.37,3.69-5.76,8.64-1.4,10.49,6.5,2.36,6.43,5a2.57,2.57,0,0,0,2,2.76c-2.55,8.62-4.86,19.56-4.33,22.36.18.93.38,2.56.65,4.61.17,1.35.37,2.85.58,4.41-1.87,3.08-4,11.51-3.13,18.16.82,6.4-2.64,23.22-2.68,23.39l0,.13,0,.12c0,.12,1.14,2.87,5.13,2.87h.08a26.86,26.86,0,0,0,3.72-.39L94.31,500.43l0,.23.14.13c.34.33,3,.44,6.55.44,4.59,0,10.66-.19,15.06-.36a.66.66,0,0,0,.66-.07c.4-.31.36-1-.15-2.42s-3.31-2.15-6.23-2.79c-2.37-.52-4.82-1.06-5.66-2-1.22-1.84,7.19-28.61,12.84-45.28,3.76.2,8.33-.46,11.89-2.9.68-.46,1.26-.9,1.79-1.3,2.57-1.91,4.08-3,10.92-3.48a20.69,20.69,0,0,1,2.54,1.63c-.29,2.9-9.43,42.71-13,58.07l-.13.54h22.24l0-.41a5.46,5.46,0,0,0-2.2-4.69,14.88,14.88,0,0,0-3.85-1.33c-2.37-.62-5.06-1.31-5.41-2.69-.31-1.56,6.51-21.31,11.48-35.73C158.27,443.22,160.77,435.94,160.78,435Zm-23.22-31.91c1.61,1.71,4.45,7.27,6,10.47-5.3-5.27-10.25-10.27-11.24-11.56-2.09-2.71-1.31-7,.74-13.56a49.71,49.71,0,0,0,1.58-6.94C135,389.23,135.85,401.27,137.56,403.09ZM104,494.15c1,1.19,3.52,1.74,6.15,2.31,2.44.53,5.2,1.14,5.59,2.22a6.45,6.45,0,0,1,.36,1.31c-7.26.27-18.85.55-20.86.18l10.51-51.32.88-.15c3-.51,6.15-1,8.49-.65.47.08,1,.14,1.47.18C113.76,456.64,102,491.84,104,494.15Zm26.67-50.75c-.53.39-1.1.82-1.77,1.27-4.14,2.83-9.76,3.16-13.64,2.51-2.48-.41-5.68.13-8.78.65a38.32,38.32,0,0,1-5.4.67c-3,0-4.11-1.73-4.33-2.19.36-1.76,3.47-17.24,2.66-23.54a35,35,0,0,1,2.46-16.55c.82,5.68,2,11.78,3.64,14.52a37.81,37.81,0,0,1,3.08,6.81c.83,2.24,1.37,3.72,2.28,4.15a2.34,2.34,0,0,0,1.89,0,6.51,6.51,0,0,0,3.22-3.22c.34-.9-.1-2.33-.53-3.71a9.9,9.9,0,0,1-.46-1.83l.58.07c1.16.16,2.48.34,2.92-.43s-.24-1.59-.74-2.22c-1.29-1.62-3.13-1.81-4.6-2s-2.4-.3-2.71-1.29c-.87-2.86-2.45-20.63-.41-24.25,2.14-3.79,7.43-20.36,6.4-25.2l-.87.18c.93,4.33-4,20.5-6.3,24.58s-.53,22.14.33,24.94c.49,1.6,2,1.76,3.46,1.91s2.94.31,4,1.64c.76,1,.66,1.23.66,1.23-.1.17-.78.16-2,0-.3,0-.57-.08-.77-.09a.74.74,0,0,0-.63.27c-.36.46-.14,1.25.31,2.72.35,1.12.78,2.52.54,3.13a5.58,5.58,0,0,1-2.73,2.72,1.53,1.53,0,0,1-1.18.07c-.58-.28-1.16-1.84-1.83-3.65a38.52,38.52,0,0,0-3.15-7c-2.19-3.59-3.52-13.91-4.31-20.08-.27-2.07-.48-3.71-.66-4.66-.71-3.74,4.4-25.43,7.85-31.53a10.44,10.44,0,0,1,9.36-5.31c.41,0,4,0,4.38-1.91a5.06,5.06,0,0,0-.79-2.85c-.5-1-1-2.11-.71-2.88s.63-1.18,1-1.26a.92.92,0,0,1,.79.3.72.72,0,0,0,.7.2c.56-.16.78-1,1.14-2.38a15.33,15.33,0,0,1,.93-2.83c.81-1.63,4.59.18,4.67.22s1.06.41,1.34,2.16a3.94,3.94,0,0,0,1.34,2.71l.11.1c-.09.11-.25.26-.38.38-.53.5-1.26,1.2-1.14,2l0,.29c.15,1,.6,4.23-.1,5.16a.42.42,0,0,1-.29.18,7,7,0,0,1-3.05-1c-1-.5-1.52-.74-1.91-.53a.57.57,0,0,0-.29.45c-.09.9.92,3,3,4.33,1.88,1.24,4.48,6.22,5,9.52s-.18,11.12-2.05,17.08c-1.77,5.67-3.16,11-.59,14.36,2.23,2.9,23.22,23.36,25.69,25.77-.64,1.68-4.6,10.94-13.46,11.33C135.21,440,133.51,441.29,130.68,443.39ZM121.74,357a1.9,1.9,0,0,0,.29-.56,1.27,1.27,0,0,1,0,.13A.78.78,0,0,1,121.74,357ZM141.52,492c.48,1.88,3.31,2.61,6.05,3.32a14.49,14.49,0,0,1,3.59,1.22,4.4,4.4,0,0,1,1.79,3.47H132.68c13.33-57.5,13-58,12.79-58.18a8.68,8.68,0,0,0-1.74-1.27h.16c7.56-.33,11.73-6.67,13.43-10.07.85.86,2.6,2.94,2.57,4.53,0,.87-3.51,11-6.88,20.75C146,476,141.12,490.43,141.52,492Z"/><path d="M349.68,270.11l-1.07.61a21,21,0,0,0-5,3.4c-.24.18-1.41,1.1-1.38,2.1a1.41,1.41,0,0,0,.75,1.16,1.92,1.92,0,0,0,1,.29,7.09,7.09,0,0,0,2.78-.93,9.4,9.4,0,0,1,3.49-1.16c.45,0,1.08,0,1.81,0,3.87.05,11.08.16,17.22-3.85,2-1.29,4.12-2.5,6.19-3.67,4.64-2.62,8.31-4.69,8.56-6.65a1.74,1.74,0,0,0-.59-1.51c-3.08-3-4.78-1.71-8.15.91s-13.55,9.55-18.14,10.08c-3.31.38-3.82,0-3.89-.16s0-.76,2.77-2.77a42.34,42.34,0,0,0,6.19-6c2.25-2.5,4.38-4.87,6.14-5.47,2-.69,8.09-2,14-3.24,3.75-.8,7.63-1.63,10.29-2.27,6.62-1.59,16.63-5.48,18.17-9.14a7.07,7.07,0,0,0,.06-5.87A3.51,3.51,0,0,0,408.6,234a12.15,12.15,0,0,0-9.21,2.11l-.57.42c-3.47,2.53-12.68,9.25-17.23,10.58-5,1.47-11,3.42-14.46,4.74-2.56,1-4.57,3.82-6.34,6.33a32.23,32.23,0,0,1-2.27,3c-1.27,1.39-2.07,2.06-2.41,2-.14,0-.28-.3-.4-.78a1.36,1.36,0,0,0-1.57-1.06c-.82.14-1.59,1-1.46,2.49C352.88,266,351.41,269.09,349.68,270.11Zm3.6-6.36c-.1-1.16.41-1.77,1-1.86h.14a.78.78,0,0,1,.77.64c.13.53.34,1.09.83,1.21s1.42-.43,3-2.15a32.47,32.47,0,0,0,2.31-3c1.72-2.44,3.67-5.21,6.07-6.11,3.49-1.32,9.42-3.27,14.42-4.73,4.65-1.36,13.92-8.13,17.41-10.67l.57-.41a11.51,11.51,0,0,1,8.73-2,2.93,2.93,0,0,1,1.92,1.61,6.48,6.48,0,0,1-.08,5.37c-1.31,3.11-10.24,7-17.76,8.79-2.65.64-6.52,1.46-10.27,2.26-5.88,1.26-12,2.55-14,3.26-1.9.65-4.08,3.07-6.38,5.63a41.92,41.92,0,0,1-6.1,5.95c-2.37,1.7-3.26,2.74-3,3.46s1.58.87,4.51.54c4.63-.53,14.6-7.23,18.43-10.2,3.39-2.63,4.66-3.61,7.38-1a1.17,1.17,0,0,1,.42,1c-.22,1.66-4.13,3.87-8.27,6.21-2.08,1.17-4.23,2.39-6.22,3.69-6,3.91-13.09,3.8-16.89,3.75-.74,0-1.37,0-1.85,0a10,10,0,0,0-3.72,1.22c-1.31.63-2.45,1.18-3.26.67a.85.85,0,0,1-.48-.67c0-.63.83-1.39,1.17-1.62l.05,0a20.5,20.5,0,0,1,4.82-3.3l1.08-.61C351.91,269.49,353.48,266.21,353.27,263.75Z"/><path d="M387.73,256.92a3.35,3.35,0,1,0,3.35-3.35A3.35,3.35,0,0,0,387.73,256.92Zm6.11,0a2.76,2.76,0,1,1-2.76-2.76A2.76,2.76,0,0,1,393.84,256.92Z"/><path d="M367.36,278.8a1.72,1.72,0,1,0,1.72-1.72A1.72,1.72,0,0,0,367.36,278.8Zm2.84,0a1.13,1.13,0,1,1-1.13-1.13A1.13,1.13,0,0,1,370.2,278.8Z"/><path d="M454.12,116.82a12.72,12.72,0,0,1,5.53,5.72l.27.55c1.52,3.1,3.1,6.29,3,7a4.8,4.8,0,0,1-1.41-1L460.32,128c-2-1.81-3.36-3-4.2-2.57-.54.28-.67,1.11-.45,2.77A25.58,25.58,0,0,0,457,133.3c.78,2.24,1.39,4,.7,5.64l-.24.56c-1.19,2.79-2.43,5.68-.79,8.85a34.36,34.36,0,0,0,1.93,3.05c2.4,3.55,5.69,8.41,4.42,11.76s-10.95,22.29-25.52,29.31c-3.76,1.81-8.09,4-12.68,6.22-12.36,6.11-26.38,13-33.32,15.53-3,1.09-4.57,2-5,3a1.78,1.78,0,0,0,.18,1.53c.16.33.25.54.17.74s-.54.56-1.28.86c-4.23,1.69-36.68,24-46.68,36.32-8,9.84-12.63,22.2-12,23.59a.44.44,0,0,0,.37.28h0c.28,0,.68-.24,1.6-1.7a3.44,3.44,0,0,0,.22-.57c3.72-10.81,11.93-18.56,18.16-23.16,9-6.67,15.64-8,19.58-8.86,2.72-.56,4.22-.88,3.94-2.66a1.91,1.91,0,0,0-.78-1.3c-1.33-1-4-.53-6-.22a13.58,13.58,0,0,1-1.81.22l0,0c.43-.5,4.5-5.08,14.71-10.39,2.08-1.08,4-2.2,5.86-3.29,5.63-3.28,10.5-6.11,16.14-5.67a49.53,49.53,0,0,1,7.42,1.29c3.77.87,7,1.62,10.26.15a39.3,39.3,0,0,0,3.72-2c1.89-1.1,2.94-1.7,5.55-1.48,3,.26,5.29-.27,6.47-1.48a3.33,3.33,0,0,0,.88-2.82c-.35-3.2-1.46-5.25-6.06-6.24-2.62-.56-6.16,2.06-9,4.16-1.39,1-3.29,2.44-3.6,2.12a.16.16,0,0,1-.05-.14c0-.42,1-1.16,1.76-1.76,1.07-.84,2-1.56,1.86-2.24-.1-.5-.7-.65-.9-.71-2.55-.67-3.94.7-5.28,2-.23.23-.47.47-.72.69-1.48,1.36-5.65,3.37-8.7,2.5-.76-.21-1.2-.49-1.21-.77,0-.52,1.19-1.56,4.66-2.9a283.64,283.64,0,0,0,30.67-15.58c13-7.61,25.77-20.5,31.85-32.07,6.66-12.68,17.23-36.85,13.22-56.33-2.91-14.11-4.66-18.93-5.94-22.45-.53-1.46-1-2.71-1.42-4.33-1.38-5.12-9.5-22-16-23.26a7.89,7.89,0,0,0-7.34,1.88c-2.07,2.07-2.8,5.32-2.06,9.14.26,1.36.56,2.66.84,3.92,1.2,5.37,2.24,10-.07,14.29a8.51,8.51,0,0,1-2.94,3.54c-1,.7-1.79,1.26-2.71,4.73-1.67,6.33-.3,8.94,4,14.78A19.61,19.61,0,0,0,454.12,116.82ZM444.74,97c.86-3.26,1.54-3.74,2.47-4.4a9.1,9.1,0,0,0,3.12-3.74c2.41-4.48,1.35-9.22.12-14.7-.28-1.25-.57-2.55-.83-3.9-.7-3.57,0-6.71,1.9-8.61a7.31,7.31,0,0,1,6.81-1.72c6,1.19,14.14,17.47,15.58,22.83.44,1.64.9,2.91,1.44,4.38,1.28,3.51,3,8.31,5.92,22.37,4,19.3-6.54,43.33-13.16,55.94-6,11.48-18.74,24.27-31.62,31.83a282.74,282.74,0,0,1-30.58,15.54c-3.39,1.31-5.08,2.49-5,3.48,0,.58.56,1,1.64,1.31,3.15.89,7.48-1,9.26-2.64.25-.23.49-.47.73-.71,1.33-1.32,2.48-2.46,4.71-1.88.33.09.46.19.47.25.06.32-1,1.12-1.65,1.66-1,.77-1.93,1.5-2,2.18a.76.76,0,0,0,.21.59c.65.7,2.14-.39,4.38-2,2.6-1.93,6.18-4.56,8.53-4.06,4.27.92,5.26,2.72,5.59,5.72A2.76,2.76,0,0,1,432,219c-1,1.07-3.23,1.55-6,1.31s-4,.44-5.89,1.55a39,39,0,0,1-3.67,1.92c-3.05,1.38-6.06.69-9.88-.19a49.93,49.93,0,0,0-7.5-1.3c-5.83-.46-10.77,2.42-16.49,5.75-1.85,1.08-3.77,2.2-5.83,3.27-7.82,4.07-12.91,8.21-14.88,10.53-.09.11-.37.43-.19.73s.89.31,2.52,0c1.86-.3,4.4-.71,5.53.11a1.32,1.32,0,0,1,.54.91c.18,1.17-.69,1.41-3.48,2-4,.83-10.68,2.22-19.81,9-6.3,4.65-14.6,12.5-18.36,23.45-.08.24-.13.39-.17.46a6.62,6.62,0,0,1-1,1.33c-.1-1.78,4.38-13.44,12-22.83,10-12.3,42.24-34.46,46.44-36.14.94-.38,1.44-.74,1.61-1.19a1.48,1.48,0,0,0-.19-1.21,1.23,1.23,0,0,1-.17-1.05c.32-.76,1.87-1.65,4.62-2.64,7-2.5,21-9.44,33.38-15.55,4.59-2.27,8.92-4.41,12.67-6.22,13.62-6.56,23.68-24,25.81-29.63,1.38-3.63-2-8.64-4.49-12.3a34.12,34.12,0,0,1-1.9-3c-1.51-2.92-.33-5.68.81-8.35l.24-.56c.78-1.84.1-3.8-.69-6.07a25.1,25.1,0,0,1-1.34-5c-.24-1.81,0-2.12.14-2.17a.26.26,0,0,1,.13,0c.59,0,2.08,1.33,3.4,2.51l1.22,1.08c1.21,1.06,1.8,1.34,2.17,1.06.65-.5-.23-2.37-2.87-7.73l-.27-.55a13.37,13.37,0,0,0-5.74-6,18.86,18.86,0,0,1-5.76-5.08C444.38,105.46,443.13,103.08,444.74,97Z"/><path d="M441.68,212.46a2.84,2.84,0,1,0-2.84,2.84A2.85,2.85,0,0,0,441.68,212.46Zm-5.1,0a2.25,2.25,0,1,1,2.25,2.25A2.26,2.26,0,0,1,436.58,212.46Z"/><path d="M367.65,211.23a2.85,2.85,0,1,0-2.85-2.85A2.85,2.85,0,0,0,367.65,211.23Zm0-5.1a2.25,2.25,0,1,1-2.26,2.25A2.26,2.26,0,0,1,367.65,206.13Z"/><path d="M481.77,174.33c-.46-1.79-1.65-3.12-2.79-3.12h-.06c-.61,0-1.7.47-2.16,3.14-.77,4.49-2.83,7.27-8.34,14.7l-.62.84a84,84,0,0,1-7.09,8.2c-2.83,3-5.07,5.34-5.81,8a10.62,10.62,0,0,0-.46,4.1,3.42,3.42,0,0,1-.82,2.75,7.47,7.47,0,0,1-1.1,1.37,10.19,10.19,0,0,1,0-1.47v-.37c.05-1.58-1.07-3.39-2.3-3.73a1.64,1.64,0,0,0-1.95,1,11,11,0,0,0-.64,4.32c-.11,3.06-.25,6.86-2.7,9-3.75,3.26-15.19,6.94-21.35,8.6-5.12,1.38-6.14,6.9-6.48,8.72l0,.18a2.09,2.09,0,0,0,.41,1.84c.81.94,2.53,1.14,4,1.14l.88,0a26.61,26.61,0,0,0,5.56-1.77,41,41,0,0,1,5.27-1.78,8.06,8.06,0,0,1,3.69.36,14.14,14.14,0,0,0,4.46.58c2.25-.11,3.11-1,3.44-1.7.47-1,.14-2.34-.93-3.7-.42-.53-.59-.91-.51-1.15.17-.52,1.52-.93,3.58-1.54,1.31-.39,2.95-.88,4.92-1.58,7.63-2.7,16.9-10.45,20.94-14.7,4.23-4.44,5.65-8.22,5.25-14-.2-2.91.63-4.59,1.78-6.92a35.65,35.65,0,0,0,2.87-7.46c1.64-6.34.5-9.57-.42-12.17C482.11,175.45,481.91,174.88,481.77,174.33Zm.39,13.74a35.2,35.2,0,0,1-2.83,7.35c-1.15,2.32-2.05,4.16-1.84,7.22.39,5.62-.94,9.16-5.09,13.51S459.22,228,451.69,230.71c-2,.69-3.59,1.18-4.9,1.57-2.47.74-3.71,1.11-4,1.93-.15.46,0,1,.61,1.7.91,1.16,1.23,2.29.86,3.09s-1.41,1.28-2.93,1.35a13.59,13.59,0,0,1-4.29-.57,8.63,8.63,0,0,0-4-.36,41.11,41.11,0,0,0-5.37,1.81,27.5,27.5,0,0,1-5.37,1.73c-.87,0-3.53.14-4.44-.91a1.51,1.51,0,0,1-.28-1.35l0-.18c.32-1.72,1.3-7,6.06-8.25,6.21-1.67,17.76-5.4,21.59-8.73,2.64-2.3,2.78-6.25,2.9-9.42a10.84,10.84,0,0,1,.56-4.06c.29-.52.63-.78,1-.78a1,1,0,0,1,.26,0,3.44,3.44,0,0,1,1.87,3.14v.37c0,1.31-.07,2,.38,2.12s.82-.25,1.8-1.66a4,4,0,0,0,.93-3.13,10,10,0,0,1,.44-3.9c.7-2.51,2.89-4.82,5.67-7.74a84.91,84.91,0,0,0,7.13-8.26l.62-.84c5.41-7.3,7.65-10.32,8.44-14.95.28-1.65.87-2.62,1.6-2.65h0c.85,0,1.84,1.19,2.22,2.67.15.57.35,1.15.56,1.76C482.65,178.77,483.75,181.91,482.16,188.07Z"/><path d="M404,279.26a19.25,19.25,0,0,0,9.73.89c6.63-1,7.83-2,10.74-4.6.69-.61,1.47-1.29,2.44-2.08,2.33-1.89,6.8-3.61,11.13-5.28,5-1.92,9.7-3.74,11-5.75,1.15-1.72.88-2.91.45-3.61-.92-1.49-3.52-2.22-6.61-1.85-4.6.55-23.6,6.19-30.7,10.6-2.51,1.56-4.36,2.89-5.71,3.86s-2.43,1.74-2.66,1.62c0,0-.09-.07-.1-.52a1.61,1.61,0,0,0-.91-1.38c-1.9-1.08-6.14-.49-9.26,1.28-1.53.86-4.65,2.36-8,4-5.6,2.69-12,5.74-13.72,7.19-2.87,2.36-7,2.23-9.89,1.71a1.94,1.94,0,0,0-2,.49,1.77,1.77,0,0,0-.09,1.83,4.58,4.58,0,0,0,3.78,2.55,3.18,3.18,0,0,1,.41.09,10.15,10.15,0,0,0,2.63.33c2,0,5-.47,9.71-2.41,3.43-1.41,3.87-2.07,3.83-2.58s-.94-.84-1.8-1l-.59-.15.34-.14c.77-.29,1.8-.75,3-1.29,4.22-1.89,10.6-4.75,15.88-4.86A19.83,19.83,0,0,1,404,279.26Zm-23,3.18c-1.19.53-2.21,1-3,1.27-.57.22-.92.42-.9.75s.5.5,1.22.67c.36.09,1.33.32,1.34.52s-.06.59-3.46,2c-7.6,3.11-10.78,2.34-12,2a4,4,0,0,0-.49-.1,4,4,0,0,1-3.3-2.19,1.22,1.22,0,0,1,0-1.23c.24-.3.76-.4,1.45-.28,4.38.78,8,.14,10.37-1.84,1.71-1.4,8-4.44,13.6-7.11,3.31-1.59,6.44-3.1,8-4,3.22-1.82,7.16-2.14,8.68-1.28a1,1,0,0,1,.61.88c0,.39.07.85.43,1,.56.27,1.35-.3,3.27-1.67,1.34-1,3.18-2.28,5.68-3.83,7-4.37,25.9-10,30.46-10.52,2.83-.33,5.25.29,6,1.57.48.79.33,1.81-.44,3-1.24,1.86-6.08,3.73-10.77,5.53-4.37,1.68-8.88,3.42-11.29,5.37-1,.8-1.77,1.49-2.46,2.1-2.81,2.48-4,3.5-10.44,4.45a18.51,18.51,0,0,1-9.47-.87,20.68,20.68,0,0,0-7.07-1.17C391.71,277.64,385.26,280.53,381,282.44Z"/><path d="M455.06,257.18a7.69,7.69,0,0,0,3.41.84,7.51,7.51,0,0,0,5-2.06,5,5,0,0,1,2.09-.9c1.66-.45,3.72-1,4.88-4.08a3.55,3.55,0,0,0-.32-3.69c-1.35-1.66-4.28-1.89-5.91-1.63-1.35.21-2.23,1.58-3.08,2.91s-1.8,2.81-3.2,2.93l-3.05.27-.08.07c-.07.07-1.74,1.65-1.5,3.3A2.82,2.82,0,0,0,455.06,257.18Zm.06-4.84,2.85-.25c1.69-.15,2.68-1.7,3.65-3.2.82-1.27,1.59-2.48,2.68-2.64,1.45-.22,4.19,0,5.37,1.42a3,3,0,0,1,.22,3.11c-1.05,2.78-2.87,3.28-4.48,3.72a5.5,5.5,0,0,0-2.34,1,6.64,6.64,0,0,1-7.75,1.13,2.27,2.27,0,0,1-1.44-1.6C453.7,253.88,454.83,252.65,455.12,252.34Z"/><path d="M172,285.72c2.91,2.56,4.11,3.62,10.74,4.6a19.25,19.25,0,0,0,9.73-.89,20.06,20.06,0,0,1,6.89-1.15c5.28.11,11.66,3,15.88,4.86,1.19.54,2.23,1,3,1.29l.34.14-.59.15c-.86.2-1.75.42-1.8,1s.4,1.18,3.83,2.58c4.72,1.93,7.75,2.41,9.71,2.41a10.16,10.16,0,0,0,2.63-.33,3.22,3.22,0,0,1,.41-.09,4.58,4.58,0,0,0,3.78-2.55,1.77,1.77,0,0,0-.09-1.83,2,2,0,0,0-2-.49c-2.93.52-7,.64-9.89-1.71-1.76-1.45-8.11-4.5-13.72-7.19-3.31-1.59-6.43-3.09-8-4-3.12-1.77-7.36-2.35-9.26-1.28a1.61,1.61,0,0,0-.91,1.38c0,.45-.1.52-.1.52-.24.12-1.41-.73-2.66-1.62s-3.19-2.3-5.71-3.86c-7.1-4.41-26.1-10.05-30.7-10.6-3.1-.37-5.69.35-6.61,1.85-.43.7-.7,1.89.45,3.61,1.34,2,6.06,3.83,11,5.75,4.32,1.67,8.8,3.39,11.13,5.28C170.49,284.43,171.27,285.11,172,285.72Zm-24.12-13.45c-.77-1.16-.92-2.18-.44-3,.79-1.28,3.21-1.91,6-1.57,4.56.55,23.42,6.14,30.46,10.52,2.5,1.55,4.34,2.87,5.68,3.84,1.92,1.38,2.71,1.95,3.27,1.67.36-.18.42-.65.43-1a1,1,0,0,1,.61-.88c1.52-.86,5.46-.55,8.68,1.28,1.54.87,4.67,2.38,8,4,5.57,2.68,11.89,5.71,13.6,7.11,2.41,2,6,2.61,10.37,1.84.7-.12,1.21,0,1.45.28a1.22,1.22,0,0,1,0,1.23,4,4,0,0,1-3.3,2.19,4,4,0,0,0-.49.1c-1.19.29-4.36,1.07-12-2-3.41-1.4-3.47-1.93-3.46-2s1-.43,1.34-.52c.72-.17,1.19-.28,1.22-.67s-.33-.53-.9-.75c-.75-.28-1.77-.74-3-1.27-4.27-1.91-10.71-4.8-16.11-4.92h-.44a20.61,20.61,0,0,0-6.64,1.18,18.52,18.52,0,0,1-9.47.87c-6.46-1-7.62-2-10.44-4.45-.69-.61-1.48-1.3-2.46-2.1-2.4-1.95-6.92-3.69-11.29-5.37C153.91,276,149.07,274.13,147.83,272.27Z"/><path d="M126,261.15c1.16,3.06,3.22,3.63,4.88,4.08a5,5,0,0,1,2.09.9,7.52,7.52,0,0,0,5,2.06,7.69,7.69,0,0,0,3.41-.84,2.82,2.82,0,0,0,1.77-2c.24-1.65-1.43-3.23-1.5-3.3l-.07-.07-3.06-.27c-1.4-.12-2.32-1.55-3.2-2.93s-1.73-2.7-3.08-2.91c-1.64-.25-4.57,0-5.92,1.63A3.55,3.55,0,0,0,126,261.15Zm5-4.81a7.48,7.48,0,0,1,1.12.08c1.09.17,1.86,1.37,2.67,2.64,1,1.5,2,3.05,3.65,3.2l2.85.25c.3.3,1.43,1.54,1.25,2.71a2.27,2.27,0,0,1-1.44,1.6,6.64,6.64,0,0,1-7.75-1.13,5.49,5.49,0,0,0-2.34-1c-1.61-.44-3.43-.94-4.48-3.72a3,3,0,0,1,.22-3.11C127.69,256.7,129.56,256.33,131,256.33Z"/><path d="M225.23,242.23a5,5,0,0,1,2.1.9,7.51,7.51,0,0,0,5,2.06,7.69,7.69,0,0,0,3.41-.84,2.82,2.82,0,0,0,1.77-2c.24-1.65-1.43-3.23-1.5-3.3l-.07-.07-3.06-.27c-1.4-.12-2.32-1.55-3.2-2.93s-1.73-2.7-3.08-2.91c-1.64-.25-4.57,0-5.91,1.63a3.55,3.55,0,0,0-.32,3.69C221.51,241.21,223.57,241.77,225.23,242.23Zm-4.1-7.4c.92-1.14,2.79-1.5,4.25-1.5a7.46,7.46,0,0,1,1.11.08c1.09.17,1.86,1.37,2.68,2.64,1,1.5,2,3.05,3.65,3.2l2.85.25c.3.3,1.42,1.54,1.25,2.71a2.27,2.27,0,0,1-1.44,1.6,6.63,6.63,0,0,1-7.75-1.13,5.49,5.49,0,0,0-2.34-1c-1.61-.44-3.43-.94-4.48-3.72A3,3,0,0,1,221.12,234.83Z"/><path d="M218.58,262c-1.34.22-7.06-2.34-12.42-5.92s-9.76-3.08-10.88-1.46a1.47,1.47,0,0,0-.2,1.18c.39,1.84,3.31,4.05,4.8,5,2.68,1.65,9.18,3,11.85,3.57a61.26,61.26,0,0,0,7.24.83c1.41.1,2.63.19,3.58.33,2.49.37,9.26,4.12,13.8,8.93a.86.86,0,0,1,.21.65c-.07.35-.47.6-.79.76-1.47.69-4.48-.93-7.13-2.36l-.41-.22a4.18,4.18,0,0,0-2.78-.51c-1,.11-2,.21-4.39-2.09-4.12-3.93-8-4.69-9.3-3.74a1.19,1.19,0,0,0-.52,1c0,.82.88,1.82,2.65,3.07,1.35.95,5.51,2.39,9.54,3.79,2.55.88,5,1.72,6.49,2.37a22.33,22.33,0,0,1,3.14,1.67,5.74,5.74,0,0,0,3.13,1.19,5.41,5.41,0,0,0,1.3-.17,9,9,0,0,0,1.92-.66c.6-.28.87-.41,3.32-.32,2.65.1,3.73-.11,3.95-.77s-.44-1.39-2.25-2.65a9.54,9.54,0,0,0-2.84-1.46c-1.06-.35-1.89-.63-4.91-3.83a66.86,66.86,0,0,0-12.39-10.82c-1.73-1.17-4.74-2.72-7.92-4.35-4.89-2.51-10.43-5.37-13.06-7.69-5.33-4.71-9.1-13.92-10.13-16.63-2.27-6-10.12-21.55-15-24.57-2.93-1.8-6.17-2.09-8.05-.71-1.39,1-1.86,2.8-1.31,5,1,4.11,7.15,10.78,11.2,15.19,1.44,1.57,2.57,2.8,3,3.44.24.34.53.72.83,1.13,1.12,1.49,3,4,2.57,4.72-.13.22-.58.29-1.25.19-3.7-.53-6.63-.94-12-7.91-4.27-5.52-7-16-8.76-22.9-.46-1.79-.86-3.33-1.22-4.54-1.73-5.81-15.47-28.64-19.87-29.44a6,6,0,0,0-6,1.94c-1.39,1.82-1.33,4.54.16,7.65,1.77,3.7,6.78,8.19,10.8,11.81,3,2.73,6.5,5.83,6,6.56s-1,.49-1.48.27c-.28-.13-.56-.27-.8-.07s-.26.67.07,2.07a4.47,4.47,0,0,0,3.28,3.67,5.24,5.24,0,0,1,2,1.17c1.55,1.6,3.61,4.77,3.23,5.67,0,.06-.08.19-.49.21-1.22,0-2.54-1.6-4.38-3.8a59.2,59.2,0,0,0-5.18-5.63c-1.92-1.79-19-17.62-29.05-23.85-3.66-2.27-7.88-6.07-12-9.75-5.86-5.29-11.92-10.75-16.47-11.76-2.16-.48-3.65-.21-4.4.8-1.5,2-.09,6.64,4.56,15,5.06,9.12,10.91,12.79,14.93,14.25,1.17.43,2.71.86,4.19,1.28,2.06.58,5.17,1.46,5.32,1.91a.42.42,0,0,1-.16.12c-1.17.63-1.26,1.4-1.2,1.8.11.91,1.11,1.71,2.59,2.08a16.8,16.8,0,0,0,3.07.36,10.08,10.08,0,0,1,4.41.89c.61.35,1.83.87,3.37,1.53,4,1.7,10,4.27,13.19,7.17,1.52,1.38,3.11,2.67,4.65,3.93,2.9,2.35,5.64,4.57,6.67,6.5.79,1.48,2.94,2.9,4.84,4.16s3.74,2.47,3.33,3.14c-.51.84-3.54-.93-6-2.35a33.49,33.49,0,0,0-4.68-2.44c-2.72-1-6.53-1.12-7.56.19-.3.38-.51,1,.16,2.05,1.9,2.9,5.39,3.39,9.42,4l.45.06a17.28,17.28,0,0,1,6.88,2.48l.71.41c1.34.7,4,2.48,4.49,4.16a1.6,1.6,0,0,1-.12,1.3c-.71,1.26-2.57,1.26-4.07,1.26-1.21,0-2.17,0-2.45.64a2.55,2.55,0,0,0,0,2.47c.53.69,1.62.91,3.24.66,2.73-.43,6.78.8,9.73,1.7,1,.31,1.91.58,2.55.72l1.54.31c3.39.66,10.46,2,12.62,4.05a66.57,66.57,0,0,0,6.81,5c1.94,1.32,3.77,2.56,4.67,3.35,2.16,1.89,16,8.73,18.73,9.84a5.56,5.56,0,0,1,1.11.55,9,9,0,0,1-1.29.2Zm2.75-.2c.05-.39-.36-.7-1.57-1.19-3.12-1.27-16.54-8-18.56-9.74-.92-.81-2.77-2.06-4.72-3.39a66.29,66.29,0,0,1-6.73-4.94c-2.29-2.14-9.2-3.48-12.91-4.2l-1.53-.31c-.62-.14-1.5-.4-2.51-.71-3-.91-7.13-2.17-10-1.72-1.37.22-2.3.07-2.68-.43s-.07-1.58.06-1.87,1.07-.28,1.91-.28c1.65,0,3.7,0,4.58-1.57a2.19,2.19,0,0,0,.17-1.75c-.69-2.34-4.62-4.43-4.78-4.52l-.69-.39a18,18,0,0,0-7.1-2.56l-.45-.06c-4.05-.57-7.26-1-9-3.69-.38-.58-.44-1-.19-1.36.77-1,4.19-1,6.89,0a33.21,33.21,0,0,1,4.59,2.4c3.2,1.87,6,3.48,6.78,2.14.7-1.15-1.16-2.38-3.51-3.94-1.84-1.22-3.92-2.6-4.64-3.94-1.09-2-3.75-4.19-6.82-6.68-1.54-1.25-3.12-2.54-4.63-3.9-3.26-3-9.34-5.56-13.36-7.28-1.52-.65-2.73-1.16-3.3-1.5a10.48,10.48,0,0,0-4.67-1,16.09,16.09,0,0,1-3-.35c-1.22-.31-2.06-.93-2.14-1.58-.05-.44.26-.86.9-1.21.42-.23.48-.49.46-.68-.08-.77-1.73-1.31-5.75-2.44-1.47-.42-3-.85-4.15-1.27-3.92-1.43-9.64-5-14.61-14-4.4-7.93-5.9-12.63-4.6-14.38.6-.8,1.88-1,3.8-.57,4.4,1,10.4,6.38,16.2,11.62,4.1,3.7,8.33,7.52,12,9.82,10,6.19,27,22,29,23.78a58.65,58.65,0,0,1,5.13,5.58c2,2.41,3.34,4,4.83,4h0a1,1,0,0,0,1-.57c.61-1.41-2.11-5-3.35-6.31a5.78,5.78,0,0,0-2.21-1.31,3.9,3.9,0,0,1-2.92-3.25,7.77,7.77,0,0,1-.25-1.4l.15.07a1.55,1.55,0,0,0,2.21-.46c.77-1.11-1.55-3.28-6.07-7.34-4-3.58-8.95-8-10.67-11.62-1.39-2.91-1.47-5.41-.23-7a5.53,5.53,0,0,1,5.41-1.71c3.86.71,17.52,22.67,19.41,29,.36,1.2.75,2.74,1.22,4.52,1.8,7,4.53,17.5,8.87,23.11,5.54,7.15,8.57,7.58,12.4,8.13,1,.14,1.57,0,1.84-.48.58-1-.71-2.85-2.61-5.38-.3-.4-.59-.78-.83-1.12-.48-.67-1.63-1.92-3.08-3.5-3.77-4.1-10.07-11-11.06-14.94-.49-2-.1-3.52,1.09-4.39,1.69-1.24,4.66-.94,7.39.74,4.73,2.9,12.61,18.53,14.79,24.28,1,2.74,4.85,12.06,10.29,16.86,2.69,2.37,8.26,5.24,13.18,7.77,3.17,1.63,6.16,3.17,7.86,4.32a66.36,66.36,0,0,1,12.29,10.73c3.12,3.3,4,3.6,5.15,4a9,9,0,0,1,2.69,1.38c2.08,1.45,2.06,1.91,2,2s-.47.47-3.37.36c-2.5-.09-2.89,0-3.6.37a8.37,8.37,0,0,1-1.81.62c-1.73.43-2.53-.06-4-.95a22.93,22.93,0,0,0-3.21-1.71c-1.55-.66-4-1.5-6.53-2.39-3.8-1.32-8.11-2.81-9.39-3.71-2.07-1.46-2.39-2.25-2.4-2.6a.6.6,0,0,1,.29-.51,1.79,1.79,0,0,1,1-.24c1.51,0,4.31.88,7.5,3.93,2.6,2.49,3.75,2.36,4.86,2.25a3.57,3.57,0,0,1,2.44.45l.41.22c2.91,1.57,5.92,3.19,7.66,2.37a1.77,1.77,0,0,0,1.12-1.18,1.45,1.45,0,0,0-.36-1.17h0c-4.63-4.91-11.58-8.74-14.15-9.11-1-.14-2.2-.23-3.62-.34a60.94,60.94,0,0,1-7.17-.82c-2.06-.41-9-1.85-11.66-3.49-2-1.22-4.24-3.24-4.53-4.59a.89.89,0,0,1,.11-.72c.87-1.25,5-1.79,10.07,1.61s11.19,6.25,12.83,6l.76-.09C220.53,262.4,221.26,262.32,221.33,261.84Z"/><path d="M113.4,221.17c1.42.49,2.65.91,3.63,1.28,1.9.73,4.1,1.34,6.42,2,7.48,2.09,16.8,4.68,26.32,13.5,6.3,5.83,12.71,10.71,17.39,14.27,3.31,2.52,6.45,4.91,6.64,5.56-1.68.59-7.28-.77-12.58-5.61-2.85-2.6-4.16-3.06-5.42-3.5a10.94,10.94,0,0,1-4.22-2.55c-.73-.63-1.47-1.3-2.21-2-3.88-3.51-7.9-7.14-11.13-6.12a3.66,3.66,0,0,0-2.29,3.32c-.42,3.46,1.75,8.55,6.71,11.58,5.87,3.59,20.87,7.18,30.8,9.56,2.55.61,4.75,1.14,6.24,1.54l1.74.45c5.93,1.51,9.84,2.5,24.16,16l1.3,1.23-.84-1.58a43,43,0,0,0-14.59-14.63,88.88,88.88,0,0,0-8.06-4.26c-4.8-2.3-8.59-4.12-15-10.92-8.91-9.5-15.19-15.79-22.83-21.82-3.54-2.79-9.87-4.66-16.58-6.64-7.42-2.19-15.1-4.46-20-8.2-5.16-3.91-7.16-9-9.29-14.49-1.75-4.49-3.57-9.14-7.28-13.44C86,178.16,77,175.12,74.11,176.73a1.85,1.85,0,0,0-.79,2.38c.69,2.18,3.88,5.57,7.25,9.15,4,4.23,8.5,9,9.39,12.41.37,1.41.26,2.31-.33,2.68-1.67,1-7-1.83-10.9-5.19-.65-.56-1.36-1.15-2.1-1.76-5.11-4.25-12.11-10.07-14.23-17.71-.94-3.4-1.79-5.71-2.47-7.57a25.28,25.28,0,0,1-2-8.86,13.07,13.07,0,0,1,1-5.77c.79-2.16,1.6-4.39.9-9.65-.47-3.53.93-6.28,2.4-9.18,2.28-4.49,4.87-9.58,1.46-18.88-3.8-10.37-4-13.45-4.13-16.72A37.16,37.16,0,0,0,59,96.52c-.31-1.66-.52-3.2-.7-4.56-.42-3.17-.7-5.26-1.93-5.8-.75-.33-1.76,0-3.17,1-4.92,3.42-12.6,21.85-13.73,36-.71,9-1.08,40.46,24,66.84C83.43,210.93,103.68,217.85,113.4,221.17ZM40,123.18c1.09-13.77,8.76-32.3,13.47-35.58,1.21-.84,2.06-1.14,2.6-.9.93.41,1.2,2.48,1.59,5.34.18,1.36.39,2.91.7,4.59A36.73,36.73,0,0,1,59,102.1c.17,3.31.33,6.44,4.17,16.89,3.32,9.05.8,14-1.43,18.41-1.52,3-3,5.81-2.46,9.53.68,5.11-.11,7.27-.87,9.37a13.55,13.55,0,0,0-1,6,25.76,25.76,0,0,0,2,9c.68,1.85,1.52,4.15,2.45,7.53,2.16,7.82,9.25,13.71,14.42,18,.74.61,1.44,1.2,2.09,1.76,3.26,2.79,9.29,6.69,11.6,5.24.83-.52,1-1.65.58-3.33-.94-3.53-5.31-8.18-9.54-12.67-3.33-3.53-6.47-6.87-7.12-8.93a1.26,1.26,0,0,1,.52-1.69c2.32-1.3,11,1.13,17.62,8.82,3.64,4.23,5.44,8.82,7.17,13.27,2.15,5.52,4.19,10.74,9.48,14.74,5,3.8,12.75,6.09,20.23,8.29,6.65,2,12.93,3.82,16.38,6.54,7.61,6,13.87,12.28,22.76,21.76,6.45,6.88,10.28,8.72,15.14,11a88.23,88.23,0,0,1,8,4.24,43.48,43.48,0,0,1,13.2,12.52c-13.1-12.12-17-13.11-22.78-14.58l-1.73-.45c-1.5-.4-3.7-.93-6.26-1.54-9.29-2.23-24.84-6-30.63-9.49-4.75-2.9-6.83-7.73-6.44-11a3.1,3.1,0,0,1,1.88-2.83,3.24,3.24,0,0,1,1-.15c2.76,0,6.21,3.12,9.56,6.15.74.67,1.49,1.35,2.22,2a11.57,11.57,0,0,0,4.41,2.66c1.21.42,2.45.86,5.21,3.38,5.33,4.86,11.19,6.47,13.21,5.72a.52.52,0,0,0,.36-.41c.12-.79-1.67-2.2-6.87-6.16-4.67-3.55-11.06-8.42-17.34-14.24-9.63-8.91-19-11.53-26.56-13.63-2.31-.65-4.5-1.25-6.37-2-1-.38-2.22-.8-3.65-1.29-9.68-3.31-29.83-10.19-49.69-31C38.94,163.36,39.31,132.13,40,123.18Z"/><path d="M128.28,232.66a3.3,3.3,0,1,0,3.3,3.3A3.3,3.3,0,0,0,128.28,232.66Zm0,6A2.71,2.71,0,1,1,131,236,2.71,2.71,0,0,1,128.28,238.67Z"/><path d="M135.84,212.87c-.3-.22-7.4-5.29-10.5-6s-8.14-3.39-10.8-4.85a13.66,13.66,0,0,1-2.93-2.27c-1.22-1.15-2.26-2.15-4.17-2.05-.95,0-1.28.48-1.39.83-.52,1.62,2.61,5,6,7.67,2.68,2.13,6.36,3.24,9.91,4.31a36,36,0,0,1,7.41,2.8,29.58,29.58,0,0,1,4,2.81,8.08,8.08,0,0,0,4.78,2.24,3.49,3.49,0,0,0,.42,0,1,1,0,0,0,1-.49c.54-1.2-2.71-4.19-3.72-5.07Zm3.2,4.85c0,.09-.28.18-.83.11a7.53,7.53,0,0,1-4.48-2.12,30.12,30.12,0,0,0-4.12-2.86,36.41,36.41,0,0,0-7.53-2.86c-3.5-1.06-7.12-2.15-9.72-4.21-4-3.17-6.07-6.07-5.76-7,.08-.26.37-.4.86-.42h.21c1.52,0,2.41.84,3.52,1.89a14.13,14.13,0,0,0,3.06,2.36c2.69,1.47,7.7,4.2,11,4.9,2.93.63,9.94,5.62,10.27,5.85C137.4,215,139.28,217.18,139,217.72Z"/><rect x="40.19" y="517.75" width="494.77" height="0.59"/><path d="M92.49,124.88c6.65,6.47,12.93,12.57,13.5,16.33.41,2.67-.26,3.73-.79,4.58-1.14,1.82-1.37,3,5.28,10.91,7.64,9.14,15.61,7.91,23.32,6.73a38.45,38.45,0,0,1,9-.69c6.28.55,12.22,10.7,17,18.85,2.82,4.83,5.26,9,7.36,10.63s4.82,2.54,7.87,3.5c4.93,1.55,10.51,3.3,16.34,9.47,4.5,4.76,6.84,12,9.09,19,2.53,7.86,4.92,15.29,10.11,19.26,4.31,3.29,10.66,6.57,16.8,9.73,8,4.12,15.54,8,18.13,11.61,4.17,5.81,8.28,7.07,17.57,8.54,3.3,7,5.12,10.23,6,10.31h0a.5.5,0,0,0,.41-.23,3.59,3.59,0,0,0-.21-4.15,41.43,41.43,0,0,0-1.8-5.26c7.09,1,10.41-3.57,13.08-7.23,2.08-2.85,3.87-5.31,6.83-4.56,3.5.88,5.52,5.23,7.42,9.54-2,5.65-2.69,8.51-2.18,9.12a.48.48,0,0,0,.38.17h.11A3.57,3.57,0,0,0,296,278a14.24,14.24,0,0,0,1-1.81c1.24,2.34,2.62,4.09,4.51,4.33,1,.12,2,.33,2.9.54a20.39,20.39,0,0,0,4.27.63c3.09,0,6.06-1.51,8.92-7.82a106.68,106.68,0,0,1,6.48-11.71,23.49,23.49,0,0,0,7.44-6c1.47-1.84,3.13-3.66,4.73-5.42,3.59-3.94,6.43-7.05,6.06-9a1.74,1.74,0,0,0-1-1.25l-.45-.2a67.53,67.53,0,0,1,14.73-12c4.69-2.68,8.86-4.93,12.53-6.92C378,216,383.53,213,384,210c.3-2.07,9.14-5.16,16.94-7.88,6.7-2.34,13.63-4.76,16.57-6.89,6.77-4.89,29.78-25.78,32.39-32.89,1.82-5-.94-20.81-7.36-24.63-2.13-1.27-5.6-1.72-10,3.31-5.11,5.82-9.37,12.77-12.79,18.36-3.92,6.41-7,11.47-9.28,11.5h0a2.1,2.1,0,0,1-1.67-1.18c-4.17-6.38,2.24-23,13.19-34.19,1-1.06,2.08-2.09,3.1-3.11,9.36-9.28,17.45-17.29,14.07-37.92-3.71-22.64-11.61-30.09-24-35.3-8.36-3.52-16.79-2.1-19.4,1.44-1.37,1.86-1.11,4.11.75,6.33,1.4,1.68,2.92,3.32,4.4,4.9,2.76,3,5.61,6,5.1,7-.14.25-.75.59-3.34.07-4.5-.9-7.84-3.5-11.37-6.25s-7-5.46-12.2-7.33c-7.71-2.78-14.73-2.92-17.46-.32a4.47,4.47,0,0,0-.95,4.82,11.38,11.38,0,0,0,3.73,5.68c1.4,1.28,2.25,2,1.23,4.77-.57,1.52-.55,3.77-.53,6.14,0,3.89.07,8.29-2.47,10.55-1.55,1.38-3.9,1.85-7.18,1.43-13.26-1.68-21.06-6.29-29.82-17.61-8.35-10.79-25.6-20.3-35.43-21.6-2.47-.32-4.26,1-4.89,3.7-1.53,6.6,4.62,21.73,19.25,26.64,5.35,1.79,9.66,3.13,13.13,4.21,6.83,2.12,10.26,3.18,10.76,4.42a1.14,1.14,0,0,1-.14,1,13.45,13.45,0,0,0-.69,1.55c-.36.93-.65,1.66-1.36,2-1,.45-3,0-6.36-1.29-2.37-.94-5.13-1.73-8.05-2.57-7.13-2-15.22-4.36-20.54-9.77a39.6,39.6,0,0,1-5.59-7.2C284.63,80.06,284,79,283,78.84c-.75-.13-1.63.23-2.94,1.23-1.86,1.42-3.13,2.69-3.3,4.27-.22,2.1,1.49,4.53,5,8.57,5.64,6.59,8.69,12.92,8.15,16.93a5.41,5.41,0,0,1-2.42,3.9c-1.72,1.17-3,1.58-4,1.28-1.66-.49-2.69-2.89-4.24-6.54-.59-1.39-1.27-3-2.08-4.66-.4-1-8.81-21.06-16.24-23.19a4.06,4.06,0,0,0-3.64.61c-4.7,3.37-3.32,7.82-2.57,10.22a5.87,5.87,0,0,1,.34,1.37c-.06,0-.38,0-1.77-.75a23.83,23.83,0,0,1-5.08-4c-3.21-3.07-7.61-7.28-20.76-13.91-14.38-7.25-17.57-7.15-23.94-7A81.44,81.44,0,0,1,193.8,67a65.78,65.78,0,0,0-12.05.53c-10.8,1.14-22,2.32-34.72-11.66C133.5,41,112.8,40.93,105,45.05c-2.19,1.16-3.2,2.58-2.86,4,.1.41.19.82.28,1.22,1.25,5.52,2.17,9.5,14.79,9.43,10.6-.07,18.16,1.76,18.55,3.51.14.61-.87,1.18-1.48,1.47-3.9,1.82-17.71,7.22-31.77,0-1.54-.79-3-1.56-4.41-2.3C87.21,56.64,80,52.85,73.86,59.21c-7,7.22-6.7,31.55.54,44.88C78.1,110.88,85.74,118.32,92.49,124.88ZM268.79,279.2l-.21.07.28.33a3,3,0,0,1,.27,3.47c-1.27-.57-6.52-12.1-9.68-19-2.29-5-4.27-9.36-5.06-10.55-2-3.09-4-3.91-8.39-5.7l-1.27-.53c-1.38-.57-2.11-1.17-2.17-1.76-.1-.93,1.38-2,2.68-2.89.47-.33.92-.65,1.3-1a1,1,0,0,0,.39-.89c-.16-1.78-5-4.56-11.25-8-1.32-.73-2.57-1.41-3.58-2-5.06-3-17.68-17.81-20.15-22.54-2.35-4.5-5.56-10.66-12.15-16.18-6.14-5.15-11.48-20.25-10.79-30.5.16-2.38.07-5.06,0-7.91-.22-6.44-.45-13.1,2.44-15.73a4.76,4.76,0,0,1,3.35-1.18,8.6,8.6,0,0,1,1.13.08c6.56.87,9.68,8.6,13.29,17.56A90.45,90.45,0,0,0,216,168.69c4.18,6.66,6.6,16.44,8.94,25.89,2,8.16,3.93,15.87,6.77,20.23A179.19,179.19,0,0,0,243,229.58a152.63,152.63,0,0,1,9.39,12.22C257.26,249.34,268.22,276.65,268.79,279.2Zm26.87-1.7-.2-.1,0,.43a3,3,0,0,1-2.25,2.63c-.49-1.3,3.92-13.1,6.58-20.2,1.92-5.15,3.59-9.59,3.87-11,.73-3.62-.09-5.59-1.89-9.91l-.53-1.27c-.57-1.37-.66-2.3-.29-2.77a1.8,1.8,0,0,1,1.43-.45,15.84,15.84,0,0,1,2.49.3c.57.1,1.1.19,1.6.24a1,1,0,0,0,.9-.35c1.14-1.37-.29-6.71-2.28-13.55-.42-1.45-.82-2.81-1.11-3.93-1.48-5.63.09-25,1.68-30,1.51-4.82,3.59-11.41,2.84-19.94-.7-7.94,6.17-22.33,13.87-29.06,1.79-1.56,3.61-3.52,5.54-5.59,4.37-4.69,8.88-9.57,12.78-9.35a5.24,5.24,0,0,1,3.92,2.38c4,5.23.76,12.87-3,21.71a90,90,0,0,0-5.32,14.84c-1.75,7.63-6.92,16.21-11.93,24.51-4.32,7.16-8.4,13.93-9.47,19a178.42,178.42,0,0,0-2.45,18.33,152.07,152.07,0,0,1-2,15.21C308.55,248.38,297,275.3,295.66,277.51ZM341,241a1.17,1.17,0,0,1,.71.83c.31,1.65-2.71,5-5.91,8.48-1.61,1.76-3.27,3.59-4.76,5.44-4.47,5.58-11.24,7.7-14.87,8.84-.71.22-1.31.41-1.76.58a10,10,0,0,0-3.15,2.32c-1.05,1-2,1.89-2.89,1.66a.85.85,0,0,1-.67-.49c-.22-.59.36-1.58.6-1.91l0-.06a20.46,20.46,0,0,1,3.55-4.64l.83-.92c1.49-1.68,2-5.28,1-7.55-.45-1.07-.16-1.81.34-2.07a.78.78,0,0,1,1.05.31c.29.46.67.92,1.17.89s1.22-.85,2.17-3a32.42,32.42,0,0,0,1.25-3.61c.87-2.86,1.86-6.09,3.86-7.7,2.9-2.35,7.93-6,12.22-9,4-2.75,10.69-12.07,13.21-15.58l.41-.57a11.52,11.52,0,0,1,7.67-4.64,3,3,0,0,1,2.33.92,6.48,6.48,0,0,1,1.6,5.13c-.27,3.36-7.54,9.83-14.12,13.9-2.31,1.43-5.74,3.43-9,5.36-5.2,3-10.57,6.17-12.31,7.48s-2.92,4.19-4.3,7.34a42,42,0,0,1-3.93,7.56c-1.72,2.36-2.24,3.62-1.75,4.22s1.78.33,4.45-.9c4.23-1.95,11.61-11.43,14.32-15.45C336.7,240.7,337.59,239.37,341,241ZM74.28,59.62c5.85-6,12.89-2.33,23.54,3.28,1.41.74,2.88,1.52,4.42,2.31,14.3,7.34,28.33,1.86,32.29,0,1.38-.64,2-1.36,1.81-2.13-.51-2.25-8.64-4-18.61-4h-.87c-11.82,0-12.63-3.58-13.86-9-.09-.4-.18-.81-.28-1.22-.27-1.14.64-2.33,2.57-3.35,7.64-4,28-3.92,41.31,10.71,12.94,14.2,24.26,13,35.22,11.85a65.68,65.68,0,0,1,11.94-.53,81.35,81.35,0,0,0,9.7.17c6.27-.19,9.41-.29,23.66,6.89,13.07,6.59,17.44,10.76,20.62,13.81a24.27,24.27,0,0,0,5.2,4.13c1.45.81,2.06,1,2.41.7s.19-1-.14-2c-.75-2.41-2-6.44,2.35-9.56a3.45,3.45,0,0,1,3.14-.53c7.18,2.05,15.77,22.65,15.86,22.85h0c.81,1.69,1.48,3.26,2.07,4.65,1.62,3.8,2.7,6.31,4.62,6.87,1.18.35,2.6-.09,4.48-1.36a6,6,0,0,0,2.67-4.31c.81-6-5.53-14.17-8.29-17.4-3.27-3.82-5-6.25-4.81-8.12.13-1.19,1-2.27,3.07-3.86,1.15-.88,1.91-1.22,2.47-1.12.76.14,1.4,1.14,2.36,2.66a40.2,40.2,0,0,0,5.66,7.3c5.43,5.52,13.6,7.86,20.8,9.93,2.91.83,5.65,1.62,8,2.55,3.58,1.42,5.62,1.81,6.81,1.29.93-.41,1.28-1.28,1.67-2.3a12.88,12.88,0,0,1,.66-1.48,1.7,1.7,0,0,0,.17-1.51c-.61-1.5-3.69-2.45-11.14-4.76-3.47-1.07-7.78-2.41-13.12-4.2-14.32-4.8-20.35-19.53-18.86-25.94.55-2.38,2.05-3.53,4.23-3.25,9.72,1.28,26.78,10.7,35,21.38,8.87,11.46,16.78,16.13,30.22,17.84,3.45.44,6-.08,7.64-1.58,2.74-2.44,2.7-7,2.67-11,0-2.32,0-4.51.49-5.93,1.16-3.09.09-4.07-1.38-5.41a10.86,10.86,0,0,1-3.56-5.41c-.54-1.79-.28-3.21.79-4.22,2.57-2.44,9.34-2.26,16.85.45,5.09,1.84,8.62,4.59,12,7.24,3.59,2.79,7,5.43,11.61,6.36,2.34.47,3.57.36,4-.36.69-1.23-1.41-3.59-5.19-7.64-1.47-1.58-3-3.22-4.38-4.88-1.69-2-1.94-4-.73-5.6,2.49-3.36,10.59-4.66,18.7-1.24,12.2,5.14,20,12.49,23.64,34.85,3.33,20.33-4.65,28.24-13.9,37.4-1,1-2.07,2-3.11,3.11-10,10.23-18,27.71-13.27,34.92a2.66,2.66,0,0,0,2.17,1.45h0c2.58,0,5.59-5,9.77-11.78,3.41-5.57,7.65-12.5,12.73-18.28,3.33-3.8,6.45-4.87,9.27-3.19,6.22,3.7,8.88,19.1,7.11,23.92-2.58,7-25.45,27.75-32.19,32.61-2.87,2.07-9.76,4.48-16.42,6.81-9.11,3.18-17,5.93-17.33,8.36-.41,2.78-6.12,5.87-15.59,11-3.68,2-7.85,4.24-12.55,6.92a68.43,68.43,0,0,0-15,12.31c-3.08-1.1-4.27.65-6.43,3.84-2.29,3.39-9.89,13.31-14.08,15.24-3,1.39-3.63,1.21-3.75,1.06s-.25-.72,1.77-3.49a42.31,42.31,0,0,0,4-7.67c1.36-3.08,2.64-6,4.12-7.11,1.71-1.29,7.07-4.42,12.25-7.44,3.31-1.93,6.74-3.93,9.06-5.36,5.79-3.58,14.08-10.4,14.4-14.36a7.08,7.08,0,0,0-1.78-5.6,3.52,3.52,0,0,0-2.8-1.09,12.15,12.15,0,0,0-8.09,4.88l-.41.57C346,217,339.35,226.3,335.44,229c-4.3,3-9.34,6.67-12.26,9-2.13,1.72-3.15,5.05-4,8a32,32,0,0,1-1.22,3.54c-.77,1.72-1.33,2.61-1.67,2.63-.15,0-.36-.2-.63-.62a1.36,1.36,0,0,0-1.83-.52c-.73.39-1.21,1.41-.6,2.82.88,2.06.44,5.43-.89,6.93l-.83.91a21,21,0,0,0-3.65,4.78c-.17.24-1,1.48-.66,2.43a1.41,1.41,0,0,0,1.08.86,1.85,1.85,0,0,0,.45.06c1.05,0,2-.91,3-1.86a9.39,9.39,0,0,1,3-2.19c.42-.16,1-.35,1.72-.57a47.47,47.47,0,0,0,6.7-2.54,104.15,104.15,0,0,0-6,10.95c-4,8.72-7.93,7.86-12.53,6.86-1-.21-2-.43-3-.55-1.73-.21-3-2-4.26-4.41,3.54-7.5,12.26-29,13.69-35.78a152.17,152.17,0,0,0,2-15.27,178.19,178.19,0,0,1,2.44-18.27c1.05-5,5.11-11.7,9.4-18.82,5-8.34,10.23-17,12-24.68A89.44,89.44,0,0,1,342.13,148c3.84-9,7.15-16.8,2.93-22.3a5.87,5.87,0,0,0-4.36-2.61c-4.18-.21-8.78,4.75-13.25,9.54-1.92,2.06-3.73,4-5.5,5.54-7.81,6.82-14.78,21.46-14.07,29.55.74,8.41-1.32,14.94-2.82,19.71-1.61,5.12-3.19,24.67-1.69,30.37.3,1.13.69,2.5,1.12,3.94,1.36,4.69,3.42,11.77,2.39,13a.39.39,0,0,1-.39.14c-.47,0-1-.14-1.56-.24-1.82-.31-3.69-.63-4.49.36-.53.66-.46,1.76.2,3.36l.53,1.27c1.75,4.21,2.55,6.13,1.86,9.57-.27,1.35-1.93,5.77-3.84,10.9-1.63,4.37-3,8-4,10.9-1.89-4.24-3.95-8.38-7.56-9.29a5,5,0,0,0-1.24-.16c-2.62,0-4.3,2.32-6.22,4.95-2.73,3.75-5.82,8-12.66,7l-.19,0c-3.64-9.38-11.16-26.81-14.49-31.94a153,153,0,0,0-9.43-12.27,178.74,178.74,0,0,1-11.25-14.72c-2.79-4.28-4.69-11.94-6.69-20.05-2.35-9.5-4.78-19.32-9-26.06a90,90,0,0,1-6.71-14.23c-3.68-9.13-6.85-17-13.76-17.93a5.91,5.91,0,0,0-5,1.25c-3.1,2.81-2.86,9.61-2.64,16.18.1,2.83.19,5.5,0,7.85-.7,10.39,4.75,25.75,11,31,6.49,5.45,9.68,11.55,12,16,2.5,4.78,15.26,19.79,20.38,22.78,1,.59,2.26,1.28,3.59,2,4.3,2.36,10.8,5.93,10.94,7.54a.41.41,0,0,1-.18.38c-.37.3-.81.61-1.27.94-1.51,1.07-3.07,2.17-2.93,3.44.09.84.92,1.57,2.53,2.24l1.27.53c4.24,1.74,6.17,2.54,8.12,5.48.76,1.15,2.73,5.47,5,10.47,1.48,3.24,2.76,6,3.89,8.43C254,271.31,250,270,246,264.49c-2.67-3.72-10.28-7.64-18.34-11.79-6.12-3.15-12.45-6.41-16.71-9.67-5-3.86-7.41-11.2-9.91-19-2.28-7.08-4.63-14.41-9.23-19.27-5.94-6.28-11.85-8.14-16.6-9.63-3-.94-5.57-1.75-7.68-3.4s-4.42-5.69-7.21-10.46c-4.84-8.27-10.86-18.56-17.44-19.14a38.62,38.62,0,0,0-9.19.69c-7.54,1.16-15.35,2.36-22.77-6.52-6.65-8-6.11-8.81-5.23-10.21.59-.93,1.31-2.09.87-5-.6-4-6.66-9.85-13.67-16.67-6.72-6.53-14.33-13.93-18-20.65C67.77,90.65,67.42,66.69,74.28,59.62Z"/><path d="M346.47,84.14a6.2,6.2,0,1,0-6.2-6.2A6.2,6.2,0,0,0,346.47,84.14Zm0-11.8a5.61,5.61,0,1,1-5.61,5.61A5.61,5.61,0,0,1,346.47,72.34Z"/><path class="cls-12" d="M306.37,340.39a7.94,7.94,0,0,0,6,1c.4-.06.82-.12,1.28-.17a8.12,8.12,0,0,0,1.35.42,10.48,10.48,0,0,0,4.62.11c3.16.6,5.4.43,6.64-.51a2.88,2.88,0,0,0,1.15-2.23c0-.3.21-1.9.46-4.12.36-3.12.69-6,1-8.66a11.55,11.55,0,0,0-2.74.49c-4.3,1.41-13.27,1.21-23.92.09a15.21,15.21,0,0,0-4.28.15C301.43,334,304.62,339.43,306.37,340.39Z"/><path class="cls-1" d="M284.75,298.43l-.39-.89c-.46-1-.07-2.4.32-3.72.31-1.07.64-2.18.31-2.67a.69.69,0,0,0-.49-.35c-.72-.1-2,.9-3.05,1.78s-2.73.56-4.43.19a14,14,0,0,0-2.94-.44,5.31,5.31,0,0,0-.73,0c-.3,0-1,.18-1,.57,0,.59,1.12,1.8,3,2.31,3,.82,5.15,6.82,5.24,7.07.29,1.12,1.47,4.67,3.1,9.58,1.74,5.23,4,12.09,6.22,19a16.58,16.58,0,0,1,8-4C293.38,318.06,288.3,306.65,284.75,298.43Z"/><path class="cls-13" d="M328.81,326.21c-.3,2.66-.62,5.54-1,8.66-.26,2.22-.44,3.83-.46,4.12a2.88,2.88,0,0,1-1.15,2.23c-1.25.94-3.49,1.1-6.64.51a10.48,10.48,0,0,1-4.62-.11,8.12,8.12,0,0,1-1.35-.42c-.45,0-.87.11-1.28.17a7.94,7.94,0,0,1-6-1c-1.75-1-4.94-6.41-8.5-13.45a16.58,16.58,0,0,0-8,4c3.86,12.18,7.48,24.62,7.51,29,0,5.57-1.88,12.22-3.58,18.08a67.89,67.89,0,0,0-2.33,9.53c-.69,6,2.24,6.48,20,8.67,17.45,2.15,20.53-.38,23-6.23,1.57-3.69,1.65-15.52,1.73-27,0-6.73.09-13.69.45-18.92.3-4.47.37-10.18.3-16.06A14.17,14.17,0,0,0,328.81,326.21Z"/><path class="cls-1" d="M336.11,293.11c.76-2.74,1.1-4.33-.72-5.2a2.14,2.14,0,0,0-1.74-.21c-1,.38-1.5,1.82-1.93,3a5.06,5.06,0,0,1-1,1.85c-.94.86-2-.14-2.63-.8-.29-.29-.77-.76-1-.76h0a8.84,8.84,0,0,0,1.47,3,4.94,4.94,0,0,1,.61,3.35c0,.47,0,.48.41,1.15.21.33.51.78.91,1.48.68,1.17.18,8.94-1.74,26.27a14.17,14.17,0,0,1,8.13,1.84c-.16-13-1-26.84-1.5-29.58A12.51,12.51,0,0,1,336.11,293.11Z"/><path class="cls-1" d="M262.21,281.86l-.07.09c-.48.7-1.06,1.39-1.7,1.29s-1-1.08-1.41-2.52c-.1-.36-.21-.75-.34-1.15a2.49,2.49,0,0,0-1.13-1.63,1.28,1.28,0,0,0-.93-.06c-2.37,1.05-2,3.83-1.08,8.26a41,41,0,0,1,.82,5.6,22.87,22.87,0,0,1,4.44.62,49.55,49.55,0,0,1,.54-5.32A26.82,26.82,0,0,0,262.21,281.86Z"/><path class="cls-5" d="M256.41,292.49c.05,3.29-2,16.84-3.93,29.95-1.74,11.67-3.54,23.73-3.36,25.39s-1.61,7.85-3.88,15.72c-2.83,9.83-6.36,22.06-6.85,28.48-.16,2.07,1.36,3.79,4.52,5.11,11.11,4.64,38.7,2.55,40.53.44s1.5-8.51,1.32-13.74c-.07-2.1-.14-4.09-.09-5.65.2-5.64,2.85-20.74,4.35-26.87.39-1.59,1.33-6.11,2.53-11.87-1.43-4.73-3-9.73-4.55-14.46-2,7.22-4.14,14-5.82,18.64-.11,1.65-.22,3-.25,3.82-.1,3.13,2,8.37.34,10.59s-5,2.51-5,2.51l-.64-2.61-.25,2.56c-10.12,2.29-17.63-4.87-17.63-4.87l2.41-5.12-4,4.28s-3.64-2.83-3-4.92c.42-1.37,4.62-7.3,8.09-12.43l-1.2-24.29c-.18-3.64.29-14.22.75-20.78a22.87,22.87,0,0,0-4.44-.62C256.38,292,256.4,292.24,256.41,292.49Z"/><path class="cls-1" d="M302.56,293.76c1.66-1.87,4.44-5,3.29-6.32s-3,0-5.13,1.62c-.44.34-.84.66-1.19.88a1.43,1.43,0,0,1-1.32.26c-.68-.27-.89-1.17-1.09-2a5.25,5.25,0,0,0-.38-1.23c-.1-.17-.16-.15-.19-.14-.44.11-1.37,1.49-1.44,5.05a33.35,33.35,0,0,1-.76,4.45,23.44,23.44,0,0,1,6,1.58,13.07,13.07,0,0,1,.71-2.34A18.3,18.3,0,0,1,302.56,293.76Z"/><path class="cls-5" d="M291,310.32c1.62,3.58,3.14,6.87,4.56,9.84,2.16-10.4,3.89-18.48,4.85-22.28a23.44,23.44,0,0,0-6-1.58C293.62,299.75,292.41,304.74,291,310.32Z"/><path class="cls-1" d="M255.25,295.3c.06-2.12-.85-2.27-.88-2.28a1.76,1.76,0,0,0-1.47.2c-.68.47-1.1,1.53-1.19,3.08-.29,4.52-1.31,6.75-2.28,8.33-.74,1.21-21.14,30.92-26.8,36.79a8.18,8.18,0,0,1-3.44,2.17c-1.42,4.09-2.11,10.54,4.77,15.18a5.69,5.69,0,0,1,.81-3.16c11-13.68,26.25-45.43,27.19-47.68a8.68,8.68,0,0,1,2.16-2.85c.52-3.76.94-7,1.18-9.36A1.35,1.35,0,0,1,255.25,295.3Z"/><path class="cls-14" d="M219.19,343.59a17.15,17.15,0,0,1-6.88.28c-.79-.07-1.56-.13-2.31-.16a15.56,15.56,0,0,0,0,2.1c.59,9.16,3.55,9-2.76,13.2s-3.15,5.61-10,14.38a15,15,0,0,1-2.33,2.41c-1.51,9.65-1.9,18.54.19,21.34,3.22,4.3,16.37,5,25.12,2.7a21.61,21.61,0,0,0,4.55-1.69l0-.22.53-.08c1.84-1.08,2.93-2.35,3.11-3.74.48-3.67-.86-11.08-2.16-18.24-1.22-6.75-2.39-13.21-2.21-17.11C217.08,354.13,217.77,347.68,219.19,343.59Z"/><path class="cls-1" d="M337.81,326.79c.09,5.34.06,10.6-.14,15q.86,1.44,1.73,2.83c1.57-5.11,3.48-7.83,4.79-9.2C342.25,332.89,340.05,329.9,337.81,326.79Z"/><path class="cls-3" d="M369.88,348.59a5.59,5.59,0,0,1-.67.07c-4.28.2-3.89-3.25-6.7-3.35a4.14,4.14,0,0,1-2.67-1.32l-.42,0c-3.58.28-7.27.57-10.33-2.61-1.14-1.18-2.87-3.33-4.93-6-1.31,1.37-3.22,4.1-4.79,9.2a114.76,114.76,0,0,0,7.57,11c1.86,2.31.28,11-1.39,20.27-1.3,7.16-2.64,14.57-2.16,18.24.32,2.47,3.54,4.63,8.82,5.92,8.87,2.17,21.49,1.38,24.45-2.88C381,390.95,374.49,358.78,369.88,348.59Z"/><path class="cls-6" d="M488.16,394.89c-.68-2-2.64-6.68-4.71-11.59-2.85-6.75-6.08-14.4-6.83-17.26-1.31-5-8.92-16-12.34-17.82a25.93,25.93,0,0,0-3.26-1.4,14.49,14.49,0,0,1-3.85-1.89c-1.1,3.24-6.36,4.73-7.74,5.06-.41,5.81-1.51,13.71-2.24,15.85-3.68,10.85-6.84,23.31-4.66,25.71,2.78,3.06,22.09,3,25.82,0s2.47-14.28,1.46-16.22l.05,0c-2.2-3.93-4.39-7.81-6.35-11.26l.77-.44c1.72,3,14.58,25.75,18.89,34.18A10.3,10.3,0,0,0,488.16,394.89Z"/><path class="cls-1" d="M491.75,401.84c-.56-.88-1-1.46-1.33-1.92a11.36,11.36,0,0,1-2.12-4.62l-.13-.41a10.3,10.3,0,0,1-5,2.86,19.71,19.71,0,0,1,1.4,3.06,18.78,18.78,0,0,1,0,4.82c-.17,2,.16,3.57.56,3.79.09,0,.26-.06.36-.12a3.65,3.65,0,0,0,1.07-1.46c.21-.44.39-.81.8-.86a1,1,0,0,1,.81.49c.38.5.4,1.45.41,3s0,3.8.94,3.8c1.79,0,3.25-1.74,4-4.76C494.2,406.81,493.78,405,491.75,401.84Z"/><path class="cls-1" d="M413.58,374.14a4.73,4.73,0,0,1-3.3-1.07,4.63,4.63,0,0,0-2.09-.92,1.29,1.29,0,0,0-1.22.45,1.88,1.88,0,0,0,.33,1.82,1.08,1.08,0,0,1,.17.92c-.2.68-1.08,1.06-2.09,1.5a5,5,0,0,0-2.2,1.39,2.2,2.2,0,0,0,.17,2,3.53,3.53,0,0,0,2.26,2c.9.11,3.41-1.43,5.23-2.56a14.6,14.6,0,0,1,3.28-1.77c.31-.07,1.08-.14,2.23-.23A6.11,6.11,0,0,1,413.58,374.14Z"/><path class="cls-6" d="M436.79,367.79c-1.32,1.32-8.32,2.95-16.63,4.78-2.83.62-5.27,1.16-6,1.42a3.2,3.2,0,0,1-.6.16,6.11,6.11,0,0,0,2.78,3.5l1.37-.11c4.64-.37,12.4-1,15.85-2.11,4.41-1.43,10.59-5.46,11.53-6.08.45-1.43.88-2.72,1.24-3.78.85-2.5,1.66-9,2.08-14.26C445.78,355.26,438.44,366.14,436.79,367.79Z"/><path d="M134.82,490.74,132.68,500h20.27a4.4,4.4,0,0,0-1.79-3.47,14.48,14.48,0,0,0-3.59-1.22c-2.74-.71-5.57-1.45-6.05-3.32a1.31,1.31,0,0,1,0-.36A13.08,13.08,0,0,1,134.82,490.74Z"/><path class="cls-1" d="M159.9,435c0-1.58-1.72-3.67-2.57-4.53-1.7,3.4-5.88,9.74-13.43,10.07h-.16a8.68,8.68,0,0,1,1.74,1.27c.16.21.49.64-10.65,48.93a13.08,13.08,0,0,0,6.68.88c.15-2.73,4.9-16.7,11.52-35.88C156.39,446,159.88,435.84,159.9,435Z"/><path class="cls-1" d="M104.16,494.28l-.14-.13c-2-2.31,9.74-37.5,12.59-45.91-.51,0-1-.11-1.47-.18-2.34-.39-5.47.14-8.49.65l-.88.15-9.07,44.31A11,11,0,0,0,104.16,494.28Z"/><path d="M110.16,496.46c-2.52-.55-4.9-1.08-6-2.18a11,11,0,0,1-7.47-1.12l-1.44,7c2,.36,13.6.09,20.86-.18a6.45,6.45,0,0,0-.36-1.31C115.37,497.6,112.6,497,110.16,496.46Z"/><path class="cls-12" d="M116.46,367.61l-.87.18c.43,2-.38,6.47-1.6,11.14a7.92,7.92,0,0,0,.95-.13C116.13,374.19,116.91,369.75,116.46,367.61Z"/><path class="cls-1" d="M104.76,376.48c-2.17,8-3.87,16.8-3.45,19.06.18,1,.39,2.59.66,4.66.79,6.17,2.12,16.49,4.31,20.08a38.53,38.53,0,0,1,3.15,7c.67,1.81,1.25,3.38,1.83,3.65a1.53,1.53,0,0,0,1.18-.07,5.58,5.58,0,0,0,2.73-2.72c.23-.61-.2-2-.54-3.13-.45-1.47-.67-2.26-.31-2.72a.74.74,0,0,1,.63-.27c.2,0,.47,0,.77.09,1.25.17,1.93.18,2,0,0,0,.1-.27-.66-1.23-1.06-1.33-2.56-1.48-4-1.64s-3-.31-3.46-1.91c-.86-2.8-2.64-20.86-.33-24.94,1.25-2.21,3.26-8,4.7-13.44C110.83,379.16,107.2,377.7,104.76,376.48Z"/><path class="cls-1" d="M131.9,364.82a10.18,10.18,0,0,0-2.6-3.25c-2.08-1.37-3.1-3.43-3-4.33a.57.57,0,0,1,.29-.45c.39-.21.9,0,1.91.53a7,7,0,0,0,3.05,1,.42.42,0,0,0,.29-.18c.71-.93.25-4.11.1-5.16l0-.29c-.11-.85.61-1.54,1.14-2,.13-.12.29-.27.38-.38l-.11-.1a3.94,3.94,0,0,1-1.34-2.71c-.28-1.75-1.29-2.15-1.34-2.16s-3.86-1.85-4.67-.22a15.32,15.32,0,0,0-.93,2.83c-.36,1.38-.58,2.21-1.14,2.38a.72.72,0,0,1-.7-.2.92.92,0,0,0-.79-.3c-.37.09-.73.53-1,1.26s.22,1.84.71,2.88a5.07,5.07,0,0,1,.79,2.85c-.34,1.85-3.72,1.92-4.32,1.91C120.12,361.16,124,365.48,131.9,364.82Z"/><path class="cls-3" d="M131.63,402.54c-2.56-3.34-1.18-8.7.59-14.36,1.87-6,2.57-13.65,2.05-17.08a19.92,19.92,0,0,0-2.38-6.27c-7.93.66-11.78-3.66-13.31-6.13h-.06a10.44,10.44,0,0,0-9.36,5.31c-1.36,2.41-3,7.26-4.41,12.47,2.43,1.22,6.07,2.68,9.22,2.45,1.22-4.66,2-9.15,1.6-11.14l.87-.18c.46,2.14-.32,6.58-1.52,11.19a5.82,5.82,0,0,0,3.14-1.64,5.82,5.82,0,0,1-3.14,1.64c-1.51,5.81-3.68,11.9-4.88,14-2,3.62-.47,21.39.41,24.25.3,1,1.18,1.13,2.71,1.29s3.31.35,4.6,2c.5.63,1.12,1.54.74,2.22s-1.76.59-2.92.43l-.58-.07a9.89,9.89,0,0,0,.46,1.83c.43,1.38.87,2.81.53,3.71a6.51,6.51,0,0,1-3.22,3.22,2.34,2.34,0,0,1-1.89,0c-.91-.43-1.45-1.91-2.28-4.15a37.81,37.81,0,0,0-3.08-6.81c-1.67-2.74-2.81-8.84-3.64-14.52a35,35,0,0,0-2.46,16.55c.81,6.31-2.3,21.79-2.66,23.54.23.46,1.29,2.2,4.33,2.19a38.33,38.33,0,0,0,5.4-.67c3.1-.52,6.3-1.06,8.78-.65,3.88.64,9.5.32,13.64-2.51.67-.46,1.24-.88,1.77-1.27,2.82-2.1,4.53-3.37,13.16-3.75,8.87-.39,12.82-9.65,13.46-11.33C154.84,425.9,133.85,405.44,131.63,402.54Z"/></svg>