<?xml version="1.0" encoding="utf-8"?>
<!-- Generator: Adobe Illustrator 16.0.0, SVG Export Plug-In . SVG Version: 6.00 Build 0)  -->
<!DOCTYPE svg PUBLIC "-//W3C//DTD SVG 1.1//EN" "http://www.w3.org/Graphics/SVG/1.1/DTD/svg11.dtd">
<svg version="1.1" id="Layer_1" xmlns="http://www.w3.org/2000/svg" xmlns:xlink="http://www.w3.org/1999/xlink" x="0px" y="0px"
	 width="514px" height="221px" viewBox="46.5 262.5 514 221" enable-background="new 46.5 262.5 514 221" xml:space="preserve">
<g>
	<path fill="#FF8C3E" d="M115.29,291.24c-9.975,0-18.491,3.53-25.552,10.601c-7.07,7.071-10.601,15.588-10.601,25.552
		c0,12.328,5.57,21.709,16.722,28.143c4.253,2.45,15.814,6.391,34.662,11.831c14.229,4.265,24.473,9.197,30.723,14.822
		c8.885,8.063,13.321,19.711,13.321,34.933c0,14.864-5.257,27.506-15.771,37.923c-10.428,10.417-23.015,15.631-37.793,15.631H69.206
		c-2.267,0-4.21-0.82-5.851-2.45c-1.63-1.63-2.45-3.584-2.45-5.852v-0.82c0-2.267,0.82-4.21,2.45-5.851
		c1.63-1.63,3.584-2.45,5.851-2.45h53.155c9.877,0,18.395-3.53,25.552-10.601c7.07-7.071,10.601-15.588,10.601-25.563
		c0-12.144-5.57-21.568-16.722-28.271c-4.534-2.721-16.041-6.974-34.533-12.781c-14.411-4.718-24.699-9.834-30.863-15.361
		c-8.884-7.978-13.32-19.075-13.32-33.303c0-14.864,5.214-27.506,15.631-37.923s23.058-15.631,37.923-15.631h36.573
		c2.354,0,4.351,0.82,5.98,2.45c1.544,1.544,2.311,3.487,2.311,5.851v0.821c0,2.267-0.767,4.21-2.311,5.851
		c-1.63,1.63-3.627,2.45-5.98,2.45H115.29L115.29,291.24z"/>
	<path fill="#FF8C3E" d="M368.54,296.4c-3.076,0-5.667-1.036-7.751-3.131c-2.083-2.083-3.13-4.663-3.13-7.75
		c0-2.99,1.047-5.527,3.13-7.611c2.084-2.083,4.664-3.13,7.751-3.13c2.99,0,5.527,1.047,7.61,3.13
		c2.17,2.17,3.261,4.718,3.261,7.611c0,2.989-1.091,5.569-3.261,7.75C374.068,295.364,371.531,296.4,368.54,296.4z M368.681,330.383
		c2.267,0,4.21,0.82,5.851,2.45c1.63,1.631,2.451,3.628,2.451,5.98v123.57c0,2.268-0.821,4.211-2.451,5.852
		c-1.63,1.63-3.584,2.45-5.851,2.45h-0.27c-2.354,0-4.351-0.82-5.98-2.45c-1.631-1.63-2.451-3.584-2.451-5.852v-123.57
		c0-2.353,0.82-4.35,2.451-5.98c1.63-1.63,3.627-2.45,5.98-2.45H368.681L368.681,330.383z"/>
	<path fill="#FF8C3E" d="M328.988,416.171c-1.716-2.354-4.037-3.53-6.931-3.53c-4.08,0-6.801,1.9-8.16,5.711
		c-3.628,10.515-9.921,19.031-18.892,25.552c-9.338,6.801-19.755,10.19-31.272,10.19c-13.408,0-25.434-4.891-36.066-14.692
		c-2.482-2.288-4.739-4.825-6.683-7.577c-5.991-8.55-9.758-18.611-10.341-28.985c-0.044-0.712-0.065-1.339-0.065-1.889
		c0-14.682,5.171-27.236,15.502-37.653c10.417-10.417,22.972-15.631,37.653-15.631c15.199,0,28.854,6.542,40.967,19.614
		c1.564,1.694,1.004,4.437-1.091,5.387l-29.891,13.526c-1.221,0.55-2.646,0.011-3.195-1.209l-5.991-13.246
		c-1.911-4.231-6.866-6.131-11.119-4.264l0,0c-4.308,1.889-6.25,6.941-4.318,11.227l6.941,15.426l3.509,7.806
		c1.921,4.264,6.93,6.163,11.194,4.231l1.22-0.551l0.021,0.054c0.475-0.216,0.928-0.421,1.403-0.637
		c20.661-9.338,37.34-16.851,50.023-22.562c2.084-0.993,3.541-2.537,4.351-4.62c0.82-2.181,0.724-4.308-0.27-6.391
		c-5.625-12.328-14.099-22.205-25.423-29.632c-11.604-7.611-24.386-11.422-38.332-11.422c-19.399,0-35.937,6.845-49.614,20.532
		c-13.688,13.688-20.532,30.227-20.532,49.614c0,19.398,6.845,35.937,20.532,49.613c13.678,13.688,30.226,20.532,49.614,20.532
		c15.037,0,28.725-4.394,41.053-13.181c11.961-8.614,20.349-19.852,25.152-33.713C330.931,421.061,330.617,418.524,328.988,416.171z
		"/>
	<path fill="#FF8C3E" d="M543.095,276.959c-1.63-1.544-3.583-2.311-5.851-2.311h-0.41c-2.267,0-4.21,0.767-5.851,2.311
		c-1.63,1.63-2.45,3.627-2.45,5.98v66.054c0,1.965-2.289,3.034-3.801,1.781c-16.494-13.602-32.935-20.402-49.354-20.402
		c-19.398,0-35.937,6.844-49.613,20.532c-13.688,13.688-20.532,30.226-20.532,49.613c0,19.399,6.844,35.938,20.532,49.614
		c13.677,13.688,30.226,20.532,49.613,20.532c19.302,0,35.797-6.801,49.484-20.392c0.216-0.216,0.432-0.442,0.647-0.658
		c1.102-1.134,3.023-0.367,3.023,1.22v11.334c0,4.696,3.799,8.496,8.495,8.496l0,0c4.696,0,8.496-3.8,8.496-8.496v-61.24v-46.882
		V282.95C545.535,280.586,544.726,278.599,543.095,276.959z M512.912,438.463c-10.244,10.428-22.745,15.631-37.523,15.631
		c-14.681,0-27.235-5.214-37.652-15.631c-10.331-10.418-15.502-22.929-15.502-37.524c0-14.681,5.171-27.235,15.502-37.652
		c10.417-10.417,22.972-15.631,37.652-15.631c14.768,0,27.279,5.214,37.523,15.631c10.417,10.428,15.632,22.972,15.632,37.652
		C528.544,415.534,523.329,428.034,512.912,438.463z"/>
</g>
</svg>
