<svg id="Layer_1" data-name="Layer 1" xmlns="http://www.w3.org/2000/svg" viewBox="0 0 879.34 370.4"><defs><style>.cls-1{fill:#f37820;}</style></defs><title>Untitled-1</title><path class="cls-1" d="M197.69,193.12c-10.82-9.8-27.51-18-51-25h0c-34.4-9.95-46.29-14.69-50.19-16.91C83.06,143.51,76.55,132.64,76.55,118A43.86,43.86,0,0,1,120.5,74h57.65a23.53,23.53,0,0,0,23.61-23.6V49.16A22.66,22.66,0,0,0,195,32.55a23,23,0,0,0-16.83-7H122.56c-25.44,0-47.44,9.1-65.37,27s-27,39.93-27,65.37c0,24.72,8,44.48,23.91,58.73,10.66,9.65,27.31,18.09,50.95,25.82,27.22,8.53,44.11,14.7,50.21,18.33,13.45,8.1,20,19,20,33.49a42,42,0,0,1-12.82,31.08c-8.8,8.67-19,12.88-31.14,12.88H50.46a22.8,22.8,0,0,0-16.62,7,22.79,22.79,0,0,0-7,16.62v1.23a22.84,22.84,0,0,0,7,16.63,22.8,22.8,0,0,0,16.62,7h78.71c25.31,0,47.24-9.1,65.16-27,18.07-17.93,27.24-39.92,27.24-65.39C221.58,228.09,213.54,207.49,197.69,193.12Z"/><path class="cls-1" d="M828.31,25.55a23.74,23.74,0,0,0-19.79,10.61,22.88,22.88,0,0,0-4.28,13.62v84.1c-20.38-15.28-43.8-23-69.78-23-32.29,0-60.26,11.59-83.15,34.46s-34.46,50.86-34.46,83.15,11.6,60.28,34.46,83.15,50.86,34.46,83.15,34.46c26.15,0,49.58-7.73,69.8-23a23.94,23.94,0,0,0,23.9,23h.15a23.76,23.76,0,0,0,23.76-23.76v-273A23.76,23.76,0,0,0,828.31,25.55ZM783.75,278.4h0c-13.65,13.78-29.76,20.47-49.27,20.47q-3.63,0-7.11-.31l.37-.52-.18.23-.2.29C711,297.11,697,290.48,685,278.42c-13.65-13.78-20.29-29.91-20.29-49.3s6.64-35.73,20.28-49.5,30-20.48,49.5-20.48,35.63,6.69,49.29,20.48,20.49,30,20.49,49.5S797.53,264.62,783.75,278.4Z"/><rect class="cls-1" x="528.97" y="111.5" width="47.53" height="234.6" rx="23.76" ry="23.76"/><circle class="cls-1" cx="552.74" cy="59.15" r="23.76"/><path class="cls-1" d="M436.6,130.68A114.72,114.72,0,0,0,372.4,111.5c-32.29,0-60.26,11.59-83.15,34.46s-34.46,50.86-34.46,83.15,11.6,60.28,34.46,83.15,50.86,34.46,83.15,34.46a118.51,118.51,0,0,0,95.23-48.43l.17-.25c.18-.25.34-.5.52-.75a23.69,23.69,0,0,0,3.87-12.94h0a23.84,23.84,0,0,0-23.84-23.84,23.59,23.59,0,0,0-16.76,7l-.05.05a24.3,24.3,0,0,0-2.45,2.83c-.25.35-.49.72-.75,1.07a70,70,0,0,1-15,14.71,68.43,68.43,0,0,1-41,13.34,74,74,0,0,1-21.18-3,70.22,70.22,0,0,1-48.55-66.76c0-34.44,25.64-64.26,59.56-69.37a76.57,76.57,0,0,1,29.54,1.8c1,.27,1.9.55,2.8.84l1.45.5c.6.21,1.19.42,1.79.65l1.48.59c.84.34,1.67.7,2.78,1.2a67.3,67.3,0,0,1,19.37,13.93L371,202.72l-2,.91a23.92,23.92,0,0,0,19.61,43.58l2.06-.93.86-.39q32.91-14.87,56.93-25.7l19.1-8.6a23.42,23.42,0,0,0,11.68-31.36A115.6,115.6,0,0,0,436.6,130.68Z"/></svg>