<svg id="Layer_1" data-name="Layer 1" xmlns="http://www.w3.org/2000/svg" viewBox="0 0 566.93 566.93"><defs><style>.cls-1{fill:#87bfc3;}.cls-2{fill:none;stroke:#fff;stroke-linecap:round;stroke-miterlimit:10;stroke-width:4px;}.cls-3{fill:#d5cfac;}.cls-4{fill:#576867;}.cls-5{fill:#4a9e8b;}.cls-6{fill:#67c4ab;}.cls-7{fill:#fff;}</style></defs><title>Untitled-1</title><circle class="cls-1" cx="305.96" cy="366.06" r="141.85" transform="translate(-170.05 333.98) rotate(-46.25)"/><path class="cls-2" d="M386.88,277.5l-93.66,97.86a3.81,3.81,0,0,0,.12,5.38l71,68"/><path class="cls-3" d="M273.64,180.6c4.73,4,29.1,4.63,41.39,4.58l-21.7-24.85H272.69a1.41,1.41,0,0,1-.26-.05l-.16,20.07A1.45,1.45,0,0,1,273.64,180.6Z"/><path class="cls-3" d="M273,206.48c.17,0,17.37,3.93,55.05,3.65-.47-1.32-.91-2.69-1.35-4.06-2-6.08-4.2-12.93-9.13-18-1,0-2.69,0-4.85,0-11,0-34.09-.54-40.49-4.91l-.17,23.38A1.45,1.45,0,0,1,273,206.48Z"/><path class="cls-3" d="M289.8,100.12,314,137.26c8.52-14.2,26.83-22.24,35.73-25.45l-58-13.74A8.91,8.91,0,0,1,289.8,100.12Zm45.48,11.19a1.47,1.47,0,0,1-.08,2.08c-7.2,6.63-18.1,16.69-18.93,17.53a1.47,1.47,0,0,1-2.43-1.61c.16-.33.23-.46,19.37-18.09A1.47,1.47,0,0,1,335.28,111.31Zm-9.81-2.55a1.47,1.47,0,0,1,0,2.08l-13.45,13.92a1.47,1.47,0,1,1-2.11-2L323.4,108.8A1.47,1.47,0,0,1,325.47,108.76Zm-8.28-2a1.47,1.47,0,0,1-.12,2.07l-10.19,9.09a1.47,1.47,0,0,1-2-2.19l10.19-9.09A1.47,1.47,0,0,1,317.2,106.79Zm-11.13-3.08a1.47,1.47,0,0,1,2.05,2.1l-6.16,6a1.47,1.47,0,0,1-2.05-2.1Z"/><path class="cls-3" d="M294.66,157.39l.06.07a89.51,89.51,0,0,0,15.42.45c-9.54-17.3-6.92-27.19-5.75-30l-17.18-26.35a8.84,8.84,0,1,1,5.64-10.87,14.49,14.49,0,0,0,9.25-2.29c5.32-3.48,8.83-10.49,10.45-20.84-3-2.89-19-16.58-40.08-3.94-11.56,6.94-14.53,16.86-15,24-.66,10.27,3.54,20.27,7.81,23.66l.73.58L262.79,126a1.47,1.47,0,0,1-1.43,1.14,1.5,1.5,0,0,1-.33,0L272,157.6a1.43,1.43,0,0,1,.71-.21Z"/><path class="cls-3" d="M290.28,93.16s0,0,0-.06a1.44,1.44,0,0,1-.44-2.17,5.91,5.91,0,1,0-5.46,8.14,5.85,5.85,0,0,0,2.51-.58l.06-.06a1.37,1.37,0,0,1,.19-.08A5.89,5.89,0,0,0,290.28,93.16Z"/><path class="cls-3" d="M343.86,219.94a8.28,8.28,0,0,0,6.17-4c7.66-11.51,3.05-43.76,0-54.08C346.85,151,333.69,150,333.56,150l-.15,0c-7.75-1.35-10.72,2.42-13.6,6.07a31.58,31.58,0,0,1-2.1,2.49c-3,3.1-14,2.68-20.18,2.17l21.83,25c5.66,5.57,8.05,13,10.16,19.48C332.77,215.25,335.06,220.92,343.86,219.94Z"/><path class="cls-3" d="M350.82,109,315.07,70.22c-1.92,10-5.76,17-11.42,20.64a17.28,17.28,0,0,1-10.46,2.77,8.8,8.8,0,0,1-.26,1.69Zm-43-18.12a1.47,1.47,0,0,1,1.77-1.08l21.84,5.29A1.47,1.47,0,0,1,331,98a1.44,1.44,0,0,1-.35,0l-21.84-5.29A1.47,1.47,0,0,1,307.78,90.92Z"/><path class="cls-3" d="M245.24,293.54H325L319.87,282l.45-.67c.18-.27,17.94-27.14,22-58.39l-.33,0c-7.08,0-10.43-4.28-12.8-9.93l-5,0c-35.32,0-51.12-3.58-51.81-3.74a1.43,1.43,0,0,1-.66-.38L244,294.24A1.44,1.44,0,0,1,245.24,293.54Z"/><path class="cls-3" d="M232.34,305.32a1.47,1.47,0,0,1-1.47-1.47v65.38H358.8l-28.52-63.91Z"/><path class="cls-4" d="M326.33,296.48H245.24a1.47,1.47,0,0,1-1.47-1.47L233,302.38H329Z"/><path d="M289.57,91.44a1.45,1.45,0,0,0,.71,1.65,5.87,5.87,0,0,0-.44-2.17A1.46,1.46,0,0,0,289.57,91.44Z"/><path d="M306.81,126.49a1.47,1.47,0,0,1,.53,2,10.35,10.35,0,0,0-.83,2.64L314.28,143l1.15-2.27c9.65-19.11,39.81-27.69,40.12-27.78l2.31-.64L315.19,66a1.47,1.47,0,0,1-2.14,2l-.5-.5c-1.62,10.34-5.13,17.36-10.45,20.84a14.49,14.49,0,0,1-9.25,2.29,8.8,8.8,0,0,1,.37,2.5c0,.16,0,.32,0,.48a17.28,17.28,0,0,0,10.46-2.77c5.66-3.68,9.5-10.61,11.42-20.64L350.82,109l4.67,1.11a1.47,1.47,0,1,1-.68,2.86l-5.07-1.2c-8.9,3.21-27.21,11.26-35.73,25.45L289.8,100.12a8.83,8.83,0,0,1-2.59,1.4l17.18,26.35a7.35,7.35,0,0,1,.41-.86A1.47,1.47,0,0,1,306.81,126.49Z"/><path d="M286.88,98.49l.26-.14a1.37,1.37,0,0,0-.19.08Z"/><path d="M315.17,66l-2.05-2.23-.05.35A26.49,26.49,0,0,1,315.17,66Z"/><path d="M290.27,93.1s0,0,0,.06a5.89,5.89,0,0,1-3.15,5.19,1.45,1.45,0,0,1,1.84.5l.83,1.27a8.91,8.91,0,0,0,1.93-2.07l-.32-.08a1.47,1.47,0,0,1,.68-2.86l.85.2a8.8,8.8,0,0,0,.26-1.69,13.32,13.32,0,0,1-2.61-.38A1.42,1.42,0,0,1,290.27,93.1Z"/><path d="M286.88,98.49a5.85,5.85,0,0,1-2.51.58,5.91,5.91,0,1,1,5.46-8.14,1.48,1.48,0,0,1,1.54-.5,9.84,9.84,0,0,0,1.48.23,8.86,8.86,0,1,0-5.64,10.87l-.7-1.07A1.46,1.46,0,0,1,286.88,98.49Z"/><path d="M289.83,90.92a5.87,5.87,0,0,1,.44,2.17,1.42,1.42,0,0,0,.31.16,13.32,13.32,0,0,0,2.61.38c0-.16,0-.32,0-.48a8.8,8.8,0,0,0-.37-2.5,9.84,9.84,0,0,1-1.48-.23A1.48,1.48,0,0,0,289.83,90.92Z"/><path d="M289,98.85a1.45,1.45,0,0,0-1.84-.5l-.26.14a1.46,1.46,0,0,0-.36,2l.7,1.07a8.83,8.83,0,0,0,2.59-1.4Z"/><path d="M259.93,125.32a1.47,1.47,0,0,0,1.11,1.76l-.92-2.6Z"/><path d="M315.19,66l0,0,0,0Z"/><path d="M262.79,126,266,111.78l-.73-.58c-4.27-3.38-8.47-13.39-7.81-23.66.46-7.1,3.43-17,15-24,21-12.64,37.05,1,40.08,3.94,0-.24.08-.48.12-.72l.39-2.7c-5.64-4.61-22-15.14-42.1-3-12.65,7.6-15.9,18.49-16.4,26.29-.7,10.82,3.52,21.17,8.2,25.53l-2.63,11.59.92,2.6a1.5,1.5,0,0,0,.33,0A1.47,1.47,0,0,0,262.79,126Z"/><path d="M313.05,68a1.47,1.47,0,0,0,2.14-2l0,0a26.49,26.49,0,0,0-2.1-1.88l-.39,2.7c0,.25-.08.48-.12.72Z"/><path d="M306.51,131.12l-2.12-3.25c-1.16,2.85-3.79,12.75,5.75,30a23.05,23.05,0,0,0,3.12-.44C305.53,143.89,305.69,135.16,306.51,131.12Z"/><path d="M307.34,128.48A1.47,1.47,0,0,0,304.8,127a7.35,7.35,0,0,0-.41.86l2.12,3.25A10.35,10.35,0,0,1,307.34,128.48Z"/><path d="M272.27,180.35a1.43,1.43,0,0,0-.7.43,1.47,1.47,0,0,0,.18,2.07c.15.13.32.25.5.37v-2.87Z"/><path d="M272,157.6a1.43,1.43,0,0,0,.45,2.68v-1.4Z"/><path d="M317.59,188.09c-.14-.14-.25-.29-.39-.43a1.47,1.47,0,1,1,2-2.11l.12.13-21.83-25c-1.67-.14-3-.28-3.71-.36a1.47,1.47,0,1,1,.34-2.92l.56.06-.06-.07h-22a1.43,1.43,0,0,0-.71.21l.46,1.27v1.4a1.41,1.41,0,0,0,.26.05h20.63L315,185.18c-12.28,0-36.66-.6-41.39-4.58a1.45,1.45,0,0,0-1.37-.25v2.87c6.4,4.37,29.5,4.91,40.49,4.91C314.9,188.13,316.59,188.11,317.59,188.09Z"/><path d="M344.18,219.94a1.47,1.47,0,0,1,1.29,1.62c0,.37-.09.74-.14,1.1a11.35,11.35,0,0,0,7.14-5.13c9-13.51,2.9-48,.38-56.54-3.66-12.41-17.68-13.83-19-13.94-9.43-1.62-13.42,3.46-16.34,7.16a29.16,29.16,0,0,1-1.9,2.26,4.93,4.93,0,0,1-2.34,1l.37.65a1.47,1.47,0,1,1-2.54,1.48c-.33-.57-.64-1.13-.95-1.68a89.51,89.51,0,0,1-15.42-.45l2.81,3.22c6.17.51,17.16.93,20.18-2.17a31.58,31.58,0,0,0,2.1-2.49c2.87-3.65,5.84-7.42,13.6-6.07l.15,0c.13,0,13.3,1.07,16.48,11.85,3,10.32,7.65,42.58,0,54.08a8.28,8.28,0,0,1-6.17,4c-8.79,1-11.08-4.69-14.34-14.78-2.1-6.52-4.49-13.91-10.16-19.48l2,2.33-3.15.06h-.66c4.94,5,7.17,11.89,9.13,18,.44,1.38.89,2.74,1.35,4.06l2.08,0h0a1.47,1.47,0,0,1,0,2.94h-1c2.37,5.64,5.72,9.93,12.8,9.93l.33,0c.08-.58.16-1.15.22-1.73A1.45,1.45,0,0,1,344.18,219.94Z"/><path d="M312.36,160.33a1.47,1.47,0,0,0,1.27-2.21l-.37-.65a23.05,23.05,0,0,1-3.12.44c.31.55.62,1.11.95,1.68A1.47,1.47,0,0,0,312.36,160.33Z"/><path d="M294.16,157.41a1.47,1.47,0,1,0-.34,2.92c.71.08,2,.23,3.71.36l-2.81-3.22Z"/><path d="M321.4,188l-2-2.33-.12-.13a1.47,1.47,0,1,0-2,2.11c.14.14.26.29.39.43h.66Z"/><path d="M361.48,368l-2.68-6v7.21a1.47,1.47,0,0,0,1.34.87,1.45,1.45,0,0,0,.6-.13A1.47,1.47,0,0,0,361.48,368Z"/><path d="M332.58,303.28a1.47,1.47,0,0,1-1.35,2h-1l28.52,63.91V362Z"/><path d="M332.58,303.28l-3.94-8.83a1.47,1.47,0,0,1-1.35,2h-1l2.63,5.9h2.26A1.47,1.47,0,0,1,332.58,303.28Z"/><path d="M328.63,294.44l-5.42-12.15c2.85-4.48,18.48-30.2,22.13-59.63a11.38,11.38,0,0,1-1.16.19c-.64.07-1.25.09-1.84.1-4.08,31.25-21.83,58.11-22,58.39l-.45.67L325,293.54h2.26A1.47,1.47,0,0,1,328.63,294.44Z"/><path d="M345.34,222.66c0-.37.1-.73.14-1.1a1.47,1.47,0,0,0-1.29-1.62,1.45,1.45,0,0,0-1.62,1.29c-.07.58-.15,1.15-.22,1.73.59,0,1.2,0,1.84-.1A11.38,11.38,0,0,0,345.34,222.66Z"/><path d="M272.08,206.6a1.42,1.42,0,0,0-.38,2.36l.37-1.15Z"/><path d="M272.36,209.34c.69.16,16.49,3.74,51.81,3.74l5,0c-.4-.94-.77-1.92-1.12-2.93-37.68.28-54.88-3.61-55.05-3.65a1.45,1.45,0,0,0-.94.12v1.2L271.7,209A1.43,1.43,0,0,0,272.36,209.34Z"/><path d="M331.65,211.56a1.47,1.47,0,0,0-1.47-1.45h0l-2.08,0c.35,1,.73,2,1.12,2.93h1A1.47,1.47,0,0,0,331.65,211.56Z"/><path d="M243.77,295l.25-.77A1.43,1.43,0,0,0,243.77,295Z"/><path d="M245.24,296.48h81.09L325,293.54H245.24a1.44,1.44,0,0,0-1.22.7l-.25.77A1.47,1.47,0,0,0,245.24,296.48Z"/><path d="M328.63,294.44h0Z"/><path d="M328.75,295a1.47,1.47,0,0,0-.11-.57h0a1.47,1.47,0,0,0-1.35-.89H325l1.31,2.94h1A1.47,1.47,0,0,0,328.75,295Z"/><path d="M232.34,302.38a1.47,1.47,0,0,0-1.47,1.47l2.14-1.47Z"/><path d="M232.34,305.32h97.93L329,302.38H233l-2.14,1.47A1.47,1.47,0,0,0,232.34,305.32Z"/><path d="M332.58,303.28h0Z"/><path d="M331.23,302.38H329l1.31,2.94h1a1.47,1.47,0,0,0,1.35-2h0A1.47,1.47,0,0,0,331.23,302.38Z"/><path d="M291.73,98.06l58,13.74c1.06-.38,2-.7,2.75-.95L350.82,109,292.94,95.33A8.8,8.8,0,0,1,291.73,98.06Z"/><path d="M349.74,111.8l5.07,1.2a1.47,1.47,0,1,0,.68-2.86L350.82,109l1.67,1.82C351.74,111.1,350.8,111.42,349.74,111.8Z"/><path d="M292.09,95.12a1.47,1.47,0,0,0-.68,2.86l.32.08a8.8,8.8,0,0,0,1.21-2.73Z"/><path d="M308.87,92.69,330.7,98a1.44,1.44,0,0,0,.35,0,1.47,1.47,0,0,0,.34-2.9l-21.84-5.29a1.47,1.47,0,1,0-.69,2.85Z"/><path d="M299.88,111.79a1.47,1.47,0,0,0,2.08,0l6.16-6a1.47,1.47,0,0,0-2.05-2.1l-6.16,6A1.47,1.47,0,0,0,299.88,111.79Z"/><path d="M304.82,117.83a1.47,1.47,0,0,0,2.07.12l10.19-9.09a1.47,1.47,0,0,0-2-2.19l-10.19,9.09A1.47,1.47,0,0,0,304.82,117.83Z"/><path d="M310,124.8a1.47,1.47,0,0,0,2.08,0l13.45-13.92a1.47,1.47,0,1,0-2.11-2l-13.45,13.92A1.47,1.47,0,0,0,310,124.8Z"/><path d="M313.83,129.31a1.47,1.47,0,0,0,2.43,1.61c.83-.84,11.72-10.9,18.93-17.53a1.47,1.47,0,1,0-2-2.16C314.06,128.85,314,129,313.83,129.31Z"/><path class="cls-5" d="M159.46,126H110.83V229.85a79.22,79.22,0,0,0,79.22,79.22h0a79.83,79.83,0,0,0,10.46-.71C142.42,287.83,153.41,169.2,159.46,126Z"/><path class="cls-6" d="M159.46,126c-6.06,43.2-17,161.83,41.05,182.36a79.21,79.21,0,0,0,68.75-78.51V126Z"/><path class="cls-7" d="M190.05,313.85a84.45,84.45,0,0,1-84.36-84.36v-109H274.41v109a84.54,84.54,0,0,1-73.22,83.6A85.61,85.61,0,0,1,190.05,313.85ZM116,130.78v98.71a74.16,74.16,0,0,0,74.08,74.08,75.33,75.33,0,0,0,9.79-.66,74.23,74.23,0,0,0,64.29-73.41V130.78Z"/><path class="cls-7" d="M173.08,227.65,164,209.48a4.84,4.84,0,0,0-4.33-2.68h-2.89a4.84,4.84,0,0,0-4.84,4.84v19h-8.58V178.92a4.84,4.84,0,0,1,4.84-4.84h17.08c10.72,0,17.55,6.91,17.55,16.52,0,6.3-3,10.83-7.29,13.35a4.75,4.75,0,0,0-1.58,6.29l10.62,20.4h-6.67A5.39,5.39,0,0,1,173.08,227.65Zm-8.44-45.87h-7.86a4.84,4.84,0,0,0-4.84,4.84v8a4.84,4.84,0,0,0,4.84,4.84h7.86c5.72,0,9.61-3.26,9.61-8.82S170.36,181.78,164.65,181.78Z"/><path class="cls-7" d="M222.89,227.53a13.71,13.71,0,0,1-9.77,3.58,16.85,16.85,0,0,1-4.25-.48,4.89,4.89,0,0,0-6.31,4.6v11.69h-8.1V190.36h7.94v4.29c3-3.65,6.27-4.77,10.65-4.77a13.91,13.91,0,0,1,9.84,3.57c4.06,4.06,4.53,10.88,4.53,17S226.95,223.48,222.89,227.53ZM211,197.11c-7.31,0-8.42,6.2-8.42,13.35s1.11,13.42,8.42,13.42,8.34-6.27,8.34-13.42S218.29,197.11,211,197.11Z"/><path class="cls-7" d="M238.17,225.78h0a4.84,4.84,0,0,1,4.84-4.84h0a4.84,4.84,0,0,1,4.84,4.84h0a4.84,4.84,0,0,1-4.84,4.84h0A4.84,4.84,0,0,1,238.17,225.78Z"/></svg>