<?xml version="1.0" encoding="utf-8"?>
<!-- Generator: Adobe Illustrator 23.0.1, SVG Export Plug-In . SVG Version: 6.00 Build 0)  -->
<svg version="1.1" id="Layer_1" xmlns="http://www.w3.org/2000/svg" xmlns:xlink="http://www.w3.org/1999/xlink" x="0px" y="0px"
	 viewBox="0 0 566.93 566.93" style="enable-background:new 0 0 566.93 566.93;" xml:space="preserve">
<style type="text/css">
	.st0{fill:#FF8C3E;}
	.st1{fill:none;}
</style>
<path class="st0" d="M345.32,206.58c-1.88-2.57-4.4-3.85-7.56-3.85c-4.44,0-7.41,2.07-8.89,6.22
	c-3.95,11.46-10.81,20.74-20.59,27.85c-10.17,7.41-21.53,11.11-34.08,11.11c-14.62,0-27.72-5.34-39.31-16.01
	c-2.7-2.49-5.17-5.25-7.28-8.26c-6.54-9.32-10.63-20.28-11.27-31.59c-0.04-0.77-0.07-1.46-0.07-2.06c0-16,5.63-29.68,16.89-41.04
	c11.36-11.36,25.04-17.04,41.04-17.04c16.56,0,31.44,7.13,44.65,21.37c1.71,1.84,1.1,4.83-1.19,5.87l-32.57,14.74
	c-1.32,0.6-2.88,0.01-3.48-1.31l-6.53-14.44c-2.08-4.61-7.49-6.68-12.12-4.65v0c-4.7,2.06-6.81,7.56-4.71,12.24l7.57,16.81l3.83,8.5
	c2.09,4.65,7.56,6.71,12.2,4.62l1.33-0.6l0.03,0.06c0.51-0.23,1.01-0.46,1.52-0.69c22.52-10.17,40.69-18.37,54.52-24.59
	c2.27-1.09,3.85-2.76,4.74-5.04c0.89-2.37,0.79-4.69-0.3-6.96c-6.13-13.43-15.36-24.2-27.71-32.3
	c-12.65-8.3-26.57-12.45-41.78-12.45c-21.14,0-39.16,7.46-54.07,22.37c-14.92,14.92-22.37,32.94-22.37,54.08
	c0,21.14,7.46,39.16,22.37,54.07c14.91,14.92,32.94,22.37,54.07,22.37c16.39,0,31.31-4.79,44.74-14.37
	c13.04-9.38,22.17-21.63,27.41-36.74C347.45,211.91,347.1,209.15,345.32,206.58z"/>
<g>
	<path class="st0" d="M151.35,319.2c-5.91,0-10.96,2.09-15.15,6.29c-4.19,4.19-6.29,9.24-6.29,15.15c0,7.31,3.3,12.87,9.91,16.68
		c2.52,1.45,9.37,3.79,20.55,7.01c8.43,2.53,14.5,5.45,18.21,8.78c5.26,4.78,7.9,11.68,7.9,20.71c0,8.81-3.12,16.31-9.35,22.48
		c-6.18,6.18-13.65,9.27-22.4,9.27h-30.7c-1.34,0-2.5-0.48-3.47-1.45c-0.97-0.97-1.45-2.12-1.45-3.47v-0.48
		c0-1.34,0.48-2.5,1.45-3.47c0.97-0.97,2.12-1.45,3.47-1.45h31.51c5.86,0,10.91-2.09,15.15-6.28c4.19-4.19,6.29-9.24,6.29-15.15
		c0-7.2-3.3-12.78-9.91-16.76c-2.69-1.61-9.51-4.14-20.47-7.57c-8.54-2.79-14.64-5.83-18.29-9.11c-5.27-4.73-7.9-11.31-7.9-19.74
		c0-8.81,3.09-16.3,9.27-22.48c6.18-6.18,13.67-9.27,22.48-9.27h21.68c1.4,0,2.58,0.48,3.55,1.45c0.91,0.91,1.37,2.07,1.37,3.47
		v0.48c0,1.34-0.46,2.5-1.37,3.47c-0.97,0.97-2.15,1.45-3.55,1.45H151.35z"/>
	<path class="st0" d="M301.47,322.26c-1.83,0-3.36-0.62-4.59-1.85c-1.24-1.24-1.85-2.77-1.85-4.59c0-1.77,0.62-3.28,1.85-4.51
		c1.24-1.24,2.77-1.85,4.59-1.85c1.77,0,3.28,0.62,4.51,1.85c1.29,1.29,1.93,2.79,1.93,4.51c0,1.77-0.65,3.3-1.93,4.59
		C304.75,321.65,303.25,322.26,301.47,322.26z M301.55,342.41c1.34,0,2.5,0.48,3.47,1.45c0.97,0.97,1.45,2.15,1.45,3.55v73.25
		c0,1.34-0.48,2.5-1.45,3.47c-0.97,0.97-2.12,1.45-3.47,1.45h-0.16c-1.4,0-2.58-0.48-3.55-1.45c-0.97-0.97-1.45-2.12-1.45-3.47
		V347.4c0-1.4,0.48-2.58,1.45-3.55c0.97-0.97,2.15-1.45,3.55-1.45H301.55z"/>
	<path class="st0" d="M278.02,393.26c-1.02-1.4-2.39-2.09-4.11-2.09c-2.42,0-4.03,1.13-4.84,3.38c-2.15,6.23-5.88,11.28-11.2,15.15
		c-5.53,4.03-11.71,6.04-18.54,6.04c-7.95,0-15.08-2.9-21.38-8.71c-1.47-1.35-2.81-2.86-3.96-4.5c-3.55-5.07-5.78-11.03-6.13-17.18
		c-0.02-0.42-0.04-0.79-0.04-1.12c0-8.7,3.06-16.14,9.19-22.32c6.18-6.18,13.62-9.27,22.32-9.27c9.01,0,17.1,3.88,24.29,11.63
		c0.93,1,0.6,2.63-0.65,3.19l-17.72,8.02c-0.72,0.33-1.57,0.01-1.9-0.71l-3.55-7.85c-1.13-2.51-4.07-3.63-6.59-2.53h0
		c-2.56,1.12-3.71,4.11-2.56,6.66l4.12,9.15l2.08,4.62c1.14,2.53,4.11,3.65,6.64,2.51l0.72-0.33l0.01,0.03
		c0.28-0.13,0.55-0.25,0.83-0.38c12.25-5.53,22.13-9.99,29.65-13.38c1.24-0.59,2.1-1.5,2.58-2.74c0.48-1.29,0.43-2.55-0.16-3.79
		c-3.33-7.31-8.35-13.16-15.07-17.57c-6.88-4.51-14.45-6.77-22.73-6.77c-11.5,0-21.3,4.06-29.41,12.17
		c-8.11,8.11-12.17,17.92-12.17,29.41c0,11.5,4.06,21.3,12.17,29.41c8.11,8.11,17.92,12.17,29.41,12.17c8.92,0,17.03-2.6,24.34-7.82
		c7.09-5.1,12.06-11.77,14.91-19.99C279.18,396.16,278.99,394.65,278.02,393.26z"/>
	<path class="st0" d="M404.94,310.74c-0.97-0.91-2.12-1.37-3.47-1.37h-0.24c-1.34,0-2.5,0.46-3.47,1.37
		c-0.97,0.97-1.45,2.15-1.45,3.55v39.16c0,1.16-1.36,1.8-2.25,1.06c-9.77-8.06-19.53-12.09-29.25-12.09
		c-11.5,0-21.3,4.06-29.41,12.17c-8.11,8.11-12.17,17.92-12.17,29.41c0,11.5,4.06,21.3,12.17,29.41
		c8.11,8.11,17.92,12.17,29.41,12.17c11.44,0,21.22-4.03,29.33-12.09c0.13-0.13,0.26-0.26,0.38-0.39c0.66-0.67,1.79-0.22,1.79,0.72
		v6.72c0,2.78,2.25,5.04,5.04,5.04l0,0c2.78,0,5.04-2.25,5.04-5.04v-36.3v-27.8v-42.14C406.39,312.89,405.91,311.71,404.94,310.74z
		 M387.05,406.47c-6.07,6.18-13.49,9.27-22.24,9.27c-8.7,0-16.14-3.09-22.32-9.27c-6.12-6.18-9.19-13.59-9.19-22.24
		c0-8.7,3.06-16.14,9.19-22.32c6.18-6.18,13.62-9.27,22.32-9.27c8.76,0,16.17,3.09,22.24,9.27c6.18,6.18,9.27,13.62,9.27,22.32
		C396.32,392.88,393.23,400.3,387.05,406.47z"/>
</g>
</svg>
