<?xml version="1.0" encoding="utf-8"?>
<!-- Generator: Adobe Illustrator 23.0.1, SVG Export Plug-In . SVG Version: 6.00 Build 0)  -->
<svg version="1.1" id="Layer_1" xmlns="http://www.w3.org/2000/svg" xmlns:xlink="http://www.w3.org/1999/xlink" x="0px" y="0px"
	 viewBox="0 0 566.93 566.93" style="enable-background:new 0 0 566.93 566.93;" xml:space="preserve">
<style type="text/css">
	.st0{fill:#FF8C3E;}
	.st1{fill:none;}
</style>
<path class="st0" d="M444.23,329.74c-4.13-5.66-9.69-8.49-16.65-8.49c-9.79,0-16.32,4.57-19.59,13.71
	c-8.71,25.25-23.83,45.71-45.38,61.38c-22.42,16.32-47.46,24.48-75.1,24.48c-32.21,0-61.09-11.76-86.63-35.28
	c-5.96-5.49-11.39-11.58-16.04-18.21c-14.4-20.54-23.43-44.69-24.84-69.62c-0.1-1.7-0.14-3.22-0.14-4.54
	c0-35.26,12.41-65.4,37.22-90.44c25.02-25.02,55.18-37.54,90.43-37.54c36.49,0,69.29,15.7,98.39,47.1
	c3.76,4.06,2.41,10.65-2.63,12.94l-71.78,32.48c-2.92,1.32-6.36,0.03-7.68-2.89l-14.4-31.82c-4.59-10.15-16.5-14.72-26.7-10.24l0,0
	c-10.36,4.54-15.02,16.66-10.37,26.98l16.68,37.05l8.44,18.73c4.61,10.24,16.66,14.8,26.89,10.17l2.93-1.32l0.06,0.13
	c1.13-0.51,2.22-1,3.36-1.52c49.63-22.41,89.67-40.48,120.14-54.19c5.01-2.4,8.49-6.09,10.45-11.1c1.96-5.23,1.74-10.33-0.65-15.34
	c-13.5-29.6-33.85-53.32-61.05-71.17c-27.87-18.28-58.55-27.43-92.07-27.43c-46.58,0-86.3,16.44-119.16,49.3
	c-32.87,32.87-49.3,72.59-49.3,119.17c0,46.58,16.43,86.3,49.3,119.16c32.86,32.87,72.59,49.3,119.16,49.3
	c36.13,0,69-10.55,98.6-31.67c28.73-20.68,48.86-47.67,60.4-80.97C448.91,341.49,448.15,335.4,444.23,329.74z"/>
</svg>
