<?xml version="1.0" encoding="utf-8"?>
<!-- Generator: Adobe Illustrator 23.0.1, SVG Export Plug-In . SVG Version: 6.00 Build 0)  -->
<svg version="1.1" id="Layer_1" xmlns="http://www.w3.org/2000/svg" xmlns:xlink="http://www.w3.org/1999/xlink" x="0px" y="0px"
	 viewBox="0 0 566.93 566.93" style="enable-background:new 0 0 566.93 566.93;" xml:space="preserve">
<style type="text/css">
	.st0{fill:#FF8C3E;}
	.st1{fill:none;}
</style>
<g>
	<path class="st0" d="M106.8,186.42c-9.24,0-17.13,3.27-23.67,9.82c-6.55,6.55-9.82,14.44-9.82,23.67
		c0,11.42,5.16,20.11,15.49,26.07c3.94,2.27,14.65,5.92,32.11,10.96c13.18,3.95,22.67,8.52,28.46,13.73
		c8.23,7.47,12.34,18.26,12.34,32.36c0,13.77-4.87,25.48-14.61,35.13c-9.66,9.65-21.32,14.48-35.01,14.48H64.11
		c-2.1,0-3.9-0.76-5.42-2.27c-1.51-1.51-2.27-3.32-2.27-5.42v-0.76c0-2.1,0.76-3.9,2.27-5.42c1.51-1.51,3.32-2.27,5.42-2.27h49.24
		c9.15,0,17.04-3.27,23.67-9.82c6.55-6.55,9.82-14.44,9.82-23.68c0-11.25-5.16-19.98-15.49-26.19c-4.2-2.52-14.86-6.46-31.99-11.84
		c-13.35-4.37-22.88-9.11-28.59-14.23c-8.23-7.39-12.34-17.67-12.34-30.85c0-13.77,4.83-25.48,14.48-35.13
		c9.65-9.65,21.36-14.48,35.13-14.48h33.88c2.18,0,4.03,0.76,5.54,2.27c1.43,1.43,2.14,3.23,2.14,5.42v0.76
		c0,2.1-0.71,3.9-2.14,5.42c-1.51,1.51-3.36,2.27-5.54,2.27H106.8z"/>
	<path class="st0" d="M341.4,191.2c-2.85,0-5.25-0.96-7.18-2.9c-1.93-1.93-2.9-4.32-2.9-7.18c0-2.77,0.97-5.12,2.9-7.05
		c1.93-1.93,4.32-2.9,7.18-2.9c2.77,0,5.12,0.97,7.05,2.9c2.01,2.01,3.02,4.37,3.02,7.05c0,2.77-1.01,5.16-3.02,7.18
		C346.52,190.24,344.17,191.2,341.4,191.2z M341.53,222.68c2.1,0,3.9,0.76,5.42,2.27c1.51,1.51,2.27,3.36,2.27,5.54v114.47
		c0,2.1-0.76,3.9-2.27,5.42c-1.51,1.51-3.32,2.27-5.42,2.27h-0.25c-2.18,0-4.03-0.76-5.54-2.27c-1.51-1.51-2.27-3.32-2.27-5.42
		V230.49c0-2.18,0.76-4.03,2.27-5.54c1.51-1.51,3.36-2.27,5.54-2.27H341.53z"/>
	<path class="st0" d="M304.76,302.15c-1.59-2.18-3.74-3.27-6.42-3.27c-3.78,0-6.3,1.76-7.56,5.29c-3.36,9.74-9.19,17.63-17.5,23.67
		c-8.65,6.3-18.3,9.44-28.97,9.44c-12.42,0-23.56-4.53-33.41-13.61c-2.3-2.12-4.39-4.47-6.19-7.02c-5.55-7.92-9.04-17.24-9.58-26.85
		c-0.04-0.66-0.06-1.24-0.06-1.75c0-13.6,4.79-25.23,14.36-34.88c9.65-9.65,21.28-14.48,34.88-14.48c14.08,0,26.73,6.06,37.95,18.17
		c1.45,1.57,0.93,4.11-1.01,4.99l-27.69,12.53c-1.13,0.51-2.45,0.01-2.96-1.12l-5.55-12.27c-1.77-3.92-6.36-5.68-10.3-3.95h0
		c-3.99,1.75-5.79,6.43-4,10.4l6.43,14.29l3.25,7.23c1.78,3.95,6.42,5.71,10.37,3.92l1.13-0.51l0.02,0.05
		c0.44-0.2,0.86-0.39,1.3-0.59c19.14-8.65,34.59-15.61,46.34-20.9c1.93-0.92,3.28-2.35,4.03-4.28c0.76-2.02,0.67-3.99-0.25-5.92
		c-5.21-11.42-13.06-20.57-23.55-27.45c-10.75-7.05-22.59-10.58-35.51-10.58c-17.97,0-33.29,6.34-45.96,19.02
		c-12.68,12.68-19.02,28-19.02,45.96c0,17.97,6.34,33.29,19.02,45.96c12.67,12.68,28,19.02,45.96,19.02
		c13.93,0,26.61-4.07,38.03-12.21c11.08-7.98,18.85-18.39,23.3-31.23C306.56,306.68,306.27,304.33,304.76,302.15z"/>
	<path class="st0" d="M503.1,173.19c-1.51-1.43-3.32-2.14-5.42-2.14h-0.38c-2.1,0-3.9,0.71-5.42,2.14
		c-1.51,1.51-2.27,3.36-2.27,5.54v61.19c0,1.82-2.12,2.81-3.52,1.65c-15.28-12.6-30.51-18.9-45.72-18.9
		c-17.97,0-33.29,6.34-45.96,19.02c-12.68,12.68-19.02,28-19.02,45.96c0,17.97,6.34,33.29,19.02,45.96
		c12.67,12.68,28,19.02,45.96,19.02c17.88,0,33.16-6.3,45.84-18.89c0.2-0.2,0.4-0.41,0.6-0.61c1.02-1.05,2.8-0.34,2.8,1.13v10.5
		c0,4.35,3.52,7.87,7.87,7.87l0,0c4.35,0,7.87-3.52,7.87-7.87v-56.73V244.6v-65.86C505.36,176.55,504.61,174.71,503.1,173.19z
		 M475.14,322.8c-9.49,9.66-21.07,14.48-34.76,14.48c-13.6,0-25.23-4.83-34.88-14.48c-9.57-9.65-14.36-21.24-14.36-34.76
		c0-13.6,4.79-25.23,14.36-34.88c9.65-9.65,21.28-14.48,34.88-14.48c13.68,0,25.27,4.83,34.76,14.48
		c9.65,9.66,14.48,21.28,14.48,34.88C489.62,301.56,484.79,313.14,475.14,322.8z"/>
</g>
</svg>
