<svg id="Layer_1" data-name="Layer 1" xmlns="http://www.w3.org/2000/svg" viewBox="0 0 566.93 566.93"><defs><style>.cls-1{fill:#dec2b9;}.cls-2{fill:#f4ddc9;}.cls-3{fill:#c74850;}.cls-4,.cls-5{fill:#fff;}.cls-5{font-size:33.52px;font-family:DINPro-Black, DINPro;}.cls-6{letter-spacing:-0.05em;}.cls-7{letter-spacing:-0.01em;}</style></defs><title>Untitled-1</title><path class="cls-1" d="M356,334.36c-2,1.37-2.25,7.05-2,11.15a23.19,23.19,0,0,0,5.41-3.09l.06-.05a7.64,7.64,0,0,0,2.83-5,8.18,8.18,0,0,0-.25-4.17A7.75,7.75,0,0,0,356,334.36Z"/><path class="cls-2" d="M354.78,332.59a9.47,9.47,0,0,1,4.93-1.69c-3.38-1.61-10.23-1.81-21.58-.66l-.71.07-.35-.62s-2.15-3.52-9.89-5.7a97.6,97.6,0,0,1-15.46-5.88,1.08,1.08,0,0,1,1-1.93,97.24,97.24,0,0,0,15.08,5.74c.81.23,1.56.47,2.26.72a22,22,0,0,0-2.43-11.27c-.63.11-1.56.23-3.06.42-7.77,1-26,3.3-28.61,10.72-3.1,8.74,5.09,14.37,6.09,15,2.14.79,27.5,10.18,30.2,11.8s7.34,3.56,13.64,0a60.4,60.4,0,0,1,6.06-2.87h0C351.7,343.6,351.27,335,354.78,332.59Z"/><path class="cls-2" d="M350.9,376.8c3.75-5.65,4.35-9.3-2.3-14.33-1.46.77-2.8,1.45-3.89,2-2,1-5.29,1.45-9.34,1.45a83.11,83.11,0,0,1-15.52-1.69,1.07,1.07,0,0,1-.58.66,6.63,6.63,0,0,0-3.35,8.76,13.2,13.2,0,0,0,10.4,8.65,49.92,49.92,0,0,0,10.65-.43h0C342.81,381.1,349.06,379.56,350.9,376.8Z"/><path class="cls-1" d="M355,353.73a2.52,2.52,0,0,0,1.85,1.32,38,38,0,0,0,5.33-4.14l.08-.09a4.76,4.76,0,0,0,1.67-2.65c.09-2.91-2.49-3.65-3.48-3.83a22,22,0,0,1-3.72,2.27C355.85,348.15,354.14,351.76,355,353.73Z"/><path class="cls-2" d="M354.68,356.47a4.22,4.22,0,0,1-1.64-1.86c-.9-2-.22-4.6.59-6.57l-.87.37a58.57,58.57,0,0,0-5.84,2.76,16.27,16.27,0,0,1-8.09,2.32,14.59,14.59,0,0,1-7.73-2.33c-2.07-1.24-21-8.34-29.11-11.36-.92,1.58-2.34,4.45-2.22,6.31,0,.31,0,.66,0,1.06.05,3.52.14,9.4,11.89,12.84,14.39,4.21,27.84,4.58,32,2.5,1.46-.72,2.93-1.48,4.37-2.25h0C350.44,359,352.66,357.73,354.68,356.47Z"/><path class="cls-1" d="M245.19,255.66c-.11-.15-.26-.34-.81-.14-4,1.37-10.22-1.85-13.22-3.62-.12,3.1-.4,9.53-.79,15.26a10.52,10.52,0,0,0,4.16,1.77,22.21,22.21,0,0,0,3.06.49,26.9,26.9,0,0,1,5.87-.71C245.51,265.16,246.58,257.46,245.19,255.66Z"/><path class="cls-1" d="M400.13,208.59a2.27,2.27,0,0,0-.45,2.73c1.5,3,8.44,5.75,13.65,5.47,2.36-1.3,3.27-2.69,3.58-3.73.77-2.54-1-5.45-3.39-7.87C411.39,205,403.56,204.61,400.13,208.59Z"/><path class="cls-3" d="M338.61,215c-12.25-4.46-27.51-10-39-9.35-5.54.32-12,.17-18.21,0-14.84-.35-30.19-.71-35.07,5-3.34,3.91-.94,8.17,3.27,14.78,3.23,5.09,6.89,10.86,6.72,17.33-.23,8.55-1.34,20.52-8.28,26,1.72.1,3.52.24,5.45.4,2.92.24,6.23.51,9.9.66,16.68.66,36,1.82,36.48,1.91.13,0,.47.11,10.49,2.88,18.86,5.21,58.11,16,68.9,18.71,3.72.92,6.76.43,9-1.46,4.58-3.79,5.18-12.11,5-15a51.11,51.11,0,0,0-.87-5.33c-.57-2.95-1.27-6.62-1.81-10.86a1,1,0,0,1-.18-1.46,98.5,98.5,0,0,1-.65-14.23,35.37,35.37,0,0,1,9-22.61c-1,.08-2,.16-3,.22-22.38,1.23-26.06.48-31.62-.64-1.79-.36-3.82-.77-6.77-1.17a38.14,38.14,0,0,1-5-1.11l-.09,0C348.37,218.57,343.73,216.89,338.61,215Z"/><path d="M23.93,249.58a1.08,1.08,0,0,0,0,1.53.86.86,0,0,0,.11.08,22.45,22.45,0,0,1,.48-2.19Z"/><path d="M410,218.78q-.63-.08-1.27-.21a62.11,62.11,0,0,1-13.08,1.87c-22.1,1.21-25.67.49-31.07-.6-1.82-.37-3.89-.79-6.91-1.19-.78-.1-1.64-.28-2.54-.49a9.06,9.06,0,0,1-2.06,1.45,1,1,0,0,1-.71.07,38.14,38.14,0,0,0,5,1.11c2.95.4,5,.81,6.77,1.17,5.56,1.12,9.24,1.87,31.62.64,1-.06,2-.13,3-.22a24.23,24.23,0,0,1,2.23-2.21,1.08,1.08,0,0,1,1.38,1.66l-.21.19a46,46,0,0,0,8.69-1.85,1.09,1.09,0,0,0-.24-.21A1,1,0,0,1,410,218.78Z"/><path d="M244.2,270.84a25.15,25.15,0,0,0-6.39.75A16,16,0,0,0,244.2,270.84Z"/><path d="M412.69,219a4.15,4.15,0,0,1,.28.41c.4-.17.77-.36,1.13-.54a1.06,1.06,0,0,1-.36.1C413.4,219,413,219,412.69,219Z"/><path d="M256.28,242.81c.17-6.47-3.49-12.24-6.72-17.33-4.2-6.62-6.61-10.87-3.27-14.78,4.88-5.72,20.24-5.35,35.07-5,6.23.15,12.66.3,18.21,0,11.52-.67,26.78,4.89,39,9.35,5.13,1.87,9.76,3.55,13.66,4.64a1.08,1.08,0,0,1-.13-2l.33-.19c-3.74-1.07-8.2-2.69-13.13-4.49-12.43-4.53-27.9-10.16-39.9-9.47-5.46.31-11.85.16-18,0-16.05-.38-31.22-.74-36.77,5.76-4.55,5.32-.84,11.16,3.09,17.35,3.07,4.83,6.54,10.3,6.38,16.11-.34,12.77-2.8,20.75-7.53,24.4l-.12.08c-.18.52-.37,1-.58,1.46.69,0,1.39.05,2.11.09C254.94,263.33,256,251.36,256.28,242.81Z"/><path d="M415.29,204.31a1.09,1.09,0,0,1-1.21.93l-.55-.06c2.42,2.42,4.16,5.33,3.39,7.87-.32,1-1.22,2.43-3.58,3.73h.25a1.07,1.07,0,0,1,.62,2c2.56-1.36,4.17-3.06,4.78-5.1.9-3-.49-6.51-3.75-9.84A1.06,1.06,0,0,1,415.29,204.31Z"/><path d="M234.54,268.92a10.52,10.52,0,0,1-4.16-1.77l0,.54a1.07,1.07,0,0,1-1.15,1,1.05,1.05,0,0,1-.54-.21,11.47,11.47,0,0,0,4.89,2.39,19.37,19.37,0,0,1,4.07-1.48A22.21,22.21,0,0,1,234.54,268.92Z"/><path d="M228.42,263.83a25.6,25.6,0,0,1,0-6.48c.68-8.44,1.62-20-14.75-32.72C201.28,215,200.32,208.88,199.55,204c-.49-3.13-1-6.1-4.4-8.92l-.75.88a1.08,1.08,0,0,1-1.62-1.43l.62-.74h0l-.64.77c-.13.15-12.69,15.65-25,48.22-11.72,30.92-36,107.78-35,112.31.84,3.71,15.83,58.35,20.5,75.24l1.86,2.62a9.14,9.14,0,0,1-.81,1.18l.08.29a1.08,1.08,0,0,0,2.08-.58c-2.54-9.08-20.73-75.37-21.6-79.19-.54-4.27,21.9-76.8,34.9-111.09,10.63-28,21.37-43.24,24-46.8,2.8,2.28,3.15,4.55,3.63,7.58.78,5,1.86,11.85,15,22,15.45,12,14.57,22.89,13.93,30.84-.36,4.41-.65,8.38,2.1,11.08a1.07,1.07,0,0,1-.22-.71C228.27,266.34,228.35,265.08,228.42,263.83Z"/><path d="M155.77,122.52l1.53-1.43c12.62-11.78,33.75-31.5,66.59-32.87,34.9-1.46,91.15,12.31,98.54,16.1,1.19.61,2.34,1.16,3.43,1.69,6.69,3.23,9.86,5,9,10.13l0,.11v.11c.14,4.94-4.85,7.11-5.91,7.52l.24,0a1.08,1.08,0,0,1-.1,2.16H329l-.22,0c1.11.63,7.76,4.75,6.28,12.06-1.17,5.78-3.81,7.83-5.22,8.53h.2a1.05,1.05,0,0,1,1.1,1.06,1.08,1.08,0,0,1-1.06,1.1l-.86,0,.06.3.26-.06c1.15-.26,7.34-1.34,9.34,4.4,2.38,6.78,2.78,11.29-1.62,15.51-.09,1.54-.24,2.54-.26,2.67a1.07,1.07,0,0,1-.37.66c8.16-6,6.69-12.68,4.28-19.55a8.76,8.76,0,0,0-7.66-6,15.86,15.86,0,0,0,3.9-8.19c1.4-6.92-3.19-11.42-5.83-13.38,2.28-1.24,5.77-3.94,5.69-8.74,1.15-6.87-3.85-9.29-10.17-12.34-1.08-.52-2.21-1.07-3.39-1.67-8.81-4.5-65.88-17.75-99.62-16.33s-55.14,21.47-68,33.45l-1.53,1.42C142.1,132.27,33.45,240.14,24.52,249l1.27,1.79C32.59,244,143.47,134,155.77,122.52Z"/><path d="M335.74,172.51a1.08,1.08,0,0,1-.91-1.23s0-.18.06-.45c-.27.18-.54.36-.82.52,0,1.05-.06,1.75-.07,1.86a1.08,1.08,0,0,1-.64.92,17.2,17.2,0,0,0,3.18-1.81l.06,0a1.08,1.08,0,0,1-.7.26Z"/><path d="M332.86,174.23a1.08,1.08,0,0,1-1-1.14c0-.2,0-.43,0-.67-6.94,2.78-15.9,1.58-16,1.57l-2.38-.33,1.34,2c.29.43,7.17,10.65,13.65,12,2.47.51,11.31,2.81,20.66,5.25,17.94,4.68,29.83,7.74,31.44,7.74.52,0,1.46-.11,2.87-.27,6.21-.71,20.73-2.38,27.42,2.55a28.44,28.44,0,0,1,3.49.18,1,1,0,0,1,.18.06,27,27,0,0,0-2.33-2c-7.36-5.48-22.53-3.74-29-3-1.24.14-2.23.26-2.63.26-1.54,0-18.51-4.44-30.9-7.67-9.78-2.55-18.24-4.75-20.76-5.27-4.08-.84-8.67-6.24-10.91-9.17,3.45.21,9.92.18,15.31-2.19a1.07,1.07,0,0,1-.38.07Z"/><path d="M201.95,185.43a1.08,1.08,0,0,1-.83-2q1.74-.72,3.32-1.55c6.15-10.23,12.64-24.81,11.49-39.52a1.08,1.08,0,1,0-2.16.17c1.82,23.13-16.7,46.8-20.37,51.24l.81.57c.34.24.65.48.94.72a105.82,105.82,0,0,0,7.17-9.8Z"/><path d="M193.4,193.77l-.62.74a1.08,1.08,0,1,0,1.62,1.43l.75-.88c-.29-.24-.6-.48-.94-.72Z"/><path d="M226.16,118.92a1.08,1.08,0,1,0-2.09.56c.13.47,12,46-19.63,62.39-.71,1.19-1.42,2.32-2.11,3.38C239.33,169.5,226.29,119.43,226.16,118.92Z"/><path d="M200.53,184.84a1.08,1.08,0,0,0,1.41.58l.38-.17c.69-1.06,1.4-2.19,2.11-3.38q-1.59.82-3.32,1.55A1.08,1.08,0,0,0,200.53,184.84Z"/><path d="M323,147.7s.08-.36.19-.94l-5.13.1a1.08,1.08,0,0,0,0,2.16h0l5.52-.11A1.07,1.07,0,0,1,323,147.7Z"/><path d="M325.9,147.54s.13-.32.31-.85l-.83,0c-.15.83-.27,1.38-.29,1.47a1.06,1.06,0,0,1-.57.71l1.85,0A1.07,1.07,0,0,1,325.9,147.54Z"/><path d="M327.91,148.34a1.07,1.07,0,0,1-.39.49l1.66,0-.39-1.81.27-.07a4.64,4.64,0,0,0,.73-.3l-1.27,0C328.19,147.62,328,148.23,327.91,148.34Z"/><path d="M328.78,147l.39,1.81.86,0a1.08,1.08,0,0,0,1.06-1.1,1.05,1.05,0,0,0-1.1-1.06h-.2a4.64,4.64,0,0,1-.73.3Z"/><path d="M312.58,123.43a1.08,1.08,0,0,0,1,1.18L328.73,126l-.17-.09-2.29-1.17,2.44-.81.2-.07-15.16-1.42A1.08,1.08,0,0,0,312.58,123.43Z"/><path d="M326.27,124.76l2.29,1.17.17.09.22,0h.1a1.08,1.08,0,0,0,.1-2.16l-.24,0-.2.07Z"/><path d="M398.49,207.17a4.42,4.42,0,0,0-.75,5.12c1.55,3.08,6.32,5.41,11,6.29a21.6,21.6,0,0,0,4.6-1.79c-5.22.29-12.16-2.48-13.65-5.47a2.27,2.27,0,0,1,.45-2.73c3.44-4,11.26-3.59,13.39-3.41a24,24,0,0,0-2.61-2.24l0,0C407.21,202.92,401.59,203.59,398.49,207.17Z"/><path d="M414.54,203.16l.7.68A1.07,1.07,0,0,0,414.54,203.16Z"/><path d="M414.74,217.78a1.08,1.08,0,0,0-1.16-1h-.25a21.6,21.6,0,0,1-4.6,1.79q.64.12,1.27.21a1.06,1.06,0,0,1,0-.19,1.1,1.1,0,0,1,1.42-.62,3,3,0,0,1,1.25,1c.36,0,.71,0,1,0a1.06,1.06,0,0,0,.36-.1l.1-.05A1.07,1.07,0,0,0,414.74,217.78Z"/><path d="M410.87,202.91l0,0a24,24,0,0,1,2.61,2.24l.55.06a1.09,1.09,0,0,0,1.21-.93,1.06,1.06,0,0,0,0-.47l-.7-.68a1,1,0,0,0-.18-.06A28.44,28.44,0,0,0,410.87,202.91Z"/><path d="M385.45,216.69a1.08,1.08,0,0,0,.48,2,1.07,1.07,0,0,0,.47-.11c.26-.13,6.35-3.24,7-16.1a1.08,1.08,0,0,0-1-1.13,1.12,1.12,0,0,0-1.13,1C390.67,213.82,385.55,216.63,385.45,216.69Z"/><path d="M383.68,217.65a1.08,1.08,0,0,0,1-.8l.19-.48c2.64-6.67,3.72-11.12,3.3-13.62a1.08,1.08,0,0,0-2.13.35c.24,1.42-.12,4.75-3.18,12.48-.28.71-.3.77-.3,1A1.08,1.08,0,0,0,383.68,217.65Z"/><path d="M358.38,197.28a1.08,1.08,0,1,0-2.08.58c3.91,13.9-2.26,18.66-3.82,19.62.93.27,1.81.5,2.65.69C357.84,215.7,361.87,209.71,358.38,197.28Z"/><path d="M352.14,217.66a1.08,1.08,0,0,0,.13,2l.09,0a1,1,0,0,0,.71-.07,9.06,9.06,0,0,0,2.06-1.45c-.83-.19-1.72-.42-2.65-.69Z"/><path d="M350.55,214.19a1.08,1.08,0,0,0,1.33,1.71c.2-.16,5-4,4.83-13.44a1.08,1.08,0,0,0-1.08-1.06h0a1.08,1.08,0,0,0-1.06,1.1C354.67,210.81,350.72,214,350.55,214.19Z"/><path d="M346.71,213.24a1.08,1.08,0,0,0,.6-.18c.41-.28,4.06-3.08,5-15.41a1.08,1.08,0,0,0-1-1.16,1.07,1.07,0,0,0-1.16,1c-.82,11.13-4,13.71-4.05,13.79a1.08,1.08,0,0,0,.63,2Z"/><path d="M325.18,123.44a1.08,1.08,0,0,0,.87-.44,12.84,12.84,0,0,0,.75-12.32,1.08,1.08,0,1,0-2,.84c2.5,5.89-.38,10-.51,10.2a1.08,1.08,0,0,0,.87,1.72Z"/><path d="M329.72,128.4a1.08,1.08,0,0,0-2,.71c2.14,6.2-.52,14.88-1.46,17.59l2.3,0C329.68,143.11,331.93,134.8,329.72,128.4Z"/><path d="M326.51,148.94a1.07,1.07,0,0,0,1-.11l-1.15,0A1,1,0,0,0,326.51,148.94Z"/><path d="M327.91,148.34c0-.1.28-.72.6-1.69l-2.3,0c-.18.52-.3.83-.31.85a1.07,1.07,0,0,0,.47,1.31l1.15,0A1.07,1.07,0,0,0,327.91,148.34Z"/><path d="M325,133a1.08,1.08,0,0,0-2,.87c1.64,3.73.59,10.42.13,12.88l2.21,0C325.92,143.77,326.83,137.11,325,133Z"/><path d="M323.8,149l.24,0a1.06,1.06,0,0,0,.48-.13l-.91,0A1,1,0,0,0,323.8,149Z"/><path d="M325.09,148.18c0-.09.14-.64.29-1.47l-2.21,0c-.11.58-.19.92-.19.94a1.07,1.07,0,0,0,.62,1.21l.91,0A1.06,1.06,0,0,0,325.09,148.18Z"/><path d="M333.49,150.71a1.08,1.08,0,0,0-1.85,1.13c4.31,7.08,3.5,16.81,3.24,19l.37-.26a19.27,19.27,0,0,0,2-1.64C337.46,164.87,337.31,157,333.49,150.71Z"/><path d="M337.22,168.94a19.27,19.27,0,0,1-2,1.64l-.37.26c0,.28-.06.44-.06.45a1.08,1.08,0,0,0,.91,1.23h.16a1.08,1.08,0,0,0,.7-.26h0a1.07,1.07,0,0,0,.37-.66C337,171.47,337.13,170.48,337.22,168.94Z"/><path d="M330.81,155.23a1.08,1.08,0,1,0-1.6,1.45c2.63,2.91,2.83,11.78,2.67,15.73a16.6,16.6,0,0,0,2.19-1.06C334.14,167.48,333.93,158.68,330.81,155.23Z"/><path d="M334,173.21c0-.12,0-.81.07-1.86a16.6,16.6,0,0,1-2.19,1.06c0,.24,0,.47,0,.67a1.08,1.08,0,0,0,1,1.14h.07a1.07,1.07,0,0,0,.38-.07l.06,0A1.08,1.08,0,0,0,334,173.21Z"/><path d="M329.08,309.55s.15.26.33.59a1.5,1.5,0,0,0,0-.45,4,4,0,0,0-1.35-2.19,5,5,0,0,0,.9,1.94Z"/><path d="M390.59,260.7c.54,4.24,1.25,7.91,1.81,10.86a51.11,51.11,0,0,1,.87,5.33c.16,2.88-.43,11.2-5,15-2.29,1.89-5.33,2.38-9,1.46-10.79-2.67-50-13.51-68.9-18.71-10-2.76-10.36-2.86-10.49-2.88-.5-.08-19.8-1.24-36.48-1.91-3.67-.15-7-.42-9.9-.66-1.93-.16-3.73-.31-5.45-.4l-.09.07a12.85,12.85,0,0,1-3.29,1.82,1.07,1.07,0,0,1-.35.12l-.08,0c2.69,0,5.66.23,9.07.51,2.94.24,6.28.52,10,.66,17.07.68,35.53,1.8,36.15,1.87.28.07,4.5,1.23,10.33,2.84,18.87,5.21,58.14,16,69,18.73a17.28,17.28,0,0,0,3.15.49c1-1.11,1.7-1.82,1.83-2a1.08,1.08,0,0,1,1.56,1.49l-.24.25a10.27,10.27,0,0,0,4.64-2.18l.09-.08c5.33-8.65,3.59-13,3.57-13.06a1.09,1.09,0,0,1,.54-1.42,1.07,1.07,0,0,1,1.42.52s.06.13.11.28a26.9,26.9,0,0,0,.07-3,50.07,50.07,0,0,0-.91-5.62c-.51-2.66-1.13-5.91-1.65-9.64-1.11-.32-1.85-.58-2-.62A1.06,1.06,0,0,1,390.59,260.7Z"/><path d="M389.76,245a98.5,98.5,0,0,0,.65,14.23,1.06,1.06,0,0,1,1.22-.38l.95.32,0-.43a12.81,12.81,0,0,1-1.8-.79,1.08,1.08,0,0,1,1.06-1.88l.48.24a94.08,94.08,0,0,1-.36-11.24,33.48,33.48,0,0,1,10.26-23c-1.08.14-2.21.26-3.4.36A35.37,35.37,0,0,0,389.76,245Z"/><path d="M354.16,346.88c.43-.87.8-1.48.92-1.66a1.08,1.08,0,0,1,1.83,1.15l-.15.25a22,22,0,0,0,3.72-2.27l-.38-.05a1.08,1.08,0,0,1-.64-1.88,23.19,23.19,0,0,1-5.41,3.09C354.07,346,354.12,346.45,354.16,346.88Z"/><path d="M237.61,269.4a14.2,14.2,0,0,0,5.78-.57l.08-.14A26.9,26.9,0,0,0,237.61,269.4Z"/><path d="M321.77,302.9a16.22,16.22,0,0,1-1.39,1.09,1.08,1.08,0,0,1-1.2-1.8l.43-.32c-3.3-1.2-15-5.18-24.43-7.75-.17.6-.28,1-.3,1.06a1.08,1.08,0,0,1-2.08-.61s.11-.39.28-1c-.9-.23-1.89-.47-2.93-.71.06.42.11.66.11.67a1.08,1.08,0,0,1-.84,1.28l-.22,0a1.08,1.08,0,0,1-1.06-.86c0-.08-.13-.66-.24-1.62-7.82-1.71-18.16-3.54-25.67-4.52.12.32.2.5.21.51a1.08,1.08,0,0,1-.47,1.45,1.08,1.08,0,0,1-1.45-.46,10.27,10.27,0,0,1-.65-1.79,42.72,42.72,0,0,0-6.36-.4c-5.12.29-23.31-2.7-25.35-7.41-.16-.36-.63-1.45,1.3-3.29a18.89,18.89,0,0,1,8.35-4.85,24.21,24.21,0,0,1-3.75-.57l-.52-.14a23,23,0,0,0-5.57,4c-2.51,2.38-2.36,4.42-1.8,5.72,2.87,6.61,23.72,9,27.47,8.71,5.27-.32,29.64,3.88,39.92,6.62s23.55,7.3,25.83,8.17a32,32,0,0,1,6.8,4.54,9.92,9.92,0,0,1-.45-3.13A41,41,0,0,0,321.77,302.9Z"/><path d="M302.13,337.58a1.08,1.08,0,0,1,.32,1.5c-.12.19-.28.45-.45.73,8.14,3,27,10.11,29.11,11.36a14.59,14.59,0,0,0,7.73,2.33,16.27,16.27,0,0,0,8.09-2.32,58.57,58.57,0,0,1,5.84-2.76l.87-.37h0a1.07,1.07,0,0,1-.42.14h-.12a1.08,1.08,0,0,1-1.07-1c0-.14,0-.43-.08-.8h0a60.4,60.4,0,0,0-6.06,2.87c-6.29,3.57-10.8,1.72-13.64,0s-28.06-11-30.2-11.8c-1-.65-9.19-6.27-6.09-15,2.63-7.42,20.84-9.73,28.61-10.72,1.5-.19,2.44-.31,3.06-.42-.16-.32-.29-.55-.34-.64a6.6,6.6,0,0,1-.79-1.37l-2.2.29c-8.86,1.13-27.29,3.46-30.37,12.14-3.16,8.91,3.69,15.1,6.2,17,.26-.45.47-.77.54-.89A1.08,1.08,0,0,1,302.13,337.58Z"/><path d="M330.93,325.21l-.19,0a1.08,1.08,0,0,1-.88-1.25c.08-.44.13-.88.17-1.31-.7-.25-1.45-.49-2.26-.72a97.24,97.24,0,0,1-15.08-5.74,1.08,1.08,0,0,0-1,1.93A97.6,97.6,0,0,0,327.18,324c7.74,2.18,9.87,5.68,9.89,5.7l.35.62.71-.07c11.35-1.15,18.2-.95,21.58.66a10,10,0,0,1,3.51.39,1.06,1.06,0,0,1,.55.45,5.91,5.91,0,0,0-.92-1.27c-2.27-2.35-6.8-3.33-14.92-3.1l.33.56a1.08,1.08,0,0,1-1.87,1.09l-.9-1.54c-2.1.11-4.41.29-7,.54a16.82,16.82,0,0,0-6.43-4.56c0,.28-.06.57-.11.85A1.08,1.08,0,0,1,330.93,325.21Z"/><path d="M363.89,332.66a1.08,1.08,0,0,1-1.37.68l-.42-.11a8.18,8.18,0,0,1,.25,4.17,7.64,7.64,0,0,1-2.83,5,1.06,1.06,0,0,1,.75-.23,7.39,7.39,0,0,1,2,.48,9.38,9.38,0,0,0,2.2-4.94,9.74,9.74,0,0,0-.63-5.78A1.07,1.07,0,0,1,363.89,332.66Z"/><path d="M237.81,271.59a25.15,25.15,0,0,1,6.39-.75l.08,0-.18,0a1.08,1.08,0,0,1-.9-1.69c.07-.1.13-.21.19-.32a14.2,14.2,0,0,1-5.78.57,19.37,19.37,0,0,0-4.07,1.48l.52.14A24.21,24.21,0,0,0,237.81,271.59Z"/><path d="M245,270.36a1.07,1.07,0,0,1-.36.33,12.85,12.85,0,0,0,3.29-1.82l.09-.07c-.72,0-1.42-.07-2.11-.09A11.33,11.33,0,0,1,245,270.36Z"/><path d="M402.54,220.32a1.08,1.08,0,0,0-1.52-.14,24.23,24.23,0,0,0-2.23,2.21c1.18-.1,2.31-.22,3.4-.36l.21-.19A1.08,1.08,0,0,0,402.54,220.32Z"/><path d="M362.21,350.91a38,38,0,0,1-5.33,4.14c.13,0,.25.07.4.1a1.08,1.08,0,0,1-.18,2.15l-.18,0a6,6,0,0,1-2.23-.81c-2,1.26-4.24,2.54-6.54,3.77a1.08,1.08,0,0,1,1.18.06c.48.35.93.7,1.35,1a76,76,0,0,0,11.13-7.2c0-.84,0-1.69.1-2.55A1.07,1.07,0,0,1,362.21,350.91Z"/><path d="M319.82,363.44a1.07,1.07,0,0,1,0,.76,83.11,83.11,0,0,0,15.52,1.69c4.05,0,7.35-.47,9.34-1.45,1.09-.54,2.42-1.21,3.89-2l-.54-.41a1.08,1.08,0,0,1,.07-1.79c-1.44.77-2.9,1.53-4.37,2.25-4.21,2.08-17.66,1.71-32-2.5-11.75-3.44-11.84-9.32-11.89-12.84,0-.39,0-.75,0-1.06-.12-1.85,1.3-4.73,2.22-6.31l-.84-.31-.19-.09s-.36-.23-.88-.62c-.93,1.59-2.64,4.9-2.47,7.48,0,.28,0,.59,0,.95.05,3.57.17,11,13.45,14.88,2,.58,4,1.09,6,1.55a8.57,8.57,0,0,1,1.29-.73A1.08,1.08,0,0,1,319.82,363.44Z"/><path d="M360.48,344.35c1,.18,3.57.92,3.48,3.83a4.76,4.76,0,0,1-1.67,2.65,1.07,1.07,0,0,1,.75-.25,1.08,1.08,0,0,1,1,1.14c0,.12,0,.23,0,.35a6.47,6.47,0,0,0,2.08-3.82,5.59,5.59,0,0,0-3.83-5.62A12.21,12.21,0,0,1,360.48,344.35Z"/><path d="M359.52,342.37l-.06.05a1.08,1.08,0,0,0,.64,1.88l.38.05a12.21,12.21,0,0,0,1.81-1.73,7.39,7.39,0,0,0-2-.48A1.06,1.06,0,0,0,359.52,342.37Z"/><path d="M301.16,339.5l.84.31c.17-.29.32-.55.45-.73a1.08,1.08,0,1,0-1.81-1.18c-.07.11-.28.43-.54.89.52.4.86.61.88.62Z"/><path d="M350.9,376.8c-1.83,2.77-8.09,4.3-13.88,5a1.08,1.08,0,0,1,.77.28,20,20,0,0,0,1.94,1.49c5.49-.89,11-2.57,13-5.62,4-6,5-10.94-2-16.65l-2.08,1.12C355.25,367.5,354.64,371.15,350.9,376.8Z"/><path d="M336.25,382.18a1.07,1.07,0,0,1,.72-.34,49.92,49.92,0,0,1-10.65.43,13.2,13.2,0,0,1-10.4-8.65,6.63,6.63,0,0,1,3.35-8.76,1.07,1.07,0,0,0,.58-.66c-.92-.18-1.83-.37-2.75-.58a8.57,8.57,0,0,0-3.19,10.78,15.48,15.48,0,0,0,12,10,18.8,18.8,0,0,0,2.54.11,75.35,75.35,0,0,0,8.2-.49l-.36-.32A1.08,1.08,0,0,1,336.25,382.18Z"/><path d="M348.14,360.24h0a1.08,1.08,0,0,0-.07,1.79l.54.41,2.08-1.12c-.42-.35-.87-.69-1.35-1A1.08,1.08,0,0,0,348.14,360.24Z"/><path d="M319.82,363.44a1.08,1.08,0,0,0-1.43-.55,8.57,8.57,0,0,0-1.29.73c.92.21,1.84.4,2.75.58A1.07,1.07,0,0,0,319.82,363.44Z"/><path d="M533.4,448.91l.12.06v-1.55A14,14,0,0,1,533.4,448.91Z"/><path d="M410.06,229.24c-4,10.07,14.94,60.22,19.27,68.8,2.15,4.27,5.26,14,8.26,23.39,5.79,18.13,8.79,26.83,11.27,28.22,3.81,2.15,30.32,31.61,34.11,36.14,3.05,3.65,45.51,57.11,49.72,62.42l.82-.8v-1.63c-7.5-9.44-45.93-57.84-48.9-61.38-3.14-3.75-30.36-34.18-34.7-36.64-2-1.13-6.78-16.08-10.27-27-3.17-9.92-6.16-19.29-8.39-23.71-5.73-11.36-22.49-58.63-19.19-67,1.77-4.49,2.16-7.9,1.17-10.14a4.68,4.68,0,0,0-.27-.51q-1,.43-2.09.8C411.43,220.77,412.56,222.89,410.06,229.24Z"/><path d="M534.72,447.29l-1.2-1.51V449a1.07,1.07,0,0,0,1.21-1.67Z"/><path d="M412.61,219a20.08,20.08,0,0,1-2.62-.19,1,1,0,0,0,.64,1.19,1.09,1.09,0,0,1,.24.21q1.12-.37,2.09-.8a4.15,4.15,0,0,0-.28-.41Z"/><path d="M412.69,219a3,3,0,0,0-1.25-1,1.1,1.1,0,0,0-1.42.62,1.06,1.06,0,0,0,0,.19,20.08,20.08,0,0,0,2.62.19Z"/><path d="M477.13,501.14a1.08,1.08,0,0,0,1.47-.4l-2.22-.45C476.9,501,477,501.06,477.13,501.14Z"/><path d="M417.61,412.72c-.87-1-1.65-1.89-2.32-2.58,0,.15,0,.25,0,.3a1.07,1.07,0,0,1-1.77.9,53.1,53.1,0,0,1,3.8,4.33,1.07,1.07,0,0,1-.16-.77C417.14,414.77,417.28,414,417.61,412.72Z"/><path d="M413.37,408.48h0a12.88,12.88,0,0,0-8.65-1.85c-3,.2-6.45.43-13.56-3.23-13.23-6.79-36-15.12-42.66-16.14a21.86,21.86,0,0,1-8.78-3.66c-1,.17-2,.3-3,.42a24.73,24.73,0,0,0,11.49,5.38c6.54,1,28.93,9.21,42,15.93,7.65,3.93,11.56,3.67,14.69,3.46a10.8,10.8,0,0,1,7.41,1.55,6.81,6.81,0,0,1,1.12.92C413.06,410.88,413.12,409.8,413.37,408.48Z"/><path d="M478.44,499.45c-.45-.57-3.6-5.24-7.57-11.14-18.81-27.91-38.32-56.5-49.38-70.76l-.17.51a1.08,1.08,0,0,1-1,.76,1.08,1.08,0,0,1-1-1.4c0-.15.26-.83.65-1.89l-.57-.71c-.06.28-.09.44-.09.45a1.08,1.08,0,0,1-1.06.89l-.19,0a1.07,1.07,0,0,1-.64-.39c12.15,15,40,56.41,51.73,73.76,4.68,6.94,6.51,9.66,7.31,10.78l2.22.45A1.08,1.08,0,0,0,478.44,499.45Z"/><path d="M337.78,382.12a1.08,1.08,0,0,0-.77-.28h0a1.07,1.07,0,0,0-.66,1.87l.36.32c1-.11,2-.25,3-.42A20,20,0,0,1,337.78,382.12Z"/><path d="M427.72,385.14a197.3,197.3,0,0,0,19.58-26.38,1.08,1.08,0,0,0-1.85-1.11,195,195,0,0,1-19.33,26,53.85,53.85,0,0,0-12.74,24.79,10.78,10.78,0,0,1,1.92,1.66A51,51,0,0,1,427.72,385.14Z"/><path d="M413.42,411.31l.05,0-.08-.08Z"/><path d="M414.95,411.28a1.08,1.08,0,0,0,.3-.83s0-.15,0-.3a10.78,10.78,0,0,0-1.92-1.66c-.25,1.31-.31,2.4,0,2.78l.08.08a1.06,1.06,0,0,0,1.47-.07Z"/><path d="M431.1,390.91A160.63,160.63,0,0,0,446,369.81a1.08,1.08,0,1,0-1.89-1,158,158,0,0,1-14.65,20.78,62.38,62.38,0,0,0-11.82,23.18c.54.63,1.12,1.34,1.73,2.09A60.17,60.17,0,0,1,431.1,390.91Z"/><path d="M418.18,416.16a1.08,1.08,0,0,0,1.06-.89s0-.17.09-.45c-.61-.76-1.19-1.46-1.73-2.09-.33,1.27-.47,2-.49,2.17a1.07,1.07,0,0,0,.16.77l.07.09a1.07,1.07,0,0,0,.64.39Z"/><path d="M446,383.84a1.08,1.08,0,1,0-1.11-1.85c-15,9-22.78,27.54-25,33.54l1.59,2C422.69,414.05,430.36,393.2,446,383.84Z"/><path d="M420,418.77a1.07,1.07,0,0,0,.32,0,1.08,1.08,0,0,0,1-.76l.17-.51-1.59-2c-.39,1.06-.6,1.74-.65,1.89A1.08,1.08,0,0,0,420,418.77Z"/><path d="M428.32,370.83c-.12.08-12.34,8.55-21.42,5-4.47-1.74-7.52-6.16-9.06-13.15-5.89-26.62-3.52-44.16-3.5-44.33a1.08,1.08,0,0,0-2.14-.3c0,.18-2.46,18.07,3.53,45.11,1.71,7.74,5.21,12.69,10.4,14.7a15.66,15.66,0,0,0,5.7,1c8.68,0,17.29-6,17.73-6.28a1.08,1.08,0,0,0-1.24-1.77Z"/><path d="M389.72,293.47a70.25,70.25,0,0,1-11.92,14,1.08,1.08,0,1,0,1.48,1.57c7.8-7.33,12-13.3,14.2-17.9-.15-.68-.28-1.37-.41-2.09A13.5,13.5,0,0,1,389.72,293.47Z"/><path d="M395.64,284.09v.1a10,10,0,0,0-.29-4.4,31.65,31.65,0,0,1-.44,3.42A1.08,1.08,0,0,1,395.64,284.09Z"/><path d="M393.83,279a1.09,1.09,0,0,0-.54,1.42c0,.06,1.76,4.4-3.57,13.06a13.5,13.5,0,0,0,3.36-4.46q-.14-.81-.26-1.65a1.08,1.08,0,0,1,.92-1.22h0c-.1-.58-.19-1.18-.27-1.79a1.08,1.08,0,0,1,.94-1.2,1,1,0,0,1,.49.06,31.65,31.65,0,0,0,.44-3.42c-.05-.15-.09-.25-.11-.28A1.07,1.07,0,0,0,393.83,279Z"/><path d="M396.88,295.27c4.94,9,13.58,12.31,17.85,13.43a16.33,16.33,0,0,0,3.85.67c1,0,1.23-.3,1.36-.48a1.12,1.12,0,0,0,0-1.24,1.08,1.08,0,0,0-1.27-.45c-1.63-.15-20.54-2.72-23.07-23a18.34,18.34,0,0,1-.66,3.09A44.32,44.32,0,0,0,396.88,295.27Z"/><path d="M394.92,283.2a26.11,26.11,0,0,1-.73,3,1.08,1.08,0,0,1,.77.88l0,.21a18.34,18.34,0,0,0,.66-3.09v-.1A1.08,1.08,0,0,0,394.92,283.2Z"/><path d="M394.92,283.2a1,1,0,0,0-.49-.06,1.08,1.08,0,0,0-.94,1.2c.07.61.17,1.21.27,1.79a1.06,1.06,0,0,1,.43,0A26.11,26.11,0,0,0,394.92,283.2Z"/><path d="M393.49,291.1c3.38,15.69,12.46,20.19,12.87,20.39a1.08,1.08,0,0,0,.93-2c-.08,0-6.69-3.38-10.41-14.27a28.17,28.17,0,0,1-2.49-6.25Q394,290,393.49,291.1Z"/><path d="M393.93,287a19.29,19.29,0,0,1-.84,2c.12.72.26,1.41.41,2.09q.52-1.09.9-2.09C394.22,288.36,394.07,287.68,393.93,287Z"/><path d="M393.76,286.14h0a1.08,1.08,0,0,0-.92,1.22q.12.84.26,1.65a19.29,19.29,0,0,0,.84-2C393.87,286.71,393.81,286.43,393.76,286.14Z"/><path d="M394.39,289a28.17,28.17,0,0,0,2.49,6.25,44.32,44.32,0,0,1-1.89-8Q394.75,288.1,394.39,289Z"/><path d="M394.39,289q.35-.92.6-1.75l0-.21a1.08,1.08,0,0,0-.77-.88q-.13.41-.27.81C394.07,287.68,394.22,288.36,394.39,289Z"/><path d="M394.2,286.18a1.06,1.06,0,0,0-.43,0c.05.29.11.57.16.85Q394.07,286.58,394.2,286.18Z"/><path d="M328.64,311.08a4,4,0,0,1-1,.28A22,22,0,0,1,330,322.63c.75.27,1.44.55,2.08.83a23.64,23.64,0,0,0-2.7-13.32A1.44,1.44,0,0,1,328.64,311.08Z"/><path d="M330.52,297.5c2.28-3.18,5.4-11,5.53-11.31a1.08,1.08,0,1,0-2-.8c0,.08-3.15,7.88-5.28,10.85a17.33,17.33,0,0,0-3,9.26,20.83,20.83,0,0,1,2.36,2C327.35,304.37,328.76,300,330.52,297.5Z"/><path d="M326.19,308.63a7.5,7.5,0,0,0,.27.72l.41-.06C326.69,309.09,326.46,308.87,326.19,308.63Z"/><path d="M329.86,323.94a1.08,1.08,0,0,0,.88,1.25l.19,0a1.08,1.08,0,0,0,1.06-.89c.05-.29.08-.57.11-.85-.64-.28-1.33-.56-2.08-.83C330,323.06,329.94,323.5,329.86,323.94Z"/><path d="M327.6,311.36a4,4,0,0,0,1-.28,1.44,1.44,0,0,0,.77-.94c-.18-.33-.3-.55-.33-.59l-.07-.11a5,5,0,0,1-.9-1.94,20.83,20.83,0,0,0-2.36-2,9.92,9.92,0,0,0,.45,3.13c.27.24.5.46.68.66l-.41.06a6.6,6.6,0,0,0,.79,1.37C327.31,310.81,327.44,311,327.6,311.36Z"/><path d="M321.77,302.9A28,28,0,0,0,331,286a1.08,1.08,0,1,0-2.14-.33,26,26,0,0,1-9.24,16.24l.56.21A14.29,14.29,0,0,1,321.77,302.9Z"/><path d="M318.88,303.69a1.08,1.08,0,0,0,1.5.3,16.22,16.22,0,0,0,1.39-1.09,14.29,14.29,0,0,0-1.6-.82l-.56-.21-.43.32A1.08,1.08,0,0,0,318.88,303.69Z"/><path d="M331.5,304.33a1.08,1.08,0,1,0-1.15,1.83c3.3,2.08,11.33,14.91,15.13,21.32.85,0,1.67-.08,2.45-.11C345.74,323.64,335.91,307.11,331.5,304.33Z"/><path d="M347.32,329.56a1.08,1.08,0,0,0,.93-1.62l-.33-.56c-.78,0-1.6.06-2.45.11l.9,1.54A1.08,1.08,0,0,0,347.32,329.56Z"/><path d="M362.81,321.22a1.08,1.08,0,0,0,.64,1.39,1.06,1.06,0,0,0,.37.07,1.08,1.08,0,0,0,1-.71c2.86-7.72,18.07-24,20.16-26.24a12.5,12.5,0,0,1-3.15.21C377.24,300.92,365.43,314.13,362.81,321.22Z"/><path d="M385.2,293.95a1.08,1.08,0,0,0-1.53,0c-.13.14-.8.84-1.83,2a12.5,12.5,0,0,0,3.15-.21l.24-.25A1.08,1.08,0,0,0,385.2,293.95Z"/><path d="M375.8,391.44a1.08,1.08,0,0,0,1.44-1.61c-.15-.13-14.51-13.33-13.2-37.77a23.57,23.57,0,0,1-2.24,2.08C361.35,378.23,375.19,390.9,375.8,391.44Z"/><path d="M363,350.57a1.07,1.07,0,0,0-.75.25l-.08.09a1.07,1.07,0,0,0-.31.68c-.05.87-.08,1.72-.1,2.55a23.57,23.57,0,0,0,2.24-2.08c0-.12,0-.23,0-.35A1.08,1.08,0,0,0,363,350.57Z"/><path d="M353,354.61a4.22,4.22,0,0,0,1.64,1.86c.77-.48,1.49-1,2.19-1.42a2.52,2.52,0,0,1-1.85-1.32c-.88-2,.83-5.59,1.74-7.11-1,.5-2.07,1-3.12,1.43C352.82,350,352.15,352.6,353,354.61Z"/><path d="M356.91,346.37a1.08,1.08,0,0,0-1.83-1.15c-.11.18-.49.8-.92,1.66v.1a1.08,1.08,0,0,1-.53,1.05h0c1.06-.46,2.11-.92,3.12-1.43Z"/><path d="M356.91,357.28l.18,0a1.08,1.08,0,0,0,.18-2.15c-.15,0-.27-.07-.4-.1-.7.47-1.43.94-2.19,1.42A6,6,0,0,0,356.91,357.28Z"/><path d="M356,334.36a7.75,7.75,0,0,1,6.08-1.13,3.86,3.86,0,0,0-.8-1.25,5.43,5.43,0,0,0-1.59-1.08,9.47,9.47,0,0,0-4.93,1.69c-3.51,2.45-3.08,11-2.83,13.83l2.1-.91C353.76,341.41,354.05,335.73,356,334.36Z"/><path d="M363.22,331.29a10,10,0,0,0-3.51-.39A5.43,5.43,0,0,1,361.3,332a3.86,3.86,0,0,1,.8,1.25l.42.11a1.07,1.07,0,0,0,1.33-1.44,1.21,1.21,0,0,0-.64-.61Z"/><path d="M354,345.51l-2.1.91c0,.38.06.66.08.8a1.08,1.08,0,0,0,1.07,1h.12a1.07,1.07,0,0,0,.42-.14c.17-.42.35-.8.52-1.15C354.12,346.45,354.07,346,354,345.51Z"/><path d="M354.17,347v-.1c-.17.35-.35.73-.52,1.15A1.08,1.08,0,0,0,354.17,347Z"/><path d="M295.17,294.12c.83-3,3.1-11.78,3.26-18a1.08,1.08,0,0,0-1.05-1.11,1.09,1.09,0,0,0-1.11,1.05c-.14,5.9-2.39,14.56-3.19,17.48l1,.27Z"/><path d="M293.53,295.92a1.08,1.08,0,0,0,1.34-.73c0-.08.13-.46.3-1.06l-1.06-.29-1-.27c-.17.62-.28,1-.28,1A1.08,1.08,0,0,0,293.53,295.92Z"/><path d="M291,280.25a1.08,1.08,0,0,0-2.09-.56,34.77,34.77,0,0,0-1,12.67l2.25.5A32.65,32.65,0,0,1,291,280.25Z"/><path d="M289.2,294.84l.22,0a1.08,1.08,0,0,0,.84-1.28s0-.25-.11-.67l-2.25-.5c.11,1,.22,1.55.24,1.62A1.08,1.08,0,0,0,289.2,294.84Z"/><path d="M262.52,275a1.08,1.08,0,0,0-2.07-.63c-1.92,6.29-1.24,10.85-.58,13.19l2.37.29C261.7,286.38,260.44,281.8,262.52,275Z"/><path d="M261.48,289.91a1.07,1.07,0,0,0,.49-.12,1.08,1.08,0,0,0,.47-1.45s-.09-.18-.21-.51l-2.37-.29a10.27,10.27,0,0,0,.65,1.79A1.08,1.08,0,0,0,261.48,289.91Z"/><path d="M265.88,272.51a1.1,1.1,0,0,0-1.13,1c-.34,6.64-2.19,10.13-2.21,10.17a1.08,1.08,0,0,0,1.9,1c.09-.16,2.11-3.9,2.47-11.1A1.08,1.08,0,0,0,265.88,272.51Z"/><path d="M244.38,255.51c.56-.19.7,0,.81.14,1.39,1.81.32,9.5-1.72,13h.34a10.64,10.64,0,0,0,2.65-1.45c1.53-4.31,2.26-10.52.44-12.9a2.73,2.73,0,0,0-3.23-.87c-3.42,1.19-10.48-2.76-12.92-4.38L229.14,248l-.07,1.93c0,.08-.25,7-.66,13.88a5.25,5.25,0,0,0,2,3.32c.38-5.73.66-12.16.79-15.26C234.16,253.66,240.43,256.88,244.38,255.51Z"/><path d="M230.34,267.7l0-.54a5.25,5.25,0,0,1-2-3.32c-.07,1.25-.15,2.5-.23,3.71a1.07,1.07,0,0,0,.22.71l.24.23a1.05,1.05,0,0,0,.54.21A1.07,1.07,0,0,0,230.34,267.7Z"/><path d="M243.81,268.68c.68,0,1.37,0,2.07,0,.2-.45.39-.94.58-1.46A10.64,10.64,0,0,1,243.81,268.68Z"/><path d="M243.47,268.69l-.08.14.42-.14Z"/><path d="M245,270.36a11.33,11.33,0,0,0,.9-1.66c-.71,0-1.4,0-2.07,0l-.42.14c-.06.11-.13.22-.19.32a1.08,1.08,0,0,0,.9,1.69l.18,0a1.08,1.08,0,0,0,.72-.45Z"/><path d="M397.08,259.59a9.78,9.78,0,0,0,3-.47c2.65-.86,4.71-2.88,6.12-6a1.08,1.08,0,0,0-2-.89,8.26,8.26,0,0,1-4.81,4.82c-2.91,1-6-.22-7.18-.76.07.83.16,1.64.25,2.44A13.53,13.53,0,0,0,397.08,259.59Z"/><path d="M390.33,256.48a1.08,1.08,0,0,0,.41,1.47,12.81,12.81,0,0,0,1.8.79c-.09-.8-.17-1.61-.25-2.44l-.48-.24A1.08,1.08,0,0,0,390.33,256.48Z"/><path d="M390.59,260.7q-.09-.72-.18-1.46a1,1,0,0,0,.18,1.46Z"/><path d="M401.48,262.85c3.49,0,6.92-.87,8.66-3.79a1.08,1.08,0,1,0-1.85-1.11c-2.59,4.31-11.47,2.56-15.7,1.22.09.8.19,1.58.3,2.34A33.09,33.09,0,0,0,401.48,262.85Z"/><path d="M390.42,259.24q.09.74.18,1.46a1.06,1.06,0,0,0,.31.19c.13,0,.86.31,2,.62-.1-.76-.2-1.54-.3-2.34l-.95-.32A1.06,1.06,0,0,0,390.42,259.24Z"/><path class="cls-2" d="M532.69,448.21C528.48,442.9,486,389.43,483,385.79c-3.79-4.53-30.3-34-34.11-36.14-2.47-1.4-5.47-10.09-11.27-28.22-3-9.4-6.11-19.12-8.26-23.39-4.33-8.58-23.23-58.73-19.27-68.8,2.5-6.35,1.37-8.46.82-9.06a46,46,0,0,1-8.69,1.85,33.48,33.48,0,0,0-10.26,23,94.08,94.08,0,0,0,.36,11.24c1.17.54,4.26,1.72,7.18.76a8.26,8.26,0,0,0,4.81-4.82,1.08,1.08,0,0,1,2,.89c-1.41,3.11-3.47,5.12-6.12,6a9.78,9.78,0,0,1-3,.47,13.53,13.53,0,0,1-4.54-.85l0,.43c4.24,1.34,13.12,3.09,15.7-1.22a1.08,1.08,0,1,1,1.85,1.11c-1.75,2.91-5.18,3.79-8.66,3.79a33.09,33.09,0,0,1-8.6-1.34c.51,3.73,1.14,7,1.65,9.64a50.07,50.07,0,0,1,.91,5.62,26.9,26.9,0,0,1-.07,3,10,10,0,0,1,.29,4.4c2.53,20.29,21.44,22.86,23.07,23a1.08,1.08,0,0,1,1.27.45,1.12,1.12,0,0,1,0,1.24c-.14.18-.36.48-1.36.48a16.33,16.33,0,0,1-3.85-.67c-4.27-1.12-12.91-4.42-17.85-13.43,3.72,10.89,10.33,14.23,10.41,14.27a1.08,1.08,0,0,1-.93,2c-.41-.2-9.49-4.7-12.87-20.39-2.2,4.6-6.4,10.57-14.2,17.9a1.08,1.08,0,1,1-1.48-1.57,70.25,70.25,0,0,0,11.92-14l-.09.08a10.27,10.27,0,0,1-4.64,2.18c-2.09,2.22-17.3,18.52-20.16,26.24a1.08,1.08,0,0,1-1,.71,1.06,1.06,0,0,1-.37-.07,1.08,1.08,0,0,1-.64-1.39c2.62-7.1,14.43-20.3,19-25.28a17.28,17.28,0,0,1-3.15-.49c-10.82-2.68-50.09-13.52-69-18.73-5.83-1.61-10-2.77-10.33-2.84-.62-.06-19.08-1.19-36.15-1.87-3.71-.15-7-.42-10-.66-3.41-.28-6.38-.52-9.07-.51a16,16,0,0,1-6.39.75,18.89,18.89,0,0,0-8.35,4.85c-1.94,1.84-1.46,2.93-1.3,3.29,2,4.71,20.23,7.71,25.35,7.41a42.72,42.72,0,0,1,6.36.4c-.66-2.34-1.34-6.9.58-13.19a1.08,1.08,0,0,1,2.07.63c-2.08,6.82-.82,11.39-.28,12.85,7.51,1,17.84,2.81,25.67,4.52a34.77,34.77,0,0,1,1-12.67,1.08,1.08,0,0,1,2.09.56,32.65,32.65,0,0,0-.85,12.61c1,.24,2,.48,2.93.71.8-2.92,3-11.58,3.19-17.48a1.09,1.09,0,0,1,1.11-1.05,1.08,1.08,0,0,1,1.05,1.11c-.15,6.2-2.42,15-3.26,18,9.42,2.57,21.13,6.55,24.43,7.75a26,26,0,0,0,9.24-16.24A1.08,1.08,0,1,1,331,286a28,28,0,0,1-9.21,16.94,41,41,0,0,1,4,2.6,17.33,17.33,0,0,1,3-9.26c2.13-3,5.25-10.77,5.28-10.85a1.08,1.08,0,1,1,2,.8c-.13.33-3.25,8.13-5.53,11.31-1.76,2.46-3.17,6.87-2.42,10a4,4,0,0,1,1.35,2.19,1.5,1.5,0,0,1,0,.45,23.64,23.64,0,0,1,2.7,13.32,16.82,16.82,0,0,1,6.43,4.56c2.54-.25,4.85-.43,7-.54-3.8-6.41-11.84-19.24-15.13-21.32a1.08,1.08,0,1,1,1.15-1.83c4.4,2.78,14.24,19.3,16.43,23,8.12-.24,12.65.75,14.92,3.1a5.91,5.91,0,0,1,.92,1.27,1.05,1.05,0,0,1,.09.16,9.74,9.74,0,0,1,.63,5.78,9.38,9.38,0,0,1-2.2,4.94,5.59,5.59,0,0,1,3.83,5.62,6.47,6.47,0,0,1-2.08,3.82c-1.31,24.44,13.05,37.64,13.2,37.77a1.08,1.08,0,0,1-1.44,1.61c-.61-.54-14.45-13.21-14-37.3a76,76,0,0,1-11.13,7.2c7,5.71,6,10.65,2,16.65-2,3-7.49,4.73-13,5.62a21.86,21.86,0,0,0,8.78,3.66c6.69,1,29.43,9.35,42.66,16.14,7.12,3.65,10.54,3.43,13.56,3.23a12.88,12.88,0,0,1,8.65,1.85h0a53.85,53.85,0,0,1,12.74-24.79,195,195,0,0,0,19.33-26,1.08,1.08,0,0,1,1.85,1.11,197.3,197.3,0,0,1-19.58,26.38,51,51,0,0,0-12.43,25c.67.68,1.44,1.55,2.32,2.58a62.38,62.38,0,0,1,11.82-23.18,158,158,0,0,0,14.65-20.78,1.08,1.08,0,1,1,1.89,1,160.63,160.63,0,0,1-14.86,21.1,60.17,60.17,0,0,0-11.77,23.91l.57.71c2.18-6,9.92-24.52,25-33.54a1.08,1.08,0,1,1,1.11,1.85c-15.62,9.36-23.3,30.21-24.49,33.7,11.06,14.26,30.57,42.85,49.38,70.76,4,5.9,7.12,10.57,7.57,11.14a1.08,1.08,0,0,1,.17,1.3s3.26,1.51,6.07.06c2.06-1.07,3.88-3.75,4-9.81,0-.26,0-.51,0-.78-.14-15.27-10.54-39,1.35-29.72,4.75,3.72,10.1,9.57,15.08,14.53,7.51,7.46,14.2,12.9,16.8,6,1.29-3.44-1.28-9.92-5.27-17.21-9.34-17.06-26.48-38.58-20.13-36,6.67,2.69,23.3,22,31.82,24.68,2.7.85,4.59,0,5.08-3.56a14,14,0,0,0,.12-1.49ZM264.43,284.74a1.08,1.08,0,0,1-1.9-1s1.87-3.52,2.21-10.17a1.1,1.1,0,0,1,1.13-1,1.08,1.08,0,0,1,1,1.13C266.54,280.83,264.52,284.58,264.43,284.74ZM429.56,372.6c-.44.31-9.05,6.28-17.73,6.28a15.66,15.66,0,0,1-5.7-1c-5.18-2-8.68-7-10.4-14.7-6-27-3.55-44.93-3.53-45.11a1.08,1.08,0,0,1,2.14.3c0,.17-2.4,17.72,3.5,44.33,1.55,7,4.6,11.41,9.06,13.15,9.08,3.53,21.29-4.93,21.42-5a1.08,1.08,0,0,1,1.24,1.77Z"/><path class="cls-4" d="M24.52,367.57V353.83C23.37,360.13,23.23,365,24.52,367.57Z"/><path class="cls-4" d="M155.08,432.92l-1.86-2.62,1.05,3.79A9.14,9.14,0,0,0,155.08,432.92Z"/><path class="cls-2" d="M397.74,212.29a4.42,4.42,0,0,1,.75-5.12c3.1-3.59,8.72-4.25,12.38-4.27-6.69-4.93-21.21-3.26-27.42-2.55-1.41.16-2.35.27-2.87.27-1.62,0-13.5-3.07-31.44-7.74-9.35-2.44-18.18-4.74-20.66-5.25-6.49-1.33-13.36-11.55-13.65-12l-1.34-2,2.38.33c.11,0,9.06,1.21,16-1.57.16-4,0-12.83-2.67-15.73a1.08,1.08,0,1,1,1.6-1.45c3.12,3.45,3.32,12.25,3.25,16.12.28-.16.55-.34.82-.52.25-2.19,1.07-11.92-3.24-19a1.08,1.08,0,0,1,1.85-1.13c3.82,6.27,4,14.16,3.74,18.23,4.4-4.22,4-8.72,1.62-15.51-2-5.73-8.2-4.65-9.34-4.4l-.26.06-.06-.3-1.66,0a1.07,1.07,0,0,1-1,.11,1,1,0,0,1-.14-.09l-1.85,0a1.06,1.06,0,0,1-.48.13l-.24,0a1,1,0,0,1-.19-.08l-5.52.11h0a1.08,1.08,0,0,1,0-2.16l5.13-.1c.47-2.46,1.51-9.15-.13-12.88a1.08,1.08,0,0,1,2-.87c1.8,4.1.89,10.77.36,13.71l.83,0c.94-2.71,3.6-11.38,1.46-17.59a1.08,1.08,0,0,1,2-.71c2.21,6.4,0,14.71-1.2,18.24l1.27,0c1.41-.7,4.05-2.76,5.22-8.53,1.48-7.31-5.16-11.43-6.28-12.06l-15.18-1.42a1.08,1.08,0,0,1,.2-2.15l15.16,1.42c1.06-.41,6-2.57,5.91-7.52v-.11l0-.11c.9-5.12-2.28-6.9-9-10.13-1.09-.53-2.24-1.08-3.43-1.69-7.4-3.78-63.64-17.55-98.54-16.1-32.84,1.37-54,21.09-66.59,32.87l-1.53,1.43C143.47,134,32.59,244,25.79,250.78L24.52,249a22.45,22.45,0,0,0-.48,2.19c-.38,2.21-.68,5.64.48,8.1s3.7,3.88,9,2.34A47.23,47.23,0,0,0,45,255.93c27.56-17.56,29.72-15.11,13.51,12-2.55,4.27-5.55,10-8.71,16.59-10.16,21.19-21.91,51.15-25.24,69.28v13.73c1.19,2.35,3.57,2.79,7.48.64,24.32-13.38,43.77-45.54,42.15-30.94s-49,124-32,133.76,53.39-90,52-66.47,14.05,9.12,17.83-3.14,10.81-5.58,14.59,9.86c3.64,14.85,20.6,31.75,27.7,22.83l-1.05-3.79c-4.67-16.89-19.66-71.53-20.5-75.24-1-4.53,23.27-81.39,35-112.31,12.35-32.58,24.91-48.07,25-48.22l.64-.77h0c3.67-4.44,22.19-28.11,20.37-51.24a1.08,1.08,0,1,1,2.16-.17c1.16,14.71-5.33,29.29-11.49,39.52C236,165.48,224.2,120,224.07,119.49a1.08,1.08,0,1,1,2.09-.56c.14.51,13.17,50.58-23.83,66.34a105.82,105.82,0,0,1-7.17,9.8c3.44,2.82,3.91,5.79,4.4,8.92.77,4.9,1.73,11,14.15,20.66,16.37,12.72,15.44,24.28,14.75,32.72a25.6,25.6,0,0,0,0,6.48c.41-6.92.65-13.8.66-13.88l.07-1.93,1.61,1.07c2.43,1.62,9.5,5.57,12.92,4.38a2.73,2.73,0,0,1,3.23.87c1.82,2.37,1.09,8.58-.44,12.9l.12-.08c4.72-3.65,7.19-11.63,7.53-24.4.16-5.81-3.32-11.28-6.38-16.11-3.93-6.18-7.63-12-3.09-17.35,5.55-6.5,20.72-6.14,36.77-5.76,6.18.14,12.57.3,18,0,12-.69,27.46,4.95,39.9,9.47,4.93,1.79,9.39,3.41,13.13,4.49,1.56-1,7.73-5.72,3.82-19.62a1.08,1.08,0,1,1,2.08-.58c3.5,12.44-.54,18.42-3.26,20.89.9.21,1.76.38,2.54.49,3,.41,5.09.82,6.91,1.19,5.4,1.09,9,1.82,31.07.6a62.11,62.11,0,0,0,13.08-1.87C404.07,217.7,399.29,215.37,397.74,212.29Zm-73.44-90.57c.13-.18,3-4.31.51-10.2a1.08,1.08,0,1,1,2-.84,12.84,12.84,0,0,1-.75,12.32,1.08,1.08,0,0,1-1.75-1.27Zm23,91.33a1.08,1.08,0,0,1-1.23-1.78c.1-.08,3.23-2.66,4.05-13.79a1.07,1.07,0,0,1,1.16-1,1.08,1.08,0,0,1,1,1.16C351.38,210,347.73,212.78,347.31,213.06Zm9.39-10.6c.14,9.48-4.63,13.28-4.83,13.44a1.08,1.08,0,0,1-1.33-1.71c.18-.14,4.12-3.38,4-11.7a1.08,1.08,0,0,1,1.06-1.1h0A1.08,1.08,0,0,1,356.7,202.46Zm27,15.19a1.08,1.08,0,0,1-1.08-1.08c0-.23,0-.29.3-1,3.05-7.73,3.41-11.05,3.18-12.48a1.08,1.08,0,0,1,2.13-.35c.41,2.5-.67,7-3.3,13.62l-.19.48A1.08,1.08,0,0,1,383.68,217.65Zm2.73,1a1.08,1.08,0,0,1-1.45-.5,1.08,1.08,0,0,1,.49-1.44c.1-.05,5.22-2.87,5.75-14.26a1.12,1.12,0,0,1,1.13-1,1.08,1.08,0,0,1,1,1.13C392.76,215.38,386.67,218.5,386.41,218.62Z"/><text class="cls-5" transform="matrix(0.91, 0.42, -0.42, 0.91, 253.2, 228.94)"><tspan class="cls-6">P</tspan><tspan x="19.34" y="0">A</tspan><tspan class="cls-7" x="41.22" y="0">S</tspan><tspan x="60.9" y="0">SION</tspan></text></svg>