<svg id="Layer_1" data-name="Layer 1" xmlns="http://www.w3.org/2000/svg" xmlns:xlink="http://www.w3.org/1999/xlink" viewBox="0 0 566.93 566.93"><defs><style>.cls-1{fill:none;}.cls-2{fill:#cae2ed;}.cls-3{fill:#e6f5fc;}.cls-4{clip-path:url(#clip-path);}.cls-5{fill:#eeac92;}.cls-6{fill:#be8859;}.cls-7{fill:#d5cfac;}.cls-8{fill:#eec97c;}.cls-9{fill:#9ab5c9;}.cls-10{fill:#c74850;}.cls-11{fill:#f8dfde;}.cls-12{fill:#f5851f;}.cls-13{fill:#f2bcc9;}</style><clipPath id="clip-path"><rect class="cls-1" x="105.18" y="122.45" width="401.31" height="317.9"/></clipPath></defs><title>Untitled-1</title><path class="cls-2" d="M495.86,328.48c-34.43-13.12-62.08-49.76-84.35-44.1s-28.68,4.62-24.75,25-39,5.64-56.3,3.47-21.34,20.42-47.69,39.91-43.56,12.37-91.26-39.91-73.86-29.08-73.86-29.08c-4,1.28-10.32,6.29-17,12.54,1.64,8.29,3,16.33,3.23,23.89.91,33.87-74.32,1.6-87.52,35.37S37,450.88,89.67,442.46s105.67-22.1,125.54-19.29,47.36,23.17,84.43,18.63,42.12-46.76,70.58-61.95,116.72,4.2,144.76-6.22c14-5.21,25.49-21.61,31.79-42.62C538.35,334,520.31,337.8,495.86,328.48Z"/><path class="cls-2" d="M240.76,328.73c34,19.06,78.88-1.35,77.95-28.28s21-33.39,53.2-42.67,74.55,22,109.5,42.67c19.06,11.3,47.32,14,69.08,14a128.12,128.12,0,0,0-2.93-53.72c-13.92-49.41-61.14-35.08-61.14-35.08s-5.77,4.33-46.1-14-88.25,18.56-115.47,30.83-53.2-17.22-85-38.25-91.15-23.51-126.37,7.42C94.43,228.42,92.93,248.94,95.7,269.6c8.32-3.94,19-7.17,32.47-8.51C169.62,257,206.75,309.67,240.76,328.73Z"/><path class="cls-3" d="M481.42,300.45c-35-20.71-77.33-52-109.5-42.67s-54.13,15.75-53.2,42.67-43.93,47.34-77.95,28.28S169.62,257,128.17,261.09c-13.49,1.34-24.14,4.57-32.47,8.51,1.2,9,3.21,18,4.94,26.69,6.7-6.24,13-11.26,17-12.54,0,0,26.16-23.2,73.86,29.08s64.91,59.4,91.26,39.91,30.37-42.07,47.69-39.91,60.24,16.89,56.3-3.47,2.48-19.33,24.75-25,49.92,31,84.35,44.1c24.44,9.31,42.49,5.53,50.91,2.55a123.62,123.62,0,0,0,3.72-16.54C528.74,314.4,500.48,311.74,481.42,300.45Z"/><g class="cls-4"><path class="cls-5" d="M397.87,240.26A10.39,10.39,0,0,0,406,242.2a9.8,9.8,0,0,0,7.31-5.12c4-6.62,3.82-18,2.4-21.72l.37-.14c-1.32-2-3.49-2.18-5.94-1.59-4.78,1.16-7.84-2-11.84,0-3.72,1.9-3.33,6.47-3.26,7.08v0c-.06-.45-.54-3-3.61-.57-3.36,2.64,1,6.39,1.45,8.31a23.41,23.41,0,0,1,.36,3.5l.48,0C393.74,232,394.2,237.27,397.87,240.26Zm14.35-18.95c.76,0,1.38,1.34,1.38,3s-.62,3-1.38,3-1.39-1.34-1.39-3S411.45,221.31,412.22,221.31Zm-7.06,0c.78,0,1.41,1.34,1.41,3s-.63,3-1.41,3-1.41-1.34-1.41-3S404.38,221.31,405.16,221.31Z"/><path class="cls-6" d="M412,311.49l.21-.05c5.69-.4,12.62-.55,13.28,1a1.15,1.15,0,0,1-.46,1.36,10.62,10.62,0,0,1-4.15,1.92c-.3.09-.65.19-.9.28.14.09.36.22.66.38,1.59.82,4.37.91,6.82,1a17.79,17.79,0,0,1,4.58.49l-.66-45.17H401v37.94C404.88,312.33,408.67,313,412,311.49Z"/><path class="cls-7" d="M352.51,280.55h-1.38v-1.28h11a46,46,0,0,1-2.17-11.7,14.2,14.2,0,0,0-3.65,2.75l-.47-.43a14.23,14.23,0,0,1,4.09-3c0-1.06-.06-2.1,0-3.12a4,4,0,0,0-2.46,1.42l-.54-.34a4.62,4.62,0,0,1,3-1.75A59.52,59.52,0,0,1,362,248.56a7.32,7.32,0,0,0-2.06,1c-6.11,4.26-8.17,17.8-8.17,23.32h-1.28c0-6,2.13-19.77,8.72-24.36a8.86,8.86,0,0,1,8.55-.86c13.37,4.92,7.68,31.27,7.43,32.39l-.11.5h-3.41c.35,2.4,2,10.68,8.6,15.46,1.55,1.12,3.31,2.55,5.18,4.06,4.22,3.42,9.28,7.51,14.32,10V271.44h3.36V255.24c-1.32,3.61-4,7.29-9.41,7.4h-.2a6.53,6.53,0,0,1-5.23-2.31c-3.5-4.15-2.51-12.63-2.11-15.18l-25.62-.62-.13-.07s-4.94-2.1-14.29,12.77c-9.2,14.64-10.82,60.33-11,65.47,4.44,1.5,40.6,13.57,49.35,11L390,319c-11.65-4.52-23.1-9.87-27-13.89C356,297.73,353.05,283.51,352.51,280.55Z"/><path class="cls-5" d="M394.2,237.71a8.71,8.71,0,0,1-2.12,4.61,9.4,9.4,0,0,1-4.61,2.77c-.32,2-1.46,10.59,1.78,14.42a5.3,5.3,0,0,0,4.42,1.86c8.4-.18,9.33-10.06,9.43-12.56a3.51,3.51,0,0,1-1.76-1c-1-1-1.4-2.69-1.3-4.88a10,10,0,0,1-3-1.68A11.6,11.6,0,0,1,394.2,237.71Z"/><path class="cls-5" d="M420.08,317.55c-1.05-.54-1.69-1-1.63-1.68s.88-1,2.1-1.33a9.82,9.82,0,0,0,3.62-1.62c-1.29-.55-6.87-.55-11.74-.2-8.8,3.75-19.78-5.14-27.8-11.65-1.85-1.5-3.6-2.92-5.12-4-7.25-5.25-8.84-14.13-9.15-16.5H353.81c.64,3.31,3.6,16.82,10.18,23.63,7.47,7.73,45.84,21.24,54.55,22.4,8.37,1.12,13.13-5,13.55-7.1v-.05c-.45-.6-2.77-.68-4.64-.74C424.86,318.59,421.92,318.5,420.08,317.55Z"/><polygon class="cls-8" points="433.36 318.9 480.45 319.37 480.45 272.72 432.68 272.72 433.36 318.9"/><path class="cls-7" d="M365.06,263.44l-.17.62a11.19,11.19,0,0,0-4.42-.43c0,1,0,2,0,3a5.75,5.75,0,0,1,4.61,0l-.27.58a5.21,5.21,0,0,0-4.3.08,45.37,45.37,0,0,0,2.22,12H374c.72-3.66,4.64-26.23-6.73-30.41a8.51,8.51,0,0,0-4.59-.48A58.31,58.31,0,0,0,360.48,263,12,12,0,0,1,365.06,263.44Z"/><polygon class="cls-8" points="451.19 271.44 450.43 245.55 423.7 245.55 422.63 271.44 451.19 271.44"/><path class="cls-9" d="M342.25,344c0-.07,0-.14,0-.21l.49,0c4.58-1.7,9.34-5.53,12.32-13.62-9.49-2.65-18-5.49-20.23-6.26-.33,1.15-1.22,4.71-3.55,15.75a32.6,32.6,0,0,0-.6,4.84A21.85,21.85,0,0,0,342.25,344Z"/><polygon class="cls-6" points="421.35 271.44 422.42 245.55 404.39 245.55 404.39 248.25 404.39 271.44 421.35 271.44"/><path class="cls-9" d="M347,413.92l-.45-.11.15-.62.45.11a10.2,10.2,0,0,0,1.6.3c.2-.52.39-1,.58-1.55a3.26,3.26,0,0,1-.52-.06,4,4,0,0,1-2.48-2.19l.59-.25a3.43,3.43,0,0,0,2.06,1.82,2.67,2.67,0,0,0,.59.05c4.13-11.4,5.2-20.16,3.15-26.15L351.6,382c-5.63-16.36-9.72-28.3-9.37-37.37a22.14,22.14,0,0,1-6.83,1.06,23.22,23.22,0,0,1-4.76-.48c-.58,13.91,6.09,30.83,9.88,40.45,1.11,2.81,2,5,2.47,6.6,2.18,7-13.7,38.95-18.39,48.13h11.16a210.19,210.19,0,0,0,12.78-26.13A11.66,11.66,0,0,1,347,413.92Z"/><path class="cls-9" d="M384.59,335a13.82,13.82,0,0,1-3.21.32c-6.16,0-16.35-2.36-25.69-4.95-3.06,8.31-8,12.23-12.81,14-.43,9,3.67,20.94,9.33,37.39l1.14,3.31c2.08,6.07,1,14.87-3.05,26.29a6.13,6.13,0,0,0,2.55-1.3l.4.5A6.32,6.32,0,0,1,350,412c-.19.52-.39,1-.59,1.58a19.84,19.84,0,0,0,3.54-.44l.12.63a20.58,20.58,0,0,1-3.71.45h-.19a208.31,208.31,0,0,1-12.71,26.09h7.88A155,155,0,0,0,359.46,408c3.94-12.18,2-25,.44-35.31-1.08-7.12-1.93-12.74-.41-15.9,3.68-7.7,12.32-6.34,12.4-6.32l-.21,1.26a11.38,11.38,0,0,0-8.37,2.17c8.34,4.59,14.9,26.1,18.11,36.63l.13.44c3,10-8.11,46.21-9.1,49.4h14.73c3.46-9.43,11.77-33,12.51-44.57C400.59,382.13,386.42,340.34,384.59,335Z"/><path d="M416.1,215.22l-.37.14c1.42,3.73,1.59,15.1-2.4,21.72A9.8,9.8,0,0,1,406,242.2a10.39,10.39,0,0,1-8.14-1.94c-3.67-3-4.13-8.29-4.14-8.34l-.48,0c0,.85.08,1.73.11,2.57l.88-.1a12.58,12.58,0,0,1,0,3.28,11.6,11.6,0,0,0,2.86,3.54,10,10,0,0,0,3,1.68c0-.18,0-.33,0-.51l1.27.11c0,.28,0,.52,0,.77a12.82,12.82,0,0,0,2.84.31,16.38,16.38,0,0,0,2-.13,11,11,0,0,0,8.24-5.73,27.31,27.31,0,0,0,3.28-10.92,4.65,4.65,0,0,1-.62-.28C417.86,220.58,417.36,217.1,416.1,215.22Z"/><path d="M386.9,245.18l-.74,0c-.4,2.55-1.39,11,2.11,15.18a6.53,6.53,0,0,0,5.23,2.31h.2c5.43-.11,8.09-3.79,9.41-7.4v-7.77a2.2,2.2,0,0,1-.86-.57,5.16,5.16,0,0,1-.94-3.61,10.84,10.84,0,0,1-1.26-.37c-.11,2.19.31,3.84,1.3,4.88a3.51,3.51,0,0,0,1.76,1c-.1,2.5-1,12.38-9.43,12.56a5.3,5.3,0,0,1-4.42-1.86c-3.24-3.84-2.1-12.4-1.78-14.42a9.4,9.4,0,0,0,4.61-2.77,8.71,8.71,0,0,0,2.12-4.61,14.68,14.68,0,0,1-.8-1.79c0,1.38,0,2.39,0,2.39s-.08.24-.74.29a7.28,7.28,0,0,1-1.39,2.68,7.92,7.92,0,0,1-4.38,2.63h0Z"/><path d="M400.05,242.41c0,.18,0,.34,0,.51a10.84,10.84,0,0,0,1.26.37c0-.26,0-.5,0-.77Z"/><path d="M394.24,234.43l-.88.1c0,.49,0,1,0,1.39a14.68,14.68,0,0,0,.8,1.79A12.58,12.58,0,0,0,394.24,234.43Z"/><path d="M334.56,322.46l.58.07v.65l-.55,0,.42.27a4.28,4.28,0,0,0-.17.52c2.27.77,10.74,3.61,20.23,6.26.08-.21.16-.41.24-.63l.6.21c-.07.21-.16.39-.23.59,9.34,2.59,19.53,4.95,25.69,4.95a13.82,13.82,0,0,0,3.21-.32l-.2-.57,1.21-.42.08.22,5.56-14.83L390,319l-5.54,14.77c-8.75,2.55-44.92-9.52-49.35-11,.15-5.14,1.77-50.83,11-65.47,9.34-14.87,14.25-12.78,14.29-12.77l.13.07,25.62.62c.06-.41.11-.68.12-.74l.1-.52h.53l-26.06-.64c-1.09-.45-6.46-1.59-15.82,13.29C335.31,272,334,319.55,333.87,323,334.13,322.41,334.31,322.43,334.56,322.46Z"/><path d="M386.39,243.9l-.1.52c0,.06-.06.33-.12.74l.74,0,0-1.28h-.54Z"/><path d="M370.3,280l1.27-.1s0,.28.09.69h3.41l.11-.5c.25-1.12,5.93-27.47-7.43-32.39a8.86,8.86,0,0,0-8.55.86c-6.59,4.6-8.72,18.4-8.72,24.36h1.28c0-5.52,2.06-19.05,8.17-23.32a7.32,7.32,0,0,1,2.06-1c.19-.67.32-1,.33-1.07l.6.21s-.09.26-.21.68a8.51,8.51,0,0,1,4.59.48c11.37,4.19,7.45,26.75,6.73,30.41H362.76c.06.18.11.36.18.53l-.6.21c-.09-.25-.16-.5-.25-.75h-11v1.28h1.38c-.05-.29-.08-.47-.09-.53l1.26-.21s0,.29.14.74h16.56C370.32,280.22,370.31,280,370.3,280Z"/><path d="M432.09,319.47c-.42,2.14-5.18,8.23-13.55,7.1-8.71-1.15-47.08-14.66-54.55-22.4-6.57-6.81-9.53-20.33-10.18-23.63h-1.3c.55,3,3.48,17.19,10.56,24.52,3.88,4,15.33,9.37,27,13.89l.11-.28,1.2.45-.11.29c11.39,4.36,22.73,7.84,27.13,8.43a16.63,16.63,0,0,0,2.18.15c7.33,0,11.76-5.09,12.66-7.81H432.1Z"/><path d="M380.26,296c-6.61-4.78-8.25-13.06-8.6-15.46h-1.3c.3,2.37,1.9,11.25,9.15,16.5,1.52,1.1,3.27,2.52,5.12,4,8,6.5,19,15.39,27.8,11.65,4.87-.34,10.45-.34,11.74.2a9.82,9.82,0,0,1-3.62,1.62c-1.22.35-2,.58-2.1,1.33s.57,1.14,1.63,1.68c1.85.95,4.78,1,7.37,1.13,1.87.06,4.19.14,4.64.74l0-1.53a17.79,17.79,0,0,0-4.58-.49c-2.45-.08-5.23-.17-6.82-1-.3-.16-.52-.28-.66-.38.26-.09.6-.19.9-.28a10.62,10.62,0,0,0,4.15-1.92,1.15,1.15,0,0,0,.46-1.36c-.67-1.59-7.59-1.44-13.28-1l-.21.05c-3.35,1.47-7.14.84-11-.84v.44h-1.28v-1c-5-2.48-10.1-6.58-14.32-10C383.57,298.56,381.81,297.13,380.26,296Z"/><path d="M390.16,318.67,390,319l1.19.46.11-.29Z"/><path d="M352.41,280c0,.06,0,.25.09.53h1.3c-.09-.46-.13-.72-.14-.74Z"/><path d="M370.3,280c0,.05,0,.26.06.59h1.3c-.06-.41-.09-.67-.09-.69Z"/><path d="M341.87,444.24l1,.73c0-.05,1.19-1.72,3-4.63h-1.5C342.86,442.8,341.9,444.19,341.87,444.24Z"/><path d="M361.17,372.47c-1-6.9-1.87-12.35-.52-15.16a10.22,10.22,0,0,1,1.68-2.5l-.39-.18.47-1.19a7.86,7.86,0,0,1,.91.43,11.38,11.38,0,0,1,8.37-2.17l.21-1.26c-.09,0-8.72-1.38-12.4,6.32-1.51,3.17-.67,8.79.41,15.9,1.56,10.3,3.49,23.13-.44,35.31a155,155,0,0,1-15.09,32.37h1.5a156.1,156.1,0,0,0,14.81-32C364.71,395.9,362.75,382.91,361.17,372.47Z"/><path d="M322.22,442.18l1.13.59c.12-.22.57-1.08,1.25-2.43h-1.43Z"/><path d="M343,392.22c-.49-1.56-1.36-3.79-2.47-6.6-3.8-9.62-10.46-26.54-9.88-40.45-.43-.09-.7-.16-.72-.17l.18-.61.58.15a32.6,32.6,0,0,1,.6-4.84c2.33-11,3.22-14.6,3.55-15.75l-.55-.19-.44-.15v-.47h0V323c-.54,1.18-1.39,4.92-3.83,16.45-3.18,15,4.63,34.83,9.29,46.65,1.1,2.79,2,5,2.44,6.51,1.8,5.79-10.88,32.76-18.61,47.75h1.43C329.3,431.16,345.18,399.23,343,392.22Z"/><path d="M334.47,323.16l-.61,0h0v.47l.44.15.55.19a4.28,4.28,0,0,1,.17-.52l-.42-.27.55,0v-.65l-.58-.07c-.25,0-.44,0-.7.52v.16Z"/><path d="M385.68,444.38l1.19.46c.11-.29.75-1.94,1.68-4.49h-1.37C386.29,442.8,385.71,444.31,385.68,444.38Z"/><path d="M385.68,334.25l-.18.49-.28.1c-.19.07-.4.12-.62.17,1.83,5.32,16,47.11,15.11,60.76-.75,11.54-9.05,35.14-12.51,44.57h1.37c3.59-9.75,11.66-32.81,12.42-44.49C401.91,381.42,387,338,385.68,334.25Z"/><path d="M384.4,334.45l.2.57c.22-.05.43-.11.62-.17l.28-.1.18-.49-.08-.22Z"/><path d="M372.4,440.54l.06-.19h-.67Z"/><path d="M381.57,390.94l-.13-.44c-3.21-10.53-9.78-32-18.11-36.63a9.24,9.24,0,0,0-1,.94c8,3.79,14.91,26.34,17.88,36.06l.13.44c3,9.82-9,48.45-9.16,48.84l.61.19h.67C373.45,437.16,384.6,400.89,381.57,390.94Z"/><path d="M361.94,354.63l.39.18a9.24,9.24,0,0,1,1-.94,7.86,7.86,0,0,0-.91-.43Z"/><path d="M432.1,319.43h0v0Z"/><path d="M451.21,272.1l0-.66H422.63l0,.67-1.28-.05,0-.61h-17v.64h-1.28v-.64h-3.36v38.63c.43.21.85.41,1.28.59V272.72H431.4l.66,45.17a2.19,2.19,0,0,1,1,.62,1.37,1.37,0,0,1,.28,1.14,3.76,3.76,0,0,1-.14.53l48.52.48V271.44H452.47l0,.62Zm29.24,47.28-47.1-.47-.68-46.19h47.78Z"/><path d="M401,311.1v-.44c-.43-.19-.85-.38-1.28-.59v1Z"/><path d="M433.07,318.51a2.19,2.19,0,0,0-1-.62l0,1.53h0v.74h1.12a3.76,3.76,0,0,0,.14-.53A1.37,1.37,0,0,0,433.07,318.51Z"/><path d="M404.38,247.61v-2.06h18l0-.67,1.28.05,0,.61h26.73l.76,25.89h1.28l-.8-27.17H403.11v3.2a2.7,2.7,0,0,0,.62.14Z"/><path d="M404.39,271.44V248.25a22.79,22.79,0,0,1-1.28,7v16.19Z"/><path d="M404.39,248.25v-.64h-.64a2.7,2.7,0,0,1-.62-.14v7.77A22.79,22.79,0,0,0,404.39,248.25Z"/><rect x="403.11" y="271.44" width="1.28" height="0.64"/><polygon points="451.21 272.1 452.49 272.06 452.47 271.44 451.19 271.44 451.21 272.1"/><polygon points="422.63 271.44 423.7 245.55 422.42 245.55 421.35 271.44 422.63 271.44"/><polygon points="421.33 272.05 422.61 272.1 422.63 271.44 421.35 271.44 421.33 272.05"/><polygon points="423.73 244.94 422.45 244.88 422.42 245.55 423.7 245.55 423.73 244.94"/><path d="M395.05,220.71v0Z"/><path d="M393,234.64a14.71,14.71,0,0,1-.51-2.62l.79-.06a23.41,23.41,0,0,0-.36-3.5c-.49-1.92-4.8-5.67-1.45-8.31,3.07-2.41,3.55.12,3.61.57-.07-.61-.46-5.17,3.26-7.08,4-2,7.06,1.16,11.84,0,2.45-.59,4.62-.39,5.94,1.59l.82-.31c.86,2.27,1.31,7,.78,11.91,1.7.65,6.4,1.51,7-8.28.72-12-7.27-7.19-4.63-14.22s-2.88-15.74-16.3-15.66-6.63,10.71-13.9,10.55-12.94-7.35-18.7-2.08-2.8,21.09,3.52,21.41,10.07,2.64,10.39,8-3.25,8.86,2.4,10.87c3,1.07,4.49,1.25,5.24,1.19A10.3,10.3,0,0,0,393,234.64Z"/><path d="M393.36,234.53c0-.84-.06-1.73-.11-2.57l-.79.06a14.71,14.71,0,0,0,.51,2.62s0,0,0-.07Z"/><path d="M416.92,214.91l-.82.31c1.26,1.88,1.76,5.36,1,11.32a4.65,4.65,0,0,0,.62.28C418.23,221.88,417.78,217.18,416.92,214.91Z"/><path d="M393.43,238.3s0-1,0-2.39c-.17-.45-.31-.88-.42-1.28a10.3,10.3,0,0,1-.28,4C393.35,238.54,393.43,238.3,393.43,238.3Z"/><path d="M393,234.57s0,0,0,.07c.11.4.25.83.42,1.28,0-.43,0-.9,0-1.39Z"/><path d="M362.72,248.38a6.89,6.89,0,0,0-.72.18,59.52,59.52,0,0,0-2.16,14.52c.2,0,.41-.08.64-.1A58.31,58.31,0,0,1,362.72,248.38Z"/><path d="M360.46,263.62c-.23,0-.44.07-.64.12,0,1,0,2.05,0,3.12l.63-.26C360.46,265.58,360.45,264.59,360.46,263.62Z"/><path d="M360.54,267.28l-.62.28a46,46,0,0,0,2.17,11.7h.67A45.37,45.37,0,0,1,360.54,267.28Z"/><path d="M362.93,279.8c-.06-.18-.12-.36-.18-.53h-.67c.08.25.16.5.25.75Z"/><path d="M362.93,247.7l-.6-.21s-.14.4-.33,1.07a6.89,6.89,0,0,1,.72-.18C362.84,248,362.92,247.71,362.93,247.7Z"/><path d="M355.79,269.89l.47.43a14.2,14.2,0,0,1,3.65-2.75c0-.24,0-.47,0-.71A14.23,14.23,0,0,0,355.79,269.89Z"/><path d="M364.84,267.2l.27-.58a5.75,5.75,0,0,0-4.61,0c0,.23,0,.46,0,.69A5.21,5.21,0,0,1,364.84,267.2Z"/><path d="M360.5,266.59l-.63.26c0,.23,0,.47,0,.71l.62-.28C360.52,267,360.51,266.82,360.5,266.59Z"/><path d="M356.82,264.82l.54.34a4,4,0,0,1,2.46-1.42q0-.33,0-.66A4.62,4.62,0,0,0,356.82,264.82Z"/><path d="M364.89,264.06l.17-.62a12,12,0,0,0-4.58-.47c0,.22,0,.43,0,.65A11.19,11.19,0,0,1,364.89,264.06Z"/><path d="M360.48,263c-.23,0-.44.06-.64.1q0,.33,0,.66c.2,0,.41-.09.64-.12C360.47,263.4,360.47,263.19,360.48,263Z"/><path d="M335.42,441c-1.26,2.23-1.26,2.23-1.23,2.42l.38-.08.24.08c0-.15.54-1,1.16-2.1l.53-.95h-.73Z"/><path d="M342.25,344l.5-.18-.49,0C342.26,343.87,342.26,343.95,342.25,344Z"/><path d="M351.6,382l1.14,3.31c2.06,6,1,14.75-3.15,26.15a3.13,3.13,0,0,0,.7-.07c4.1-11.42,5.14-20.22,3.05-26.29l-1.14-3.31c-5.66-16.45-9.76-28.41-9.33-37.39l-.65.23C341.88,353.66,346,365.6,351.6,382Z"/><path d="M349.36,412c-.19.51-.38,1-.58,1.55.2,0,.43,0,.67,0,.2-.53.4-1.06.59-1.58-.12,0-.25,0-.37,0S349.46,412.05,349.36,412Z"/><path d="M348.55,414.21a210.19,210.19,0,0,1-12.78,26.13h.73a208.31,208.31,0,0,0,12.71-26.09Z"/><path d="M330.69,344.54c0,.21,0,.42,0,.63a23.22,23.22,0,0,0,4.76.48,22.14,22.14,0,0,0,6.83-1.06c0-.19,0-.38,0-.57A21.85,21.85,0,0,1,330.69,344.54Z"/><path d="M342.75,343.84h.14c0,.17,0,.34,0,.51,4.78-1.74,9.76-5.67,12.81-14l-.61-.17C352.1,338.3,347.33,342.14,342.75,343.84Z"/><path d="M355.32,329.59c-.08.22-.16.42-.24.63l.61.17c.07-.2.16-.38.23-.59Z"/><path d="M330.11,344.39l-.18.61s.29.08.72.17c0-.21,0-.42,0-.63Z"/><path d="M342.75,343.84l-.5.18c0,.19,0,.38,0,.57l.65-.23c0-.17,0-.35,0-.51Z"/><path d="M349,411.36a3.43,3.43,0,0,1-2.06-1.82l-.59.25a4,4,0,0,0,2.48,2.19,3.26,3.26,0,0,0,.52.06l.24-.63A2.67,2.67,0,0,1,349,411.36Z"/><path d="M353.24,410.55l-.4-.5a6.13,6.13,0,0,1-2.55,1.3L350,412A6.32,6.32,0,0,0,353.24,410.55Z"/><path d="M349.59,411.41l-.24.63c.1,0,.2,0,.3,0s.25,0,.37,0l.26-.69A3.13,3.13,0,0,1,349.59,411.41Z"/><path d="M349.4,414.26a20.58,20.58,0,0,0,3.71-.45l-.12-.63a19.84,19.84,0,0,1-3.54.44l-.24.63Z"/><path d="M347.18,413.3l-.45-.11-.15.62.45.11a11.66,11.66,0,0,0,1.52.29l.23-.62A10.2,10.2,0,0,1,347.18,413.3Z"/><path d="M348.78,413.6l-.23.62.66,0,.24-.63C349.2,413.62,349,413.62,348.78,413.6Z"/><ellipse cx="405.16" cy="224.29" rx="1.41" ry="2.98"/><ellipse cx="412.22" cy="224.29" rx="1.38" ry="2.98"/><path class="cls-10" d="M271.26,406.29c18.06-10.27,28.09-28.64,29.63-31.61-2.18-2.06-4.45-4.13-6.78-6.25q-2.43-2.21-4.94-4.52c-1.42-1.32-2.75-2.66-4-4A93.29,93.29,0,0,1,274,380.83C274.76,389.09,274.23,398.65,271.26,406.29Z"/><path class="cls-11" d="M292.16,187.82c-.64-4-5.43-4.79-10.07,0s5.75,6.23,4.1,12.78c-1.25,5-.61,10.69-.22,13.2l.72.88c.32.4,8,9.7,16.19,4.14,6.17-4.21,10.69-18.26,10.06-26.81-.18-2.5-.88-5.71-3.16-6.82l.37-.76c-1.39-.77-3.27-1.45-5.68-2.69C298.87,178.88,292.8,191.82,292.16,187.82Zm7.33,12.09c-.9,0-1.62-1.72-1.62-3.84s.73-3.84,1.62-3.84,1.62,1.72,1.62,3.84S300.38,199.91,299.49,199.91Zm6.95-7.67c.9,0,1.62,1.72,1.62,3.84s-.73,3.84-1.62,3.84-1.62-1.72-1.62-3.84S305.54,192.24,306.44,192.24Z"/><path d="M306.19,379.91c-2.51,14.81-.42,39.12,4.07,45.82,1.26,1.88,5.87,4.35,11.86,6.19-.37-5.71-1-14.84-1.68-25.13C319.73,396.33,314,388,306.19,379.91Z"/><path d="M269.47,407.26c3.25-7.2,4-16.59,3.4-24.87"/><path d="M272.86,382.39c.19-4.55-1.24-9.48-2.09-12.38-3.7-12.6-17.78-25.81-19.89-27.73a8.07,8.07,0,0,1-2.58.43,8.38,8.38,0,0,1-4.28-1.17l-.18-.12-.07-.21-.1-.35c-.55.63-1.36,1.39-2.46,2.42-3,2.81-7.54,7.05-11,12.83-5.44,9.14-8,31.45-5.19,45.89,2.53,13.16,7.56,19.05,29.35,16.9a17.12,17.12,0,0,0,13-7.84c.41-.61,2.07-2.66,2.07-3.79"/><path class="cls-11" d="M244.92,340.59a7.08,7.08,0,0,0,8.32-1.12c3.82-3.25,1.42-8.38-.91-13.35-.35-.74-.69-1.48-1-2.21-2.71-6.09-3.76-39.12,4.84-52.86-3.35-1.56-7.17-3.77-9.62-5.25C244.84,271.5,234.72,308.41,244.92,340.59Z"/><path class="cls-11" d="M326.63,326.66a8.09,8.09,0,0,0-2.86,4.16,7.24,7.24,0,0,0,.11,5.88,8.15,8.15,0,0,0,5,3.59,2.37,2.37,0,0,0,2.12-.51c2-1.52,5.32-7.06,5.39-27.15A168.84,168.84,0,0,0,330.06,268c-3.25.63-7.09,1.66-9.81,2.47,6.27,12.76,8.72,38.22,9.13,47.12C329.69,324.07,328.27,325.27,326.63,326.66Z"/><path class="cls-10" d="M334.08,372.65c-4.13-9.33-14-22.13-19.82-29.77-2.6-3.38-4.47-5.83-5.08-6.93l1.12-.62c.46.83,1.83,2.66,3.64,5a59.13,59.13,0,0,0,.9-8.28l-25.58-.46a468.21,468.21,0,0,1,25.91,42.76c.19-.13.46-.32.72-.52,2.11-1.59,7.05-5.31,12.9-3.29l-.21.6c-5.51-1.91-10.1,1.54-12.31,3.2-.35.26-.6.45-.81.58.22.41.42.81.63,1.22,2.41-2.14,6.78-4.67,12.26-1.9l-.29.57c-5.25-2.65-9.42-.13-11.67,1.92,10.44,20.92,12.26,46.66,12.55,56.86a53,53,0,0,0,9.62.92C338.76,422.56,339,383.71,334.08,372.65Z"/><path class="cls-10" d="M314.56,378.74l-.53-.36a13.57,13.57,0,0,1,1.57-1.78c-.26-.51-.51-1-.78-1.51a.4.4,0,0,1-.09,0,.45.45,0,0,1-.17-.47,462.13,462.13,0,0,0-26.09-43L271,331.27A67.49,67.49,0,0,0,290,363c1.66,1.54,3.31,3,4.93,4.51,13.77,12.54,25.67,23.37,26.76,39.22.73,10.59,1.34,19.93,1.71,25.6,1.56.44,3.19.83,4.87,1.16-.31-10.22-2.13-35.59-12.39-56.28A13,13,0,0,0,314.56,378.74Z"/><path d="M257.95,333.34c.71-.51,1-.69.89-3.76-.11-4.31-4.8-7.08-7-8.13a11.18,11.18,0,0,0,.59,1.94c.32.72.66,1.45,1,2.18,1.39,3,2.88,6.16,3,9.08A7.12,7.12,0,0,1,257.95,333.34Z"/><path class="cls-11" d="M296.56,221.8c-4.28-.39-7.87-3.28-9.66-5,0,2.77-.49,8-4.14,9.92.28,2.35,2.06,14,10.46,15.46a4.27,4.27,0,0,0,4.15-1c3-3.16,1.28-11.66.94-13.25C296.34,226.78,296.42,223.31,296.56,221.8Z"/><path class="cls-12" d="M266.49,258c-13,20.67-2.26,66.73-1,71.9l51.68.94c-.58-5.39-4-39.65-.88-66.7l1.27.15c-.22,1.93-.41,3.89-.57,5.88a99,99,0,0,1,14.58-3.76c-1.21-3.5-6.65-18.7-11.62-24.64s-16.49-11.92-20.23-13.37c.55,2.83,1.65,10.34-1.42,13.6a5.52,5.52,0,0,1-5.3,1.42c-9-1.6-11.06-13-11.46-16.21-4.35,1.65-26.52,11.17-36.38,36.25,2.06,1.28,10.71,6.58,15.1,7.83a41.44,41.44,0,0,1,5.15-14Z"/><path d="M326.12,316.45c-3.19,1.26-7.31,7.11-7.59,10-.26,2.68,2.31,4.66,3.63,5.48a12.62,12.62,0,0,1,.41-1.5,9.39,9.39,0,0,1,3.25-4.73c1.44-1.22,2.58-2.18,2.31-8.08,0-.35,0-.73-.06-1.12A2,2,0,0,0,326.12,316.45Z"/><path d="M282.67,225.48l.06.81s0,.16,0,.42c3.64-1.92,4.14-7.15,4.14-9.92,1.78,1.73,5.38,4.62,9.66,5,0-.32.06-.56.08-.66l1.26.19c0,.14,0,.32-.06.51a10.62,10.62,0,0,0,5.75-1.95c6.68-4.57,11.27-19,10.62-28,0-.33-.07-.65-.11-1a2.06,2.06,0,0,1-.91-1.53c-.24-2.81-1.23-4-3.06-5l-.37.76c2.28,1.11,3,4.32,3.16,6.82.63,8.54-3.89,22.59-10.06,26.81-8.14,5.56-15.86-3.74-16.19-4.14l-.72-.88c.12.81.22,1.29.22,1.29l-.62.24c.09,1.2.47,8.61-3.72,10.4h0Z"/><path d="M246.76,265s-.1.31-.24.78c2.45,1.48,6.27,3.69,9.62,5.25.13-.21.26-.43.4-.64l1.06.72c-.1.14-.18.3-.28.45a21.75,21.75,0,0,0,2.7,1c.07-.42.16-.84.24-1.26-4.39-1.25-13-6.55-15.1-7.83,9.85-25.09,32-34.6,36.38-36.25.4,3.23,2.47,14.61,11.46,16.21a5.52,5.52,0,0,0,5.3-1.42c3.06-3.26,2-10.77,1.42-13.6,3.74,1.45,15.2,7.36,20.23,13.37s10.41,21.14,11.62,24.64A99,99,0,0,0,317,270.16c0,.46-.07.93-.1,1.4a20.14,20.14,0,0,1,2.13-.75l-.24-.48,1.13-.59c.12.22.23.46.34.69,2.71-.81,6.55-1.84,9.81-2.47l-.16-.54,1.22-.38.21.7,1.18-.18.77-.1-.24-.74c-.26-.77-6.34-18.89-12.1-25.78s-19.51-13.55-21.84-14.09h0l-.45,1.2a2.45,2.45,0,0,1-.33-.17c.35,1.58,2,10.08-.94,13.25a4.27,4.27,0,0,1-4.15,1c-8.39-1.49-10.18-13.11-10.46-15.46-.14.07-.28.15-.43.22l-.5-1.18h0c-.94.31-27.2,9.41-38.07,37.76l-.19.49.44.28,1.36.85.15-.48Z"/><path d="M282.34,226.92c.15-.06.29-.14.43-.22,0-.25,0-.4,0-.42l-.06-.81-.77.25h-.05Z"/><path d="M288.14,331.13l.52-.37.59.84,25.58.46c0-.36,0-.57,0-.58h1.28s0,.25,0,.61l2.49,0-.08-.73s-.05-.46-.13-1.2a5.67,5.67,0,0,1-1.14-3.9,7.89,7.89,0,0,1,.57-2.1c-1-11-2.39-32.83-.93-52.65l0,0-.22-.37-.67-.53a3.44,3.44,0,0,1,1-.52c.16-2,.35-4,.57-5.88l-1.27-.15c-3.14,27,.3,61.3.88,66.7l-51.68-.94c-1.26-5.17-12-51.23,1-71.9l-1.08-.68a41.44,41.44,0,0,0-5.15,14l.41.12-.3,1.24-.35-.1c-4.25,24.1,3.92,56.45,4.35,58.13l.12.47,5.16.09c-.07-.32-.11-.49-.11-.51l1.26-.24s.06.3.18.78l17.49.32Z"/><path d="M316.62,271.21l.22.37,0,0c0-.47.07-.93.1-1.4a3.44,3.44,0,0,0-1,.52Z"/><path d="M260.67,271.42l-.41-.12c-.08.42-.17.84-.24,1.26l.35.1Z"/><path d="M306.42,378.68c-.08.4-.15.81-.22,1.22,7.85,8.13,13.53,16.42,14.25,26.89.71,10.3,1.31,19.42,1.68,25.13l1.31.39c-.37-5.67-1-15-1.71-25.6-1.09-15.85-13-26.68-26.76-39.22-1.62-1.47-3.26-3-4.93-4.51A67.49,67.49,0,0,1,271,331.27l-1.32,0a68.74,68.74,0,0,0,14.56,27.55l.11-.31,1.22.39s-.13.39-.36,1c1.23,1.36,2.56,2.71,4,4q2.5,2.31,4.94,4.52c2.33,2.12,4.6,4.19,6.78,6.25l.21-.42,1.15.55s-.15.3-.4.78q1.67,1.6,3.25,3.19l.06-.35Z"/><path d="M269.54,330.74s0,.19.11.51l1.32,0c-.12-.48-.18-.76-.18-.78Z"/><path d="M335.25,372.13c-4.2-9.47-14.07-22.34-20-30l-.29-.38-.06.29-1.25-.25c.1-.48.18-.94.26-1.4-1.81-2.37-3.18-4.2-3.64-5l-1.12.62c.61,1.1,2.49,3.55,5.08,6.93,5.87,7.65,15.68,20.44,19.82,29.77,4.9,11.06,4.68,49.91,4.49,61.87l1.28,0C340.07,422.4,340.32,383.57,335.25,372.13Z"/><path d="M313.94,340.35l1,1.36a60.3,60.3,0,0,0,1.14-9.63l-1.28,0A59.13,59.13,0,0,1,313.94,340.35Z"/><path d="M314.85,331.49s0,.22,0,.58l1.28,0c0-.36,0-.57,0-.61Z"/><path d="M313.67,341.75l1.25.25.06-.29-1-1.36C313.86,340.81,313.77,341.27,313.67,341.75Z"/><path d="M271.26,406.29c-.25.65-.53,1.28-.82,1.9,18.65-9.94,29.28-28.57,31.41-32.59l-1-.91C299.35,377.65,289.31,396,271.26,406.29Z"/><path d="M301.1,374.26l-.21.42,1,.91c.25-.48.39-.75.4-.78Z"/><path d="M274,380.83a93.29,93.29,0,0,0,11.18-20.94l-1-1.09a90.44,90.44,0,0,1-10.42,20.1C273.88,379.53,273.94,380.18,274,380.83Z"/><path d="M285.54,358.87l-1.22-.39-.11.31,1,1.09C285.41,359.27,285.53,358.9,285.54,358.87Z"/><path d="M296.56,221.8c-.14,1.51-.22,5,1.75,6.09l-.06-.28-.23-1,1,.19.1,0c-1.37-.52-1.39-3.49-1.25-5A10.42,10.42,0,0,1,296.56,221.8Z"/><path d="M296.64,221.13c0,.1,0,.34-.08.66a10.42,10.42,0,0,0,1.28,0c0-.2,0-.37.06-.51Z"/><path d="M298,226.64l.23,1,.06.28a2.45,2.45,0,0,0,.33.17l.45-1.2h0l-.1,0Z"/><path d="M336.42,312.62c-.07,20.09-3.4,25.64-5.39,27.15a2.37,2.37,0,0,1-2.12.51,8.15,8.15,0,0,1-5-3.59,7.24,7.24,0,0,1-.11-5.88,8.09,8.09,0,0,1,2.86-4.16c1.64-1.39,3.06-2.59,2.76-9.11-.41-8.89-2.86-34.36-9.13-47.12l-1.24.38c5.73,11.44,8.25,33.76,8.95,44.24a2.86,2.86,0,0,1,1.13.61l-.84,1a1.6,1.6,0,0,0-.2-.13c0,.39,0,.77.06,1.12.27,5.89-.87,6.86-2.31,8.08a9.39,9.39,0,0,0-3.25,4.73,12.62,12.62,0,0,0-.41,1.5c.44.28.74.42.75.43l-.56,1.15-.4-.21a7.3,7.3,0,0,0,.8,4c1.49,2.8,4.58,3.89,5.84,4.22a3.5,3.5,0,0,0,.89.12,3.79,3.79,0,0,0,2.33-.85c1.14-.87,2.38-2.59,3.43-5.82l-.76-.83.94-.87.24.26c1.17-4.33,2-10.92,2-20.91a170.27,170.27,0,0,0-6.37-44.89l-1.26.23A168.84,168.84,0,0,1,336.42,312.62Z"/><path d="M319.91,269.74l-1.13.59.24.48,1.24-.38C320.14,270.2,320,270,319.91,269.74Z"/><path d="M329.9,267.42l.16.54,1.26-.23-.21-.7Z"/><path d="M244.45,339c.15.51-.13,1.06-.78,1.81l.1.35.07.21.18.12a8.38,8.38,0,0,0,4.28,1.17,8.07,8.07,0,0,0,2.58-.43l-.27-.25.85-1,.71.65a10.33,10.33,0,0,0,1.89-1.28,6.84,6.84,0,0,0,1.91-2.55l-1.14-.56a13,13,0,0,1,1.67-2.68c-.15-2.92-1.63-6.11-3-9.08-.34-.74-.69-1.47-1-2.18a11.18,11.18,0,0,1-.59-1.94c-.63-.31-1.06-.48-1.08-.48l.45-1.2.32.13c-1.76-10.47-1.5-37,5.74-48.32l-1.18-.53c-8.59,13.74-7.55,46.77-4.84,52.86.32.73.67,1.46,1,2.21,2.33,5,4.73,10.1.91,13.35a7.08,7.08,0,0,1-8.32,1.12c-10.19-32.18-.08-69.08,1.61-74.79l-1.13-.69c-1.38,4.57-11.82,41.44-2.19,74.19h0Z"/><path d="M256.54,270.41c-.14.2-.26.42-.4.64l1.18.53c.09-.15.18-.3.28-.45Z"/><path d="M246.76,265l-1.22-.39-.15.48,1.13.69C246.66,265.34,246.75,265.05,246.76,265Z"/><path d="M325.65,315.26c-3,1.18-6.47,5.56-7.83,8.95.24,2.74.44,4.8.57,6a11.33,11.33,0,0,0,3.56,3.08,10.27,10.27,0,0,1,.2-1.37c-1.32-.83-3.89-2.8-3.63-5.48.28-2.87,4.4-8.72,7.59-10a2,2,0,0,1,1.94,0c0-.45-.06-.93-.09-1.44A3.58,3.58,0,0,0,325.65,315.26Z"/><path d="M317.25,326.31a5.67,5.67,0,0,0,1.14,3.9c-.13-1.2-.33-3.27-.57-6A7.89,7.89,0,0,0,317.25,326.31Z"/><path d="M322.35,333.5l.56-1.15s-.31-.15-.75-.43a10.27,10.27,0,0,0-.2,1.37Z"/><path d="M328.26,316.62l.84-1A2.86,2.86,0,0,0,328,315c0,.51.06,1,.09,1.44A1.6,1.6,0,0,1,328.26,316.62Z"/><path class="cls-10" d="M328.34,434.79c0-.41,0-.84,0-1.32-1.68-.33-3.32-.72-4.87-1.16l.09,1.36"/><path d="M310.27,425.73c-4.49-6.7-6.59-31-4.07-45.82l-1.1-1.12c-2.86,15.24-.7,40.47,4.11,47.65,1.51,2.25,6.57,5,13,6.87l-.09-1.39C316.14,430.08,311.53,427.61,310.27,425.73Z"/><path class="cls-10" d="M328.95,433.6c0,.47,0,.91,0,1.32a54.63,54.63,0,0,0,9.53.89h0q0-.58,0-1.28A53,53,0,0,1,328.95,433.6Z"/><path d="M356.82,360.46c-3.34-7.36-19-24.53-21.16-26.92q-.21.76-.42,1.43c3.42,3.76,17.39,19.35,20.42,26,1.61,3.54,6.73,18,5.22,55.48-.36,8.86-4.76,14.54-13.09,16.89a33.08,33.08,0,0,1-7.92,1.14q0,.69,0,1.26a34.43,34.43,0,0,0,8.29-1.17c8.8-2.48,13.65-8.73,14-18.07C363.18,391,361.19,370.09,356.82,360.46Z"/><path d="M322.12,431.92l.09,1.39,1.3.36-.09-1.36Z"/><path d="M306.42,378.68l-1.26-.24-.06.35,1.1,1.12C306.26,379.49,306.34,379.08,306.42,378.68Z"/><path d="M338.57,434.52q0,.71,0,1.28c.43,0,.86,0,1.28,0q0-.57,0-1.26Z"/><path d="M334.48,334.14l.76.83q.22-.67.42-1.43l-.24-.26Z"/><path d="M258.69,334.38c1.13-.81,1.52-1.4,1.43-4.83-.15-5.82-7-9-8.54-9.65.1.57.2,1.08.31,1.55,2.16,1.05,6.84,3.83,7,8.13.08,3.06-.18,3.25-.89,3.76a7.12,7.12,0,0,0-1.44,1.31,7.23,7.23,0,0,1-.53,3.24h0A7.84,7.84,0,0,1,258.69,334.38Z"/><path d="M256.5,334.65a13,13,0,0,0-1.67,2.68l1.14.56A7.23,7.23,0,0,0,256.5,334.65Z"/><path d="M251.26,319.77l-.45,1.2s.45.18,1.08.48c-.11-.47-.21-1-.31-1.55Z"/><path d="M270.77,370a59,59,0,0,1,1.92,10.46q.57-.79,1.11-1.58a57.9,57.9,0,0,0-1.81-9.24c-3.64-12.43-16.61-25-19.83-27.93a8.77,8.77,0,0,1-1.29.56C253,344.21,267.08,357.41,270.77,370Z"/><path d="M274,380.83q-.55.78-1.14,1.56c.6,8.28-.15,17.67-3.4,24.87q.91-.47,1.79-1C274.23,398.65,274.76,389.09,274,380.83Z"/><path d="M267.4,411.06a17.12,17.12,0,0,1-13,7.84C232.59,421,227.56,415.16,225,402c-2.77-14.45-.25-36.75,5.19-45.89,3.44-5.78,8-10,11-12.83,1.1-1,1.91-1.79,2.46-2.42-.16-.51-.31-1-.46-1.54-.09.43-1.51,1.75-2.87,3a60.12,60.12,0,0,0-11.21,13.11c-6.1,10.25-7.89,33.57-5.35,46.79,2.28,11.89,6.72,18.37,22.8,18.36,2.38,0,5-.14,7.94-.43a18.35,18.35,0,0,0,13.95-8.4,26.3,26.3,0,0,0,2-3.59q-.93.5-1.9,1C268.18,409.81,267.81,410.45,267.4,411.06Z"/><path d="M269.47,407.26c-.29.64-.59,1.28-.92,1.89q1-.47,1.9-1c.29-.62.56-1.25.82-1.9Q270.37,406.79,269.47,407.26Z"/><path d="M272.86,382.39q.58-.78,1.14-1.56c-.06-.65-.12-1.3-.2-1.94q-.54.79-1.11,1.58C272.76,381.11,272.82,381.74,272.86,382.39Z"/><path d="M244.45,339l-1.24.26h0c.15.52.3,1,.46,1.54C244.32,340.1,244.59,339.56,244.45,339Z"/><path d="M251.46,341.07l-.85,1,.27.25a8.77,8.77,0,0,0,1.29-.56Z"/><path d="M315.91,377.2c10.26,20.68,12.09,46.06,12.39,56.28l.64.13c-.3-10.2-2.11-35.94-12.55-56.86Z"/><path d="M314.56,374.59a1.32,1.32,0,0,1,0-.13l.57.15-.06-.06a.23.23,0,0,0-.17,0,1.21,1.21,0,0,0,.24-.14,468.21,468.21,0,0,0-25.91-42.76h-.79A462.13,462.13,0,0,1,314.56,374.59Z"/><path d="M314.82,375.09c.27.5.53,1,.78,1.51l.49-.45c-.21-.41-.42-.82-.63-1.22a1,1,0,0,1-.5.21A.38.38,0,0,1,314.82,375.09Z"/><path d="M288.14,331.13l.32.45h.79l-.59-.84Z"/><path d="M328.31,433.47c0,.47,0,.91,0,1.32l.64.12c0-.4,0-.84,0-1.32Z"/><path d="M314,378.38l.53.36a13,13,0,0,1,1.35-1.54l-.31-.59A13.57,13.57,0,0,0,314,378.38Z"/><path d="M328.06,374.82l.29-.57c-5.48-2.77-9.85-.24-12.26,1.9l.3.59C318.64,374.7,322.81,372.17,328.06,374.82Z"/><path d="M315.91,377.2l.48-.46-.3-.59-.49.45Z"/><path d="M315.46,374.93c.21-.13.46-.32.81-.58,2.2-1.66,6.79-5.1,12.31-3.2l.21-.6c-5.84-2-10.79,1.7-12.9,3.29-.27.2-.53.4-.72.52l0,0Z"/><path d="M314.56,374.59a.45.45,0,0,0,.17.47.4.4,0,0,0,.09,0l-.21-.4Z"/><path d="M315.1,374.54l.06.06-.57-.15a1.32,1.32,0,0,0,0,.13l.05.1.21.4a.38.38,0,0,0,.13,0,1,1,0,0,0,.5-.21l-.28-.54,0,0a1.21,1.21,0,0,1-.24.14A.23.23,0,0,1,315.1,374.54Z"/><path d="M285.34,213l.63.77c-.39-2.51-1-8.25.22-13.2,1.65-6.55-8.74-8-4.1-12.78s9.43-4,10.07,0,6.71-8.95,12.31-6.07c2.41,1.24,4.29,1.92,5.68,2.69l.19-.39c2.06,1,3.34,3.39,3.77,6.91,3.4,2.46,15.14-.79,14.09-6.34-1.21-6.39-4.52-4.79-8.86-13.1s-10.89-13.26-18.56-14.06-23.65-1.44-23,7.35-.7,10.71-4.1,13.74-10.76,9.75-7.4,14.7,12.62,7,11.19,12.22-1.38,13.5,8.12,9.86v-.18Z"/><path d="M286,213.81l-.63-.77.22,2.13v.18l.62-.24S286.09,214.62,286,213.81Z"/><path d="M310.34,184.05l-.19.39c1.83,1,2.82,2.18,3.06,5a2.06,2.06,0,0,0,.91,1.53C313.68,187.44,312.39,185.05,310.34,184.05Z"/><ellipse cx="299.49" cy="196.07" rx="1.62" ry="3.84"/><ellipse cx="306.44" cy="196.07" rx="1.62" ry="3.84"/><path d="M355.66,361c-3-6.67-17-22.25-20.42-26-1,3.23-2.28,4.95-3.43,5.82a3.79,3.79,0,0,1-2.33.85,3.5,3.5,0,0,1-.89-.12c-1.26-.34-4.35-1.43-5.84-4.22l-4.67,8.46c5.86,7.7,13.59,18.27,17.17,26.37,5.07,11.44,4.82,50.27,4.61,62.37a33.08,33.08,0,0,0,7.92-1.14c8.33-2.35,12.74-8,13.09-16.89C362.39,379,357.26,364.53,355.66,361Z"/><path class="cls-5" d="M195.54,240.26a10.39,10.39,0,0,0,8.14,1.94,9.8,9.8,0,0,0,7.31-5.12c4-6.62,3.82-18,2.4-21.72l.37-.14c-1.32-2-3.49-2.18-5.94-1.59-4.78,1.16-7.84-2-11.84,0-3.72,1.9-3.33,6.47-3.26,7.08v0c-.06-.45-.54-3-3.61-.57-3.36,2.64,1,6.39,1.45,8.31a23.41,23.41,0,0,1,.36,3.5l.48,0C191.41,232,191.87,237.27,195.54,240.26Zm14.35-18.95c.76,0,1.38,1.34,1.38,3s-.62,3-1.38,3-1.39-1.34-1.39-3S209.12,221.31,209.88,221.31Zm-7.06,0c.78,0,1.41,1.34,1.41,3s-.63,3-1.41,3-1.41-1.34-1.41-3S202,221.31,202.83,221.31Z"/><path class="cls-6" d="M209.68,311.49l.21-.05c5.69-.4,12.62-.55,13.28,1a1.15,1.15,0,0,1-.46,1.36,10.62,10.62,0,0,1-4.15,1.92c-.3.09-.65.19-.9.28.14.09.36.22.66.38,1.59.82,4.37.91,6.82,1a17.79,17.79,0,0,1,4.58.49l-.66-45.17H198.7v37.94C202.54,312.33,206.33,313,209.68,311.49Z"/><path class="cls-13" d="M150.17,280.55h-1.38v-1.28h11a46,46,0,0,1-2.17-11.7,14.2,14.2,0,0,0-3.65,2.75l-.47-.43a14.23,14.23,0,0,1,4.09-3c0-1.06-.06-2.1,0-3.12a4,4,0,0,0-2.46,1.42l-.54-.34a4.62,4.62,0,0,1,3-1.75,59.52,59.52,0,0,1,2.16-14.52,7.32,7.32,0,0,0-2.06,1c-6.11,4.26-8.17,17.8-8.17,23.32h-1.28c0-6,2.13-19.77,8.72-24.36a8.86,8.86,0,0,1,8.55-.86c13.37,4.92,7.68,31.27,7.43,32.39l-.11.5h-3.41c.35,2.4,2,10.68,8.6,15.46,1.55,1.12,3.31,2.55,5.18,4.06,4.22,3.42,9.28,7.51,14.32,10V271.44h3.36V255.24c-1.32,3.61-4,7.29-9.41,7.4h-.2a6.53,6.53,0,0,1-5.23-2.31c-3.5-4.15-2.51-12.63-2.11-15.18l-25.62-.62-.13-.07s-4.94-2.1-14.29,12.77c-9.2,14.64-10.82,60.33-11,65.47,4.44,1.5,40.6,13.57,49.35,11L187.71,319c-11.65-4.52-23.1-9.87-27-13.89C153.65,297.73,150.72,283.51,150.17,280.55Z"/><path class="cls-5" d="M191.87,237.71a8.71,8.71,0,0,1-2.12,4.61,9.4,9.4,0,0,1-4.61,2.77c-.32,2-1.46,10.59,1.78,14.42a5.3,5.3,0,0,0,4.42,1.86c8.4-.18,9.33-10.06,9.43-12.56a3.51,3.51,0,0,1-1.76-1c-1-1-1.4-2.69-1.3-4.88a10,10,0,0,1-3-1.68A11.6,11.6,0,0,1,191.87,237.71Z"/><path class="cls-5" d="M217.74,317.55c-1.05-.54-1.69-1-1.63-1.68s.88-1,2.1-1.33a9.82,9.82,0,0,0,3.62-1.62c-1.29-.55-6.87-.55-11.74-.2-8.8,3.75-19.78-5.14-27.8-11.65-1.85-1.5-3.6-2.92-5.12-4-7.25-5.25-8.84-14.13-9.15-16.5H151.48c.64,3.31,3.6,16.82,10.18,23.63,7.47,7.73,45.84,21.24,54.55,22.4,8.37,1.12,13.13-5,13.55-7.1v-.05c-.45-.6-2.77-.68-4.64-.74C222.52,318.59,219.59,318.5,217.74,317.55Z"/><polygon class="cls-8" points="231.03 318.9 278.12 319.37 278.12 272.72 230.34 272.72 231.03 318.9"/><path class="cls-13" d="M162.72,263.44l-.17.62a11.19,11.19,0,0,0-4.42-.43c0,1,0,2,0,3a5.75,5.75,0,0,1,4.61,0l-.27.58a5.21,5.21,0,0,0-4.3.08,45.37,45.37,0,0,0,2.22,12h11.28c.72-3.66,4.64-26.23-6.73-30.41a8.51,8.51,0,0,0-4.59-.48A58.31,58.31,0,0,0,158.14,263,12,12,0,0,1,162.72,263.44Z"/><polygon class="cls-8" points="248.86 271.44 248.1 245.55 221.37 245.55 220.3 271.44 248.86 271.44"/><path class="cls-9" d="M139.92,344c0-.07,0-.14,0-.21l.49,0c4.58-1.7,9.34-5.53,12.32-13.62-9.49-2.65-18-5.49-20.23-6.26-.33,1.15-1.22,4.71-3.55,15.75a32.6,32.6,0,0,0-.6,4.84A21.85,21.85,0,0,0,139.92,344Z"/><polygon class="cls-6" points="219.02 271.44 220.09 245.55 202.06 245.55 202.06 248.25 202.06 271.44 219.02 271.44"/><path class="cls-9" d="M144.69,413.92l-.45-.11.15-.62.45.11a10.2,10.2,0,0,0,1.6.3c.2-.52.39-1,.58-1.55a3.26,3.26,0,0,1-.52-.06,4,4,0,0,1-2.48-2.19l.59-.25a3.43,3.43,0,0,0,2.06,1.82,2.67,2.67,0,0,0,.59.05c4.13-11.4,5.2-20.16,3.15-26.15L149.27,382c-5.63-16.36-9.72-28.3-9.37-37.37a22.14,22.14,0,0,1-6.83,1.06,23.22,23.22,0,0,1-4.76-.48c-.58,13.91,6.09,30.83,9.88,40.45,1.11,2.81,2,5,2.47,6.6,2.18,7-13.7,38.95-18.39,48.13h11.16a210.19,210.19,0,0,0,12.78-26.13A11.66,11.66,0,0,1,144.69,413.92Z"/><path class="cls-9" d="M182.26,335a13.82,13.82,0,0,1-3.21.32c-6.16,0-16.35-2.36-25.69-4.95-3.06,8.31-8,12.23-12.81,14-.43,9,3.67,20.94,9.33,37.39l1.14,3.31c2.08,6.07,1,14.87-3.05,26.29a6.13,6.13,0,0,0,2.55-1.3l.4.5A6.32,6.32,0,0,1,147.7,412c-.19.52-.39,1-.59,1.58a19.84,19.84,0,0,0,3.54-.44l.12.63a20.58,20.58,0,0,1-3.71.45h-.19a208.31,208.31,0,0,1-12.71,26.09H142A155,155,0,0,0,157.13,408c3.94-12.18,2-25,.44-35.31-1.08-7.12-1.93-12.74-.41-15.9,3.68-7.7,12.32-6.34,12.4-6.32l-.21,1.26a11.38,11.38,0,0,0-8.37,2.17c8.34,4.59,14.9,26.1,18.11,36.63l.13.44c3,10-8.11,46.21-9.1,49.4h14.73c3.46-9.43,11.77-33,12.51-44.57C198.25,382.13,184.09,340.34,182.26,335Z"/><path d="M213.76,215.22l-.37.14c1.42,3.73,1.59,15.1-2.4,21.72a9.8,9.8,0,0,1-7.31,5.12,10.39,10.39,0,0,1-8.14-1.94c-3.67-3-4.13-8.29-4.14-8.34l-.48,0c0,.85.08,1.73.11,2.57l.88-.1a12.58,12.58,0,0,1,0,3.28,11.6,11.6,0,0,0,2.86,3.54,10,10,0,0,0,3,1.68c0-.18,0-.33,0-.51l1.27.11c0,.28,0,.52,0,.77a12.82,12.82,0,0,0,2.84.31,16.38,16.38,0,0,0,2-.13,11,11,0,0,0,8.24-5.73,27.31,27.31,0,0,0,3.28-10.92,4.65,4.65,0,0,1-.62-.28C215.52,220.58,215,217.1,213.76,215.22Z"/><path d="M184.57,245.18l-.74,0c-.4,2.55-1.39,11,2.11,15.18a6.53,6.53,0,0,0,5.23,2.31h.2c5.43-.11,8.09-3.79,9.41-7.4v-7.77a2.2,2.2,0,0,1-.86-.57,5.16,5.16,0,0,1-.94-3.61,10.84,10.84,0,0,1-1.26-.37c-.11,2.19.31,3.84,1.3,4.88a3.51,3.51,0,0,0,1.76,1c-.1,2.5-1,12.38-9.43,12.56a5.3,5.3,0,0,1-4.42-1.86c-3.24-3.84-2.1-12.4-1.78-14.42a9.4,9.4,0,0,0,4.61-2.77,8.71,8.71,0,0,0,2.12-4.61,14.68,14.68,0,0,1-.8-1.79c0,1.38,0,2.39,0,2.39s-.08.24-.74.29a7.28,7.28,0,0,1-1.39,2.68,7.92,7.92,0,0,1-4.38,2.63h0Z"/><path d="M197.72,242.41c0,.18,0,.34,0,.51a10.84,10.84,0,0,0,1.26.37c0-.26,0-.5,0-.77Z"/><path d="M191.91,234.43l-.88.1c0,.49,0,1,0,1.39a14.68,14.68,0,0,0,.8,1.79A12.58,12.58,0,0,0,191.91,234.43Z"/><path d="M132.23,322.46l.58.07v.65l-.55,0,.42.27a4.28,4.28,0,0,0-.17.52c2.27.77,10.74,3.61,20.23,6.26.08-.21.16-.41.24-.63l.6.21c-.07.21-.16.39-.23.59,9.34,2.59,19.53,4.95,25.69,4.95a13.82,13.82,0,0,0,3.21-.32l-.2-.57,1.21-.42.08.22,5.56-14.83-1.19-.46-5.54,14.77c-8.75,2.55-44.92-9.52-49.35-11,.15-5.14,1.77-50.83,11-65.47,9.34-14.87,14.25-12.78,14.29-12.77l.13.07,25.62.62c.06-.41.11-.68.12-.74l.1-.52h.53l-26.06-.64c-1.09-.45-6.46-1.59-15.82,13.29C133,272,131.62,319.55,131.54,323,131.79,322.41,132,322.43,132.23,322.46Z"/><path d="M184.06,243.9l-.1.52c0,.06-.06.33-.12.74l.74,0,0-1.28h-.54Z"/><path d="M168,280l1.27-.1s0,.28.09.69h3.41l.11-.5c.25-1.12,5.93-27.47-7.43-32.39a8.86,8.86,0,0,0-8.55.86c-6.59,4.6-8.72,18.4-8.72,24.36h1.28c0-5.52,2.06-19.05,8.17-23.32a7.32,7.32,0,0,1,2.06-1c.19-.67.32-1,.33-1.07l.6.21s-.09.26-.21.68a8.51,8.51,0,0,1,4.59.48c11.37,4.19,7.45,26.75,6.73,30.41H160.42c.06.18.11.36.18.53l-.6.21c-.09-.25-.16-.5-.25-.75h-11v1.28h1.38c-.05-.29-.08-.47-.09-.53l1.26-.21s0,.29.14.74H168C168,280.22,168,280,168,280Z"/><path d="M229.75,319.47c-.42,2.14-5.18,8.23-13.55,7.1-8.71-1.15-47.08-14.66-54.55-22.4-6.57-6.81-9.53-20.33-10.18-23.63h-1.3c.55,3,3.48,17.19,10.56,24.52,3.88,4,15.33,9.37,27,13.89l.11-.28,1.2.45-.11.29c11.39,4.36,22.73,7.84,27.13,8.43a16.63,16.63,0,0,0,2.18.15c7.33,0,11.76-5.09,12.66-7.81h-1.12Z"/><path d="M177.93,296c-6.61-4.78-8.25-13.06-8.6-15.46H168c.3,2.37,1.9,11.25,9.15,16.5,1.52,1.1,3.27,2.52,5.12,4,8,6.5,19,15.39,27.8,11.65,4.87-.34,10.45-.34,11.74.2a9.82,9.82,0,0,1-3.62,1.62c-1.22.35-2,.58-2.1,1.33s.57,1.14,1.63,1.68c1.85.95,4.78,1,7.37,1.13,1.87.06,4.19.14,4.64.74l0-1.53a17.79,17.79,0,0,0-4.58-.49c-2.45-.08-5.23-.17-6.82-1-.3-.16-.52-.28-.66-.38.26-.09.6-.19.9-.28a10.62,10.62,0,0,0,4.15-1.92,1.15,1.15,0,0,0,.46-1.36c-.67-1.59-7.59-1.44-13.28-1l-.21.05c-3.35,1.47-7.14.84-11-.84v.44h-1.28v-1c-5-2.48-10.1-6.58-14.32-10C181.24,298.56,179.47,297.13,177.93,296Z"/><path d="M187.82,318.67l-.11.28,1.19.46.11-.29Z"/><path d="M150.08,280c0,.06,0,.25.09.53h1.3c-.09-.46-.13-.72-.14-.74Z"/><path d="M168,280c0,.05,0,.26.06.59h1.3c-.06-.41-.09-.67-.09-.69Z"/><path d="M139.53,444.24l1,.73c0-.05,1.19-1.72,3-4.63H142C140.53,442.8,139.56,444.19,139.53,444.24Z"/><path d="M158.84,372.47c-1-6.9-1.87-12.35-.52-15.16a10.22,10.22,0,0,1,1.68-2.5l-.39-.18.47-1.19a7.86,7.86,0,0,1,.91.43,11.38,11.38,0,0,1,8.37-2.17l.21-1.26c-.09,0-8.72-1.38-12.4,6.32-1.51,3.17-.67,8.79.41,15.9,1.56,10.3,3.49,23.13-.44,35.31A155,155,0,0,1,142,440.34h1.5a156.1,156.1,0,0,0,14.81-32C162.37,395.9,160.41,382.91,158.84,372.47Z"/><path d="M119.89,442.18l1.13.59c.12-.22.57-1.08,1.25-2.43h-1.43Z"/><path d="M140.66,392.22c-.49-1.56-1.36-3.79-2.47-6.6-3.8-9.62-10.46-26.54-9.88-40.45-.43-.09-.7-.16-.72-.17l.18-.61.58.15a32.6,32.6,0,0,1,.6-4.84c2.33-11,3.22-14.6,3.55-15.75l-.55-.19-.44-.15v-.47h0V323c-.54,1.18-1.39,4.92-3.83,16.45-3.18,15,4.63,34.83,9.29,46.65,1.1,2.79,2,5,2.44,6.51,1.8,5.79-10.88,32.76-18.61,47.75h1.43C127,431.16,142.85,399.23,140.66,392.22Z"/><path d="M132.14,323.16l-.61,0h0v.47l.44.15.55.19a4.28,4.28,0,0,1,.17-.52l-.42-.27.55,0v-.65l-.58-.07c-.25,0-.44,0-.7.52v.16Z"/><path d="M183.35,444.38l1.19.46c.11-.29.75-1.94,1.68-4.49h-1.37C184,442.8,183.38,444.31,183.35,444.38Z"/><path d="M183.35,334.25l-.18.49-.28.1c-.19.07-.4.12-.62.17,1.83,5.32,16,47.11,15.11,60.76-.75,11.54-9.05,35.14-12.51,44.57h1.37c3.59-9.75,11.66-32.81,12.42-44.49C199.58,381.42,184.65,338,183.35,334.25Z"/><path d="M182.06,334.45l.2.57c.22-.05.43-.11.62-.17l.28-.1.18-.49-.08-.22Z"/><path d="M170.07,440.54l.06-.19h-.67Z"/><path d="M179.23,390.94l-.13-.44c-3.21-10.53-9.78-32-18.11-36.63a9.24,9.24,0,0,0-1,.94c8,3.79,14.91,26.34,17.88,36.06l.13.44c3,9.82-9,48.45-9.16,48.84l.61.19h.67C171.12,437.16,182.27,400.89,179.23,390.94Z"/><path d="M159.61,354.63l.39.18a9.24,9.24,0,0,1,1-.94,7.86,7.86,0,0,0-.91-.43Z"/><path d="M229.76,319.43h0v0Z"/><path d="M248.88,272.1l0-.66H220.3l0,.67-1.28-.05,0-.61h-17v.64h-1.28v-.64h-3.36v38.63c.43.21.85.41,1.28.59V272.72h30.37l.66,45.17a2.19,2.19,0,0,1,1,.62,1.37,1.37,0,0,1,.28,1.14,3.76,3.76,0,0,1-.14.53l48.52.48V271.44H250.14l0,.62Zm29.24,47.28L231,318.9l-.68-46.19h47.78Z"/><path d="M198.7,311.1v-.44c-.43-.19-.85-.38-1.28-.59v1Z"/><path d="M230.74,318.51a2.19,2.19,0,0,0-1-.62l0,1.53h0v.74h1.12a3.76,3.76,0,0,0,.14-.53A1.37,1.37,0,0,0,230.74,318.51Z"/><path d="M202,247.61v-2.06h18l0-.67,1.28.05,0,.61H248.1l.76,25.89h1.28l-.8-27.17H200.78v3.2a2.7,2.7,0,0,0,.62.14Z"/><path d="M202.06,271.44V248.25a22.79,22.79,0,0,1-1.28,7v16.19Z"/><path d="M202.06,248.25v-.64h-.64a2.7,2.7,0,0,1-.62-.14v7.77A22.79,22.79,0,0,0,202.06,248.25Z"/><rect x="200.78" y="271.44" width="1.28" height="0.64"/><polygon points="248.88 272.1 250.16 272.06 250.14 271.44 248.86 271.44 248.88 272.1"/><polygon points="220.3 271.44 221.37 245.55 220.09 245.55 219.02 271.44 220.3 271.44"/><polygon points="219 272.05 220.27 272.1 220.3 271.44 219.02 271.44 219 272.05"/><polygon points="221.39 244.94 220.11 244.88 220.09 245.55 221.37 245.55 221.39 244.94"/><path d="M192.72,220.71v0Z"/><path d="M190.64,234.64a14.71,14.71,0,0,1-.51-2.62l.79-.06a23.41,23.41,0,0,0-.36-3.5c-.49-1.92-4.8-5.67-1.45-8.31,3.07-2.41,3.55.12,3.61.57-.07-.61-.46-5.17,3.26-7.08,4-2,7.06,1.16,11.84,0,2.45-.59,4.62-.39,5.94,1.59l.82-.31c.86,2.27,1.31,7,.78,11.91,1.7.65,6.4,1.51,7-8.28.72-12-7.27-7.19-4.63-14.22s-2.88-15.74-16.3-15.66-6.63,10.71-13.9,10.55-12.94-7.35-18.7-2.08-2.8,21.09,3.52,21.41,10.07,2.64,10.39,8-3.25,8.86,2.4,10.87c3,1.07,4.49,1.25,5.24,1.19A10.3,10.3,0,0,0,190.64,234.64Z"/><path d="M191,234.53c0-.84-.06-1.73-.11-2.57l-.79.06a14.71,14.71,0,0,0,.51,2.62s0,0,0-.07Z"/><path d="M214.59,214.91l-.82.31c1.26,1.88,1.76,5.36,1,11.32a4.65,4.65,0,0,0,.62.28C215.89,221.88,215.45,217.18,214.59,214.91Z"/><path d="M191.1,238.3s0-1,0-2.39c-.17-.45-.31-.88-.42-1.28a10.3,10.3,0,0,1-.28,4C191,238.54,191.1,238.3,191.1,238.3Z"/><path d="M190.63,234.57s0,0,0,.07c.11.4.25.83.42,1.28,0-.43,0-.9,0-1.39Z"/><path d="M160.38,248.38a6.89,6.89,0,0,0-.72.18,59.52,59.52,0,0,0-2.16,14.52c.2,0,.41-.08.64-.1A58.31,58.31,0,0,1,160.38,248.38Z"/><path d="M158.13,263.62c-.23,0-.44.07-.64.12,0,1,0,2.05,0,3.12l.63-.26C158.13,265.58,158.12,264.59,158.13,263.62Z"/><path d="M158.2,267.28l-.62.28a46,46,0,0,0,2.17,11.7h.67A45.37,45.37,0,0,1,158.2,267.28Z"/><path d="M160.6,279.8c-.06-.18-.12-.36-.18-.53h-.67c.08.25.16.5.25.75Z"/><path d="M160.6,247.7l-.6-.21s-.14.4-.33,1.07a6.89,6.89,0,0,1,.72-.18C160.51,248,160.59,247.71,160.6,247.7Z"/><path d="M153.45,269.89l.47.43a14.2,14.2,0,0,1,3.65-2.75c0-.24,0-.47,0-.71A14.23,14.23,0,0,0,153.45,269.89Z"/><path d="M162.5,267.2l.27-.58a5.75,5.75,0,0,0-4.61,0c0,.23,0,.46,0,.69A5.21,5.21,0,0,1,162.5,267.2Z"/><path d="M158.17,266.59l-.63.26c0,.23,0,.47,0,.71l.62-.28C158.19,267,158.18,266.82,158.17,266.59Z"/><path d="M154.48,264.82l.54.34a4,4,0,0,1,2.46-1.42q0-.33,0-.66A4.62,4.62,0,0,0,154.48,264.82Z"/><path d="M162.55,264.06l.17-.62a12,12,0,0,0-4.58-.47c0,.22,0,.43,0,.65A11.19,11.19,0,0,1,162.55,264.06Z"/><path d="M158.14,263c-.23,0-.44.06-.64.1q0,.33,0,.66c.2,0,.41-.09.64-.12C158.13,263.4,158.14,263.19,158.14,263Z"/><path d="M133.08,441c-1.26,2.23-1.26,2.23-1.23,2.42l.38-.08.24.08c0-.15.54-1,1.16-2.1l.53-.95h-.73Z"/><path d="M139.92,344l.5-.18-.49,0C139.92,343.87,139.92,343.95,139.92,344Z"/><path d="M149.27,382l1.14,3.31c2.06,6,1,14.75-3.15,26.15a3.13,3.13,0,0,0,.7-.07c4.1-11.42,5.14-20.22,3.05-26.29l-1.14-3.31c-5.66-16.45-9.76-28.41-9.33-37.39l-.65.23C139.55,353.66,143.64,365.6,149.27,382Z"/><path d="M147,412c-.19.51-.38,1-.58,1.55.2,0,.43,0,.67,0,.2-.53.4-1.06.59-1.58-.12,0-.25,0-.37,0S147.12,412.05,147,412Z"/><path d="M146.21,414.21a210.19,210.19,0,0,1-12.78,26.13h.73a208.31,208.31,0,0,0,12.71-26.09Z"/><path d="M128.36,344.54c0,.21,0,.42,0,.63a23.22,23.22,0,0,0,4.76.48,22.14,22.14,0,0,0,6.83-1.06c0-.19,0-.38,0-.57A21.85,21.85,0,0,1,128.36,344.54Z"/><path d="M140.42,343.84h.14c0,.17,0,.34,0,.51,4.78-1.74,9.76-5.67,12.81-14l-.61-.17C149.76,338.3,145,342.14,140.42,343.84Z"/><path d="M153,329.59c-.08.22-.16.42-.24.63l.61.17c.07-.2.16-.38.23-.59Z"/><path d="M127.77,344.39l-.18.61s.29.08.72.17c0-.21,0-.42,0-.63Z"/><path d="M140.42,343.84l-.5.18c0,.19,0,.38,0,.57l.65-.23c0-.17,0-.35,0-.51Z"/><path d="M146.66,411.36a3.43,3.43,0,0,1-2.06-1.82l-.59.25A4,4,0,0,0,146.5,412a3.26,3.26,0,0,0,.52.06l.24-.63A2.67,2.67,0,0,1,146.66,411.36Z"/><path d="M150.91,410.55l-.4-.5a6.13,6.13,0,0,1-2.55,1.3l-.26.69A6.32,6.32,0,0,0,150.91,410.55Z"/><path d="M147.26,411.41,147,412c.1,0,.2,0,.3,0s.25,0,.37,0l.26-.69A3.13,3.13,0,0,1,147.26,411.41Z"/><path d="M147.06,414.26a20.58,20.58,0,0,0,3.71-.45l-.12-.63a19.84,19.84,0,0,1-3.54.44l-.24.63Z"/><path d="M144.84,413.3l-.45-.11-.15.62.45.11a11.66,11.66,0,0,0,1.52.29l.23-.62A10.2,10.2,0,0,1,144.84,413.3Z"/><path d="M146.44,413.6l-.23.62.66,0,.24-.63C146.87,413.62,146.65,413.62,146.44,413.6Z"/><ellipse cx="202.83" cy="224.29" rx="1.41" ry="2.98"/><ellipse cx="209.88" cy="224.29" rx="1.38" ry="2.98"/></g></svg>