<svg id="Layer_1" data-name="Layer 1" xmlns="http://www.w3.org/2000/svg" viewBox="0 0 566.93 566.93"><defs><style>.cls-1{fill:#c74850;}.cls-2{fill:#f182a8;}.cls-3{fill:none;}.cls-4{fill:#f5abc8;}.cls-5{fill:#231f20;}.cls-6{fill:#2dabbf;}.cls-7{fill:#fcbf10;}</style></defs><title>Untitled-1</title><path class="cls-1" d="M290.53,225.37c-4.79-1.2-86-11.54-97.06,66.83s-64.26,93.28-71.7,127.54-27,71.78,52.69,81.69S249.9,469.6,288,467.75s49.77,38.7,112.13,23.32,99.42-35.44,98.72-77.85S367.45,356.93,377.24,306.53s75-88.16,17.2-120.32S343.67,238.66,290.53,225.37Z"/><path class="cls-2" d="M108,269.77c-1,4.85,4.71,17.18,7.23,22a40.26,40.26,0,0,1,9.54,4.35c-1.71-8.79-5.84-16.92-8.14-21.45a26.09,26.09,0,0,1-1.79-3.9c-.18-.73.05-3,.82-9.67.82-7.16,2-17,2.32-25.49.55-12.77-1-15.77-1.89-16.41a3.74,3.74,0,0,0-3.39-.71c-2.42.78-4.25,4.33-4.88,5.94C111.57,237.75,108.81,266,108,269.77Z"/><path class="cls-2" d="M448.56,271c.11-1.06-.49-4.06-1.2-7.53-2-10.09-5.31-26.24-1.19-38.06-1-.65-2.27-1.14-3.1-.65-3.79,2.28-1.48,19.74.06,31.29,1.29,9.68,1.86,14.4.91,15.93-1.92,3.07-7,16-9.09,21.42q1.62-.75,3.22-1.32c.57-2,2.49-5.39,4.68-9.23C445.42,278.43,448.31,273.37,448.56,271Z"/><path d="M271.8,473.91a1,1,0,0,0,1,.85h.15a1,1,0,0,0,.84-1.15l0-.22h-2C271.76,473.71,271.79,473.88,271.8,473.91Z"/><path d="M124.77,296.07a40.26,40.26,0,0,0-9.54-4.35l.17.33a1,1,0,0,1-1.1,1.45,39,39,0,0,1,11.18,5.4,1,1,0,0,1-.32-.6C125,297.55,124.91,296.81,124.77,296.07Z"/><path d="M113.62,293c-.07-.13-.45-.84-1-1.93a18.92,18.92,0,0,0-10.69.48c-4.3,1.73-6.64,5.45-6.59,10.48.17,15.14,17.54,38.76,29.82,50.69,4.07,4,8.43,8.7,12.65,13.29,8.47,9.22,16.48,17.93,23.11,21.75a1,1,0,0,0,1-1.74c-6.36-3.67-14.63-12.67-22.63-21.37-4.24-4.61-8.62-9.37-12.73-13.37-.86-.83-1.75-1.74-2.65-2.69a14,14,0,0,1-3.43-.86,1,1,0,0,1,.81-1.84l.19.07-.82-.91c-1.57-.15-2.54-.33-2.7-.37a1,1,0,0,1,.4-2l.34.06C108.39,330.49,97.49,313.4,97.36,302c0-4.2,1.79-7.17,5.32-8.59,2.93-1.18,7-1.21,11.49.05A1,1,0,0,1,113.62,293Z"/><path d="M190.12,343.32c-27.94-8.65-35-16.58-46.66-29.73-2.3-2.59-4.68-5.27-7.46-8.24a56.26,56.26,0,0,0-8.93-7.77c0,.14.05.29.07.43a1,1,0,0,1-.85,1.14h-.14a1,1,0,0,1-.46-.11,54.75,54.75,0,0,1,8.84,7.68c2.76,2.95,5.13,5.62,7.42,8.2,11.91,13.41,19.1,21.5,47.57,30.31,33.67,10.42,39.14,15.89,58.53,58.49C265.93,443,271,469.39,271.71,473.38h2c-.45-2.7-5.32-29.76-23.86-70.48C230.36,360,224.22,353.87,190.12,343.32Z"/><path d="M198.58,475.21a1,1,0,0,0,1,.89h.12a1,1,0,0,0,.88-1.12c-.06-.52-.13-1.06-.22-1.6h-2Q198.48,474.32,198.58,475.21Z"/><path d="M90.63,355.11v0a.74.74,0,0,0,.55.42l.12,0c-.34-.31-.65-.61-.91-.88-8.21-8.4-11.65-43.28-13.71-64.12-.46-4.66-.85-8.61-1.22-11.56a14.1,14.1,0,0,1-2.18-2.08,1,1,0,0,1,1.58-1.25l.17.19q0-.32-.08-.67A7,7,0,0,1,73,270.77v-.06a23.33,23.33,0,0,0,.07,5.7c.48,2.94,1,8,1.6,14.31,2.2,22.34,5.53,56,14.12,65.17a2.11,2.11,0,0,1-.11-.31Z"/><path d="M108,269.77c.82-3.81,3.58-32-.18-45.38l-.1.26a1,1,0,0,1-1.91-.07c3.41,11.71,1.44,39.14.22,44.76-1.17,5.42,4.28,17.09,6.61,21.72q1.27.26,2.6.65C112.7,287,106.94,274.62,108,269.77Z"/><path d="M118.71,375.74c-10.65-7.48-20.12-14.13-25.34-18.43a6.54,6.54,0,0,1-1.69.25,3.82,3.82,0,0,1-1.21-.18l-.24-.1c4.67,4.19,14.81,11.31,27.33,20.11,24.88,17.48,59,41.41,64.77,53.61,9.79,20.53,14.54,33.07,16,42.38h2c-1.45-9.56-6.25-22.31-16.23-43.25C178.09,417.46,145.17,394.33,118.71,375.74Z"/><path d="M75,270.24c1.68-16.15,15.09-46.12,25.34-50.58a2.62,2.62,0,0,1,2.95.27,9.43,9.43,0,0,1,2.48,4.62,1,1,0,0,1,0-.58,18.05,18.05,0,0,1,1-2.28,8.73,8.73,0,0,0-2.28-3.31,4.6,4.6,0,0,0-5-.55c-5.85,2.54-12.93,12.41-19,26.41-3.93,9.14-6.56,18-7.44,24.77l1.38.95Z"/><path d="M114.29,293.5l-.12,0Z"/><path d="M115,293.41a1,1,0,0,0,.41-1.36l-.17-.33q-1.32-.39-2.6-.65c.55,1.09.92,1.8,1,1.93a1,1,0,0,0,.55.47l.12,0A1,1,0,0,0,115,293.41Z"/><path d="M117,308.19c-4.79-6.34-9-11.51-12.27-10.39-1.94.67-2.8,3.29-2.72,8.25a1,1,0,0,0,1,1,1,1,0,0,0,1-1c-.09-5.4,1-6.2,1.37-6.32,2.13-.72,7.65,6.58,10,9.7l1.16,1.53a2.29,2.29,0,0,1,.55,2.25c-.86,2.73-6.68,5.06-8.85,5.73a1,1,0,1,0,.59,1.92c.9-.28,8.84-2.83,10.18-7a4.32,4.32,0,0,0-.87-4.09Z"/><path d="M112.69,218.46a3.74,3.74,0,0,1,3.39.71c.94.65,2.44,3.64,1.89,16.41-.36,8.51-1.49,18.32-2.32,25.49-.77,6.7-1,8.93-.82,9.67a26.09,26.09,0,0,0,1.79,3.9c2.3,4.53,6.42,12.66,8.14,21.45q1.15.71,2.31,1.51c-1.5-9.79-6.14-18.92-8.65-23.87a31.09,31.09,0,0,1-1.63-3.45c-.1-.65.37-4.69.86-9,2.34-20.39,4.24-40.57-.44-43.79a5.69,5.69,0,0,0-5.14-1c-2.44.79-4.19,3.27-5.21,5.15a21.16,21.16,0,0,1,.94,2.7C108.44,222.79,110.27,219.24,112.69,218.46Z"/><path d="M105.8,224.58v0Z"/><path d="M125.69,299l-.21-.14A1,1,0,0,0,125.69,299Z"/><path d="M125.15,298.3a1,1,0,0,0,.32.6l.21.14a1,1,0,0,0,.46.11h.14a1,1,0,0,0,.85-1.14c0-.14,0-.29-.07-.43q-1.15-.8-2.31-1.51C124.91,296.81,125,297.55,125.15,298.3Z"/><path d="M105.79,224.55v0a1,1,0,0,0,1.91.07l.1-.26a21.16,21.16,0,0,0-.94-2.7,18.05,18.05,0,0,0-1,2.28A1,1,0,0,0,105.79,224.55Z"/><path d="M282.23,474.69a1,1,0,0,0,1.31-.56l.29-.75h-2.16A1,1,0,0,0,282.23,474.69Z"/><path d="M323.41,373.88c10.69-13.11,22.6-22.26,32.67-25.11l3.3-.93C380.33,342,402,335.9,414,315.1c8.65-14.94,26.07-24.27,35.86-22.62,3.43.58,5.46,2.41,6.06,5.45,2.34,12-15.24,39.77-22.87,47.73l.45,0a1,1,0,0,1,.64,1.71c3.56-3.61,9.55-11.78,14.76-21.09,4-7.22,10.59-20.57,9-28.78-.75-3.84-3.48-6.35-7.7-7.06a22.49,22.49,0,0,0-9.63.85A7.41,7.41,0,0,0,440,293a1,1,0,0,1-2-.29,5.2,5.2,0,0,1,.14-.64q-1.59.58-3.22,1.32l-.93,2.43a1,1,0,0,1-1.88-.71l.15-.38a52.15,52.15,0,0,0-20,19.31c-11.63,20.09-31.95,25.79-53.45,31.81l-3.31.93c-22.74,6.42-49.3,41-53.3,63.18-3.84,21.29-20.41,63-20.57,63.37h2.16c2.25-5.72,16.8-43.11,20.39-63C306.07,400.11,313.43,386.12,323.41,373.88Z"/><path d="M433.39,347.71c-.13,0-1-.07-2.26-.26-.54.45-1.17,1-1.9,1.65l.42,0a1,1,0,0,1-.08,2h-.08c-.12,0-1-.08-2.25-.26l-2,1.79.15-.06a1,1,0,0,1,.76,1.86,8.65,8.65,0,0,1-3.1.52h-.35c-10.61,9.78-25.76,24.2-26.63,25a1,1,0,1,0,1.39,1.46c.29-.28,29-27.58,35.42-32.91.36-.3.76-.67,1.2-1.12a1,1,0,0,1-.67.26Z"/><path d="M354.32,473.54a1,1,0,0,0,.77,1.2l.21,0a1,1,0,0,0,1-.79l.14-.59h-2.07Z"/><path d="M390.46,412.16c7.14-5.42,16.23-11.45,25.85-17.83,25-16.59,50.89-33.74,54.35-47.37,3.64-14.37,10.62-50.44,10.74-70.54a1,1,0,0,1-.19.44,12,12,0,0,1-1.83,1.92c-.59,20.08-7.19,53.9-10.68,67.68,0,.15-.08.3-.12.45h0a1,1,0,1,1,.28,2l-1.12.14q-.28.61-.62,1.24l.29-.13a1,1,0,1,1,.85,1.82,22.57,22.57,0,0,1-2.91,1.11q-1.06,1.48-2.38,3l.34-.05a1,1,0,1,1,.36,2c-.16,0-1.2.21-2.78.36-10.32,10.8-28.83,23.06-45.72,34.26-9.65,6.4-18.77,12.44-26,17.9-24.39,18.54-34.22,59.91-34.89,62.82h2.07C357.66,468.17,367.46,429.65,390.46,412.16Z"/><path d="M448.21,225.64a1,1,0,0,1-1.4.23c-.2-.14-.41-.28-.63-.42-4.12,11.82-.86,28,1.19,38.06.7,3.47,1.31,6.47,1.2,7.53-.25,2.32-3.15,7.38-5.7,11.85-2.2,3.84-4.12,7.2-4.68,9.23q1.23-.44,2.42-.78c.84-1.91,2.44-4.71,4-7.45,2.78-4.86,5.66-9.89,6-12.63.15-1.37-.4-4.06-1.23-8.14-2.24-11-6-29.53.43-40.77,1.63-2.85,3.14-2.69,3.64-2.63,7.73.87,20,30.45,24.84,46,.35-.23.55-.39.56-.4l1.09-.84.47,1.29v0c-.3-1-15-46.78-26.75-48.1-2.2-.24-4.09,1-5.61,3.63a23.47,23.47,0,0,0-1.1,2.21c.34.2.7.42,1.06.68A1,1,0,0,1,448.21,225.64Z"/><path d="M479.38,273.1c0,.87.06,1.8.06,2.76l.18-.22a1,1,0,0,1,1.79.44,42.92,42.92,0,0,0-.76-9.21A7.64,7.64,0,0,1,479.38,273.1Z"/><path d="M438,292.76a1,1,0,0,0,2,.29,7.41,7.41,0,0,1,.57-1.7q-1.2.34-2.42.78A5.2,5.2,0,0,0,438,292.76Z"/><path d="M444,272c1-1.53.38-6.25-.91-15.93-1.53-11.55-3.85-29-.06-31.29.83-.5,2.05,0,3.1.65.23-.65.47-1.28.74-1.9-1.92-1.1-3.56-1.27-4.88-.47-4.56,2.75-3.18,16.1-.9,33.28.84,6.33,1.79,13.5,1.2,14.6-2.38,3.8-9,21-10,23.82q1.34-.72,2.67-1.33C437.06,288,442.12,275.09,444,272Z"/><path d="M432.72,296.46a1,1,0,0,0,1.3-.58l.93-2.43q-1.33.61-2.67,1.33l-.15.38A1,1,0,0,0,432.72,296.46Z"/><path d="M446.81,225.87a1,1,0,1,0,1.17-1.64c-.36-.26-.71-.48-1.06-.68-.27.62-.51,1.25-.74,1.9C446.4,225.59,446.61,225.73,446.81,225.87Z"/><path d="M445.71,320a1,1,0,0,0,.82-1.84c-1.28-.57-4.76-2.54-5.54-4.76a2.48,2.48,0,0,1,.14-2c3.13-6.15,7.27-11.34,8.48-11.34h.07l.05.05c1.13,1.45-.13,6.32-1.39,9.3a1,1,0,0,0,1.85.78c.58-1.38,3.39-8.43,1.12-11.33a2.06,2.06,0,0,0-1.86-.81c-3.95.38-10.06,12.3-10.12,12.42a4.45,4.45,0,0,0-.24,3.63C440.33,317.61,445.5,319.94,445.71,320Z"/><path d="M433.08,345.66c-2.28-.23-12.74-1.57-16.17-7.07a1,1,0,0,0-1.71,1.06c3.34,5.36,11.83,7.21,15.93,7.8l.51-.43A17.59,17.59,0,0,0,433.08,345.66Z"/><path d="M434.17,347.41l0,0Z"/><path d="M433.53,345.7l-.45,0a17.59,17.59,0,0,1-1.43,1.36l-.51.43c1.27.18,2.12.25,2.26.26h.07a1,1,0,0,0,.67-.26l0,0a1,1,0,0,0-.64-1.71Z"/><path d="M416.83,345a1,1,0,1,0-1.54,1.3c2.41,2.85,8.59,4.1,12,4.58l2-1.78C426.16,348.8,419,347.61,416.83,345Z"/><path d="M429.58,351.15a1,1,0,0,0,.08-2l-.42,0-2,1.78c1.26.18,2.13.25,2.25.26Z"/><path d="M416.73,350.32a1,1,0,0,0-1.35,1.5,11.47,11.47,0,0,0,7.36,3.18l2.53-2.32C424.47,352.94,420.72,353.9,416.73,350.32Z"/><path d="M426.2,354.48a1,1,0,0,0-.76-1.86l-.15.06L422.75,355h.35A8.65,8.65,0,0,0,426.2,354.48Z"/><path d="M444.44,344.31a1,1,0,0,0-1.41,1.44c3.14,3.08,9.86,3.83,15.67,3.83a81.86,81.86,0,0,0,9.08-.54,15.52,15.52,0,0,0,.8-2.13C463.32,347.65,448.83,348.61,444.44,344.31Z"/><path d="M468.91,348.9a1,1,0,1,0-.28-2h0a15.52,15.52,0,0,1-.8,2.13Z"/><path d="M447.34,349.52c-.85-.36-1.14-.49-1.58-.32a1,1,0,0,0,.23,1.94l.56.23a31,31,0,0,0,12.13,2.71,22.73,22.73,0,0,0,6.7-1,27.83,27.83,0,0,0,1.78-2.81C458.36,354.21,450.08,350.69,447.34,349.52Zm-.85,1.56h0Z"/><path d="M468.29,352a1,1,0,1,0-.85-1.82l-.29.13a27.83,27.83,0,0,1-1.78,2.81A22.57,22.57,0,0,0,468.29,352Z"/><path d="M443.09,352.41a1,1,0,0,0-1.48,1.36c3.65,4,10,4.84,15,4.84,1.65,0,3.14-.1,4.33-.21q1.11-1.16,2.08-2.29C460.81,356.45,448.33,358.08,443.09,352.41Z"/><path d="M463.7,358a1,1,0,1,0-.36-2l-.34.05q-1,1.13-2.08,2.29C462.5,358.24,463.54,358.06,463.7,358Z"/><path d="M480.65,266.87a8,8,0,0,0-.28-1.06v0C480.48,266.15,480.57,266.51,480.65,266.87Z"/><path d="M478.24,265.72c-1.94,1.3-8.53,5.17-14.26,2.19a1,1,0,0,0-.93,1.79c6.22,3.24,12.95-.18,15.7-1.91a5.4,5.4,0,0,1-1,4.16c-2,2.42-6.88,3.08-14.05,1.9a1,1,0,1,0-.33,2,40.55,40.55,0,0,0,6.54.6c4.48,0,7.63-1.07,9.4-3.21l.09-.12a28.25,28.25,0,0,0-.93-6.69Z"/><path d="M479.89,264.49l-1.09.84s-.21.16-.56.4l.21.69a28.25,28.25,0,0,1,.93,6.69,7.64,7.64,0,0,0,1.27-6.23c-.08-.36-.17-.72-.27-1v-.05Z"/><path d="M481.41,276.08c0,.11,0,.23,0,.34A1,1,0,0,0,481.41,276.08Z"/><path d="M479.44,275.86c-4.45,5.54-10.85,2.57-11.13,2.44a1,1,0,0,0-.88,1.81,13.37,13.37,0,0,0,5.23,1.08,10.24,10.24,0,0,0,6.74-2.41Q479.44,277.27,479.44,275.86Z"/><path d="M481,275.45a1,1,0,0,0-1.41.19l-.18.22q0,1.4,0,2.92a12,12,0,0,0,1.83-1.92,1,1,0,0,0,.19-.44c0-.11,0-.23,0-.34A1,1,0,0,0,481,275.45Z"/><path d="M74.93,275.14c.19.21.39.42.62.63,2.77,2.53,7.32,3.8,13.56,3.8a58.08,58.08,0,0,0,6-.34,1,1,0,1,0-.21-2C84,278.37,79.15,276.29,77,274.34A6.69,6.69,0,0,1,75.8,273c3.3,1.73,9.66,4.33,16.66,3.43a1,1,0,0,0-.26-2c-8,1-15.31-3-17.18-4.19A25.33,25.33,0,0,0,74.93,275.14Z"/><path d="M73,268.88l0,1.82q.07-.83.19-1.71Z"/><path d="M74.93,275.14a25.33,25.33,0,0,1,.09-4.9l-.46-.29L73.17,269q-.11.88-.19,1.71v.06A7,7,0,0,0,74.93,275.14Z"/><path d="M75.44,279c2.72,2.16,8.06,5.21,16.53,5.21a38.25,38.25,0,0,0,4.5-.27,1,1,0,0,0-.24-2C82.72,283.5,76.1,277,75,275.81c0,.09,0,.19,0,.27C75.17,276.9,75.31,277.86,75.44,279Z"/><path d="M73.43,275.46a1,1,0,0,0-.17,1.41A14.1,14.1,0,0,0,75.44,279c-.14-1.1-.27-2.06-.4-2.87,0-.09,0-.18,0-.27l-.17-.19A1,1,0,0,0,73.43,275.46Z"/><path d="M124.73,345.22A46.41,46.41,0,0,0,152.64,336a1,1,0,1,0-1.21-1.61,45.17,45.17,0,0,1-32.71,8.34c.66.78,1.31,1.54,2,2.28C121.76,345.14,123.13,345.22,124.73,345.22Z"/><path d="M117.19,343.48a1,1,0,0,0,.79,1.19c.16,0,1.13.22,2.7.37-.65-.74-1.3-1.5-2-2.28l-.34-.06A1,1,0,0,0,117.19,343.48Z"/><path d="M127.49,348.82c4.4,0,10.79-1,19-5a1,1,0,1,0-.88-1.81c-14.17,6.92-22.71,4.42-24.06,3.94q1.23,1.38,2.43,2.63A25,25,0,0,0,127.49,348.82Z"/><path d="M120,346.39a1,1,0,0,0,.51,1.33,14,14,0,0,0,3.43.86q-1.19-1.25-2.43-2.63l-.19-.07A1,1,0,0,0,120,346.39Z"/><path d="M103.62,350.92a1,1,0,0,0-1.29-1.54c-7.15,6-10,6.34-11,6.15.59.54,1.29,1.14,2.08,1.8C95.93,356.62,99.36,354.48,103.62,350.92Z"/><path d="M88.78,355.89a2.7,2.7,0,0,0,1.45,1.39c-.49-.44-.93-.86-1.3-1.23Z"/><path d="M91.67,357.57a6.54,6.54,0,0,0,1.69-.25c-.8-.66-1.5-1.26-2.08-1.8l-.12,0a.74.74,0,0,1-.55-.42v0l-2,.46a2.11,2.11,0,0,0,.11.31l.15.16c.37.38.8.79,1.3,1.23l.24.1A3.82,3.82,0,0,0,91.67,357.57Z"/><path class="cls-3" d="M95.35,302a28.52,28.52,0,0,0,1.14,7.2c.25-1.95.57-4,.92-6.16,0-.36,0-.71,0-1.06a10.13,10.13,0,0,1,1-4.78c.21-1.31.42-2.62.62-3.93A10.75,10.75,0,0,0,95.35,302Z"/><path class="cls-3" d="M125.17,352.71c4.07,4,8.43,8.7,12.65,13.29,2.06,2.24,4.09,4.45,6.08,6.57q1.32,0,2.64-.14c-2.4-2.52-4.83-5.17-7.24-7.79-4.24-4.61-8.62-9.37-12.73-13.37-.86-.83-1.75-1.74-2.65-2.69a25,25,0,0,0,3.56.24c4.4,0,10.79-1,19-5a1,1,0,1,0-.88-1.81c-14.17,6.92-22.71,4.42-24.06,3.94l-.82-.91c1.08.1,2.45.18,4.05.18A46.41,46.41,0,0,0,152.64,336a1,1,0,1,0-1.21-1.61,45.17,45.17,0,0,1-32.71,8.34c-10-11.89-20.56-28.32-21.31-39.69-.35,2.14-.67,4.21-.92,6.16C100.55,323.88,114.7,342.54,125.17,352.71Z"/><path class="cls-3" d="M160.93,387.75a1,1,0,0,0,1-1.74c-4.45-2.56-9.83-7.73-15.39-13.58q-1.32.1-2.64.14C150.1,379.16,155.91,384.86,160.93,387.75Z"/><path class="cls-3" d="M117,308.19c-4.79-6.34-9-11.51-12.27-10.39-1.94.67-2.8,3.29-2.72,8.25a1,1,0,0,0,1,1,1,1,0,0,0,1-1c-.09-5.4,1-6.2,1.37-6.32,2.13-.72,7.65,6.58,10,9.7l1.16,1.53a2.29,2.29,0,0,1,.55,2.25c-.86,2.73-6.68,5.06-8.85,5.73a1,1,0,1,0,.59,1.92c.9-.28,8.84-2.83,10.18-7a4.32,4.32,0,0,0-.87-4.09Z"/><path class="cls-2" d="M125.17,352.71c-10.47-10.17-24.62-28.83-28.69-43.49a43.82,43.82,0,0,0-.47,8.56c.84,10.4,19.59,43.27,28.75,50.31,4.51,3.47,11.69,4.7,19.13,4.47-2-2.12-4-4.33-6.08-6.57C133.6,361.41,129.24,356.67,125.17,352.71Z"/><path class="cls-4" d="M97.4,303.06c.31-1.91.64-3.86,1-5.84a10.13,10.13,0,0,0-1,4.78C97.36,302.35,97.38,302.7,97.4,303.06Z"/><path class="cls-2" d="M102,237.27c-5.11,11.07-5.95,25.2-2.59,35.83,1.53,4.85.79,12.41-.39,20.19a10.91,10.91,0,0,1,2.95-1.74,18.92,18.92,0,0,1,10.69-.48c-2.32-4.63-7.78-16.3-6.61-21.72,1.21-5.62,3.19-33.05-.22-44.76v0a18.09,18.09,0,0,0-.61-1.75A32.3,32.3,0,0,1,102,237.27Z"/><path class="cls-3" d="M117,308.19c-4.79-6.34-9-11.51-12.27-10.39-1.94.67-2.8,3.29-2.72,8.25a1,1,0,0,0,1,1,1,1,0,0,0,1-1c-.09-5.4,1-6.2,1.37-6.32,2.13-.72,7.65,6.58,10,9.7l1.16,1.53a2.29,2.29,0,0,1,.55,2.25c-.86,2.73-6.68,5.06-8.85,5.73a1,1,0,1,0,.59,1.92c.9-.28,8.84-2.83,10.18-7a4.32,4.32,0,0,0-.87-4.09Z"/><path class="cls-4" d="M255.18,462.26c-.63-5.91-7.8-8.18-14.84-16.6s3-29.56-2.26-43.27-30.94-29.81-48.25-41a41.31,41.31,0,0,1-16.63-22.07c-15.63-6.81-22-14-31.24-24.39-2.29-2.58-4.66-5.25-7.42-8.2a54.75,54.75,0,0,0-8.84-7.68,1,1,0,0,1-.21-.14,39,39,0,0,0-11.18-5.4l-.12,0c-4.54-1.26-8.55-1.23-11.49-.05a8,8,0,0,0-4.32,3.81c-.32,2-.65,3.93-1,5.84.75,11.37,11.3,27.8,21.31,39.69a45.17,45.17,0,0,0,32.71-8.34,1,1,0,1,1,1.21,1.61,46.41,46.41,0,0,1-27.91,9.19c-1.6,0-3-.08-4.05-.18l.82.91c1.35.48,9.89,3,24.06-3.94a1,1,0,1,1,.88,1.81c-8.17,4-14.56,5-19,5a25,25,0,0,1-3.56-.24c.91,1,1.8,1.86,2.65,2.69,4.11,4,8.49,8.76,12.73,13.37,2.41,2.62,4.84,5.27,7.24,7.79a59.42,59.42,0,0,0,18.58-4.33,59.42,59.42,0,0,1-18.58,4.33c5.57,5.85,10.94,11,15.39,13.58a1,1,0,0,1-1,1.74c-5-2.89-10.83-8.59-17-15.18-7.44.23-14.62-1-19.13-4.47-9.16-7-27.91-39.92-28.75-50.31a43.82,43.82,0,0,1,.47-8.56,28.52,28.52,0,0,1-1.14-7.2A10.75,10.75,0,0,1,99,293.29c1.18-7.78,1.92-15.34.39-20.19C96,262.48,96.86,248.34,102,237.27a32.3,32.3,0,0,0,3.21-14.47,7.19,7.19,0,0,0-1.87-2.87,2.62,2.62,0,0,0-2.95-.27C90.11,224.12,76.7,254.09,75,270.24c1.87,1.15,9.2,5.23,17.18,4.19a1,1,0,0,1,.26,2c-7,.9-13.36-1.7-16.66-3.43A6.69,6.69,0,0,0,77,274.34c2.18,1.95,7.07,4,17.94,2.89a1,1,0,1,1,.21,2,58.08,58.08,0,0,1-6,.34c-6.24,0-10.79-1.27-13.56-3.8-.23-.21-.43-.42-.62-.63q0,.34.08.67c1.1,1.2,7.72,7.69,21.23,6.08a1,1,0,0,1,.24,2,38.25,38.25,0,0,1-4.5.27c-8.47,0-13.81-3.05-16.53-5.21.37,3,.76,6.9,1.22,11.56,2.06,20.84,5.5,55.72,13.71,64.12.26.27.57.57.91.88,1,.19,3.89-.15,11-6.15a1,1,0,0,1,1.29,1.54c-4.26,3.57-7.69,5.71-10.26,6.4,5.22,4.29,14.7,10.95,25.34,18.43,26.46,18.58,59.38,41.71,65.43,54.39,10,20.93,14.78,33.69,16.23,43.25h55A91.46,91.46,0,0,0,255.18,462.26ZM119,313.79c-1.34,4.22-9.28,6.77-10.18,7a1,1,0,0,1-.59-1.92c2.17-.67,8-3,8.85-5.73a2.29,2.29,0,0,0-.55-2.25l-1.16-1.53c-2.36-3.12-7.87-10.42-10-9.7-.34.12-1.45.92-1.37,6.32a1,1,0,0,1-1,1,1,1,0,0,1-1-1c-.08-5,.79-7.59,2.72-8.25,3.24-1.12,7.47,4,12.27,10.39l1.15,1.51A4.32,4.32,0,0,1,119,313.79Z"/><path class="cls-2" d="M248.06,403.73c-19.4-42.6-24.87-48.07-58.53-58.49a157.69,157.69,0,0,1-16.33-5.93,41.31,41.31,0,0,0,16.63,22.07c17.31,11.19,43,27.3,48.25,41s-4.78,34.84,2.26,43.27,14.21,10.69,14.84,16.6a91.46,91.46,0,0,1,.21,11.12h16.32C271,469.39,265.93,443,248.06,403.73Z"/><path class="cls-3" d="M445.71,320a1,1,0,0,0,.82-1.84c-1.28-.57-4.76-2.54-5.54-4.76a2.48,2.48,0,0,1,.14-2c3.13-6.15,7.27-11.34,8.48-11.34h.07l.05.05c1.13,1.45-.13,6.32-1.39,9.3a1,1,0,0,0,1.85.78c.58-1.38,3.39-8.43,1.12-11.33a2.06,2.06,0,0,0-1.86-.81c-3.95.38-10.06,12.3-10.12,12.42a4.45,4.45,0,0,0-.24,3.63C440.33,317.61,445.5,319.94,445.71,320Z"/><path class="cls-2" d="M310,458c-.84-7.38,9.39-25.33,17.11-31.87s14.59-6.54,16.77-27.84,19-30,36.23-37.57,26.67-23.65,37.76-38.57a45.91,45.91,0,0,0,8.26-20.84A49.39,49.39,0,0,0,414,315.1c-12,20.8-33.7,26.87-54.65,32.74l-3.3.93c-10.07,2.84-22,12-32.67,25.11-10,12.25-17.34,26.23-19.19,36.49-3.59,19.91-18.14,57.29-20.39,63h22.69C308.39,468.73,310.51,462.28,310,458Z"/><path class="cls-3" d="M396.09,381.45a1,1,0,0,0,1.42,0c.11-.1,4.29-4.08,9.79-9.27-1.22.24-2.42.44-3.58.61-4.18,4-7.22,6.85-7.59,7.2A1,1,0,0,0,396.09,381.45Z"/><path class="cls-3" d="M445.71,320a1,1,0,0,0,.82-1.84c-1.28-.57-4.76-2.54-5.54-4.76a2.48,2.48,0,0,1,.14-2c3.13-6.15,7.27-11.34,8.48-11.34h.07l.05.05c1.13,1.45-.13,6.32-1.39,9.3a1,1,0,0,0,1.85.78c.58-1.38,3.39-8.43,1.12-11.33a2.06,2.06,0,0,0-1.86-.81c-3.95.38-10.06,12.3-10.12,12.42a4.45,4.45,0,0,0-.24,3.63C440.33,317.61,445.5,319.94,445.71,320Z"/><path class="cls-2" d="M448.58,332.54c7.36-8.81,13.39-24.77,12.35-34.48s-13-6.86-8.75-14.16,8.16-9.39,6-22.14-6.63-12.91-6-17.27,2-10.82,2.24-16.77a10.34,10.34,0,0,0-2.6-7.68,5.83,5.83,0,0,0-2.06,2.31c-6.41,11.25-2.67,29.73-.43,40.77.83,4.08,1.37,6.78,1.23,8.14-.29,2.74-3.17,7.77-6,12.63-1.57,2.74-3.17,5.54-4,7.45a22.49,22.49,0,0,1,9.63-.85c4.22.71,7,3.21,7.7,7.06,1.6,8.21-4.95,21.56-9,28.78-5.21,9.31-11.2,17.48-14.76,21.09l0,0c-.44.44-.85.82-1.2,1.12-4,3.31-16.6,15.11-25.63,23.63,5.59-1.1,11.45-3,15.45-6.13C432.62,358.28,441.22,341.34,448.58,332.54Z"/><path class="cls-4" d="M467.43,280.11a1,1,0,0,1,.88-1.81c.28.13,6.68,3.1,11.13-2.44,0-1,0-1.88-.06-2.76l-.09.12c-1.77,2.14-4.92,3.21-9.4,3.21a40.55,40.55,0,0,1-6.54-.6,1,1,0,1,1,.33-2c7.17,1.18,12,.53,14.05-1.9a5.4,5.4,0,0,0,1-4.16c-2.76,1.73-9.48,5.14-15.7,1.91a1,1,0,0,1,.93-1.79c5.73,3,12.32-.9,14.26-2.19-4.82-15.55-17.1-45.14-24.84-46a2.42,2.42,0,0,0-1.58.32,10.34,10.34,0,0,1,2.6,7.68c-.25,6-1.59,12.41-2.24,16.77s3.83,4.53,6,17.27-1.74,14.84-6,22.14,7.7,4.44,8.75,14.16-5,25.68-12.35,34.48-16,25.74-25.82,33.54c-4,3.16-9.86,5-15.45,6.13-5.5,5.19-9.68,9.17-9.79,9.27a1,1,0,1,1-1.39-1.46c.37-.36,3.41-3.25,7.59-7.2a91.18,91.18,0,0,1-12.52,1,91.18,91.18,0,0,0,12.52-1c5.51-5.21,13-12.27,19-17.83a11.47,11.47,0,0,1-7.36-3.18,1,1,0,0,1,1.35-1.5c4,3.58,7.74,2.62,8.54,2.36l2-1.79c-3.36-.48-9.55-1.72-12-4.58a1,1,0,1,1,1.54-1.3c2.2,2.6,9.33,3.79,12.41,4.09.72-.64,1.36-1.2,1.9-1.65-4.09-.59-12.59-2.44-15.93-7.8a1,1,0,0,1,1.71-1.06c3.43,5.5,13.88,6.84,16.17,7.07,7.63-8,25.21-35.69,22.87-47.73-.59-3-2.63-4.88-6.06-5.45-6.23-1.05-15.56,2.36-23.75,8.83a45.91,45.91,0,0,1-8.26,20.84c-11.09,14.93-20.48,31-37.76,38.57s-34,16.27-36.23,37.57-9.06,21.3-16.77,27.84S309.18,450.61,310,458c.49,4.3-1.64,10.75-3.5,15.39h47.84c.66-2.91,10.49-44.28,34.89-62.82,7.19-5.46,16.3-11.51,26-17.9,16.89-11.2,35.4-23.46,45.72-34.26-1.19.11-2.68.21-4.33.21-5,0-11.33-.88-15-4.84a1,1,0,0,1,1.48-1.36c5.24,5.67,17.72,4,19.91,3.7q1.32-1.53,2.38-3a22.73,22.73,0,0,1-6.7,1,31,31,0,0,1-12.13-2.71l-.56-.23a1,1,0,0,1-.23-1.94c.44-.17.73,0,1.58.32,2.74,1.17,11,4.69,19.82.76q.34-.63.62-1.24a81.86,81.86,0,0,1-9.08.54c-5.81,0-12.53-.75-15.67-3.83a1,1,0,0,1,1.41-1.44c4.39,4.3,18.89,3.34,24.15,2.6,0-.15.09-.3.12-.45,3.49-13.78,10.09-47.6,10.68-67.68a10.24,10.24,0,0,1-6.74,2.41A13.37,13.37,0,0,1,467.43,280.11Zm-28.09,30.38c.06-.12,6.17-12,10.12-12.42a2.06,2.06,0,0,1,1.86.81c2.26,2.9-.54,9.94-1.12,11.33a1,1,0,0,1-1.85-.78c1.26-3,2.53-7.85,1.39-9.3l-.05-.05h-.07c-1.21,0-5.35,5.2-8.48,11.34a2.48,2.48,0,0,0-.14,2c.78,2.22,4.27,4.18,5.54,4.76a1,1,0,0,1-.82,1.84c-.22-.1-5.38-2.43-6.62-5.92A4.45,4.45,0,0,1,439.34,310.49Z"/><path class="cls-5" d="M282.47,301.55A125.37,125.37,0,1,1,407.85,176.18,125.51,125.51,0,0,1,282.47,301.55Zm0-247.89A122.52,122.52,0,1,0,405,176.18,122.66,122.66,0,0,0,282.47,53.65Z"/><circle class="cls-6" cx="282.47" cy="176.18" r="123.95"/><path class="cls-7" d="M232.93,122.61a10.55,10.55,0,0,1,3.69.16c.7.23,1.37.58,1.31,1.45s-.81,1-1.57,1c-2.11-.11-1.79.23-.84,1.9a8.35,8.35,0,0,0,3.15,3.63c.65-1.2-.87-1.42-.9-2.2a1.4,1.4,0,0,1,2,.32c.77,1.13,1.35,1.6,2.19.08.36-.65.93-.33,1.33.06s1,.86,1.15,1.39c.17.7-.71.54-1.09.81-2.75,1.95-6.5,1.45-9.11,3.74a1,1,0,0,1-1.64-.19c-.43-.71.18-1.17.7-1.49.67-.41,1.41-.72,2.12-1.08.43-.22,1.16-.29.81-1a1,1,0,0,0-1.37-.45,8.53,8.53,0,0,0-2.26,1.37c-1.89,1.83-4.61,1.41-6.83,2.78-2.37,1.47-2.24,2.44-1.17,4.29a5.19,5.19,0,0,1,.22,1.2c-3.53-.77-6.47-.12-8.12,3.28-.39.81-1.06.81-1.8.7l-.39-.15.18.35c-.18,1.18,1.68,2.93-.22,3.42s-.9-2-1.83-3.1a5.84,5.84,0,0,0-.33,4.92c.76,2.76-.49,4.44-2.47,5.89-1.29.94-2.68,1.75-4,2.62-2.58,1.69-3.53,4.36-2.28,7.12,1.06,2.35.91,4.86,1.27,7.3.11.76-.12,1.44-1,1.57-.73.1-1.48.11-1.81-.73-.73-1.84-2.23-3.44-1.63-5.71a4.13,4.13,0,0,0-.51-3.09c-.31-.55-.85-1.32-1.37-.61-1.3,1.79-2.08.54-3.16-.21-1.83-1.25-3.84-.14-5.9-.65.15.62.14.81.23.92.61.76,2.2,1.4,1.19,2.5s-1.78-.32-2.49-1c-2.33-2.27-3-1.56-5.26.68-3.84,3.77-3.12,8.14-3,12.58.06,3.41,1.71,6.11,4,8.48,1.54,1.63,4,.56,4.6-2.17.46-2.17,1.56-3.29,3.71-3.44,1.44-.1,2.41.42,1.77,2-1.11,2.73.07,5.85-1.61,8.49-.42.66.17,1.15.93,1.17s1.24,0,1.87-.06c4.6-.29,5.65.77,5.45,5.43a12.21,12.21,0,0,0,0,2.89c.63,3.1,3.12,4.31,6,3,1.65-.76,3.24-1.07,4.49.71,1.07,1.52,1.78.81,2.11-.47.6-2.28,1.57-3.91,4.33-3.57.63.08,1-.6,1.45-1.07a1.56,1.56,0,0,1,1.94-.44c1,.54-.14.89-.26,1.34s0,.7.4.78c.73.14,1.49.2,1.71-.75.42-1.82,1.35-1.34,2.17-.42,2,2.29,5.05,2.11,7.56,3.18,1.31.56,2.19-.92,3.29-1.4s2.73-1.5,2.1,1.21a3.22,3.22,0,0,0,0,.52c2.37-.88,2.26,2.46,4.28,2.45a4.26,4.26,0,0,1,3.57,1.87c1.68,2.73,4.3,3.36,7.1,3.41,3.64.06,6.41,1.27,7.8,4.8.53,1.34,2.78,1.66,2.39,3.26-.33,1.35-2.29,1.53-3.19,2.64-.49.61-1.85,1.14-.88,2,.71.66,1.32-.4,1.86-1a4.69,4.69,0,0,1,1.45-1.14c1.08-.45,2.49-1.59,3.34-.31s-.5,2-1.65,2.38c-.38.14-.6.51-.38.82a1.13,1.13,0,0,0,.92.26c.33,0,.8-.24.9-.5,1.34-3.37,4-1.3,6.14-1.52a1.08,1.08,0,0,1,1.23,1.14c-.33,2.45,1.05,1.56,2.46,1.66,2.28.16,4.53.69,6.85.51.86-.07,1.42.66,1.89,1.32a5,5,0,0,0,3,2c3.13.81,4.21,3.07,3,6.11a10.88,10.88,0,0,1-4.35,5.6c-3.21,1.79-3.49,4.46-3.18,7.48a9.6,9.6,0,0,1-3,8.45c-.38.35-1,1-1.18.92-2.5-1.62-4.11,1.22-6.37,1.21-2.66,0-3,.91-2.36,3.63.58,2.36-.45,4.08-2.31,5.37-.58.41-1.15.64-1.43,1.42-1.39,3.89-1.42,3.88-5.52,3-.29,0-.78-.22-.84-.13-.25.41.22.44.44.59.32.31.66.59.95.93.79.94,2,1.91,1.18,3.23s-2.09.61-3.16.29c-1.78-.53-2.2.31-1.72,1.75a9,9,0,0,1,.3,5c-.26,1.21-.21,2.34,1.48,2.49a1.86,1.86,0,0,1,1.68,1.49,5,5,0,0,0,2.76,3.66c.42.19,1,.67.74,1.26s-.92.36-1.36.13a8.36,8.36,0,0,0-3.6-.8c-.6,0-1.65-.18-1.73-.48-.91-3.45-4.35-2.67-7-4,3.21-2.21,1.28-3.67-.42-5.15s-3.27-2.73-4.82-4.19a6.15,6.15,0,0,1-2.09-4.46,8.33,8.33,0,0,0-2.39-5.78c-2.61-2.66-3.38-5.89-3.73-9.41-.23-2.27-.34-4.6-1.74-6.61a8.82,8.82,0,0,0-5.7-4.06c-3.7-.65-6.13-2.74-8-5.94-2.45-4.13-5.31-8-9.47-10.65-1-.64-2.16-1.74-1.63-2.79,1.15-2.26-.16-3.85-.7-5.8a6.54,6.54,0,0,1,1.64-6.12c1.58-1.67,1.7-3.28.51-5a15.81,15.81,0,0,1-1.82-4.68c-.29-1-.65-2-1.86-2-1,0-1.44.75-1.72,1.71-.61,2.11-1.89,1.61-2.9.42-1.4-1.67-2.8-3.21-5.12-3.51-.77-.1-.74-.8-1-1.37-1.16-2.71-2.39-5.17-6-5.59a6.77,6.77,0,0,1-6.06-4.87c-.31-1-1-2.66-2-.2-.59,1.48-1.82,1.33-2.86.56-2.86-2.1-5.66-4.29-8.47-6.46-1-.78-.85-1.92-.71-3a12.4,12.4,0,0,0-1.77-8.15,22.2,22.2,0,0,1-2.83-8.25,28.88,28.88,0,0,0-2.71-8.28c-2.08-4.44-1.36-9.21-.46-13.81.42-2.14,1.55-4.2,1.54-6.43,0-7.81,3.78-14.29,7.18-20.87a118.51,118.51,0,0,1,19.88-27.54,4.89,4.89,0,0,1,3.34-1.9,3.38,3.38,0,0,0,3.24-2.68c.72-2.52,2.8-4,4.58-5.76.55-.53,1.23-.8,1.88-.16a1.14,1.14,0,0,1,.07,1.67c-.5.54-1.2.94-.2,1.61.58.38,1.24,1,1.9.38,1.28-1.23,2.8-.91,4.28-.84,1.75.08,2.9-.61,3.4-2.66C212.5,81.8,210,79.12,208,81.77c-.75-1.2-.35-2.21.19-2.44,2.49-1,2.64-3.81,4.24-5.41,1.82-1.81,4.32-2.32,6.85-2.39,1.15,0,2.33.19,2.93-1.16l0,0c.56.23,1.54-.34,1.61.84,0,.59.45.85.86.47,1.53-1.41,3.68-.09,5.29-1.28a1.18,1.18,0,0,1,1.8.51,1.15,1.15,0,0,1-1,1.55c-5,.53-6,4.9-8.17,8.17.52.6,1.45-.48,1.86.54-.3,1-2,.73-1.87,2.42,1.65-.57,3.23-1.17,4.09-2.63a4.15,4.15,0,0,1,3.62-2.08l0,0c.18,1,1.2,2.23-.82,2.56-.37.06-1,.52-1,.77.12,2.46-1.37,3.35-3.39,4.15-.87.35-1.3,1.29-2.22.1-.33-.43-1.09-.26-1.42.18s.12,1,.48,1.35.67.58,1,.9c.69.75,1.93,1.32,1.41,2.59s-1.51,0-2.28.12-1.58.25-1.92,1.14l0,0c-.44,0-1,.13-1.29-.09-2.3-1.65-4.76-1.41-6.32.79a2.78,2.78,0,0,1-1.49,1A17.35,17.35,0,0,0,204.54,99c-1,1-2,2.12-.7,3.66a1.32,1.32,0,0,1,.1,1.52c-.68,1.15-.31,1.57.93,1.6a2.09,2.09,0,0,1,1.76,1,5.86,5.86,0,0,0,4.67,2.66c1.15.12,2.06.5,1.42,2.06a2.92,2.92,0,0,0,.22,2.57c.34.6.86,1.12-.26,1.65s-.13,1.37.17,1.92c.42.75,1.15.71,1.8.13a5,5,0,0,0,1.95-4.46,2.68,2.68,0,0,1,2-3.24c3.3-1.22,4.36-3.39,4.32-7,0-3,1.75-5.78,3.52-8.2,1-1.43,3.19-.4,4.46-.18,2,.35,3.64,2.18,5,3.86.32.38.13,1-.14,1.51-.37.68-1.86,1.73-1,1.86,1.42.22,2.33,2.16,4.1,1.09a8.18,8.18,0,0,0,2.85-2.31c1.25-1.89,2.4-1.4,3,.36.72,2.11,2.39,4.29.28,6.68,2.14.9,3.48,3,6.53,3.52-2,1-3.38.28-4.42,1.15-.42.35-.89.75-.61,1.32.2.41.76.42,1.2.3.94-.25,1.87-.56,2.81-.81a2.36,2.36,0,0,1,3.09,1.76c.51,1.53-.6,2-1.79,2.37a10.9,10.9,0,0,0-4,2.08,3.71,3.71,0,0,1-2.67,1c-3.12-.31-6.16.87-9.28.45a2.53,2.53,0,0,0-3,1.6c-2.9.28-5.1,1.45-5.74,4.62,1.9-1.27,3.39-3.13,5.65-3.86C232.92,123.32,232.9,122.87,232.93,122.61Zm-27.7,13.8c1.1-.92,1-2.14,1.63-3,.29-.39.25-1.11,1-1.09s1.51.89,1.5-.5a1.66,1.66,0,0,0-1.77-1.66c-2.62.21-3.08-1.18-3.35-3.41-.34-2.79-2.93-4.16-4.74-2.61a11,11,0,0,1-4.45,2.64c-.42.11-.9.38-.72.91s.65,1.33,1,1.09c2-1.57,3.93-1.28,5.93-.1,0,0,.14-.09.22-.13.57-.34,1.31-1,1.61.1.23.89-.73,1.13-1.4,1.25-1.25.23-2.94.44-3.11,1.63-.28,2-1.25,3.63-1.69,5.48-.14.57-.48,1.84.64,2a1.52,1.52,0,0,0,1.68-1.68c-.54-2.9,1.25-4.3,3.18-5.8.64-.5,1-1.43,1.81-.38.57.73.87,1.56,0,2.34-.52.45-1.62.47-1.25,1.83C203.94,134.82,205.08,134.58,205.23,136.41Zm11.24-57.25c.52.7,2.42-.51,1.91,1.29-.24.84-1.21,1.48-2.14,2.56,1.68-.4,3-1,3-2.13.13-2.4,1.61-3.72,3.43-5.06-1.37-.21-2.06-2.47-3.69-.5C218,76.55,216.71,77.5,216.47,79.16Zm-24.61,41.69c1.71-1.77,1.34-4.07,2-6.08.22-.67.78-1.78-.3-2s-1.62.93-1.68,1.87C191.79,116.69,191.86,118.78,191.86,120.86Zm5.32-27c-2.41,1-6.27,0-6.76,4.73Zm12.94,43.41c-1.86-.73-3.33.37-4.95.64-.66.11-1.92.06-1.56,1.22.3,1,1.32.93,2.25.61C207.44,139.2,208.47,137.75,210.12,137.29Zm4.92-3.65c-1.81.15-3.14,1-4.66.8a.63.63,0,0,0-.74.59.8.8,0,0,0,.77.88C212.21,136,214.14,136.38,215,133.64ZM225,73.57l1.32-1.47C225.77,72.2,225.33,72.91,225,73.57Z"/><path class="cls-7" d="M365.89,104.89c-1.79,1.34-3,2.58-3.5,4.63-.13.6-1.93.48-2.62,1.39-1-.75-1.39-1.62-.51-2.71.41-.51.45-1-.16-1.31-2.13-1.22-2.73-3.66-4.32-5.32-.33-.35-.32-1.17-1-.92-.32.11-.58.66-.69,1.06-.28,1,.09,2.83-1.45,2.59a3.54,3.54,0,0,1-3.18-2.83c-.17-1.48-1.11-2.29-2-3.27-2.44-2.7-1.7-4.85,2.1-5.65a2.25,2.25,0,0,1-.91-2.93,2.9,2.9,0,0,0-.61-3c-1.59-1.74-1.56-3.94-1.7-6s1.75-3.15,3.38-4,2.11.47,2.85,1.54a4.94,4.94,0,0,0,4,1.85c4,.24,6.34,3.12,9.32,5.19-1,1.15-1.88.19-2.93.5a9,9,0,0,0,4.44,4.73c.45.25,1,.52,1.47.06s0-1-.11-1.47c-.3-1-2.12-1.93-.76-2.84.81-.54,1.83,1.08,2.6,1.84,19.22,18.92,31.21,41.56,35.3,68.28a138.26,138.26,0,0,1,.52,37.4c-.24,2.07-1.69,3-3.33,4.89.71-11.88.16-23-5.44-33.42-.69,1.47-.09,2.66.28,3.74a60.82,60.82,0,0,1,3.15,14.24c.54,6,1.32,12.09,1.05,18.18-.08,1.75,0,1.85,2.37,1.27a36.08,36.08,0,0,1-6.57,17.11,102.46,102.46,0,0,0-11.37,20.42,21,21,0,0,1-7.8,10.14,17.53,17.53,0,0,0-7,7.84,8,8,0,0,1-3.57,3.5A80.14,80.14,0,0,0,353.74,272a10,10,0,0,1-8.06,2.81,2.13,2.13,0,0,1-1.42-.57c-.36-.5.21-1,.59-1.3,2.17-1.78,3.1-4.23,3.9-6.81a24.26,24.26,0,0,1,4.17-8,4.9,4.9,0,0,0,1.09-4.69,5.31,5.31,0,0,1,2.39-6.25c4.86-3.34,6.32-8.65,8.14-13.69a7.15,7.15,0,0,0-.84-6.67c-2.28-3-1.07-5.26.81-7.61.39-.49.81-.94,1.23-1.4.74-.8,1.07-1.71.31-2.62a1.73,1.73,0,0,0-2.43-.15c-2.14,1.38-3,.54-2.8-1.68.16-1.94-.9-2.34-2.42-2.23a12.17,12.17,0,0,0-3.93.62c-2.83,1.25-5.56,2.55-8.76,1.28a2.06,2.06,0,0,0-1.74.42c-2.27,2.05-4.23.92-6.23-.43-2.77-1.88-5.69-3.49-6.38-7.32-.22-1.2-1.74-2.17-2.68-3.22-4.13-4.65-4.47-6.92-1.39-12.3,1.11-1.95.16-3.56-.41-5.15-.87-2.4.07-8.3,2-9.93a2.8,2.8,0,0,0,1.28-2.46c-.2-2.4,1.35-3.49,3.17-4.41,1.19-.6,2.39-1.17,3.55-1.8a3.31,3.31,0,0,0,1.81-3.24c0-3.23,1.07-6.08,4.13-7.84a3.7,3.7,0,0,0,2-4.27,2.76,2.76,0,0,0-3.88-1.6c-.42.19-1.21.09-1.19-.2.07-1.53-.84-2.35-1.78-3.37-1.15-1.26-.32-2.58.46-3.86a3.13,3.13,0,0,0-.46-3.71c-1.47-1.94-.83-3.42,1.66-3.87,2-.35,3.87.29,5.77.75,3.35.81,4.61-.1,4.84-3.54,0-.5,0-1.34-.27-1.48-2.16-1.11-3.61-3.13-5.68-4.3-.81-.46-2.17-.38-1.55-1.77s1.53-.66,2.38-.06a1.1,1.1,0,0,0,1.28,0c.37-.87-.86-1.29-.63-2.15,1.15-1.12,2.64,1.56,3.51-.1,1.1-2.1,4.58-2.86,3.49-6.25-.33-1,.56-1.57,1.63-1.55a5.27,5.27,0,0,0,3.25-.63c-1-1.33-1.15-3.2-3.15-3.92-1.37-.49-.71-1.77-.47-2.79.15-.65.34-1.25,1.17-1.15a2.31,2.31,0,0,1,2.09,1.79,13.75,13.75,0,0,1,.43,2.35c.09,1,.63,1.91,1.49,2,2.29.24,4.76,2,6.87-.51a1.13,1.13,0,0,1,1.84-.13c.76.74,1.48.47,2.08-.18,1-1-.48-1-.72-1.5a10.48,10.48,0,0,0-1-1.56c-1.28-1.77-.91-2.77,1.36-2.87-.13-.68-.73-.73-1.17-1-.73-.39-1.42-.86-1.22-1.83a1.63,1.63,0,0,1,1.66-1.44c.54,0,1.2-.14,1.11-.82s-.9-.85-1.49-.68c-3.19.93-4.82-.4-6.8-3-1.48-2-2.42-3.35-1.88-5.7a2.25,2.25,0,0,0-.86-2.14c-.71-.59-1.51-1.67-2.48-.77s.3,1.34.77,1.87a2.68,2.68,0,0,1,.6,2.48c-.7,3.1.11,5.45,3.13,6.89a2.58,2.58,0,0,1,1.66,2.8C362,104.27,363.27,105,365.89,104.89Zm-1,27.53-1,1.09c-1.36,1.41-2.32,3.32-5,2.18-1.42-.6-.9.78-.65,1.46.72,2-.1,3.14-2,3.46-2.68.45-3.12,2-2.34,4.26s-.18,3.36-1.79,4.49a4.87,4.87,0,0,1-3.76.88,1.27,1.27,0,0,0-1.45,1.25c-.1,1.1.85.91,1.51.94a8.07,8.07,0,0,0,4.64-1c2.64-1.64,5.52-1.8,8.44-2a15.61,15.61,0,0,0,5.72-1c1.07-.49,2.08,0,3.11.24.72.18,1.19.43.68,1.25a1.79,1.79,0,0,0,.33,2.38c.66.76.75,1.76-.24,2.28-2,1-1,1.66.26,2.12a32,32,0,0,0,4.81,1.46c.86.18,1.82,0,2.27,1,.73,1.64,2.62,2,3.65,3.35a1.29,1.29,0,0,0,1.87.39c.54-.49,0-1.14-.21-1.69-.32-.74-1.32-1.65,0-2.19,1-.4,1.87-1.75,3.32-.61,2.9,2.28,6,3.95,9.92,2.54.89-.32,1.44-.5,1.44-1.47,0-2.81,0-5.62-1.19-8.26a3.4,3.4,0,0,0-.65-.75c-1,1.29-2.61.14-3,.35-2.15,1.21-2.82-.59-3.4-1.57-1.44-2.48-2.53-5.17-3.76-7.77-.23,1.63-1.64,1.32-2.71,1.52,2.72,4,2.74,4.34.64,7.1-.89-.59-.88-1.69-1.42-2.46-1.8-2.54-2.07-5.86-3.94-8.27-2.48-3.2-6.25-5-9.82-8.1a9.88,9.88,0,0,0,3.56,5.39c1.92,1.44,3.93,2.73,5.85,4.16.83.62,2,1.68.32,2.33-1.29.5-1.16,1.27-1.36,2.16-.39,1.77-.85,3.52-1.47,6.06a30.36,30.36,0,0,0-1.91-2.5c-.48-.5-1.84-.08-1.62-1.26.14-.77,1.12-.72,1.78-.93,2.41-.79,2.72-1.54,1-3.39C371.93,139.65,366.88,137.71,364.91,132.42Zm28,6.58c1.29-.13,1.71,1.15,2.63,1.62s1.8,1.17,2.4-.28c.38-.92-4.09-7.79-4.84-7.41-3.13,1.57-2.58-1.26-3.36-2.54-.43-.71-.63-2-1.7-1.66a1.89,1.89,0,0,0-.77,2.57c1.43,2.71-.17,5.73,1.05,8.42.22.49-.32,1.34.61,1.5.68.12,1.16-.37,1.58-.83C391.12,139.66,391.74,138.9,392.87,139Zm-7,89.77a2.38,2.38,0,0,0-1.31-2c-.72-.44-1.15.25-1.5.71-1.59,2-1.5,4.65-2.17,7-.19.67.65,1.32,1.34,1.44.87.15.89-.73,1-1.29a8.71,8.71,0,0,1,2-4.54A6.51,6.51,0,0,0,385.84,228.77Zm-3.78,9.6a14.14,14.14,0,0,1-3.68,6.46C381.24,245,383.39,241.34,382.06,238.38Zm7.82-19.58c.17-.79-.24-1.09-.69-1-1,.31-2,.86-2,2.14,0,.59.42,1.46,1,1.35C389.65,221.07,389.5,219.62,389.88,218.8Zm2-90.83c-.86-.06-1,.62-1.15,1.17a.89.89,0,0,0,.8,1.3,1.14,1.14,0,0,0,1.39-1.16A1.36,1.36,0,0,0,391.89,128Z"/><path class="cls-7" d="M264.34,90.55a10.73,10.73,0,0,1-1.41-6.34,2.61,2.61,0,0,1,2.35-2.51,3.19,3.19,0,0,0,2.32-1.12c.28-.36.49-.74.12-1.18a.81.81,0,0,0-1-.19,15.2,15.2,0,0,1-2,.6c-.77.12-1.43-.11-1.48-1.07s.28-1.37,1.18-1.44c.18,0,.36,0,.53,0,.92,0,2,.58,2.61-.6a1.11,1.11,0,0,0-.37-1.43c-1-.74-1.63.21-2.35.61a1.26,1.26,0,0,1-1.86-.3c-.5-.75.21-1.17.69-1.47,2.22-1.4.69-3.06.13-4.38s-1-3.37-3.34-3.1c-1.41.16-2.85,0-4.26.09-2.74.23-2.92,0-1.84-2.59l.57-1.37c-1.88.67-3.93.81-5,1.9-2.39,2.43-5.15,2.26-8.05,2.18-1.23,0-2.63-.58-3.85,1,1.52.69,2.74-.36,4-.17.64.1,1.63-.33,1.76.64.1.78-.8,1.27-1.43,1.35a21.38,21.38,0,0,1-8.56-.24c0-1.32,1.15-1.12,1.7-1.58s1.28-1,1.07-1.41c-1.9-3.71,1.38-1.7,2.07-1.67a12.85,12.85,0,0,0,3.94-.22c1-.28,3.42.21,1.19-2-.45-.45-.14-.85.29-1a48.94,48.94,0,0,0,5-2.54c1.08-.6,1.52-.08,1,1.09-.17.35-.63.68-.14,1.26,1.72-.87,1.69-3.43,3.65-3.94,1.79-.46,3.72-.12,5.46-1,3.22-1.54,6.6-.87,9.82-.22,4.1.83,7.94,1.56,12.1-.21a12,12,0,0,1,9.06,0c.54.21,1.3.32.86,1.26-.24.52,0,1,.54.66,2.33-1.34,1.86.19,1.06,2.39,1.88-2.05,3.19-3.31,5.15-3,1.1.17,2.51.62.9,1.92-1.35,1.09-.62,2.87-2,3.94,1.88.84,4.34-.46,5.35,2.3l-4,.3c3.61-.49,3,4.46,6.75,4.37-2,1.34-2.91,3.51-5.15,1.67a.7.7,0,0,0-1.12.23c-.29.45,0,.86.26,1.19,1,1.08,2.39,1.51,3.61,2.21.67.39,1.58.87,1.1,1.82a1.28,1.28,0,0,1-2.08.19c-1.82-2.17-2.54-.26-3.71,1,2,.62,3.87-.22,6.19.26-2.14,1.27-3.3,3.05-5.86,3.09-1.63,0-3.13,1.87-5.06.6-.15-.1-.85.33-1.07.66a9.84,9.84,0,0,1-8.27,4.9c-1.53.07-4.28,0-2.58,3.11-2.91,2.18-2.57,6.52-5.71,8.54a2,2,0,0,1-.91.45,2,2,0,0,1-.93-.45c-3.5-2.24-7.82-3.67-8.57-8.64.48-.25,1.23-.14,1.3-.93,0-.11-.15-.35-.24-.35C265,89.58,264.69,90.08,264.34,90.55Zm-7.06-28.47c5.13,1.09,7-3.53,10.61-4.45C264,57.93,261,60.13,257.28,62.08Z"/><path class="cls-7" d="M230.26,78.92c-.16-.18-.29-.47-.49-.54-1-.32-3-.06-2.8-1.29a4,4,0,0,1,2.67-3.35,10.4,10.4,0,0,0,3.65-2.1c.9-.67,1.86-1.41,2.93,0,.68.9,1.82.36,2.74.25,1.08-.13,2.14-.64,3.31-.3-.25,1.27-1.62.83-2.08,1.78.88.27,1.87.09,2.28,1.48.48,1.6,2.7.71,3.86,1.79.85.8,2.53.81,2.46,2.43s-1.38,1.26-2.37,1.57-.89,1.14,0,1.45c2.13.78,3.88,2.37,6.19,2.84-.79,1.85-2.8,2.52-3.89,4.14-.73,1.09-1.57-.47-2.38-.79s-.79-2.56-2.18-1.53c-1.55,1.15.06,2.17.75,3.05,1,1.34.69,2.47-.37,3.5-1.39,1.35-2.36-.64-3.76-.52-.3.77.51,1.39.51,2.09-.21.13-.37.3-.5.28-1.35-.19-2.36-1.36-4-1-.95.21-1.29-1.07-1.33-2-.09-2.49-1.4-2.51-3.2-1.66a7.14,7.14,0,0,1-1,.43,2.08,2.08,0,0,1-2.24-.37c-.69-.72-.11-1.31.35-1.84s1-1.6,2.13-1.07c1.49.69,3.45,2.7,3.35-1.2,0-.21.86-.49,1.34-.67,3.09-1.18,3.35-1.94,1.62-4.88-.4-.69-.79-1.38-1.24-2-.25-.36-.82-.81-1.07-.38-1.62,2.79-3.52.53-5.29.36Zm3.41-5.1c.58-.28,1.18-.53,1.33-1.33-.95-.09-1.31.44-1.75.85-.36.17-.94.45-.69.8C233,74.71,233.31,74,233.67,73.82Z"/><path class="cls-7" d="M340.35,121.24a1.61,1.61,0,0,1,.42-1.49c.68-.94,1.29-1.5-.45-2.2-1.16-.46-1.5-2,.06-2.8.7-.38,1.62-.46,1.47-1.53-.12-.88-.93-1.18-1.55-1.69-2.31-1.88-5.18-3.32-5.48-6.86-.08-.94,0-1.53.9-1.92.66-.29,1.39-.7,2-.18.81.7-.55,1.12-.39,1.81.68.4,1.36.05,2.05,0,1.26-.12,2,.33,1.37,1.65s0,1.39.85,2.15c2.38,2.23,4.47,4.77,7,6.84,1.24,1,1,4.53-.34,4.7-1.53.18-2.83.91-4.3,1.13C342.77,121,341.56,121.1,340.35,121.24Z"/><path class="cls-7" d="M304.81,89.52c.35-.34,2,.1,1.56-.9-.76-1.93-2.06.64-3.23-.12.8-1.87,1.7-3.22,3.84-1.33.35.31,1,.56,1.2.26,1.23-2.26,3.51-.82,5.22-1.39,1.21-.41,3,.74,4.48,1.4.75.34.29,1.2,0,1.63-1.37,1.82-2.72,3.79-5.44,3.52S306.5,92.73,304.81,89.52Z"/><path class="cls-7" d="M333.15,115c0-.18,0-.32-.05-.33-2.73-.87-.76-2.12-.56-3.51s.79-1.68,1.49-1.21c1.16.77,3.56-.29,3.49,2.25,0,.49-.52.85-.38,1.47.68,3,0,3.89-3,4.48a2,2,0,0,1-2.08-.84c-.55-.67,0-1.12.41-1.58Z"/><path class="cls-7" d="M327.73,66.34c-4-.66-6.93-3.84-11.08-4.61,4.15-3.26,4.25-3.25,7.26,1C324.94,64.2,326.78,64.73,327.73,66.34Z"/><path class="cls-7" d="M222.24,70.39c-1.2-.25-.94-1.11-.67-1.82.82-2.17,5.36-2.67,7-.82l0,0c-1.85,1.61-4.41,1.51-6.44,2.7Z"/><path class="cls-7" d="M228.61,67.75a11.07,11.07,0,0,1,4.64-1.52c.11,1.4-2.38,1.46-1.41,3.11-.55-2.23-2-.29-2.94-.68-.19-.08-.18-.62-.26-.95Z"/><path class="cls-7" d="M237.52,82.58c-.66.53-1.13.93-1.61,1.3s-.95,1.16-1.81.78a1,1,0,0,1-.49-1.13,1.7,1.7,0,0,1,1.65-1.47A2.82,2.82,0,0,1,237.52,82.58Z"/><path class="cls-7" d="M220.09,92.76c.19.8,2.79-.77,1.45,1.45-.37.62-1.09,1.55-1.84,1-1.07-.81.66-1.55.41-2.47Z"/></svg>