<svg id="Layer_1" data-name="Layer 1" xmlns="http://www.w3.org/2000/svg" viewBox="0 0 566.93 566.93"><defs><style>.cls-1{fill:#f4d342;}.cls-2{fill:#f4ddc9;}.cls-3{fill:#9ab5c9;}.cls-4{fill:#ef4a4c;}.cls-5{font-size:15.85px;fill:#fff;font-family:DINPro-Black, DINPro;}</style></defs><title>Untitled-1</title><polygon class="cls-1" points="159.92 416.03 364.92 402.68 400.55 470.7 184.91 502.63 159.92 416.03"/><path class="cls-2" d="M262.13,179.78a15.06,15.06,0,0,1,3.39-.8c1.8-.27,3.23-.49,3.88-1.8,1.22-2.44,3.34-4.08,5.4-4.15,1,0,1.26-.27,1.28-.33s-.05-.25-.77-.64c-.55-.3-1.28-.78-1.22-1.47s.66-1.08,2-1.54a2.43,2.43,0,0,0,.42-.18,6.18,6.18,0,0,0-.69-.41,6.29,6.29,0,0,1-.94-.58c-.14-.11-.45-.36-.35-.72s.48-.41,1-.45a3.44,3.44,0,0,0,1.65-.47,15.56,15.56,0,0,0-4.57-1.35l-.52-.1.21-.49c.63-1.42.36-1.9.33-1.95s-.06-.05-.08-.05a40.51,40.51,0,0,0-8.93,6.58c-1.11,1.24-3.23,2.05-6.45,3.29a92.3,92.3,0,0,0-17.72,8.69c-18.3,11.58-28.23,21.66-26.57,27a7.45,7.45,0,0,0,4.51,4.66c3.78,1.6,9.1,1.29,11.7,0,1.95-1,10.14-9.59,17.36-17.18C255.24,186,260.7,180.35,262.13,179.78Z"/><path class="cls-2" d="M284.83,416.87c.24,1.61.91,6.79-.1,9.19a13.62,13.62,0,0,0,2.12,13,40.38,40.38,0,0,1,3.46,5.19c1.84,3.11,3.58,6,6.59,7.29,3.67,1.52,9.06,1.8,10.12.53.09-.11.35-.42-.13-1.18a27.31,27.31,0,0,0-1.8-2.38c-2-2.45-4.26-5.23-5-10.6-.85-6.31-1.19-18.66-1.25-21.06Z"/><path class="cls-1" d="M239,180.16a93,93,0,0,1,17.87-8.76c3-1.15,5.15-2,6.13-3.07,2.42-2.69,8.76-6.86,9.55-6.86a.91.91,0,0,1,.59.22v-2.49a1.41,1.41,0,0,1,1.41-1.41h7.05a1.41,1.41,0,0,1,1.41,1.41v1.62a26.62,26.62,0,0,1,4.06,3.53,17.43,17.43,0,0,1,1,1.46,17.87,17.87,0,0,0,5.07,5.8l1.77,1.13c25.77,16.38,40.72,27,44.55,31.67-5.08-15.72-16-45.7-22.44-55.31-6.63-9.94-25.36-11.18-26.69-11.26-10.14,3.2-23.89-1.64-25.39-2.19-1.76.38-22.6,4.93-26.9,10.67-4.15,5.54-17.66,34.54-23.81,54.35C219.47,193.08,232.36,184.34,239,180.16Z"/><path class="cls-3" d="M296.1,262.94c-4.93,2.76-8.39,4.36-8.92,4.6a293.8,293.8,0,0,1-22.46,21.1c.94,3.29,12.18,43.12,11.19,59.79-1,17.18,1.28,58.12,6.46,67.61h19c.06-5.16.65-56.29,1.66-66.41,1-9.88,5.42-75.12,5.34-90.68C303.55,260.21,298.61,261.53,296.1,262.94Z"/><path class="cls-2" d="M289.39,137.23a10.32,10.32,0,0,1-2.85-7.75,10.3,10.3,0,0,1-4.09.81H282a16.05,16.05,0,0,1-8.07-2.72c-.31,1.59-1.35,5.66-4,7.53a5.22,5.22,0,0,1-1.64.77C273.06,137.22,282.18,139.23,289.39,137.23Z"/><path class="cls-2" d="M288.87,126.88c4.81-5,5.34-13.23,5.34-13.32l0-.38h.39a2.68,2.68,0,0,0,1.7-.84,4,4,0,0,0,.84-2.79c-6.14-2.93-15.92-16.32-15.92-16.32s-7.9,9.53-11.56,12.88a8.65,8.65,0,0,1-4.33,2.51,4.84,4.84,0,0,0,.67,3.23,1.86,1.86,0,0,0,1.46.64h.42v.42c0,.07,0,7,3.68,11.49A15.31,15.31,0,0,0,282,129.44,8.71,8.71,0,0,0,288.87,126.88ZM288,106.59c.58,0,1.06,1.18,1.06,2.64s-.47,2.64-1.06,2.64-1.06-1.18-1.06-2.64S287.42,106.59,288,106.59Zm-12.41,5.29c-.58,0-1.06-1.18-1.06-2.64s.47-2.64,1.06-2.64,1.06,1.18,1.06,2.64S276.17,111.87,275.59,111.87Z"/><path class="cls-2" d="M294.4,173.46l-1.78-1.13a18.59,18.59,0,0,1-5.33-6.06c-.36-.57-.66-1.06-.92-1.39a22.65,22.65,0,0,0-3.4-3v13a26.68,26.68,0,0,0,4.41,3c.63.29,3.5,3.34,9.41,9.64,10.89,11.62,31.17,33.26,35.37,33.31,2.23,0,4.38-1.28,6-3.68,2.2-3.33,2.76-7.9,1.34-11.14C338.39,203.55,329.7,195.9,294.4,173.46Z"/><path class="cls-1" d="M287,178.66a24.86,24.86,0,0,1-4.17-2.81,1.41,1.41,0,0,1-1.3.86h-7.05a1.41,1.41,0,0,1-1.41-1.41v-.92a7.2,7.2,0,0,0-2.95,3.18c-.85,1.7-2.63,2-4.51,2.26a14.2,14.2,0,0,0-3.2.74c-1.36.55-8.51,8.06-15.42,15.32-2.42,2.55-4.8,5-7,7.33l.54,9.09H311v-8.63c-4.68-4.8-9.74-10.16-14.81-15.57C291.57,183.19,287.6,178.95,287,178.66Z"/><path class="cls-2" d="M298.66,245.7c-5.28-1-7.47-1.37-10.68-.78a2.55,2.55,0,0,0-2.4,2.83h0l1.68,18.82c1.18-.56,4.26-2,8.39-4.35,2.65-1.48,7.75-2.83,12.69-4.13s10.33-2.73,12-4.09c.65-.52.94-1,.86-1.51-.21-1.25-2.62-2.34-3.53-2.66-.7-.3-4.35-1.15-8.55-2v.07l-.84,0v-.29c-3-.62-6.08-1.24-8.6-1.69Z"/><path class="cls-3" d="M217.57,258.15c-7.23,13.41-16.09,38.65-9.09,49.29,2.46,3.73,6.7,5.36,12.6,4.84C245.41,310.14,284,269.72,286.5,267l-1.61-17.92c-4.68,2.66-36.62,20.82-41.46,23.21-.69.34-1.53.73-2.45,1.17-6.07,2.85-16.24,7.61-18.91,13.61l-.77-.34c2.8-6.28,13.14-11.13,19.32-14,.92-.43,1.75-.82,2.44-1.16,5-2.44,38.45-21.5,41.73-23.37a3.87,3.87,0,0,1,.49-2.58,3.64,3.64,0,0,1,2.56-1.54c3.36-.61,5.59-.2,11,.78l1.07.2c2.32.42,5.42,1,8.41,1.65L307,219.3l-1.32,0h0l-64.28-.82C240,220.58,227.53,239.67,217.57,258.15Z"/><path class="cls-2" d="M245.35,213.14c0,1-.16,3.31-1,4.52l60,.76c-.87-1.35-1.23-4-1.36-5.28Z"/><path d="M341.08,206.92c-3.48-11.16-16-47.18-23.42-58.29-6.84-10.26-25.31-11.52-27.28-11.63a9.56,9.56,0,0,1-3-8,8.9,8.9,0,0,0,2.06-1.59c4.5-4.69,5.4-11.83,5.55-13.5a3.51,3.51,0,0,0,1.9-1,4.56,4.56,0,0,0,1.06-3,4.38,4.38,0,0,0,1,.22s4.76-18.06.56-24a20.86,20.86,0,0,0-4.22-4.41,11.07,11.07,0,1,0-20.07-5c-1.13.08-2.29.18-3.51.35-15.23,2.1-7.88,31.43-7.88,31.43a1.61,1.61,0,0,0,.64.21,5.51,5.51,0,0,0,.87,3.76,2.6,2.6,0,0,0,1.68.9c0,1.59.44,7.53,3.87,11.64a13.53,13.53,0,0,0,2.26,2.13c-.19,1.1-1.12,5.52-3.74,7.36a4.49,4.49,0,0,1-3.62.69l-.77-.27-.11,0-.12,0c-.93.19-22.86,4.79-27.52,11-4.47,6-19.68,38.84-25.1,58.57h0a6,6,0,0,0-.18,3.7,8.36,8.36,0,0,0,5,5.18,16.28,16.28,0,0,0,6.26,1.17,14.54,14.54,0,0,0,6.15-1.19c1.37-.69,5.12-4.37,9.8-9.21l.54,9.11h4.74c0,1.22-.24,3.51-1,4.27a.62.62,0,0,1-.45.21v0l-1.92,0h-.23l-.13.19c-.13.2-13.43,20.4-24,39.94-7.61,14.12-16.3,39.13-9,50.15,2.32,3.53,6.09,5.31,11.22,5.31q1,0,2.16-.1C234,312,250.64,300.43,264,289.23c1.46,5.14,12,43.08,11.06,59.15-1,17.17,1.16,58.75,6.69,68.29l.12.21H284c.21,1.39.92,6.62,0,8.87a14.52,14.52,0,0,0,2.24,13.87,39.61,39.61,0,0,1,3.38,5.09c1.92,3.23,3.73,6.29,7,7.64a20,20,0,0,0,7.12,1.39c1.82,0,3.33-.34,4-1.1a1.7,1.7,0,0,0-.07-2.17,27.85,27.85,0,0,0-1.86-2.45c-1.93-2.37-4.11-5-4.8-10.18-.84-6.26-1.18-18.51-1.25-20.95h2.51v-.42c0-.56.6-56.18,1.66-66.75,1-9.94,5.47-75.79,5.34-91,5.17-1.37,10-2.67,11.74-4.08a2.45,2.45,0,0,0,1.16-2.31c-.33-2-3.7-3.18-4.06-3.3-.77-.34-4.63-1.22-8.9-2.12l-1.37-28.44-2.11,0c-.75,0-1.49-2.67-1.77-5.3h7.93v-8.61c9.64,9.84,17.54,17.12,20.33,17.15h.07c2.53,0,4.87-1.44,6.6-4.05A13.46,13.46,0,0,0,340.72,207Zm-69.51-82.55c-3.7-4.44-3.68-11.42-3.68-11.49v-.42h-.42a1.86,1.86,0,0,1-1.46-.64,4.84,4.84,0,0,1-.67-3.23,8.65,8.65,0,0,0,4.33-2.51c3.66-3.36,11.56-12.88,11.56-12.88s9.78,13.39,15.92,16.32a4,4,0,0,1-.84,2.79,2.68,2.68,0,0,1-1.7.84h-.39l0,.38c0,.08-.54,8.3-5.34,13.32a8.71,8.71,0,0,1-6.82,2.56A15.31,15.31,0,0,1,271.57,124.38Zm-1.64,10.71c2.66-1.87,3.7-5.94,4-7.53a16.05,16.05,0,0,0,8.07,2.72h.44a10.3,10.3,0,0,0,4.09-.81,10.32,10.32,0,0,0,2.85,7.75c-7.22,2-16.34,0-21.1-1.37A5.22,5.22,0,0,0,269.94,135.09Zm-32,11.23c4.3-5.74,25.14-10.29,26.9-10.67,1.51.55,15.25,5.39,25.39,2.19,1.33.08,20.06,1.31,26.69,11.26,6.41,9.62,17.35,39.59,22.44,55.31-3.83-4.66-18.79-15.29-44.55-31.67l-1.77-1.13a17.87,17.87,0,0,1-5.07-5.8,17.43,17.43,0,0,0-1-1.46,26.62,26.62,0,0,0-4.06-3.53v-1.62a1.41,1.41,0,0,0-1.41-1.41h-7.05a1.41,1.41,0,0,0-1.41,1.41v2.49a.91.91,0,0,0-.59-.22c-.79,0-7.14,4.17-9.55,6.86-1,1.09-3.13,1.92-6.13,3.07A93,93,0,0,0,239,180.16c-6.6,4.18-19.49,12.92-24.78,20.51C220.32,180.87,233.83,151.86,238,146.32Zm-8.93,66.16c-2.6,1.3-7.92,1.61-11.7,0a7.45,7.45,0,0,1-4.51-4.66c-1.66-5.3,8.27-15.38,26.57-27a92.3,92.3,0,0,1,17.72-8.69c3.22-1.24,5.34-2.05,6.45-3.29a40.51,40.51,0,0,1,8.93-6.58s0,0,.08.05.3.53-.33,1.95l-.21.49.52.1a15.56,15.56,0,0,1,4.57,1.35,3.44,3.44,0,0,1-1.65.47c-.48,0-.85.09-1,.45s.21.61.35.72a6.29,6.29,0,0,0,.94.58,6.18,6.18,0,0,1,.69.41,2.43,2.43,0,0,1-.42.18c-1.32.46-1.94.93-2,1.54s.67,1.17,1.22,1.47c.72.39.76.64.77.64s-.32.29-1.28.33c-2.06.08-4.18,1.71-5.4,4.15-.66,1.31-2.08,1.53-3.88,1.8a15.06,15.06,0,0,0-3.39.8c-1.43.57-6.89,6.25-15.71,15.53C239.19,202.9,231,211.51,229.06,212.49Zm71,225.44c.72,5.37,3,8.15,5,10.6a27.31,27.31,0,0,1,1.8,2.38c.49.75.22,1.07.13,1.18-1.06,1.27-6.45,1-10.12-.53-3-1.24-4.75-4.18-6.59-7.29a40.38,40.38,0,0,0-3.46-5.19,13.62,13.62,0,0,1-2.12-13c1-2.41.35-7.58.1-9.19h14C298.9,419.27,299.25,431.62,300.1,437.93ZM303,349.62c-1,10.12-1.6,61.25-1.66,66.41h-19c-5.18-9.49-7.48-50.42-6.46-67.61,1-16.67-10.25-56.49-11.19-59.79a293.8,293.8,0,0,0,22.46-21.1c.53-.24,4-1.85,8.92-4.6,2.51-1.4,7.45-2.72,12.26-4C308.44,274.5,304,339.74,303,349.62Zm5.34-101.73.84,0v-.07c4.2.89,7.85,1.73,8.55,2,.91.32,3.32,1.41,3.53,2.66.08.49-.21,1-.86,1.51-1.71,1.36-7,2.75-12,4.09s-10,2.65-12.69,4.13c-4.13,2.31-7.21,3.8-8.39,4.35l-1.68-18.82h0a2.55,2.55,0,0,1,2.4-2.83c3.21-.58,5.4-.18,10.68.78l1.07.2c2.52.46,5.65,1.08,8.6,1.69Zm-2.7-28.61h0l1.32,0,1.32,27.43c-3-.62-6.09-1.23-8.41-1.65l-1.07-.2c-5.38-1-7.61-1.39-11-.78a3.64,3.64,0,0,0-2.56,1.54,3.87,3.87,0,0,0-.49,2.58c-3.27,1.86-36.78,20.92-41.73,23.37-.69.34-1.52.73-2.44,1.16-6.18,2.9-16.52,7.75-19.32,14l.77.34c2.67-6,12.84-10.76,18.91-13.61.93-.43,1.76-.82,2.45-1.17,4.84-2.39,36.78-20.55,41.46-23.21L286.5,267c-2.53,2.68-41.09,43.1-65.41,45.24-5.91.52-10.15-1.11-12.6-4.84-7-10.64,1.86-35.88,9.09-49.29,10-18.48,22.41-37.57,23.8-39.68Zm-1.24-.86-60-.76c.81-1.21.94-3.54,1-4.52h57.7C303.18,214.47,303.54,217.07,304.41,218.42ZM311,212.3H240.56l-.54-9.09c2.2-2.28,4.58-4.78,7-7.33,6.91-7.27,14.05-14.78,15.42-15.32a14.2,14.2,0,0,1,3.2-.74c1.88-.29,3.66-.56,4.51-2.26a7.2,7.2,0,0,1,2.95-3.18v.92a1.41,1.41,0,0,0,1.41,1.41h7.05a1.41,1.41,0,0,0,1.3-.86,24.86,24.86,0,0,0,4.17,2.81c.56.29,4.54,4.54,9.15,9.45,5.06,5.4,10.12,10.76,14.81,15.57Zm27.14,4.86c-1.59,2.4-3.74,3.71-6,3.68-4.2,0-24.48-21.68-35.37-33.31-5.91-6.3-8.78-9.35-9.41-9.64a26.68,26.68,0,0,1-4.41-3v-13a22.65,22.65,0,0,1,3.4,3c.26.32.56.82.92,1.39a18.59,18.59,0,0,0,5.33,6.06l1.78,1.13c35.3,22.43,44,30.09,45.08,32.57C340.89,209.26,340.33,213.84,338.13,217.17Z"/><ellipse cx="275.59" cy="109.23" rx="1.06" ry="2.64"/><ellipse cx="288" cy="109.23" rx="1.06" ry="2.64"/><path class="cls-4" d="M220.77,86h23.95a6.59,6.59,0,0,1,6.59,6.59v23.95a6.59,6.59,0,0,1-6.59,6.59h0v9.37l-9.37-9.37H220.77a6.59,6.59,0,0,1-6.59-6.59V92.57A6.59,6.59,0,0,1,220.77,86Z"/><text class="cls-5" transform="translate(225.58 109.23)">!?</text></svg>