<svg id="Layer_1" data-name="Layer 1" xmlns="http://www.w3.org/2000/svg" xmlns:xlink="http://www.w3.org/1999/xlink" viewBox="0 0 566.93 566.93"><defs><style>.cls-1,.cls-25{fill:none;}.cls-2{opacity:0.35;}.cls-3{clip-path:url(#clip-path);}.cls-4{fill:#ff7900;}.cls-5{fill:#cbe4ef;}.cls-6{fill:#e6f9ff;}.cls-7{fill:#f3dcca;}.cls-8{fill:#f5d346;}.cls-9{fill:#80a3b6;}.cls-10{clip-path:url(#clip-path-2);}.cls-11{fill:#f1f6fa;}.cls-12{fill:#68b7a4;}.cls-13{fill:#fff;}.cls-14{fill:#272c2f;}.cls-15{fill:#208c96;}.cls-16{fill:#57342a;}.cls-17{fill:#de6a3e;}.cls-18{fill:#f8d1c2;}.cls-19{fill:#9ab6cb;}.cls-20{fill:#34414a;}.cls-21{fill:#c13f25;}.cls-22{fill:#ffa350;}.cls-23{fill:#c55b44;}.cls-24{fill:#aeb3b9;}.cls-25{stroke:#fff;stroke-miterlimit:10;}</style><clipPath id="clip-path"><rect class="cls-1" y="587.19" width="130.57" height="566.93"/></clipPath><clipPath id="clip-path-2"><path class="cls-1" d="M448.17,189.82S485.11,178.6,496,217.25c10.41,37-3.55,80.15-25.49,88.3s-91-7-113.24,4.86-26.21,44.91-55.21,48.46-50.5-12.37-66-14.57-57,8.5-98.2,15.09-67.68-41.57-57.35-68,37-16.34,15.24-31.43c-65.15-45.14,28.9-58.17,60.76-81.12,29.76-21.43,74-22.26,98.85-5.81s45.17,39.52,66.46,29.92,58.79-38.47,90.33-24.12S448.17,189.82,448.17,189.82Z"/></clipPath></defs><title>gambar</title><g class="cls-2"><g class="cls-3"><path class="cls-4" d="M9.87,698.68l-1.52-.27A70.6,70.6,0,0,1-27.8,680.08a70.2,70.2,0,0,1-20.35-36.23A70.6,70.6,0,0,1,59.09,569.56,70.14,70.14,0,0,1,89.86,614a70.82,70.82,0,0,1,1.55,17.89l0,.34a12.3,12.3,0,0,1-.86,3.82l-.42,1.06-1-.56a53.93,53.93,0,0,0-21.42-6.68l-.91-.09v-.91a45.93,45.93,0,0,0-75.5-35.1A45.93,45.93,0,0,0,8.12,673l.87.25-.17.89a54,54,0,0,0,.68,23ZM21,560.28A68.7,68.7,0,0,0-46.2,643.42a68.4,68.4,0,0,0,53.4,52.72,55.9,55.9,0,0,1-.51-21.44,47.94,47.94,0,1,1,62.08-46.77A55.85,55.85,0,0,1,89,634.2a10.23,10.23,0,0,0,.35-2.11l0-.31a68.82,68.82,0,0,0-1.51-17.38A68.15,68.15,0,0,0,58,571.24,68.14,68.14,0,0,0,21,560.28Z"/></g></g><path class="cls-5" d="M455.56,269.86c-26.93-10.26-48.56-38.92-66-34.5s-22.44,3.61-19.36,19.54-30.49,4.41-44,2.72-16.7,16-37.31,31.22-34.07,9.67-71.38-31.22-57.78-22.74-57.78-22.74c-3.15,1-8.07,4.92-13.31,9.81a114.36,114.36,0,0,1,2.52,18.69c.71,26.49-58.13,1.25-68.46,27.67s16.13,74.56,57.35,68,82.66-17.29,98.2-15.09,37,18.12,66,14.57,33-36.57,55.21-48.46,91.3,3.29,113.24-4.86c11-4.07,19.94-16.9,24.87-33.34C488.8,274.19,474.68,277.15,455.56,269.86Z"/><path class="cls-5" d="M256,270.05c26.61,14.91,61.7-1.06,61-22.12s16.45-26.12,41.62-33.38,58.31,17.18,85.66,33.38c14.91,8.84,37,10.92,54,11a100.22,100.22,0,0,0-2.3-42c-10.89-38.65-47.83-27.44-47.83-27.44s-4.52,3.39-36.06-11-69,14.52-90.33,24.12-41.62-13.47-66.46-29.92-71.3-18.39-98.85,5.81c-14.93,13.11-16.1,29.15-13.93,45.32a76.52,76.52,0,0,1,25.4-6.66C200.36,213.93,229.4,255.15,256,270.05Z"/><path class="cls-6" d="M444.26,247.93c-27.34-16.2-60.49-40.64-85.66-33.38S316.26,226.87,317,247.93s-34.37,37-61,22.12-55.65-56.13-88.08-52.91a76.52,76.52,0,0,0-25.4,6.66c.94,7,2.51,14.05,3.86,20.88,5.24-4.88,10.15-8.81,13.31-9.81,0,0,20.47-18.15,57.78,22.74s50.77,46.47,71.38,31.22,23.76-32.91,37.31-31.22,47.12,13.21,44-2.72,1.94-15.12,19.36-19.54,39,24.24,66,34.5c19.12,7.29,33.24,4.32,39.83,2a96.7,96.7,0,0,0,2.91-12.94C481.28,258.85,459.17,256.77,444.26,247.93Z"/><path class="cls-1" d="M138.25,254.91l-.36.66h0l.79-.45Z"/><ellipse class="cls-1" cx="182.28" cy="201.81" rx="0.69" ry="2.26"/><path class="cls-1" d="M128.33,260.6l-.48.58.1.08.71-.4Z"/><ellipse class="cls-1" cx="177.06" cy="202.5" rx="0.69" ry="2.26"/><path class="cls-1" d="M235.95,386.65l.12-.18-.1-.19c-.11-.21-11.22-21.49-16-36-3.46-10.38-2.87-22.81,1.76-36.93,2.2-6.71,7.36-25,7.86-26.71a13.46,13.46,0,0,0,2.06-1.53c.21-.14,5.19-3.59-1.22-22.85h0a35.45,35.45,0,0,0-1-7.13c-.64-2.57-1.27-5.32-1.87-8-2.43-10.7-4.95-21.77-9.4-26.15s-13.14-4.57-17.75-4.62c-1.07,0-1.91,0-2.42-.08-1.45-.17-2.12-4.28-2.3-7.81,2.47-1.41,2.92-3,3.91-6.74.15-.58.32-1.21.52-1.91,1.48-5.34-1-15.18-6-18.61-4.52-3.15-13.13-1.67-19.2,1a10.42,10.42,0,0,0-5.53,9.87,5.24,5.24,0,0,0,4.39,4.7c0,3.56.36,17.2,6.58,20.53a6.19,6.19,0,0,0,3,.73,8.72,8.72,0,0,0,2.65-.45c.39.87,1.4,3.53,0,4.73a10.39,10.39,0,0,1-1.24.83c-2.25,1.37-5.66,3.43-10.88,13.7-3.89,7.64-10.42,17.34-19.48,20.16-4.95,1.55-10.21.88-15.63-1.94l-.79.45A23.28,23.28,0,0,0,149,258.63a18.63,18.63,0,0,0,5.58-.85c9.31-2.91,16-12.77,19.92-20.54,5.12-10.07,8.42-12.07,10.6-13.4a11,11,0,0,0,1.33-.89c1.82-1.52.74-4.51.27-5.56a18.73,18.73,0,0,0,4-2.23l-.44-.61c-3.86,2.75-7.06,3.48-9.52,2.16-5.71-3-6.17-16.1-6.18-19.73,3.9.56,7.78-.64,10.93-1.63,2.5-.78,4.66-1.46,5.41-.67,1.84,1.93,1.59,7.51,1.59,7.57l-.11,2.32.84-2.17c.73-1.88,2.16-4.39,3.1-4,.36.13.67.7.82,1.53a7.84,7.84,0,0,1-1.85,6.45h-.39c0,1.06,0,10.38,3,10.74.55.07,1.41.08,2.5.09,4.51.05,12.9.15,17.23,4.41s6.79,15.19,9.2,25.78c.61,2.67,1.23,5.43,1.87,8,3,12.1-.6,32.38-15.16,39.27a19.57,19.57,0,0,1-8.19-4.2c1.64-2.24,9.82-13.55,11.55-19,1.9-6-5.43-28.29-5.75-29.23l-.72.24c.08.23,7.57,23,5.74,28.77-1.48,4.68-8,14.08-10.64,17.71-18.1-.24-28-6.64-28-6.66-2.3-2.2,3.36-24.63,7.73-39.17l-.72-.22c-.55,1.82-3.13,10.53-5.25,19.37-24.69,17.42-47.67,1-50.61-1.32l-.71.4c1.11.89,12.39,9.58,27.58,9.58A41.1,41.1,0,0,0,179,263.26c-2.12,9-3.66,17.89-2,19.51a25.91,25.91,0,0,0,3,1.61c-1.95,5-26.4,68.07-29.19,78.87-2.89,11.18-5.44,22.5-5.46,22.61l-.06.26.23.14a14,14,0,0,0,1.28.66l-2.9,8.62c-3.39-.69-21.86-4.28-24.52-1.06a1,1,0,0,0-.19,1c1.18,3.78,28,11.45,31,12.31l.36.1,5.83-19.19a15.19,15.19,0,0,0,1.85-.3l.19,0,.07-.18c.13-.32,13.06-32.12,33.87-59.3,1,5.76,2.08,11.68,3.26,17.24,4.8,22.52,29.62,45.54,29.87,45.78l.09.08h.12a9.45,9.45,0,0,0,1,.05,9.24,9.24,0,0,0,1-.05l5.14,7c-2.24,2.78-11,13.92-9.75,16.26a1,1,0,0,0,1,.52h.22c4.69-.48,19.19-14.39,19.81-15l.25-.24-9.93-12.06A12.51,12.51,0,0,0,235.95,386.65Z"/><ellipse class="cls-1" cx="177.06" cy="202.5" rx="0.69" ry="2.26"/><ellipse class="cls-1" cx="182.28" cy="201.81" rx="0.69" ry="2.26"/><path class="cls-7" d="M200.95,217.14h-.58c-1.09,0-1.95,0-2.5-.09-3-.36-3-9.67-3-10.74h.39a7.84,7.84,0,0,0,1.85-6.45c-.15-.83-.46-1.4-.82-1.53-.94-.34-2.37,2.17-3.1,4l-.84,2.17.11-2.32c0-.06.25-5.64-1.59-7.57-.75-.79-2.91-.11-5.41.67-3.14,1-7,2.19-10.93,1.63,0,3.63.47,16.68,6.18,19.73,2.46,1.31,5.66.59,9.52-2.16l.44.61a18.73,18.73,0,0,1-4,2.23c.46,1.06,1.55,4-.27,5.56a7.55,7.55,0,0,1-.77.54C189.09,224,194.86,223.51,200.95,217.14Zm-23.89-12.38c-.38,0-.69-1-.69-2.26s.31-2.26.69-2.26.69,1,.69,2.26S177.44,204.76,177.06,204.76Zm5.22-.69c-.38,0-.69-1-.69-2.26s.31-2.26.69-2.26.69,1,.69,2.26S182.66,204.07,182.28,204.07Z"/><path class="cls-1" d="M210.41,242.36c0,.11,1.75,5.32,3.35,11.38l.76-.1c-1.56-5.95-3.25-11.08-3.4-11.52Z"/><path class="cls-7" d="M216.87,271.36c-1.73,5.48-9.9,16.79-11.55,19a19.57,19.57,0,0,0,8.19,4.2c14.56-6.88,18.17-27.17,15.16-39.27-.52-2.08-1-4.28-1.52-6.46a30,30,0,0,1-12.63,4.78C216.29,260.38,217.88,268.16,216.87,271.36Z"/><path class="cls-1" d="M184.51,242.79c-.55,1.82-3.13,10.53-5.25,19.37-1.12.79-2.24,1.49-3.35,2.15a26.81,26.81,0,0,0,3.25,1.61c1.66-7.42,4-16,6.07-22.91Z"/><path class="cls-8" d="M210.41,242.36l.72-.24c.15.44,1.84,5.58,3.4,11.52a30,30,0,0,0,12.63-4.78l-.35-1.54c-2.41-10.6-4.9-21.56-9.2-25.78s-12-4.34-16.65-4.4c-6.09,6.37-11.85,6.87-15.32,6.34l-.56.35c-2.18,1.32-5.47,3.32-10.6,13.4-2.65,5.21-6.53,11.35-11.6,15.72,3.11,3.6,7.78,8.33,13,11.36,1.11-.66,2.23-1.36,3.35-2.15,2.12-8.85,4.7-17.56,5.25-19.37l.72.22c-2.06,6.87-4.41,15.49-6.07,22.91-1.86,8.3-2.87,15.1-1.65,16.26,0,0,9.91,6.43,28,6.66,2.61-3.63,9.16-13,10.64-17.71,1-3-.64-10.72-2.4-17.39C212.16,247.69,210.45,242.47,210.41,242.36Z"/><path class="cls-7" d="M162.87,253a23.71,23.71,0,0,1-8.33,4.82,18.63,18.63,0,0,1-5.58.85,23.28,23.28,0,0,1-11.07-3.06l-9.24,5.28c2.81,2.17,23.87,17.24,47.26,3.47C170.65,261.28,166,256.56,162.87,253Z"/><path class="cls-9" d="M439.9,177.61s-7.26,13.4,9,20.49,49.52,6.73,53.88,25.54,13.55-3.6,2.58-19.57S448.13,164.55,439.9,177.61Z"/><circle class="cls-9" cx="428.41" cy="175.06" r="6.46"/><circle class="cls-9" cx="231.3" cy="164.45" r="10.61"/><circle class="cls-9" cx="210.41" cy="158.21" r="6.24"/><path class="cls-9" d="M71.8,296.34c0,1.12-3.23,24.67,11.29,40.32s19.36,2.46,14.84-5.63-18.31-17.91-19-34.7S72,285.93,71.8,296.34Z"/><circle class="cls-9" cx="104.97" cy="351.69" r="3.93"/><g class="cls-10"><polygon points="96.29 247.67 131.22 228.08 156.09 243.15 156.09 245.31 121.71 264.8 96.29 249.83 96.29 247.67"/><polygon points="131.22 228.08 131.51 198.1 130.13 198.1 95.91 217.42 96.29 247.67 131.22 228.08"/><polygon class="cls-11" points="99.36 219.2 99.36 243.93 129.12 225.6 129.88 201.05 99.36 219.2"/><path class="cls-12" d="M235.19,386.42c-1.15-2.22-11.39-22.1-16-35.89-3.51-10.54-2.92-23.12,1.76-37.4,2-6.15,6.53-22,7.64-25.94a25.71,25.71,0,0,1-7.12,2.4,24.59,24.59,0,0,1-6.73,5.24,15.43,15.43,0,0,0,5.33-.12l.15.74a16,16,0,0,1-6.62-.05l-.05,0,0,0a20.23,20.23,0,0,1-9.42-5.07l.55-.52.09.09.22-.3a63.47,63.47,0,0,1-24.21-4.9c-2,5.26-26.38,68-29.15,78.75-2.64,10.2-5,20.53-5.4,22.32,1.12.62,6.17,3.13,11.73,1.94,1.1-2.67,14-33.54,34.32-59.85-2.88-17.08-4.71-32.51-4.73-32.72l.75-.09c0,.28,3.38,28.52,8.16,50.91,4.61,21.59,27.89,43.74,29.55,45.29C231.11,391.67,234.52,387.35,235.19,386.42Z"/><path class="cls-13" d="M147.56,387.23l-3.09,9.19-.33-.07c-6-1.24-22-3.92-24.12-1.38a.26.26,0,0,0-.05.27c.79,2.54,18.32,8.35,30.14,11.71l5.53-18.2-.8,0A19.1,19.1,0,0,1,147.56,387.23Z"/><path class="cls-1" d="M228.59,391.83l5.25,7.12-.18.23c-4.56,5.63-10.63,14.21-9.86,15.65.06.11.22.15.48.12,4.11-.42,17.13-12.65,19.11-14.53L234,388.94A11.26,11.26,0,0,1,228.59,391.83Z"/><path class="cls-8" d="M230.39,264.8c-.17,8.16-2.63,17.27-8.09,23.84,1.92-.43,6.1-1.61,8.84-4.12C231.23,284.46,235.44,281.33,230.39,264.8Z"/><path class="cls-14" d="M198.84,201.56c.15-.58.32-1.22.52-1.92,1.4-5.07-1.11-14.61-5.69-17.8-4.29-3-12.58-1.52-18.47,1.1a9.59,9.59,0,0,0-5.09,9.09,4.47,4.47,0,0,0,3.65,4V196l.75,0s0,.08,0,.19c3.77.58,7.6-.62,10.7-1.59s5.1-1.6,6.18-.47c1.37,1.43,1.72,4.43,1.8,6.36.77-1.5,2-3.34,3.33-2.87.64.23,1.11,1,1.32,2.11a8.46,8.46,0,0,1-2.22,7.28c0,.21,0,.42,0,.63C197.54,206.45,197.9,205.08,198.84,201.56Z"/><ellipse cx="177.06" cy="202.5" rx="0.69" ry="2.26"/><ellipse cx="182.28" cy="201.81" rx="0.69" ry="2.26"/><path class="cls-15" d="M235.95,386.65l.12-.18-.1-.19c-.11-.21-11.22-21.49-16-36-3.46-10.38-2.87-22.81,1.76-36.93,2.2-6.71,7.36-25,7.86-26.71a13.46,13.46,0,0,0,2.06-1.53c.21-.14,5.19-3.59-1.22-22.85h0a35.45,35.45,0,0,0-1-7.13c-.64-2.57-1.27-5.32-1.87-8-2.43-10.7-4.95-21.77-9.4-26.15s-13.14-4.57-17.75-4.62c-1.07,0-1.91,0-2.42-.08-1.45-.17-2.12-4.28-2.3-7.81,2.47-1.41,2.92-3,3.91-6.74.15-.58.32-1.21.52-1.91,1.48-5.34-1-15.18-6-18.61-4.52-3.15-13.13-1.67-19.2,1a10.42,10.42,0,0,0-5.53,9.87,5.24,5.24,0,0,0,4.39,4.7c0,3.56.36,17.2,6.58,20.53a6.19,6.19,0,0,0,3,.73,8.72,8.72,0,0,0,2.65-.45c.39.87,1.4,3.53,0,4.73a10.39,10.39,0,0,1-1.24.83c-2.25,1.37-5.66,3.43-10.88,13.7-3.89,7.64-10.42,17.34-19.48,20.16-5.08,1.59-10.48.86-16.07-2.15l-.36.66A23.28,23.28,0,0,0,149,258.63a18.63,18.63,0,0,0,5.58-.85c9.31-2.91,16-12.77,19.92-20.54,5.12-10.07,8.42-12.07,10.6-13.4a11,11,0,0,0,1.33-.89c1.82-1.52.74-4.51.27-5.56a18.73,18.73,0,0,0,4-2.23l-.44-.61c-3.86,2.75-7.06,3.48-9.52,2.16-5.71-3-6.17-16.1-6.18-19.73,3.9.56,7.78-.64,10.93-1.63,2.5-.78,4.66-1.46,5.41-.67,1.84,1.93,1.59,7.51,1.59,7.57l-.11,2.32.84-2.17c.73-1.88,2.16-4.39,3.1-4,.36.13.67.7.82,1.53a7.84,7.84,0,0,1-1.85,6.45h-.39c0,1.06,0,10.38,3,10.74.55.07,1.41.08,2.5.09,4.51.05,12.9.15,17.23,4.41s6.79,15.19,9.2,25.78c.61,2.67,1.23,5.43,1.87,8,3,12.1-.6,32.38-15.16,39.27a19.57,19.57,0,0,1-8.19-4.2c1.64-2.24,9.82-13.55,11.55-19,1.9-6-5.43-28.29-5.75-29.23l-.72.24c.08.23,7.57,23,5.74,28.77-1.48,4.68-8,14.08-10.64,17.71-18.1-.24-28-6.64-28-6.66-2.3-2.2,3.36-24.63,7.73-39.17l-.72-.22c-.55,1.82-3.13,10.53-5.25,19.37-26.32,18.56-50.69-1.37-50.93-1.57l-.48.58c.17.14,11.79,9.66,27.67,9.66A41.1,41.1,0,0,0,179,263.26c-2.12,9-3.66,17.89-2,19.51a25.91,25.91,0,0,0,3,1.61c-1.95,5-26.4,68.07-29.19,78.87-2.89,11.18-5.44,22.5-5.46,22.61l-.06.26.23.14a14,14,0,0,0,1.28.66l-2.9,8.62c-3.39-.69-21.86-4.28-24.52-1.06a1,1,0,0,0-.19,1c1.18,3.78,28,11.45,31,12.31l.36.1,5.83-19.19a15.19,15.19,0,0,0,1.85-.3l.19,0,.07-.18c.13-.32,13.06-32.12,33.87-59.3,1,5.76,2.08,11.68,3.26,17.24,4.8,22.52,29.62,45.54,29.87,45.78l.09.08h.12a9.45,9.45,0,0,0,1,.05,9.24,9.24,0,0,0,1-.05l5.14,7c-2.24,2.78-11,13.92-9.75,16.26a1,1,0,0,0,1,.52h.22c4.69-.48,19.19-14.39,19.81-15l.25-.24-9.93-12.06A12.51,12.51,0,0,0,235.95,386.65ZM195.61,207a8.46,8.46,0,0,0,2.22-7.28c-.21-1.13-.67-1.88-1.32-2.11-1.32-.46-2.56,1.38-3.33,2.87-.08-1.93-.43-4.92-1.8-6.36-1.08-1.13-3.22-.46-6.18.47s-6.93,2.16-10.7,1.59c0-.11,0-.18,0-.19l-.75,0v.06a4.47,4.47,0,0,1-3.65-4,9.59,9.59,0,0,1,5.09-9.09c5.89-2.62,14.18-4.08,18.47-1.1,4.58,3.19,7.09,12.73,5.69,17.8-.19.7-.36,1.34-.52,1.92-.93,3.52-1.3,4.89-3.21,6.08C195.62,207.43,195.61,207.22,195.61,207Zm34.78,57.79c5,16.53.84,19.66.75,19.72-2.74,2.5-6.92,3.68-8.84,4.12C227.76,282.08,230.22,273,230.39,264.8ZM150.12,406.95c-11.82-3.36-29.35-9.16-30.14-11.71A.26.26,0,0,1,120,395c2.1-2.53,18.12.14,24.12,1.38l.33.07,3.09-9.19a19.1,19.1,0,0,0,7.29,1.53l.8,0ZM226,391.23c-1.66-1.56-24.95-23.7-29.55-45.29-4.78-22.39-8.12-50.63-8.16-50.91l-.75.09c0,.21,1.86,15.64,4.73,32.72C172,354.14,159.05,385,158,387.69c-5.56,1.19-10.6-1.32-11.73-1.94.41-1.79,2.76-12.11,5.4-22.32,2.77-10.73,27.11-73.49,29.15-78.75a63.47,63.47,0,0,0,24.21,4.9l-.22.3-.09-.09-.55.52a20.23,20.23,0,0,0,9.42,5.07l0,0,.05,0a16,16,0,0,0,6.62.05l-.15-.74a15.43,15.43,0,0,1-5.33.12,24.59,24.59,0,0,0,6.73-5.24,25.71,25.71,0,0,0,7.12-2.4C227.49,291.1,223,307,221,313.13c-4.68,14.28-5.27,26.86-1.76,37.4,4.6,13.79,14.84,33.67,16,35.89C234.52,387.35,231.11,391.67,226,391.23Zm17.4,9.18c-2,1.88-15,14.11-19.11,14.53-.26,0-.43,0-.48-.12-.78-1.44,5.29-10,9.86-15.65l.18-.23-5.25-7.12a11.26,11.26,0,0,0,5.37-2.88Z"/><path class="cls-13" d="M369.71,279.4c0,1.31,1.23,2.4,3.15,3.32a29.83,29.83,0,0,0-2.79-6.78A20.77,20.77,0,0,0,369.71,279.4Z"/><path class="cls-16" d="M417.7,199.47a4,4,0,0,0,.05-4.53c-1.57-2.58-6.18-5.09-12.59-4.46l-2.23.21c-7.8.72-11.36,1.05-14.12,5.38-1.75,2.74-1.36,5.79-1,8.47.26,2,.5,3.89-.16,5.43a4.13,4.13,0,0,0,.51,4.58,1.37,1.37,0,0,0,1.61.3l.17.33a10.8,10.8,0,0,1-.83-5.42,1.81,1.81,0,0,1,1-1.4,1.61,1.61,0,0,1,1.27,0c.94.38,1.45,1.59,1.9,2.67.12.29.24.57.35.79.13-.39.27-1,.35-1.39a9.42,9.42,0,0,1,.28-1.09c.17-.46.75-.77,1.62-1.23,1.19-.64,2.82-1.5,3-2.79a13.09,13.09,0,0,0-.14-3c-.21-1.84-.38-3.29.4-3.77.6-.37,1.34.12,1.58.29,1.88,1.27,9,3.6,13.57,2.66A5.06,5.06,0,0,0,417.7,199.47Z"/><polygon points="418.95 308.32 419.92 308.24 419.78 306.5 418.81 306.5 418.95 308.32"/><path class="cls-17" d="M419.21,289c1.29,0,31.74-1.1,34.85-1.79,3.31-.73,10.82-6.63,13-8.58a7.19,7.19,0,0,0,2.41-7.31,1.49,1.49,0,0,0-.89-1.1c-2.33-1.05-8.52,1.81-10.07,2.71a4.82,4.82,0,0,1-.88.41,5.65,5.65,0,0,1,1.13-2.72c.32-.52.71-1.28.3-1.83-.53-.71-1.79-.41-3.82.14-1.19.32-2.66,2.52-4.76,5.83-1.26,2-2.82,4.45-3.49,4.66-1.53.48-18.42-2.3-19.94-3-.48-1.06-1.77-9.65-2.8-16.57-.87-5.84-1.78-11.87-2.37-14.78-1.23-6-8.33-8.54-12.56-10-.83-.3-1.55-.55-2.07-.78a3.72,3.72,0,0,1-2.33-3.63,7.28,7.28,0,0,0,2,.29,8.05,8.05,0,0,0,3.05-.61,7.08,7.08,0,0,0,4.6-6.32c.13-4.76,1.39-17.17,1.81-21.25l.11-1.05a5.12,5.12,0,0,0,1.94-1.71,5,5,0,0,0,.07-5.56c-2.1-3.47-7.66-5.48-13.51-4.92l-2.23.21c-7.88.73-11.84,1.1-14.85,5.82-1.94,3-1.52,6.27-1.16,9.12.25,1.95.46,3.63-.09,4.93a5.1,5.1,0,0,0,.74,5.67,2.32,2.32,0,0,0,2.67.48,7.86,7.86,0,0,0,1.21,2,4.75,4.75,0,0,0,.49.48c0,.13,1.2,9-4.32,11.53a22.65,22.65,0,0,1-6.57,1.46c-4.85.61-10.36,1.29-14.61,7.23-6.19,8.64-12.17,43.26-12.49,48.95-.19,3.38,8.4,6,19.89,8.65l-1.65,10.34,1,.15,1.64-10.28c1.81.41,3.69.82,5.62,1.24,3.92.85,7.31,1.58,8.83,2.12s3.14,1.25,4.86,2c3.79,1.67,7.69,3.39,11.07,3.39a8.16,8.16,0,0,0,2.27-.3c2.81-.81,11.35-3.28,10.39-10a3,3,0,0,0-1.18-2.06c-1.78-1.31-5-.79-7.86-.34-1.28.2-3.41.55-3.65.18,0-.86,1.56-1.33,2.79-1.71s2.15-.66,2.27-1.39c.1-.58-.4-1-.79-1.29-1.5-1.09-3-.89-5-.62a25.31,25.31,0,0,1-8,0c-1-.16-2.32-.33-3.73-.52-5.3-.7-13.64-1.81-18.64-3.82-.26-2.8-3-7.79-3.55-8.74,1.5-7.47,5.1-18.58,5.14-18.72l-.92-.3c-.24.74-5.89,18.17-5.83,24,.06,5.43,14.27,7.31,23.68,8.55,1.41.19,2.67.35,3.71.51a26.58,26.58,0,0,0,8.31,0c1.93-.27,3.11-.43,4.3.44a4.64,4.64,0,0,1,.4.34,5.66,5.66,0,0,1-1.6.64c-1.53.47-3.44,1.06-3.48,2.61a1,1,0,0,0,.34.8c.66.57,2,.39,4.44,0s5.68-.91,7.14.16a2,2,0,0,1,.8,1.42c.58,4-2.5,6.82-9.7,8.9-3.49,1-8.16-1.05-12.68-3-1.73-.76-3.36-1.48-4.93-2s-4.83-1.26-9-2.15c-9.68-2.09-25.89-5.6-25.69-9.1.32-5.64,6.22-39.94,12.31-48.44,4-5.59,9.06-6.22,13.94-6.83a23.33,23.33,0,0,0,6.86-1.54c5.3-2.43,5.14-9.59,4.95-11.85a1.79,1.79,0,0,0,.43.06h.14a2.14,2.14,0,0,0,1.63-1.12l-.39-.29-.42-.24c-.34.53-.67.66-.89.68-.48,0-1-.4-1.29-.76-1.33-1.49-2.44-5.34-2.05-7.1a1,1,0,0,1,.43-.72.64.64,0,0,1,.53,0c.56.23,1,1.34,1.37,2.15a8.17,8.17,0,0,0,.59,1.22.78.78,0,0,0,.8.43c.62-.12.84-1,1.15-2.41.09-.4.17-.77.23-.94a5.23,5.23,0,0,1,1.17-.73c1.37-.73,3.25-1.73,3.52-3.49a13.57,13.57,0,0,0-.14-3.22c-.11-1-.3-2.58-.08-2.82,0,0,.14,0,.56.26,1.89,1.27,9.24,3.83,14.3,2.81a8.63,8.63,0,0,0,1.09-.31l-.05.51c-.42,4.09-1.69,16.52-1.82,21.32a6.13,6.13,0,0,1-4,5.45,6.26,6.26,0,0,1-6.73-1,37.42,37.42,0,0,1-5.43-6.26l-.82.51a37.5,37.5,0,0,0,5.58,6.45,6.31,6.31,0,0,0,1.73,1.17,4.74,4.74,0,0,0,2.89,4.87c.56.24,1.29.5,2.14.81,4,1.44,10.82,3.86,11.94,9.33.59,2.88,1.49,8.9,2.36,14.73,2.08,13.9,2.61,16.79,3.14,17.18,1,.74,18.89,3.76,20.85,3.14,1-.31,2.15-2.12,4-5.07,1.46-2.3,3.27-5.17,4.22-5.42a9.37,9.37,0,0,1,2.75-.52s0,.19-.33.77c-.86,1.38-1.73,3.17-1,3.9.54.55,1.44.13,2.07-.24,2.26-1.32,7.59-3.38,9.18-2.67a.53.53,0,0,1,.34.41,6.22,6.22,0,0,1-2.1,6.4c-2.41,2.12-9.7,7.72-12.61,8.36S419.49,288,419.26,288a1.68,1.68,0,0,1-1-.68l-2.42-31.3-1,.07,3.89,50.37h1l-1.37-17.78A2.11,2.11,0,0,0,419.21,289Zm-49.5-9.6a20.77,20.77,0,0,1,.36-3.46,29.83,29.83,0,0,1,2.79,6.78C370.94,281.8,369.72,280.71,369.71,279.4Zm44.57-77.89c-4.6.94-11.68-1.39-13.57-2.66-.24-.16-1-.66-1.58-.29-.78.48-.61,1.93-.4,3.77a13.09,13.09,0,0,1,.14,3c-.2,1.28-1.83,2.15-3,2.79-.87.46-1.44.77-1.62,1.23a9.42,9.42,0,0,0-.28,1.09c-.08.38-.22,1-.35,1.39-.11-.22-.23-.5-.35-.79-.45-1.07-1-2.29-1.9-2.67a1.61,1.61,0,0,0-1.27,0,1.81,1.81,0,0,0-1,1.4,10.8,10.8,0,0,0,.83,5.42l-.17-.33a1.37,1.37,0,0,1-1.61-.3,4.13,4.13,0,0,1-.51-4.58c.65-1.54.41-3.43.16-5.43-.34-2.69-.73-5.73,1-8.47,2.76-4.32,6.32-4.65,14.12-5.38l2.23-.21c6.41-.62,11,1.88,12.59,4.46a4,4,0,0,1-.05,4.53A5.06,5.06,0,0,1,414.28,201.51Z"/><ellipse cx="404.94" cy="211.58" rx="0.69" ry="2.26"/><ellipse cx="412.25" cy="211.58" rx="0.69" ry="2.26"/><ellipse class="cls-1" cx="412.25" cy="211.58" rx="0.69" ry="2.26"/><ellipse class="cls-1" cx="404.94" cy="211.58" rx="0.69" ry="2.26"/><path class="cls-18" d="M406.9,235.16a4.74,4.74,0,0,1-2.89-4.87,6.31,6.31,0,0,1-1.73-1.17,37.5,37.5,0,0,1-5.58-6.45l.82-.51a37.42,37.42,0,0,0,5.43,6.26,6.26,6.26,0,0,0,6.73,1,6.13,6.13,0,0,0,4-5.45c.13-4.8,1.4-17.23,1.82-21.32l.05-.51a8.63,8.63,0,0,1-1.09.31c-5.06,1-12.41-1.53-14.3-2.81-.41-.28-.55-.26-.56-.26-.22.24,0,1.85.08,2.82a13.57,13.57,0,0,1,.14,3.22c-.27,1.76-2.15,2.76-3.52,3.49a5.23,5.23,0,0,0-1.17.73c-.06.17-.14.55-.23.94-.31,1.42-.53,2.29-1.15,2.41a.78.78,0,0,1-.8-.43,8.17,8.17,0,0,1-.59-1.22c-.34-.81-.81-1.92-1.37-2.15a.64.64,0,0,0-.53,0,1,1,0,0,0-.43.72c-.39,1.77.72,5.62,2.05,7.1.33.37.81.81,1.29.76.22,0,.55-.15.89-.68l.42.24.39.29a2.14,2.14,0,0,1-1.63,1.12h-.14a1.79,1.79,0,0,1-.43-.06c.19,2.26.35,9.42-4.95,11.85l-.39.16a50.51,50.51,0,0,0,20.53,4.86C407.64,235.47,407.23,235.31,406.9,235.16Zm5.35-25.85c.38,0,.69,1,.69,2.26s-.31,2.26-.69,2.26-.69-1-.69-2.26S411.86,209.32,412.25,209.32Zm-7.31,0c.38,0,.69,1,.69,2.26s-.31,2.26-.69,2.26-.69-1-.69-2.26S404.55,209.32,404.94,209.32Z"/><path class="cls-18" d="M468.56,271.51a.53.53,0,0,0-.34-.41c-1.59-.72-6.92,1.35-9.18,2.67-.63.37-1.53.8-2.07.24-.71-.73.16-2.53,1-3.9.36-.58.33-.77.33-.77a9.37,9.37,0,0,0-2.75.52c-.95.26-2.76,3.12-4.22,5.42-1.86,2.94-3.05,4.76-4,5.07S441,280,436,279.21a25.82,25.82,0,0,0-1.71,8.24c8.59-.37,17.95-.83,19.53-1.18,2.91-.64,10.2-6.24,12.61-8.36A6.22,6.22,0,0,0,468.56,271.51Z"/><path class="cls-1" d="M373.9,283.18c-.26-2.8-3-7.79-3.55-8.74,1.5-7.47,5.1-18.58,5.14-18.72l-.92-.3c-.24.74-5.89,18.17-5.83,24,0,3.6,6.32,5.64,13.3,7,.12-.31.25-.62.38-.93A48,48,0,0,1,373.9,283.18Z"/><path class="cls-1" d="M389.15,299.58c1.53.54,3.14,1.25,4.86,2,3.79,1.67,7.69,3.39,11.07,3.39a8.16,8.16,0,0,0,2.27-.3c2.81-.81,11.35-3.28,10.39-10a3,3,0,0,0-1.18-2.06c-1.78-1.31-5-.79-7.86-.34-1.28.2-3.41.55-3.65.18,0-.86,1.56-1.33,2.79-1.71s2.15-.66,2.27-1.39c.1-.58-.4-1-.79-1.29-1.5-1.09-3-.89-5-.62a25.31,25.31,0,0,1-8,0c-1-.16-2.32-.33-3.73-.52-2.83-.37-6.53-.87-10.12-1.55-.13.31-.26.62-.38.93,3.52.67,7.22,1.16,10.38,1.58,1.41.19,2.67.35,3.71.51a26.58,26.58,0,0,0,8.31,0c1.93-.27,3.11-.43,4.3.44a4.64,4.64,0,0,1,.4.34,5.66,5.66,0,0,1-1.6.64c-1.53.47-3.44,1.06-3.48,2.61a1,1,0,0,0,.34.8c.66.57,2,.39,4.44,0s5.68-.91,7.14.16a2,2,0,0,1,.8,1.42c.58,4-2.5,6.82-9.7,8.9-3.49,1-8.16-1.05-12.68-3-1.73-.76-3.36-1.48-4.93-2s-4.83-1.26-9-2.15l-.81-.18c0,.33,0,.65-.06,1l.67.15C384.24,298.31,387.63,299,389.15,299.58Z"/><path class="cls-18" d="M389.47,298.67c1.56.55,3.2,1.27,4.93,2,4.52,2,9.2,4.05,12.68,3,7.19-2.08,10.27-4.91,9.7-8.9a2,2,0,0,0-.8-1.42c-1.45-1.07-4.6-.57-7.14-.16s-3.78.57-4.44,0a1,1,0,0,1-.34-.8c0-1.55,1.95-2.14,3.48-2.61a5.66,5.66,0,0,0,1.6-.64,4.64,4.64,0,0,0-.4-.34c-1.19-.86-2.36-.7-4.3-.44a26.58,26.58,0,0,1-8.31,0c-1-.16-2.31-.33-3.71-.51-3.16-.42-6.85-.91-10.38-1.58a35.16,35.16,0,0,0-2.33,10l.81.18C384.64,297.41,387.89,298.11,389.47,298.67Z"/><path class="cls-19" d="M382,232l-.89.12c-4.89.61-9.94,1.24-13.94,6.83-6.1,8.5-12,42.8-12.31,48.44-.19,3.41,15.13,6.81,24.88,8.93a35.16,35.16,0,0,1,2.33-10c-7-1.33-13.26-3.37-13.3-7-.06-5.82,5.59-23.25,5.83-24l.92.3c0,.14-3.65,11.24-5.14,18.72.29.51,1.22,2.19,2.06,4.07,1.21-2,3.17-5.65,6.28-12.17C383.38,256.5,382.76,240.63,382,232Z"/><path class="cls-19" d="M406.59,248c.21.24,2.7-7,4.15-11.37L409,236l-1-.34a50.51,50.51,0,0,1-20.53-4.86,16.42,16.42,0,0,1-3.39.93L387.55,248S406.29,247.63,406.59,248Z"/><path class="cls-1" d="M414.92,256.13l.56,7.24a7.92,7.92,0,0,0,1.06,1.23l-.66-8.54Z"/><path class="cls-13" d="M412.45,237.27c-.58-.25-1.16-.47-1.71-.68-1.45,4.33-3.93,11.6-4.15,11.37s-19,0-19,0l-3.39-16.27c-.72.13-1.44.24-2.19.34.79,8.6,1.41,24.47-3.28,34.31-3.11,6.52-5.07,10.15-6.28,12.17a16.86,16.86,0,0,1,1.49,4.67,48,48,0,0,0,8.52,2.27c3.59.68,7.29,1.17,10.12,1.55,1.41.19,2.69.36,3.73.52a25.31,25.31,0,0,0,8,0c2-.28,3.49-.48,5,.62.38.28.88.72.79,1.29-.12.73-1.07,1-2.27,1.39s-2.77.86-2.79,1.71c.24.37,2.38,0,3.65-.18,2.85-.46,6.08-1,7.86.34a3,3,0,0,1,1.18,2.06c1,6.69-7.58,9.16-10.39,10a8.16,8.16,0,0,1-2.27.3c-3.38,0-7.28-1.72-11.07-3.39-1.71-.76-3.33-1.47-4.86-2s-4.91-1.27-8.83-2.12l-.67-.15-4.95-1.09-1.64,10.28h45.76l-3.33-43.13C411.4,257.58,411.85,244.34,412.45,237.27Z"/><path class="cls-19" d="M426.47,277.21c-.53-.39-1.06-3.28-3.14-17.18-.87-5.83-1.77-11.85-2.36-14.73-.84-4.11-4.86-6.49-8.53-8-.59,7.07-1,20.31,3,26.1l-.56-7.24,1-.07.66,8.54a6.09,6.09,0,0,0,1.27.94,6.09,6.09,0,0,1-1.27-.94l1.76,22.76a1.68,1.68,0,0,0,1,.68c.11,0,7.27-.26,15.06-.59a25.82,25.82,0,0,1,1.71-8.24C431.36,278.46,427,277.57,426.47,277.21Z"/><path class="cls-20" d="M274.4,259.06l-.13-1s.75-.11,1.89-.4v-.05h.21a24.58,24.58,0,0,0,11-6,4.63,4.63,0,0,1-1.65-2.53l.89-.39.06.19c.24,1.17,2.08,5,15.49,5.35l0,1c-.79,0-1.53-.05-2.24-.1.33,2.11,1.05,8.14-.52,13.45a8.74,8.74,0,0,0,6.08-3.87c2.57-3.89,2.74-10.09.46-17.45-3-9.8-9.93-14.37-20.55-13.57-4.57.34-10,3.61-13.45,8.13A19.55,19.55,0,0,0,268,257.64c1,5.21,2.86,8.77,5.62,10.59a7.48,7.48,0,0,0,4.56,1.26,36,36,0,0,1-2-10.79C275.17,259,274.5,259,274.4,259.06Z"/><path class="cls-21" d="M294,327.57a1.36,1.36,0,0,0,1-.42,2,2,0,0,0,.38-1.32c0-.26,1.18-18.15,1.3-19.71a1.21,1.21,0,0,0-1-1.33s-8.49-.69-10.21-.72h0c-1.24,0-1.33,1.61-1.33,1.68l-.29,6.4a14.61,14.61,0,0,1,6.75,3.82c1.7,2,.25,4.21-.91,6a9.36,9.36,0,0,0-1.16,2.16c-.39,1.41-.87,1.71-1.6,1.77-.21,0-.29,0-.42.18a3.18,3.18,0,0,1-1.77,1C286.61,327.21,292.34,327.64,294,327.57Z"/><path class="cls-22" d="M291.39,230.46a10,10,0,0,0-8-.61c-1.68.91-1,2.89-.77,3.33a13.87,13.87,0,0,1,2.68-.49,26.53,26.53,0,0,1,7.77.47A3.33,3.33,0,0,0,291.39,230.46Z"/><path class="cls-20" d="M282.88,229c1.72-.94,6.38-1.08,9,.65l.32.24c.55-.36,3.5-2.38,4.33-4.54a4.19,4.19,0,0,0-.68-3.55,7.13,7.13,0,0,0-5.38-3.33c-4.7-.42-6.81-.12-8.69,1.21a7.55,7.55,0,0,0-2.52,5.68,5.37,5.37,0,0,0,2.59,4.48A3,3,0,0,1,282.88,229Z"/><path class="cls-7" d="M296.54,272.32c3.89-5.62,2.69-15,2.32-17.29-5.64-.44-8.88-1.6-10.75-2.83a24.93,24.93,0,0,1-11,6.26c.1,2.79.79,12.19,5.55,16.26a8.34,8.34,0,0,0,7.09,1.77A9.82,9.82,0,0,0,296.54,272.32Zm-12.21-8.68c-.38,0-.69-1-.69-2.26s.31-2.26.69-2.26.69,1,.69,2.26S284.71,263.64,284.33,263.64Zm7.31,0c-.38,0-.69-1-.69-2.26s.31-2.26.69-2.26.69,1,.69,2.26S292,263.64,291.64,263.64Z"/><ellipse cx="284.33" cy="261.38" rx="0.69" ry="2.26"/><ellipse cx="291.64" cy="261.38" rx="0.69" ry="2.26"/><path class="cls-23" d="M341.1,340.89c-.48-3-9.36-22.42-18.53-37.84-8.51-14.31-11.28-14.48-18.69-15l-2.4-.17a7.46,7.46,0,0,1-5.31-2.59c-2.62-3.09-2.56-8-2.51-9.15a10.57,10.57,0,0,0,3.67-3.31,14.31,14.31,0,0,0,1.66-3.29,9.87,9.87,0,0,0,7.23-4.36c2.73-4.14,2.94-10.62.58-18.27-2.25-7.29-6.55-11.8-12.81-13.53a4.2,4.2,0,0,0-1-2.85c.93-.63,3.64-2.61,4.51-4.87a5.14,5.14,0,0,0-.76-4.41,8.1,8.1,0,0,0-6.12-3.78c-4.35-.38-7-.28-9.34,1.39a8.51,8.51,0,0,0-2.93,6.49,6.37,6.37,0,0,0,3.11,5.32,4.3,4.3,0,0,0,.2,2.76,23.47,23.47,0,0,0-10.53,7.73,20.5,20.5,0,0,0-4,16.63c1,5.49,3.06,9.27,6.06,11.24a8.46,8.46,0,0,0,4.65,1.42,6.86,6.86,0,0,0,.8,0,13.71,13.71,0,0,0,3.5,5,9,9,0,0,0,1.9,1.25c0,1.25-.26,6.23-2.9,9a6,6,0,0,1-4.43,1.83H274.9c-7.08,0-11.36,0-15,7S241,340,240.45,342.89a3.94,3.94,0,0,0-.07.74,7.36,7.36,0,0,0,2.93,5.64,5.19,5.19,0,0,0,3,.92,8.33,8.33,0,0,0,4.4-1.47c1.49-.94,3.67-2.28,6.17-3.82,4.06-2.5,7.89-4.87,11.24-7l-7.85,20.42,1,0,8.19-21.31c6.17-3.9,10.44-6.76,11-7.62a9.27,9.27,0,0,0,.81-1.77c.13-.36.29-.8.41-.85s.1,0,.36.07l.29.09h0c.18,1,1.24,1.07,1.88,1s7,.55,9.46.55h.43a2.31,2.31,0,0,0,1.73-.75,2.89,2.89,0,0,0,.61-2c0-.18,1.18-18.07,1.3-19.62a2.17,2.17,0,0,0-1.83-2.36c-.35,0-8.57-.7-10.31-.73h0c-1.72,0-2.25,1.7-2.29,2.61l-.29,6.25a3.23,3.23,0,0,0-1.55.07c-.8.33-1.87,2.13-3.95,5.89-1.09,2-2.59,4.68-3.07,4.93-.26.11-1.53.71-3.38,1.58l-3-17-1,.17,1,5.76-.06,0-7.67,16.21-12.2,5.85.42.87c.25-.12,25-12,26.19-12.49.69-.29,1.61-1.85,3.55-5.35,1.15-2.08,2.89-5.23,3.47-5.46,1.09-.44,6,1.21,8.16,3.67,1.14,1.31.3,2.84-1,4.87a9.84,9.84,0,0,0-1.28,2.42c-.29,1-.48,1-.74,1.06a1.39,1.39,0,0,0-1.1.54,3.39,3.39,0,0,1-3.39.5,1.39,1.39,0,0,0-1.12-.07c-.5.22-.69.74-.93,1.41a8.32,8.32,0,0,1-.72,1.59c-.79,1.29-15.41,10.3-23.27,15.14-2.5,1.54-4.68,2.88-6.18,3.82-2.44,1.53-4.63,1.73-6.32.58a6.16,6.16,0,0,1-2.46-5.4c.45-2.34,15.42-40.41,19.39-48.1,3.34-6.46,7.16-6.47,14.11-6.5h1.75a6.94,6.94,0,0,0,5.12-2.13c2.68-2.78,3.1-7.44,3.17-9.23a9.31,9.31,0,0,0,3.07.5,11.94,11.94,0,0,0,1.95-.17,12.11,12.11,0,0,0,2.72-.78c0,1.8.18,6.26,2.75,9.3a8.4,8.4,0,0,0,6,2.93l2.41.17c7.23.47,9.67.63,17.92,14.5,9.45,15.89,18,35,18.41,37.5.22,1.38-.33,5.65-2.86,7.08-2,1.13-4.94.15-8.45-2.84-10.25-8.73-20.44-22.7-22.26-25.67a18.92,18.92,0,0,1-1.75-5.29,17.72,17.72,0,0,0-1.7-5.12c-.29-.46-.38-.86-.25-1.1a.87.87,0,0,1,.78-.34h0a2.73,2.73,0,0,1,2.24,1.39c.43.73.81,1,1.26,1.06a.81.81,0,0,0,.69-.45c.47-.86.19-3.22-.88-5a9,9,0,0,0-3.78-3.07c-.76-.4-1.48-.79-1.64-1.16a.69.69,0,0,1,.24-.81c.51-.41,1.69-.48,3.33.67a20.9,20.9,0,0,1,5.59,5.12l0,0h0s-.86,2.39-1.41,3.63a4.14,4.14,0,0,1-.55.84,3.37,3.37,0,0,0-.54,3.93c.91,2.21,4.38,5.14,6.1,5.14h0a1,1,0,0,0,1-.64,5.21,5.21,0,0,0,.2-2.36,3.65,3.65,0,0,1,.3-2.27l-.81-.54a4.47,4.47,0,0,0-.46,2.87,4.41,4.41,0,0,1-.14,1.95s-.13,0-.41,0a10,10,0,0,1-4.92-4.5,2.42,2.42,0,0,1,.41-3,5,5,0,0,0,.67-1c.42-.95,1-2.48,1.27-3.24a26.1,26.1,0,0,0,3.15,2.45c1.43,1,2.79,1.93,3.12,2.82a4.88,4.88,0,0,1-.43,2.47c-.69,2.14-1.63,5.07.91,7.57,3.54,3.48,17.19,14.74,17.33,14.85l.62-.75c-.14-.11-13.76-11.34-17.27-14.79-2.11-2.08-1.34-4.47-.67-6.58a5.12,5.12,0,0,0,.42-3.1c-.44-1.17-1.84-2.15-3.47-3.28a19.28,19.28,0,0,1-3.75-3.09,21.8,21.8,0,0,0-5.78-5.29c-2.08-1.46-3.68-1.28-4.49-.63a1.64,1.64,0,0,0-.53,1.94c.29.69,1.08,1.11,2.08,1.64a8.21,8.21,0,0,1,3.4,2.72,6.29,6.29,0,0,1,.92,3.84,2.84,2.84,0,0,1-.33-.47,3.67,3.67,0,0,0-3.07-1.87h0a1.79,1.79,0,0,0-1.61.85,2,2,0,0,0,.28,2.07,17.14,17.14,0,0,1,1.58,4.83,19.6,19.6,0,0,0,1.87,5.57c.55.89,1.84,2.76,3.65,5.17l-.81,5.39L316.11,360l.94-.24-7.48-29.1.64-4.26c4.36,5.71,11.17,13.84,18,19.65,2.77,2.36,5.19,3.55,7.24,3.55a4.65,4.65,0,0,0,2.31-.59C340.78,347.27,341.36,342.57,341.1,340.89Zm-79.37-12,6.61-14,1.75,10Zm24.82-2.75c.13-.16.21-.17.42-.18.74-.06,1.21-.36,1.6-1.77a9.36,9.36,0,0,1,1.16-2.16c1.16-1.81,2.61-4.07.91-6a14.61,14.61,0,0,0-6.75-3.82l.29-6.4c0-.07.08-1.68,1.33-1.68h0c1.72,0,10.17.72,10.21.72a1.21,1.21,0,0,1,1,1.33c-.12,1.56-1.29,19.45-1.3,19.71a2,2,0,0,1-.38,1.32,1.36,1.36,0,0,1-1,.42c-1.71.07-7.44-.36-9.26-.5A3.18,3.18,0,0,0,286.55,326.11Zm6.47-93a26.53,26.53,0,0,0-7.77-.47,13.87,13.87,0,0,0-2.68.49c-.19-.44-.91-2.42.77-3.33a10,10,0,0,1,8,.61A3.33,3.33,0,0,1,293,233.16Zm-13.73-7.8a7.55,7.55,0,0,1,2.52-5.68c1.88-1.33,4-1.63,8.69-1.21a7.13,7.13,0,0,1,5.38,3.33,4.19,4.19,0,0,1,.68,3.55c-.83,2.16-3.78,4.17-4.33,4.54l-.32-.24c-2.65-1.73-7.31-1.59-9-.65a3,3,0,0,0-1,.84A5.37,5.37,0,0,1,279.3,225.36Zm-5.66,42.87c-2.76-1.82-4.65-5.38-5.62-10.59a19.55,19.55,0,0,1,3.85-15.86c3.48-4.52,8.88-7.79,13.45-8.13,10.62-.8,17.53,3.77,20.55,13.57,2.27,7.36,2.11,13.56-.46,17.45a8.74,8.74,0,0,1-6.08,3.87c1.57-5.31.85-11.34.52-13.45.71,0,1.46.08,2.24.1l0-1c-13.41-.34-15.25-4.18-15.49-5.35l-.06-.19-.89.39a4.63,4.63,0,0,0,1.65,2.53,24.58,24.58,0,0,1-11,6h-.21v.05c-1.14.29-1.87.39-1.89.4l.13,1c.09,0,.76-.11,1.78-.35a36,36,0,0,0,2,10.79A7.48,7.48,0,0,1,273.64,268.24Zm16.16,8.25a8.34,8.34,0,0,1-7.09-1.77c-4.76-4.07-5.45-13.48-5.55-16.26a24.93,24.93,0,0,0,11-6.26c1.86,1.24,5.11,2.39,10.75,2.83.36,2.27,1.57,11.68-2.32,17.29A9.82,9.82,0,0,1,289.8,276.49Z"/><polygon points="260.26 358.38 261.16 358.73 261.29 358.38 260.27 358.35 260.26 358.38"/><path class="cls-7" d="M340.14,341c-.25-1.58-3.7-9.66-8.57-19.39a30.89,30.89,0,0,0-7.15,4.18c5.19,4.46,11.72,9.84,11.81,9.92l-.62.75c-.14-.11-13.79-11.37-17.33-14.85-2.54-2.49-1.6-5.43-.91-7.57a4.88,4.88,0,0,0,.43-2.47c-.33-.89-1.69-1.83-3.12-2.82a26.1,26.1,0,0,1-3.15-2.45c-.28.76-.85,2.29-1.27,3.24a5,5,0,0,1-.67,1,2.42,2.42,0,0,0-.41,3,10,10,0,0,0,4.92,4.5c.28.07.39,0,.41,0a4.41,4.41,0,0,0,.14-1.95,4.47,4.47,0,0,1,.46-2.87l.81.54a3.65,3.65,0,0,0-.3,2.27,5.21,5.21,0,0,1-.2,2.36,1,1,0,0,1-1,.64h0c-1.71,0-5.19-2.93-6.1-5.14a3.37,3.37,0,0,1,.54-3.93,4.14,4.14,0,0,0,.55-.84c.55-1.24,1.4-3.61,1.41-3.63h0l0,0a20.9,20.9,0,0,0-5.59-5.12c-1.64-1.15-2.81-1.08-3.33-.67a.69.69,0,0,0-.24.81c.15.37.87.75,1.64,1.16a9,9,0,0,1,3.78,3.07c1.07,1.75,1.35,4.12.88,5a.81.81,0,0,1-.69.45c-.45,0-.83-.33-1.26-1.06a2.73,2.73,0,0,0-2.24-1.39h0a.87.87,0,0,0-.78.34c-.13.24,0,.64.25,1.1a17.72,17.72,0,0,1,1.7,5.12,18.92,18.92,0,0,0,1.75,5.29c1.82,3,12,16.94,22.26,25.67,3.51,3,6.43,4,8.45,2.84C339.82,346.7,340.36,342.43,340.14,341Z"/><path class="cls-7" d="M241.4,343.08a6.16,6.16,0,0,0,2.46,5.4c1.69,1.16,3.88,1,6.32-.58,1.5-.94,3.67-2.28,6.18-3.82,7.85-4.84,22.48-13.84,23.27-15.14a8.32,8.32,0,0,0,.72-1.59c.24-.66.43-1.19.93-1.41a1.39,1.39,0,0,1,1.12.07,3.39,3.39,0,0,0,3.39-.5,1.39,1.39,0,0,1,1.1-.54c.27,0,.46,0,.74-1.06a9.84,9.84,0,0,1,1.28-2.42c1.3-2,2.14-3.56,1-4.87-2.14-2.47-7.07-4.12-8.16-3.67-.57.24-2.31,3.38-3.47,5.46-1.94,3.5-2.86,5.07-3.55,5.35-1.22.51-25.94,12.37-26.19,12.49l-.42-.87,12.2-5.85,2.14-4.52a35.11,35.11,0,0,0-12.14-5.39C245.83,330.9,241.64,341.85,241.4,343.08Z"/><path class="cls-24" d="M321.73,303.55c-8.25-13.87-10.69-14-17.92-14.5l-2.41-.17c-.29,0-.58-.06-.85-.11-9.73,7-18.44,3.18-23.35-.34l-.54,0H274.9c-6.95,0-10.77,0-14.11,6.5-1.9,3.68-6.31,14.3-10.45,24.64A35.11,35.11,0,0,1,262.48,325L268,313.31l.06,0-1-5.76,1-.17,3,17c1.84-.87,3.12-1.47,3.38-1.58.48-.25,2-3,3.07-4.93,2.08-3.76,3.15-5.57,3.95-5.89a3.23,3.23,0,0,1,1.55-.07l.29-6.25c0-.91.57-2.61,2.29-2.61h0c1.75,0,10,.7,10.31.73a2.17,2.17,0,0,1,1.83,2.36c-.12,1.55-1.29,19.44-1.3,19.62a2.89,2.89,0,0,1-.61,2,2.31,2.31,0,0,1-1.73.75h-.43c-2.45,0-8.77-.49-9.46-.55s-1.7,0-1.88-1h0l-.29-.09c-.27-.11-.35-.08-.36-.07s-.28.5-.41.85a9.27,9.27,0,0,1-.81,1.77c-.53.87-4.8,3.72-11,7.62l-8.19,21.31L316.11,360l-7.53-29.29.81-5.39c-1.81-2.41-3.1-4.28-3.65-5.17a19.6,19.6,0,0,1-1.87-5.57,17.14,17.14,0,0,0-1.58-4.83,2,2,0,0,1-.28-2.07,1.79,1.79,0,0,1,1.61-.85h0a3.67,3.67,0,0,1,3.07,1.87,2.84,2.84,0,0,0,.33.47,6.29,6.29,0,0,0-.92-3.84,8.21,8.21,0,0,0-3.4-2.72c-1-.53-1.79-.95-2.08-1.64a1.64,1.64,0,0,1,.53-1.94c.81-.65,2.41-.82,4.49.63a21.8,21.8,0,0,1,5.78,5.29,19.28,19.28,0,0,0,3.75,3.09c1.63,1.13,3,2.11,3.47,3.28a5.12,5.12,0,0,1-.42,3.1c-.68,2.11-1.45,4.5.67,6.58,1.09,1.07,3.14,2.88,5.46,4.87a30.89,30.89,0,0,1,7.15-4.18C328.67,315.86,325.26,309.48,321.73,303.55Z"/><path class="cls-7" d="M300.55,288.78a8.21,8.21,0,0,1-5.12-2.82c-2.57-3-2.78-7.5-2.75-9.3a12.11,12.11,0,0,1-2.72.78,11.94,11.94,0,0,1-1.95.17,9.31,9.31,0,0,1-3.07-.5c-.06,1.79-.48,6.45-3.17,9.23a6.85,6.85,0,0,1-4.57,2.1C282.1,292,290.82,295.76,300.55,288.78Z"/><circle class="cls-13" cx="294.33" cy="307.03" r="0.76"/></g><circle class="cls-22" cx="320.22" cy="177.43" r="39.58"/><polyline class="cls-25" points="320.21 148.39 320.21 177.43 341.51 177.43"/></svg>