<svg id="Layer_1" data-name="Layer 1" xmlns="http://www.w3.org/2000/svg" viewBox="0 0 841.89 376.09"><defs><style>.cls-1,.cls-2{fill:#fbc8a5;}.cls-1{opacity:0.51;}</style></defs><title>Untitled-1</title><path class="cls-1" d="M0,189.29A282.33,282.33,0,0,0,166.14,0H0Z"/><path class="cls-2" d="M212.92,0H166.14A282.33,282.33,0,0,1,0,189.29V237.9a325.19,325.19,0,0,0,125-78.15A324.3,324.3,0,0,0,212.92,0Z"/><path class="cls-1" d="M841.89,160V0h-629A324.3,324.3,0,0,1,125,159.75,325.19,325.19,0,0,1,0,237.9V376.09H612.36A327.56,327.56,0,0,1,841.89,160Z"/><path class="cls-1" d="M660.62,376.09H841.89V207.19A282.43,282.43,0,0,0,660.62,376.09Z"/><path class="cls-2" d="M841.89,207.19V160A327.56,327.56,0,0,0,612.36,376.09h48.25A282.43,282.43,0,0,1,841.89,207.19Z"/></svg>